<svg xmlns="http://www.w3.org/2000/svg" width="50" height="50" viewBox="0 0 50 50">
  <g id="icon-instagram" transform="translate(-642 -5665.012)">
    <path id="Path_31" data-name="Path 31" d="M768.711,212.18a4.839,4.839,0,0,0-2.776-2.776,8.1,8.1,0,0,0-2.716-.5c-1.542-.07-2-.085-5.911-.085s-4.368.015-5.911.085a8.1,8.1,0,0,0-2.716.5,4.839,4.839,0,0,0-2.776,2.776,8.1,8.1,0,0,0-.5,2.716c-.07,1.543-.085,2.005-.085,5.911s.015,4.368.085,5.911a8.1,8.1,0,0,0,.5,2.716,4.839,4.839,0,0,0,2.776,2.776,8.1,8.1,0,0,0,2.716.5c1.542.07,2.005.085,5.911.085s4.369-.015,5.911-.085a8.1,8.1,0,0,0,2.716-.5,4.839,4.839,0,0,0,2.776-2.776,8.1,8.1,0,0,0,.5-2.716c.07-1.543.085-2.005.085-5.911s-.015-4.368-.085-5.911A8.1,8.1,0,0,0,768.711,212.18Zm-11.4,16.139a7.512,7.512,0,1,1,7.512-7.512A7.511,7.511,0,0,1,757.308,228.319Zm7.809-13.565A1.755,1.755,0,1,1,766.872,213,1.755,1.755,0,0,1,765.117,214.754Z" transform="translate(-90.309 5469.205)" fill="#fff"/>
    <ellipse id="Ellipse_1" data-name="Ellipse 1" cx="5.295" cy="5.295" rx="5.295" ry="5.295" transform="matrix(0.987, -0.16, 0.16, 0.987, 660.926, 5685.633)" fill="#fff"/>
    <path id="Path_32" data-name="Path 32" d="M748.655,187.154a25,25,0,1,0,25,25A25,25,0,0,0,748.655,187.154Zm15.164,31.29a11.211,11.211,0,0,1-.709,3.7,7.8,7.8,0,0,1-4.462,4.462,11.207,11.207,0,0,1-3.7.709c-1.627.074-2.147.092-6.29.092s-4.663-.017-6.29-.092a11.208,11.208,0,0,1-3.7-.709,7.8,7.8,0,0,1-4.462-4.462,11.2,11.2,0,0,1-.709-3.7c-.074-1.628-.092-2.147-.092-6.29s.017-4.663.092-6.29a11.2,11.2,0,0,1,.709-3.7,7.8,7.8,0,0,1,4.462-4.462,11.208,11.208,0,0,1,3.7-.709c1.627-.074,2.147-.092,6.29-.092s4.663.017,6.29.092a11.208,11.208,0,0,1,3.7.709,7.8,7.8,0,0,1,4.462,4.462,11.211,11.211,0,0,1,.709,3.7c.074,1.627.092,2.147.092,6.29S763.894,216.816,763.819,218.444Z" transform="translate(-81.655 5477.858)" fill="#fff"/>
  </g>
</svg>
