<svg xmlns="http://www.w3.org/2000/svg" width="50" height="50" viewBox="0 0 50 50">
  <path id="icon-pinterest" d="M968.2,187.154a25,25,0,0,0-10.036,47.9,21.961,21.961,0,0,1,.435-5.741c.48-2.03,3.217-13.622,3.217-13.622a9.6,9.6,0,0,1-.8-3.955c0-3.7,2.148-6.472,4.822-6.472,2.274,0,3.372,1.708,3.372,3.754,0,2.286-1.457,5.705-2.207,8.872a3.869,3.869,0,0,0,3.946,4.815c4.737,0,7.927-6.084,7.927-13.292,0-5.479-3.691-9.58-10.4-9.58A11.839,11.839,0,0,0,956.167,211.8a7.217,7.217,0,0,0,1.648,4.9,1.211,1.211,0,0,1,.359,1.393c-.12.46-.395,1.568-.509,2.006a.862.862,0,0,1-1.252.626c-3.493-1.426-5.12-5.251-5.12-9.551,0-7.1,5.99-15.617,17.868-15.617,9.546,0,15.827,6.907,15.827,14.321,0,9.807-5.452,17.134-13.489,17.134-2.7,0-5.238-1.459-6.108-3.116,0,0-1.452,5.76-1.759,6.872a20.925,20.925,0,0,1-2.516,5.356,25,25,0,1,0,7.085-48.975Z" transform="translate(-943.201 -187.154)" fill="#fff"/>
</svg>
