<svg xmlns="http://www.w3.org/2000/svg" width="50" height="50" viewBox="0 0 50 50">
  <path id="icon-twitter" d="M504.11,212.154a25,25,0,1,1,25,25A25,25,0,0,1,504.11,212.154Zm38.5-8.372a11.074,11.074,0,0,1-3.181.872,5.55,5.55,0,0,0,2.434-3.064,11.071,11.071,0,0,1-3.516,1.344,5.542,5.542,0,0,0-9.438,5.052,15.722,15.722,0,0,1-11.414-5.787,5.544,5.544,0,0,0,1.714,7.393,5.521,5.521,0,0,1-2.51-.692,5.545,5.545,0,0,0,4.442,5.5,5.548,5.548,0,0,1-2.5.095,5.542,5.542,0,0,0,5.172,3.846,11.133,11.133,0,0,1-8.2,2.294,15.75,15.75,0,0,0,24.23-13.986A11.251,11.251,0,0,0,542.607,203.782Z" transform="translate(-504.11 -187.154)" fill="#fff"/>
</svg>
