<svg width="96" height="96" viewBox="0 0 96 96" fill="none" xmlns="http://www.w3.org/2000/svg">
<g filter="url(#filter0_d_99_4702)">
<path d="M47.754 87.5363C71.7633 87.5363 91.2268 68.0729 91.2268 44.0636C91.2268 20.0542 71.7633 0.59082 47.754 0.59082C23.7447 0.59082 4.28125 20.0542 4.28125 44.0636C4.28125 68.0729 23.7447 87.5363 47.754 87.5363Z" fill="white"/>
<path d="M36.8173 6.87667C16.7955 12.2464 4.91734 32.828 10.287 52.8498C15.6567 72.8715 36.2383 84.7497 56.2537 79.3801C76.2755 74.0104 88.1537 53.4287 82.784 33.4133C77.4143 13.3915 56.8391 1.51336 36.8173 6.87667Z" fill="#2C7B7C"/>
<path d="M66.5798 58.5567C65.0019 58.3404 63.2078 58.2831 61.1465 58.2831C57.5073 58.2831 53.48 58.4485 49.6755 58.6076C49.0202 56.489 48.6448 50.3431 48.5366 49.9105C48.9184 49.3697 52.2839 49.3697 52.2839 48.1736C52.2839 47.4674 52.0676 47.3593 51.3042 46.5958C50.5407 46.4876 49.6755 46.4304 48.6957 46.4304H46.0872C42.9315 46.5958 42.3399 46.6467 41.7418 48.6571C41.9581 50.2859 45.4955 49.4715 45.9281 50.6676L45.5464 58.1113C45.4955 58.2768 45.2728 58.4358 44.8911 58.544C42.5562 58.4867 38.9679 58.4358 34.1836 58.4358C33.7509 58.544 32.9875 58.6521 31.8486 58.6521C31.3079 58.6521 30.6525 58.5949 30.0545 58.5949C28.693 58.5949 27.6114 59.0275 26.8989 59.0275C26.4662 59.0275 26.1354 58.5949 25.9191 57.7805C26.0272 57.3479 26.0845 56.9089 26.0845 56.419C26.0845 55.3311 25.4292 52.3408 25.4292 51.4756C25.4292 50.7694 25.5374 50.1141 25.8109 49.516C26.1354 49.3506 27.3315 49.0834 29.3992 48.7017C30.8689 48.4281 31.8423 47.7792 32.3322 46.634C33.6364 43.5929 41.4619 30.2705 43.1479 25.327C43.4214 25.1107 43.6886 25.0026 44.0704 25.0026C44.4521 25.0026 45.3746 25.2189 45.7564 25.2189C46.0299 25.2189 46.2462 25.168 46.4626 25.0535H47.7668C49.0711 25.0535 50.757 24.9962 52.7675 24.9453C52.9838 24.9962 53.2001 25.1616 53.4164 25.327C54.7779 29.2398 57.819 36.7408 62.5461 47.8873C63.036 48.5935 63.8504 48.8671 65.0465 48.8671C65.5364 48.8671 65.969 48.8098 66.3507 48.8098C68.3612 48.8098 68.1449 48.8671 68.4693 49.6242C68.4693 49.5669 68.6347 52.2899 68.902 57.666C68.7365 58.264 67.9794 58.5376 66.567 58.5376L66.5798 58.5567ZM49.0202 40.6217C49.0202 39.0439 47.4423 35.621 47.2833 35.621C46.5771 35.621 45.6546 39.6992 45.4319 40.838C45.4891 40.838 45.5973 41.0543 45.8136 41.3788C46.3544 41.487 46.9015 41.5442 47.3914 41.5442C47.9895 41.5442 48.4794 41.4933 48.9693 41.3279C49.0202 41.1116 49.0202 40.8953 49.0202 40.6217Z" fill="white"/>
</g>
<defs>
<filter id="filter0_d_99_4702" x="0.28125" y="0.59082" width="94.9453" height="94.9456" filterUnits="userSpaceOnUse" color-interpolation-filters="sRGB">
<feFlood flood-opacity="0" result="BackgroundImageFix"/>
<feColorMatrix in="SourceAlpha" type="matrix" values="0 0 0 0 0 0 0 0 0 0 0 0 0 0 0 0 0 0 127 0" result="hardAlpha"/>
<feOffset dy="4"/>
<feGaussianBlur stdDeviation="2"/>
<feComposite in2="hardAlpha" operator="out"/>
<feColorMatrix type="matrix" values="0 0 0 0 0 0 0 0 0 0 0 0 0 0 0 0 0 0 0.25 0"/>
<feBlend mode="normal" in2="BackgroundImageFix" result="effect1_dropShadow_99_4702"/>
<feBlend mode="normal" in="SourceGraphic" in2="effect1_dropShadow_99_4702" result="shape"/>
</filter>
</defs>
</svg>
