<svg width="91" height="91" viewBox="0 0 91 91" fill="none" xmlns="http://www.w3.org/2000/svg">
<g filter="url(#filter0_d_99_4714)">
<path d="M35.1448 2.00144C57.0498 -3.87085 79.5719 9.12707 85.4506 31.032C91.3229 52.937 78.3249 75.4591 56.42 81.3378C34.515 87.2101 11.9929 74.2122 6.11423 52.3072C0.241943 30.4022 13.2399 7.88009 35.1448 2.00144Z" fill="white"/>
<path d="M45.8904 77.1769C65.3425 77.1769 81.1115 61.4079 81.1115 41.9559C81.1115 22.5038 65.3425 6.73486 45.8904 6.73486C26.4384 6.73486 10.6694 22.5038 10.6694 41.9559C10.6694 61.4079 26.4384 77.1769 45.8904 77.1769Z" fill="#B1D9E6"/>
<path d="M62.572 54.3877C61.1024 57.2698 59.7472 58.0841 53.3851 58.0841C48.9824 58.0841 40.9406 57.976 29.1452 57.9187C28.9797 57.6451 28.8716 57.3779 28.8716 57.0471C28.9225 56.6144 28.9798 56.1755 28.9798 55.6856C28.9798 54.814 28.6553 51.881 28.6553 51.1175C28.6553 49.3234 28.7062 48.0764 31.5373 48.0764C34.9602 48.0764 34.5276 48.0255 34.852 47.2621C35.0175 46.1741 35.1256 44.978 35.1256 43.731C35.1256 43.2984 34.9093 40.6836 34.5276 35.8483C34.4194 35.6829 34.2031 35.5238 33.9295 35.3075C33.8786 35.3075 32.409 35.3584 29.6351 35.5238C29.4187 35.4729 29.2533 35.3075 29.2024 35.0912C29.2533 34.6586 29.2533 34.0605 29.2533 33.2971C29.2533 32.3173 29.2024 31.013 29.2024 29.4925C29.2024 27.482 29.2024 25.3634 30.2904 25.198C30.8884 25.198 33.9868 24.6572 35.9972 24.6572C37.6259 24.6572 39.3119 24.8736 41.2715 24.8736C43.3392 24.8736 50.732 24.4409 53.6077 24.4409C56.4834 24.4409 58.0676 24.8227 58.2839 24.8736C62.4702 25.8533 63.6091 31.8338 63.6091 34.2196C63.6091 36.8853 62.6293 38.8385 59.5882 40.3082C59.6963 41.3389 61.9804 42.2105 62.1967 42.5922C63.7745 44.1128 64.5316 46.0723 64.5316 48.4072C64.5316 49.2216 64.4234 50.036 64.2071 50.8503C63.1764 53.1852 62.6293 54.3304 62.5784 54.3813L62.572 54.3877ZM52.9524 36.7772C52.9524 35.4157 51.4319 34.6013 49.5805 34.5504C49.5805 34.9831 44.8534 33.8951 44.8534 36.2873C44.8534 36.4527 45.0697 37.3752 45.0697 38.2469C45.0697 38.4123 45.0697 38.5713 45.0188 38.7367L45.4005 39.1694C50.1276 39.0039 51.2156 38.7876 52.7361 37.5406C52.9015 37.3243 52.9524 37.0508 52.9524 36.7772ZM53.7159 46.2377C53.7159 44.0619 47.411 43.7374 46.6475 43.7374C45.5087 43.7374 45.1778 44.2782 45.1778 45.5315C45.1778 47.2175 45.1778 48.0319 45.2351 48.0319V47.9746C45.4005 48.2482 45.5596 48.4072 45.6168 48.4072C47.0865 48.4072 52.0299 48.6236 53.5505 46.9948C53.6586 46.7213 53.7159 46.4541 53.7159 46.2314V46.2377Z" fill="#2C7B7C"/>
</g>
<defs>
<filter id="filter0_d_99_4714" x="0.703613" y="0.59082" width="90.1577" height="90.1575" filterUnits="userSpaceOnUse" color-interpolation-filters="sRGB">
<feFlood flood-opacity="0" result="BackgroundImageFix"/>
<feColorMatrix in="SourceAlpha" type="matrix" values="0 0 0 0 0 0 0 0 0 0 0 0 0 0 0 0 0 0 127 0" result="hardAlpha"/>
<feOffset dy="4"/>
<feGaussianBlur stdDeviation="2"/>
<feComposite in2="hardAlpha" operator="out"/>
<feColorMatrix type="matrix" values="0 0 0 0 0 0 0 0 0 0 0 0 0 0 0 0 0 0 0.25 0"/>
<feBlend mode="normal" in2="BackgroundImageFix" result="effect1_dropShadow_99_4714"/>
<feBlend mode="normal" in="SourceGraphic" in2="effect1_dropShadow_99_4714" result="shape"/>
</filter>
</defs>
</svg>
