<svg width="91" height="91" viewBox="0 0 91 91" fill="none" xmlns="http://www.w3.org/2000/svg">
<g filter="url(#filter0_d_99_4725)">
<path d="M56.4598 2.00308C78.3839 7.88173 91.3945 30.4229 85.5159 52.347C79.6372 74.2711 57.096 87.2817 35.1719 81.4031C13.2479 75.5244 0.237224 52.9832 6.11588 31.0592C11.9945 9.13509 34.5357 -3.87557 56.4598 2.00308Z" fill="white"/>
<path d="M35.5917 75.9189C16.6769 70.8355 5.46043 51.3799 10.5502 32.4588C14.2466 18.7102 25.8067 8.50523 39.9053 6.53931C59.3099 3.84811 77.2194 17.3995 79.9043 36.7978C82.5955 56.2025 69.044 74.112 49.6458 76.7968C44.9505 77.4521 40.1725 77.1531 35.5917 75.9125V75.9189Z" fill="#CA6B38"/>
<path d="M56.2496 40.2271C55.4353 40.2271 54.6718 40.1762 54.1819 40.1762C52.5532 40.1762 51.408 40.1189 50.6509 40.068C50.161 39.5782 50.161 37.8413 49.9447 37.4023C48.914 35.3918 47.1199 34.4121 44.6705 34.4121C41.0313 34.4121 37.8757 37.2942 37.8757 42.1294C37.8757 45.934 40.3187 48.3834 42.7109 49.2487C44.6132 49.5223 45.6439 49.6813 45.9174 49.6813C49.0158 49.6813 50.6445 46.5829 50.6445 44.2989C50.6445 44.0826 50.5873 43.9172 50.5873 43.7581C51.0199 43.4845 51.1853 43.3764 51.1853 43.3255C51.2362 43.3255 52.7631 43.2173 55.6388 43.2173C56.8858 43.2173 57.9229 43.3827 58.7372 43.65C59.2271 44.3562 59.5007 45.2278 59.5007 46.2076C59.5007 47.6772 58.7372 49.8467 57.9801 52.0798C55.3716 55.2864 53.3612 58.6011 49.8302 58.6011C45.8093 59.091 43.5762 59.3645 43.1435 59.3645C41.782 59.3645 40.5859 59.1991 39.5553 58.8238C35.9161 56.6479 33.7402 55.2355 32.9768 54.6374C29.064 51.5391 29.6048 49.9104 27.9761 44.5788C27.5435 43.1092 27.3208 41.8622 27.3208 40.9397C27.3208 38.6048 28.8414 35.3982 29.8211 32.8406C30.6928 30.722 31.997 29.1442 33.5748 28.1135C35.2608 26.0458 36.1833 25.6132 41.8902 24.7988C42.431 24.6907 42.9781 24.6334 43.468 24.6334C46.2419 24.6334 48.6341 25.6641 50.6445 27.7318C50.969 27.5155 51.1344 27.191 51.1344 26.7011C51.1344 26.4848 51.0263 25.7786 51.0263 25.505C51.0263 24.5253 51.6243 24.4744 52.655 24.4744C54.6654 24.4744 57.7129 24.907 58.3619 24.907C58.7436 25.3969 58.9027 26.154 58.9027 27.0829C58.9027 27.8972 58.7372 28.8197 58.7372 29.475C58.7372 30.0731 58.7881 30.563 58.9027 30.9447V31.5427C58.9027 33.0633 59.2844 36.4353 59.2844 37.1924C59.2844 38.1149 59.1762 38.9865 59.0108 39.7499C58.4128 40.1317 57.2739 40.2398 56.2369 40.2398L56.2496 40.2271Z" fill="white"/>
</g>
<defs>
<filter id="filter0_d_99_4725" x="0.703613" y="0.59082" width="90.2246" height="90.2246" filterUnits="userSpaceOnUse" color-interpolation-filters="sRGB">
<feFlood flood-opacity="0" result="BackgroundImageFix"/>
<feColorMatrix in="SourceAlpha" type="matrix" values="0 0 0 0 0 0 0 0 0 0 0 0 0 0 0 0 0 0 127 0" result="hardAlpha"/>
<feOffset dy="4"/>
<feGaussianBlur stdDeviation="2"/>
<feComposite in2="hardAlpha" operator="out"/>
<feColorMatrix type="matrix" values="0 0 0 0 0 0 0 0 0 0 0 0 0 0 0 0 0 0 0.25 0"/>
<feBlend mode="normal" in2="BackgroundImageFix" result="effect1_dropShadow_99_4725"/>
<feBlend mode="normal" in="SourceGraphic" in2="effect1_dropShadow_99_4725" result="shape"/>
</filter>
</defs>
</svg>
