<svg width="91" height="91" viewBox="0 0 91 91" fill="none" xmlns="http://www.w3.org/2000/svg">
<g filter="url(#filter0_d_99_4738)">
<path d="M56.4598 2.00308C78.3839 7.88173 91.3945 30.4229 85.5159 52.347C79.6372 74.271 57.096 87.2817 35.1719 81.4031C13.2479 75.5244 0.237224 52.9832 6.11588 31.0592C11.9945 9.13511 34.5357 -3.87557 56.4598 2.00308Z" fill="white"/>
<path d="M11.1991 32.3251C16.2697 13.4104 35.7125 2.18748 54.6273 7.25814C73.542 12.3288 84.7649 31.7716 79.6943 50.6864C74.6236 69.6011 55.1808 80.824 36.266 75.7534C17.3513 70.6827 6.1284 51.2399 11.1991 32.3251Z" fill="#4DBBBB"/>
<path d="M65.4943 42.0913C65.4943 44.1017 64.8453 46.9266 63.4838 50.5721C61.5815 54.1031 57.7769 58.3976 53.6988 58.3976C50.0024 58.3976 42.4504 57.9649 40.9808 57.9649C39.0212 57.9649 37.4498 58.1813 35.5475 58.1813C33.6452 58.1813 31.3612 57.8568 29.1344 57.6914C28.9181 57.475 28.8608 57.2587 28.8608 57.036C28.8608 57.0933 28.9117 56.3299 28.9117 52.2517C28.9117 50.4003 29.0199 48.8797 29.2935 47.7409C29.6752 47.5755 30.1651 47.5246 30.7059 47.5246C31.3039 47.5246 32.7163 47.69 33.3144 47.69C34.784 47.69 35.2739 47.2574 35.2739 45.7877C35.2739 45.5714 35.0003 44.1017 35.0003 42.5239C35.0003 41.2769 35.3248 40.2399 35.3248 38.8848C35.3248 37.8541 35.3757 35.1883 34.2369 34.9148C31.7938 34.9148 30.375 34.9148 29.8915 34.972L29.2935 34.4312C29.2935 34.3231 29.3444 31.3901 29.5098 25.6832C30.2732 24.9198 37.8824 24.5444 43.8056 24.5444C45.8733 24.5444 49.1307 24.9771 49.786 24.9771C50.3841 24.9771 50.9249 24.9198 51.4148 24.8689C58.4831 24.9198 62.1796 27.9673 63.8083 34.2722C64.6799 37.7523 65.1698 39.6546 65.3288 40.0363C65.437 40.7425 65.4943 41.3978 65.4943 42.104V42.0913ZM47.4511 34.533C46.8531 34.533 46.3123 34.7494 45.9306 35.1883C45.9306 36.9252 45.7651 39.4828 45.4407 42.8548C45.4407 43.561 45.2244 45.5205 45.2244 46.3349C45.2244 47.2574 45.3898 48.0718 45.7142 48.6698C46.5286 48.7207 47.2921 48.7779 47.941 48.7779C53.4825 48.7779 55.0094 44.4326 55.0094 41.4424C55.0094 40.4117 54.7931 39.4828 54.3541 38.6684C53.1071 35.9518 50.7149 34.5394 47.4511 34.5394V34.533Z" fill="white"/>
</g>
<defs>
<filter id="filter0_d_99_4738" x="0.703613" y="0.59082" width="90.2246" height="90.2246" filterUnits="userSpaceOnUse" color-interpolation-filters="sRGB">
<feFlood flood-opacity="0" result="BackgroundImageFix"/>
<feColorMatrix in="SourceAlpha" type="matrix" values="0 0 0 0 0 0 0 0 0 0 0 0 0 0 0 0 0 0 127 0" result="hardAlpha"/>
<feOffset dy="4"/>
<feGaussianBlur stdDeviation="2"/>
<feComposite in2="hardAlpha" operator="out"/>
<feColorMatrix type="matrix" values="0 0 0 0 0 0 0 0 0 0 0 0 0 0 0 0 0 0 0.25 0"/>
<feBlend mode="normal" in2="BackgroundImageFix" result="effect1_dropShadow_99_4738"/>
<feBlend mode="normal" in="SourceGraphic" in2="effect1_dropShadow_99_4738" result="shape"/>
</filter>
</defs>
</svg>
