<svg xmlns="http://www.w3.org/2000/svg" width="152.411" height="121.543" viewBox="0 0 152.411 121.543">
  <path id="email" d="M316.864,7.371H194.272a14.927,14.927,0,0,0-14.91,14.91V114a14.927,14.927,0,0,0,14.91,14.91H316.864A14.926,14.926,0,0,0,331.773,114V22.281a14.927,14.927,0,0,0-14.909-14.91m-122.592,14H316.864a.911.911,0,0,1,.909.91v5.241l-62.19,36.1-62.221-36.1v-5.24a.911.911,0,0,1,.91-.91m122.592,93.543H194.272a.911.911,0,0,1-.91-.91v-70.3l62.223,36.1,62.188-36.1V114a.911.911,0,0,1-.909.91" transform="translate(-179.362 -7.371)" fill="#68b8ba"/>
</svg>
