<svg xmlns="http://www.w3.org/2000/svg" width="125.74" height="117.3" viewBox="0 0 125.74 117.3">
  <path id="guide" d="M460.5,6.847a25.142,25.142,0,0,0-25.142,25.142V85.526a8.723,8.723,0,0,1-17.446,0V31.176A25.142,25.142,0,0,0,392.766,6.033H363.761V93.551A15.748,15.748,0,0,0,379.509,109.3h26.505A11.491,11.491,0,0,1,417.5,120.79v.813a1.729,1.729,0,0,0,1.73,1.73h14.794a1.729,1.729,0,0,0,1.73-1.73,11.491,11.491,0,0,1,11.491-11.49h26.5A15.748,15.748,0,0,0,489.5,94.364V6.847Z" transform="translate(-363.761 -6.033)" fill="#68b8ba"/>
</svg>
