<svg xmlns="http://www.w3.org/2000/svg" width="146.545" height="139.664" viewBox="0 0 146.545 139.664">
  <path id="starfish" d="M75.29,38.9,114.74.838A2.905,2.905,0,0,1,119.369,4.2L95.364,53.48a2.906,2.906,0,0,0,1.246,3.837L145,83.076a2.9,2.9,0,0,1-1.768,5.441l-54.286-7.6a2.906,2.906,0,0,0-3.264,2.371l-9.545,53.978a2.905,2.905,0,0,1-5.722,0L60.867,83.286A2.906,2.906,0,0,0,57.6,80.915l-54.286,7.6a2.9,2.9,0,0,1-1.768-5.441L49.936,57.317a2.906,2.906,0,0,0,1.246-3.837L27.177,4.2A2.905,2.905,0,0,1,31.806.838L71.256,38.9a2.9,2.9,0,0,0,4.034,0" transform="translate(0 0)" fill="#68b8ba"/>
</svg>
