<svg xmlns="http://www.w3.org/2000/svg" xmlns:xlink="http://www.w3.org/1999/xlink" width="2425" height="62.991" viewBox="0 0 2425 62.991">
  <defs>
    <clipPath id="clip-path">
      <rect id="Rectangle_572" data-name="Rectangle 572" width="1440" height="62.991" fill="#b0d9e6"/>
    </clipPath>
  </defs>
  <g id="bottom-wave" transform="translate(453 -6884.022)">
    <g id="Group_1912" data-name="Group 1912" transform="translate(-453 6884.022)">
      <g id="Group_1911" data-name="Group 1911" transform="translate(0 0)" clip-path="url(#clip-path)">
        <path id="Path_57123" data-name="Path 57123" d="M1001.161,51.922c-1.134.2-2.284.311-3.662.488.381-2.287,1.912-2.2,3.4-2.112.583.033,1.474-.279,1.6.583.114.8-.741.934-1.338,1.041" transform="translate(0 -39.684)" fill="#b0d9e6"/>
        <path id="Path_57124" data-name="Path 57124" d="M963.374,53.721h0c-1.257.22.129,2.77-1.954,2.237-3.393-.867-6.729-2.072-10.34-1.387a1.272,1.272,0,0,1-1.645-1.066,1.227,1.227,0,0,1,1.411-1.329c3.644.524,7.224-1.178,10.862-.244a13.124,13.124,0,0,1,5.423.865l-3.756.924h0" transform="translate(0 -44.689)" fill="#b0d9e6"/>
        <path id="Path_57125" data-name="Path 57125" d="M1013.769,52.907h0c-.74.542-.831,2.362-2.432,1.206-1.121-.81.389-1.115.3-1.719.57-.815.89-2.2,2.337-1.207.908.621.9,1.272-.208,1.72" transform="translate(0 -42.342)" fill="#b0d9e6"/>
        <path id="Path_57126" data-name="Path 57126" d="M934.8,51.9c.006-.467.421-.5.764-.5.309,0,.715-.107.783.562a3.392,3.392,0,0,1-.808.413c-.342.078-.745,0-.739-.472" transform="translate(0 -40.794)" fill="#b0d9e6"/>
        <path id="Path_57127" data-name="Path 57127" d="M992.975,51.351c.065-.191.386-.294.59-.438a1.777,1.777,0,0,1,.356,1.711c-.752-.147-1.217-.477-.946-1.273" transform="translate(0 -40.546)" fill="#b0d9e6"/>
        <path id="Path_57128" data-name="Path 57128" d="M207.238,50.633c.006-.467.421-.5.764-.5.309,0,.715-.107.783.562a3.392,3.392,0,0,1-.808.413c-.342.078-.745,0-.739-.472" transform="translate(0 -38.262)" fill="#b0d9e6"/>
        <path id="Path_57129" data-name="Path 57129" d="M0,62.992V9.06L1.139,9h0l.968-.172a31.892,31.892,0,0,0,3.276-.082c1.364-.167.593.908.888,1.352a41.584,41.584,0,0,0,7.177.573,2.9,2.9,0,0,1,2.2-.552c1.192-.571,2.4-1.106,3.569-1.728.713-.381,1.22-1.5,2.223-.48h0l2.593.156c1.327.121,2.725-.513,3.98.373,2.76-.227,5.461-.054,8.2-1.382A7.272,7.272,0,0,1,42.4,6.885l7.125-.026c1.727-.127,3.452-.332,5.181-.368,7.712-.159,15.419-1.045,23.137-.148L81.6,6.3a76.625,76.625,0,0,1,13.906.13h0l1.12.158h0c1.671.869,3.25-.581,4.9-.193h0a6.764,6.764,0,0,1,3.565-.111v0a16.788,16.788,0,0,1,5.739-.134c.709-.461,1.351.092,2.025.135l-.408.24a.526.526,0,0,0,.409-.24c2.5.115,4.992.59,7.495.06,1.873-.17,3.723-.723,5.63-.337,1.835.052,3.679.007,5.5.176,4.121.381,8.186-.915,12.3-.338a3.646,3.646,0,0,1,2.873.334h0a.413.413,0,0,1,.429.154,20.111,20.111,0,0,0,4.331.485c4.3.257,8.48-.943,12.753-.933l1.738.327a18.969,18.969,0,0,1,3.739.487c3.5,1.169,7.4-.134,10.747,1.828a54.708,54.708,0,0,0,6.271-.229,9.443,9.443,0,0,1,5.046.424c.933.378,2.174.933,2.156,1.857-.024,1.179-1.495.959-2.381,1.264-.77.666-1.646.4-2.5.288a1.171,1.171,0,0,1,.257.37,1.293,1.293,0,0,1,1.6.877l.137-.044c.656-.017,1.109.433,1.635.714,6.753,3.128,13.67.9,20.527.634-.444-1.008-1.828-.246-2.291-1.217q-.037-1.07-.076-2.14l-.539-.543c-1.276.349-1.918-1.34-3.193-.994a3.432,3.432,0,0,1-3.328.192c-1.066-.458-.212-.815.448-.9,2.964-.8,5.912.322,8.871.071.8,0,1.594-.021,2.391,0,2.619.067,2.477,1.182,1.039,2.775q0,.489-.007.977a3.571,3.571,0,0,0,1.048,1.447,53.864,53.864,0,0,0,7.279-1.059,35.276,35.276,0,0,1,9.066-.751c-3.392-.868-6.728-2.072-10.338-1.387a1.272,1.272,0,0,1-1.645-1.066,1.227,1.227,0,0,1,1.41-1.329c3.644.524,7.225-1.178,10.863-.245a13.145,13.145,0,0,1,5.423.866l-3.756.924h0c-1.006.177-.323,1.842-1.077,2.227A35.771,35.771,0,0,0,239.8,12.2h0v0a8.8,8.8,0,0,1,5.218-.1l5.467-.447c2.144-1.246,4.487-.39,6.714-.52a95.73,95.73,0,0,1,24.264,1.606l2,0c-.45-.6.687-.9.612-1.43.57-.815.89-2.2,2.338-1.207.907.621.894,1.271-.209,1.72h0a3.224,3.224,0,0,0-.671.922l2.589.006a11.124,11.124,0,0,1,3.907-.009c.969.076,2-.191,2.859.494h0l2.011.274a16.164,16.164,0,0,0,5.247-.168c2.709-1.051,7.066-1.183,8.289-.34a6.009,6.009,0,0,1,1.026.477l.055,0a10.282,10.282,0,0,1,3.808-.215,3.189,3.189,0,0,1,2.3-.355h0c6.756-.7,13.525.467,20.282-.15h0l5.665-.439c2.947-.331,5.958.352,8.868-.565.159.061.315.129.47.2a5.239,5.239,0,0,0,2.41.058,48.928,48.928,0,0,1,8.686-.481,7.591,7.591,0,0,1,5.635.067,16.6,16.6,0,0,1,6.048.567l.231-.071.221.1.638-.194c2.757-.914,5.575.083,8.351-.267,2.539-.1,5.074-.5,7.62-.105l.653-.192c.87-.609,1.854-.249,2.786-.328l1.462-.232a38.176,38.176,0,0,1,10.318-.069,2.421,2.421,0,0,1,1.19.226h0l6.256.988,3.135.163h0c1.2-.458,2.493.553,3.669-.241,1.748-.747,3.4-.121,5.073.337a4.24,4.24,0,0,1,2.459.259l6.31.379c.821.031,1.7-.365,2.43.33l.878-.013a6.364,6.364,0,0,1,4.969-.205c2.063.618,4.184-.127,6.256.267l1.74-.371h0l4.381-.8a1.93,1.93,0,0,1,1.709-.313c1.481-.216,2.966-.489,4.354.372l8.384-.916,7.162-.245c7.662.81,15.345.513,23.024.419.9-.148,1.793-.679,2.693,0,6.05.331,12.094.5,18.092-.636A8.711,8.711,0,0,1,525.4,9.773c1.909-1.192,4.026-.541,6.055-.68a3.365,3.365,0,0,1,2.814-.817c2.953.052,5.906.115,8.86.173L549.7,7.7l.765-.306h0c2.908.247,5.255-1.9,8.1-1.9l2.307-.941,2.889-.505c1.614.1,3.284-.567,4.841.346h0a17.2,17.2,0,0,0,3.236.256c5.773-.609,11.639.193,17.358-1.17l2.142-.1a5.167,5.167,0,0,1,1.748-.655c5.555.147,11.03-1.02,16.576-.975l4.995-.5a163.582,163.582,0,0,1,18.6-.882c.856-.291,1.712-.655,2.563.011h0l-.077.132a.385.385,0,0,0,.249.259L635.746.51a3.435,3.435,0,0,1,2.191.172l2.118.171c4.148.623,8.375.729,12.434,1.92h0a4.788,4.788,0,0,1,3.207-.48,16.958,16.958,0,0,1,7.76.58l2.748.036c.757-.137,1.359-.856,2.223-.6a2.059,2.059,0,0,1,1.64-.089c3.065-.866,5.245,1.321,7.786,2.26,1.533.138,1.707.743.627,1.8s-1.168,2.123-.018,3.192l0,0,1.953-.081h0c.188-.476.611-.523,1.036-.57.831-1.148-.453-1.888-.691-2.957l2.977.188h0c.508-.754,1.225-.44,1.894-.372q2.329.1,4.664.2c.8-.389,1.576-.573,2.266.209l1.11.557c.981-.914,1.862-.7,2.681.237,1.272-.3,1.33.477,1.243,1.39.649.91,1.582.468,2.414.505a1.833,1.833,0,0,1,.429-.116,4.813,4.813,0,0,1,2.415-.273h0c.718.039,1.439-.41,2.155.013l3.942.059,3.246-.039.569-.138a4.2,4.2,0,0,1,2.722.548h0l.05.057c1.1-1.4,2.46-.577,3.686-.318.334.071-.141.6-.334.879q.245.527.49,1.053l1.729.118q.554-.588,1.106-1.175c-.308-.277-.924-.668-.871-.811.227-.612.833-.413,1.338-.364.727-.315,1.617.17,2.28-.462l.6.08,3.134-.153.968-.172a31.892,31.892,0,0,0,3.276-.082c1.364-.167.593.908.888,1.352a41.584,41.584,0,0,0,7.177.573,2.9,2.9,0,0,1,2.2-.552c1.192-.571,2.4-1.106,3.569-1.728.713-.381,1.22-1.5,2.223-.481h0l2.593.156c1.327.121,2.724-.513,3.98.373,2.76-.227,5.461-.054,8.2-1.382a7.272,7.272,0,0,1,6.192-.178l7.125-.027c1.727-.126,3.452-.331,5.181-.367,7.711-.159,15.419-1.045,23.137-.148l3.749-.042a76.716,76.716,0,0,1,13.906.129h0l1.12.159h0c1.671.869,3.25-.581,4.9-.193h0a6.774,6.774,0,0,1,3.565-.112v0a16.788,16.788,0,0,1,5.739-.134c.709-.461,1.351.092,2.025.135l-.409.24a.526.526,0,0,0,.41-.24c2.5.115,4.992.589,7.495.06,1.873-.17,3.723-.723,5.63-.337,1.835.052,3.679.007,5.5.176,4.121.381,8.186-.915,12.305-.338a3.646,3.646,0,0,1,2.873.334h0a.413.413,0,0,1,.429.154,20.174,20.174,0,0,0,4.331.485c4.3.257,8.48-.943,12.752-.933l1.739.327a18.968,18.968,0,0,1,3.739.487c3.5,1.169,7.4-.134,10.747,1.827h0a54.483,54.483,0,0,0,6.271-.228,9.443,9.443,0,0,1,5.046.424c.933.378,2.174.933,2.155,1.857-.023,1.179-1.494.959-2.381,1.264-.769.666-1.645.4-2.5.288a1.171,1.171,0,0,1,.257.37,1.293,1.293,0,0,1,1.6.877l.137-.044c.656-.017,1.109.433,1.635.714,6.752,3.128,13.67.9,20.527.634-.444-1.008-1.828-.246-2.291-1.217q-.038-1.07-.076-2.14l-.539-.543c-1.276.349-1.918-1.34-3.194-.994a3.432,3.432,0,0,1-3.327.192c-1.066-.458-.212-.815.448-.9,2.964-.8,5.912.322,8.871.071.8,0,1.594-.021,2.39,0,2.62.067,2.478,1.181,1.04,2.775q0,.489-.007.977h0a3.706,3.706,0,0,0,2.387,2.169,39.658,39.658,0,0,0,5.83-.335l0,0v0a8.81,8.81,0,0,1,5.218-.095l5.467-.447c2.144-1.246,4.487-.39,6.714-.52a95.73,95.73,0,0,1,24.264,1.606l6.656.015a11.129,11.129,0,0,1,3.908-.009c.968.076,2-.191,2.858.494h0l2.011.274c3.194.63,6.343-.85,9.537-.2l5.08.174a10.283,10.283,0,0,1,3.808-.215,3.194,3.194,0,0,1,2.3-.355h0c1-.1,2-.157,3-.191l.1-.015a1.4,1.4,0,0,0,.625-1.258h-5.33c2.326-1.616,8.107-1.968,9.545-.977a3.888,3.888,0,0,1,2.348,1.8,5.514,5.514,0,0,0,.9.575,71.082,71.082,0,0,0,9.1-.081h0l5.665-.439c2.947-.331,5.958.352,8.868-.565.159.061.315.129.47.2a5.238,5.238,0,0,0,2.41.058,48.928,48.928,0,0,1,8.686-.481h0a7.591,7.591,0,0,1,5.635.067,16.606,16.606,0,0,1,6.049.567l.23-.071.221.1.638-.194c2.757-.914,5.576.083,8.351-.267,2.539-.1,5.074-.5,7.62-.1l.653-.192c.87-.609,1.854-.249,2.786-.328l1.462-.232a38.176,38.176,0,0,1,10.318-.069,2.42,2.42,0,0,1,1.19.226h0l6.256.988,3.135.163h0c1.2-.458,2.493.553,3.669-.24,1.748-.748,3.405-.121,5.074.336a4.245,4.245,0,0,1,2.458.259l6.31.379c.821.031,1.7-.365,2.43.33l.878-.013a6.364,6.364,0,0,1,4.969-.205c2.063.618,4.184-.127,6.256.267l1.74-.371h0l4.381-.8a1.93,1.93,0,0,1,1.709-.313c1.481-.215,2.966-.488,4.354.372l8.384-.916,7.162-.245h0c7.662.811,15.345.513,23.023.419.9-.148,1.794-.679,2.694,0,6.05.33,12.094.5,18.092-.637a8.711,8.711,0,0,1,3.259-1.048c1.91-1.192,4.027-.541,6.055-.68a3.364,3.364,0,0,1,2.814-.817c2.953.052,5.907.115,8.86.173l6.572-.746.766-.306h0c2.908.247,5.255-1.9,8.1-1.9l2.307-.941,2.889-.505c1.614.1,3.284-.567,4.841.346h0a17.2,17.2,0,0,0,3.236.256c5.773-.609,11.639.193,17.358-1.17l2.142-.1a5.166,5.166,0,0,1,1.748-.655c5.555.147,11.03-1.02,16.576-.975l4.995-.5a163.353,163.353,0,0,1,18.6-.881c.856-.292,1.712-.656,2.564.011h0l-.077.132a.39.39,0,0,0,.249.26l-.249-.26a3.434,3.434,0,0,1,2.191.172l2.118.171c4.148.623,8.375.729,12.435,1.92a4.788,4.788,0,0,1,3.207-.48,16.958,16.958,0,0,1,7.76.58l2.748.036c.757-.137,1.358-.856,2.223-.6a2.059,2.059,0,0,1,1.64-.089c3.066-.866,5.245,1.321,7.786,2.26,1.533.138,1.707.743.627,1.8s-1.168,2.123-.018,3.192l0,0,1.953-.08h0c.189-.475.612-.523,1.037-.57.831-1.148-.453-1.888-.691-2.957l2.977.188h0c.508-.754,1.225-.44,1.894-.372q2.329.1,4.664.2c.8-.389,1.576-.573,2.266.209l1.11.557c.981-.914,1.863-.7,2.681.237,1.272-.3,1.33.477,1.243,1.39.649.91,1.582.468,2.414.505a1.883,1.883,0,0,1,.429-.116,4.813,4.813,0,0,1,2.415-.273h0c.718.039,1.439-.41,2.155.013l3.942.059,3.246-.039.569-.138a4.2,4.2,0,0,1,2.722.549l.05.057c1.1-1.4,2.46-.577,3.686-.318.334.071-.141.6-.334.879q.245.527.49,1.053l1.729.118,1.106-1.175c-.308-.277-.924-.668-.871-.811.227-.613.833-.413,1.338-.364.727-.315,1.617.17,2.28-.462l.6.08,1.995-.1V62.992Zm4.11-52.7,0,.015.026-.006-.031-.009m11.216.1a.5.5,0,0,0,.324-.273l-.324.273m11.492-.146H26.8l-2.163,0c-.016.251-.272.511-.3.761,1.136-.618,2.364.582,3.684,0-.82-.069-1.452-.045-1.207-.761m78.009-1.964c-.341-.188-.561-.433-.523-.709a.4.4,0,0,1-.254.042,2.875,2.875,0,0,0,2.4,1.2,4.37,4.37,0,0,1-1.619-.536m23.98-.426.167.023c.018-.045.035-.095.052-.149-.073.04-.146.079-.219.126m20.23,7.924.067-.005a.193.193,0,0,1,.015-.057c.12-.243-.1-.079-.082.062m4.33,1.954-.048.036c.055.015.11.027.166.045.129.011.259.027.388.039a4.819,4.819,0,0,0-.506-.12m2.676-.38-.044,0c-.006.01-.009.019-.015.029v0l0,0c-.007.01-.009.02-.016.031a2.255,2.255,0,0,1-1.778.473c.811.082,1.62.177,2.43.275a1.131,1.131,0,0,1-.576-.808m1.479.91c.428.049.858.09,1.287.13a2.151,2.151,0,0,0-1.287-.13m16.709-.873c-.048-.037-.111,0-.153.06.064-.013.127-.026.191-.036-.013-.009-.025-.014-.038-.024m13.782-.239c.006.014.012.03.018.043h.041l-.059-.042m65.144-4.371c-.005.017-.011.03-.015.046.022-.013.045-.023.067-.036a.058.058,0,0,1,.011-.011h-.063m27.934,1.145-.183,0a1.841,1.841,0,0,0,.478.342c-.091-.1-.187-.212-.295-.344m68.076,3.718c-.447-1.636-1.683-2.215-3.215-2.445-.966-.145-2.064-.051-2.645-1.041a4.134,4.134,0,0,1-2.549,1.172q-1.889.341-3.793.575a6.741,6.741,0,0,0,3.987-.382c2.189.414,2.526.5,1.76,2.235.028.006.057.01.085.017a4.369,4.369,0,0,1,2.179-.395,17.854,17.854,0,0,1,4.193.271l0-.007M372.3,28.444a5.858,5.858,0,0,1-.6-.153c-.417-.011-.793.019-.581.626l.021,0a1.617,1.617,0,0,1,.646.372h.006c-.176-.556.68-.62,1.021-.927a.528.528,0,0,1-.517.078m13.232-13.861c-1.317-.165-2.873.458-3.868-.929-.478.786-1.4,1.043-2.1,1.575-.521.871.356.653.665.881.974.321,2.056.491,2.494,1.586a17.527,17.527,0,0,1,4.468-.4c0-.052,0-.1,0-.155,1.063-1.9-.013-2.349-1.656-2.555m2.987,4.706a3,3,0,0,1-1.125.085c-3.844-.308-3.843-.307-4.231,3.609a.617.617,0,0,1-.05.156.437.437,0,0,1,.33.134.541.541,0,0,1,.149-.193c2.128-.175,3.1-2.577,5.236-2.723a3.212,3.212,0,0,1,.18.274,4.327,4.327,0,0,0-.489-1.342m6.762,11.036c-.037.018-.071.037-.1.055.052.246.153.055.1-.055m7.9-12.631c0,.008-.007.014-.009.023.017-.008.032-.013.049-.02l-.04,0m13.464-.539v0c-.031.014-.063.027-.089.041l.09-.039m-3.786-1.6h0l.013.012-.012-.012m3.458-1.921c-.471.03-.972.008-1.432.057a8.518,8.518,0,0,0-1.4.823,2.519,2.519,0,0,0-.229.9.687.687,0,0,1,.3.067,2.276,2.276,0,0,1,.582.683c.014.032.025.063.038.095a4.151,4.151,0,0,0,2.5.423c1.03-1.107-.253-2.028-.357-3.045m124.1-4.247a1.517,1.517,0,0,0-.189.11c.194-.036.385-.058.578-.091-.127-.008-.26-.012-.389-.019m7.667,2.245c-.006.009-.013.014-.019.022.054,0,.107,0,.161.011-.047-.013-.095-.02-.142-.033m4.5.129a.494.494,0,0,0,.044.085c.027-.028.053-.058.079-.087l-.123,0m4.993,9.334c-.005.01-.011.016-.016.028-.01-.012-.022-.022-.033-.033l0,.044,0,0c.036-.008.065-.007.1-.013a.454.454,0,0,0-.05-.023m2.16-9.457-.435.007a1.2,1.2,0,0,0,.182.353A.778.778,0,0,0,559.748,11.635Zm22.8-3.941c-.018.015-.037.025-.055.041l.152.076a1.081,1.081,0,0,0-.1-.117m7.138,4.24c.037,0,.073.006.109.009l.035-.014-.144.005m2.221.274.027.028h-.08c.01.037.022.077.029.111.024-.029.049-.057.072-.09l-.021-.021h.027c-.018-.009-.036-.02-.054-.028m.063.032,0,.007-.009.012h.051l-.038-.02m18.88-.025-.02,0-.005.018.025-.022m-11.733,1.678a1.551,1.551,0,0,1,.019.213l.348-.1c-.123-.042-.245-.077-.367-.115m1.712-2.583a1.518,1.518,0,0,1,.032.255c.154-.075.306-.149.468-.234-.168-.009-.332-.013-.5-.021m1.649-1.933a1.382,1.382,0,0,0-.2-.2,1.6,1.6,0,0,0-.189.264,1.527,1.527,0,0,0,.393-.068m3.854-5.934V3.45l.008-.007h-.009M604.109,9.4h0l-1.1.145-.25.207a1.193,1.193,0,0,1,.288.019c2.82-.04,5.654.264,8.47-.17l-7.4-.2m14,1.993c.051-.06.1-.12.153-.188h-.225a.918.918,0,0,1,.072.188m6.511-1.84-8.229.037a20.774,20.774,0,0,0,3.439.227,10.113,10.113,0,0,1,1.632.151C622.549,9.99,623.685,10.295,624.624,9.552Zm1.344.22c-.128-.066-.257-.122-.386-.177a.8.8,0,0,1,.252.891l.664.007a16.161,16.161,0,0,1,2.107-.159l.2-.053a12.964,12.964,0,0,1-2.839-.509m8.412.254q-.783.088-1.573.163c.106.051.211.111.316.175.245,0,.49,0,.735,0q.6,0,1.193.016a.681.681,0,0,1,.053-.427c-.241.023-.482.045-.724.073m3.1.952c-.013,0-.026,0-.038.006l.041.007,0-.013m4.8,6.882a.624.624,0,0,0-.82.221c.351-.017.7-.046,1.05-.081a.677.677,0,0,0-.23-.14m6.187-6.882-.063-.011c-.022.053-.042.105-.059.156A.5.5,0,0,0,648.459,10.978Zm2.266,6.193a.746.746,0,0,0-.218-.3,2.887,2.887,0,0,1,.216.3h0m.369,1.863c.181.013.365.018.551.016a.5.5,0,0,0-.551-.016m3.964-13.928a1.4,1.4,0,0,0-1.579.635,8.3,8.3,0,0,1,1.714-.535c-.045-.033-.089-.068-.135-.1m3.989,3.68a.147.147,0,0,0,0,.126h0c.024,0,.048.005.072.005-.02-.04-.044-.084-.07-.131m13.824-4.391c-.074.6-.812.554-1.313.657-.2.041-.407.08-.6.114A2.581,2.581,0,0,1,673.452,7c.116-1.412.208-1.518,1.315-1.435a3.764,3.764,0,0,1-1.9-1.175m6.061,9.2c-1.444-2.465-1.448-2.469-3.23-.426a3.379,3.379,0,0,1-.351.38c.642.7,1.165,1.533,2.188,1.77a2.365,2.365,0,0,0,2.14-.428,1.05,1.05,0,0,0,.033-.257c-.3-.306-.508-.705-.78-1.039m3.941-3.491a.885.885,0,0,1-.26.236,3.05,3.05,0,0,1-.381.109c.84.1,1.793-.086,2.367.688a.289.289,0,0,1,.358-.019,1.308,1.308,0,0,1,.3-.562c-.817-.041-1.694.21-2.384-.452m3.266,5.513c-.01.014-.023.025-.034.039l.034,0h0c0-.014,0-.027,0-.041m4.142-9.733h.014l0,0-.018,0M705.1,9.5a1.471,1.471,0,0,1-.093.139,5.116,5.116,0,0,1-3.023.54c-.094,0-.188,0-.283-.01v0c.022,0,.043,0,.064,0a1.433,1.433,0,0,1,.591.317,1.089,1.089,0,0,1,.032.111,2.685,2.685,0,0,1,1.084-.078,3.028,3.028,0,0,1,2.152.034,1.631,1.631,0,0,0,.72-.506A1.708,1.708,0,0,1,705.1,9.5m8.813,1.118h-.064l.027.028C713.893,10.634,713.9,10.623,713.916,10.614Zm12.725.592h-.234a1.643,1.643,0,0,0-.074.33A.718.718,0,0,0,726.641,11.206Zm5.032-2.178.005.015.026-.006-.031-.009m11.216.1a.5.5,0,0,0,.324-.273l-.324.273m11.492-.146h-.014l-2.163,0c-.016.251-.272.51-.3.761,1.136-.618,2.364.582,3.684,0-.82-.069-1.452-.045-1.207-.761M832.39,7.022c-.341-.188-.561-.433-.523-.709a.4.4,0,0,1-.254.042,2.875,2.875,0,0,0,2.4,1.2,4.37,4.37,0,0,1-1.619-.536M856.37,6.6l.167.023c.018-.045.035-.1.052-.149-.073.039-.146.079-.219.126M876.6,14.52l.068-.005a.185.185,0,0,1,.015-.057c.12-.243-.1-.079-.083.062m4.331,1.954-.049.036c.056.015.111.027.167.045.129.011.259.027.388.039a4.817,4.817,0,0,0-.506-.12m2.676-.38-.044,0c-.006.01-.009.019-.015.029v0c-.007.01-.009.02-.016.03a2.252,2.252,0,0,1-1.778.474c.811.082,1.62.177,2.43.274a1.127,1.127,0,0,1-.576-.807m1.479.91c.428.049.857.091,1.287.13a2.151,2.151,0,0,0-1.287-.13m16.709-.873c-.048-.037-.111,0-.154.06.065-.013.128-.027.192-.036-.013-.01-.025-.014-.038-.024m13.782-.239c.006.013.012.03.018.043h.041l-.059-.042m50.018-1.838-.015.045c.022-.013.045-.023.067-.036a.058.058,0,0,1,.011-.011l-.063,0M993.529,15.2l-.184,0a1.8,1.8,0,0,0,.145.121l.129-.017c-.031-.038-.057-.065-.09-.106m104.442.651c-1.317-.165-2.873.458-3.868-.929-.477.786-1.4,1.043-2.1,1.575-.521.871.356.653.665.881.931.307,1.954.485,2.426,1.455.16.022.32.043.479.066a14.952,14.952,0,0,1,4.057-.338c0-.052,0-.1,0-.155,1.063-1.9-.013-2.348-1.656-2.555m9.749,15.741-.1.056c.052.246.153.055.1-.056m7.9-12.629a.133.133,0,0,0-.008.022l.048-.02-.04,0m13.464-.54v0c-.031.014-.063.027-.089.041l.09-.039m-3.786-1.6h0l.012.013h0l-.012-.012m3.458-1.921c-.471.03-.972.008-1.432.057a8.518,8.518,0,0,0-1.4.823,2.521,2.521,0,0,0-.229.9.687.687,0,0,1,.3.067,2.263,2.263,0,0,1,.582.683c.014.032.025.064.038.1a4.151,4.151,0,0,0,2.5.423c1.03-1.107-.252-2.028-.357-3.045m124.1-4.247a1.513,1.513,0,0,0-.189.11c.194-.036.385-.058.578-.091-.127-.008-.26-.012-.389-.019m7.667,2.245-.019.022c.054.005.107,0,.161.011-.047-.012-.095-.02-.142-.033m4.5.129a.491.491,0,0,0,.044.085c.027-.028.053-.058.08-.087l-.124,0m4.993,9.334c-.005.01-.011.017-.016.028-.01-.012-.022-.022-.033-.033,0,.015,0,.028,0,.044l0,0c.036-.008.065-.007.1-.013a.453.453,0,0,0-.05-.023m2.16-9.457-.435.007a1.2,1.2,0,0,0,.182.353A.787.787,0,0,0,1272.185,12.9Zm22.8-3.941c-.018.015-.037.025-.055.041l.153.076a1.427,1.427,0,0,0-.1-.117m7.138,4.24c.037.005.073.006.109.009l.035-.014-.144.005m2.221.274.027.028h-.08c.011.038.022.077.029.111a1.075,1.075,0,0,0,.072-.09l-.021-.021h.027c-.018-.009-.036-.02-.054-.028m.063.032,0,.007-.009.013h.051l-.038-.02m18.88-.024a.138.138,0,0,0-.02,0l-.005.018c.009-.007.016-.015.025-.021m-11.733,1.677a1.553,1.553,0,0,1,.02.213l.347-.1c-.123-.042-.245-.077-.367-.115m1.713-2.583a1.759,1.759,0,0,1,.032.255c.153-.075.305-.149.468-.234-.169-.009-.332-.013-.5-.021m1.648-1.933a1.376,1.376,0,0,0-.2-.2,1.6,1.6,0,0,0-.189.264,1.526,1.526,0,0,0,.393-.068h0m3.854-5.934v.007l.008-.007Zm-2.222,5.956h0l-1.1.145-.25.207a1.193,1.193,0,0,1,.288.019c2.82-.04,5.654.264,8.47-.17l-7.4-.2m14.005,1.993c.05-.059.1-.12.152-.188h-.225a.98.98,0,0,1,.073.188m6.51-1.84-8.229.037a20.774,20.774,0,0,0,3.439.227,10.137,10.137,0,0,1,1.633.151C1334.986,11.256,1336.123,11.561,1337.061,10.818Zm1.344.22c-.128-.066-.257-.122-.386-.176a.8.8,0,0,1,.252.89l.664.008a15.989,15.989,0,0,1,2.107-.16l.2-.053a12.963,12.963,0,0,1-2.839-.509m8.412.253q-.783.09-1.573.164c.106.051.211.111.316.175h.735q.6,0,1.193.016a.681.681,0,0,1,.053-.427c-.241.023-.482.045-.724.072m3.1.953c-.013,0-.026,0-.038.006l.041.007,0-.013m4.8,6.882a.625.625,0,0,0-.82.221c.351-.017.7-.046,1.05-.081a.666.666,0,0,0-.23-.14m6.187-6.882-.062-.01c-.023.052-.043.1-.06.155A.5.5,0,0,0,1360.9,12.244Zm2.266,6.193a.754.754,0,0,0-.217-.3,3,3,0,0,1,.215.3h0Zm.369,1.863c.181.013.365.018.551.016a.5.5,0,0,0-.551-.016m3.964-13.928a1.4,1.4,0,0,0-1.579.635,8.36,8.36,0,0,1,1.714-.535c-.045-.033-.089-.068-.135-.1m3.989,3.68a.147.147,0,0,0,0,.126h0c.024,0,.048,0,.072,0-.02-.041-.043-.084-.07-.131m13.824-4.391c-.074.6-.812.554-1.313.657-.2.042-.407.08-.6.114a2.581,2.581,0,0,1,2.5,1.839c.116-1.412.208-1.518,1.315-1.435a3.764,3.764,0,0,1-1.9-1.175m6.061,9.2c-1.444-2.465-1.448-2.468-3.23-.426a3.467,3.467,0,0,1-.35.38c.641.7,1.164,1.533,2.187,1.77a2.365,2.365,0,0,0,2.14-.428,1.049,1.049,0,0,0,.033-.257c-.305-.306-.508-.705-.78-1.039m3.941-3.491a.888.888,0,0,1-.26.236,3.054,3.054,0,0,1-.381.109c.84.1,1.793-.086,2.367.688a.291.291,0,0,1,.359-.019,1.3,1.3,0,0,1,.3-.562c-.817-.041-1.694.211-2.384-.452m3.266,5.513c-.01.014-.023.025-.034.039l.034,0h0c0-.014,0-.027,0-.041m4.142-9.733h.018l-.018,0m14.822,3.612c-.028.046-.058.092-.092.138a5.121,5.121,0,0,1-3.024.54c-.094,0-.188,0-.283-.01v0c.022,0,.043,0,.064,0a1.433,1.433,0,0,1,.591.317c.017.037.019.074.032.111a2.688,2.688,0,0,1,1.085-.078,3.025,3.025,0,0,1,2.151.034,1.632,1.632,0,0,0,.72-.506,1.711,1.711,0,0,1-1.244-.552m8.814,1.118h-.065l.027.028C1426.33,11.9,1426.338,11.89,1426.354,11.881Zm12.49.59a1.643,1.643,0,0,0-.074.33.713.713,0,0,0,.308-.329h-.234" transform="translate(0 -0.002)" fill="#b0d9e6"/>
      </g>
    </g>
    <g id="Group_1913" data-name="Group 1913" transform="translate(532 6884.022)">
      <g id="Group_1911-2" data-name="Group 1911" transform="translate(0 0)" clip-path="url(#clip-path)">
        <path id="Path_57123-2" data-name="Path 57123" d="M1001.161,51.922c-1.134.2-2.284.311-3.662.488.381-2.287,1.912-2.2,3.4-2.112.583.033,1.474-.279,1.6.583.114.8-.741.934-1.338,1.041" transform="translate(0 -39.684)" fill="#b0d9e6"/>
        <path id="Path_57124-2" data-name="Path 57124" d="M963.374,53.721h0c-1.257.22.129,2.77-1.954,2.237-3.393-.867-6.729-2.072-10.34-1.387a1.272,1.272,0,0,1-1.645-1.066,1.227,1.227,0,0,1,1.411-1.329c3.644.524,7.224-1.178,10.862-.244a13.124,13.124,0,0,1,5.423.865l-3.756.924h0" transform="translate(0 -44.689)" fill="#b0d9e6"/>
        <path id="Path_57125-2" data-name="Path 57125" d="M1013.769,52.907h0c-.74.542-.831,2.362-2.432,1.206-1.121-.81.389-1.115.3-1.719.57-.815.89-2.2,2.337-1.207.908.621.9,1.272-.208,1.72" transform="translate(0 -42.342)" fill="#b0d9e6"/>
        <path id="Path_57126-2" data-name="Path 57126" d="M934.8,51.9c.006-.467.421-.5.764-.5.309,0,.715-.107.783.562a3.392,3.392,0,0,1-.808.413c-.342.078-.745,0-.739-.472" transform="translate(0 -40.794)" fill="#b0d9e6"/>
        <path id="Path_57127-2" data-name="Path 57127" d="M992.975,51.351c.065-.191.386-.294.59-.438a1.777,1.777,0,0,1,.356,1.711c-.752-.147-1.217-.477-.946-1.273" transform="translate(0 -40.546)" fill="#b0d9e6"/>
        <path id="Path_57128-2" data-name="Path 57128" d="M207.238,50.633c.006-.467.421-.5.764-.5.309,0,.715-.107.783.562a3.392,3.392,0,0,1-.808.413c-.342.078-.745,0-.739-.472" transform="translate(0 -38.262)" fill="#b0d9e6"/>
        <path id="Path_57129-2" data-name="Path 57129" d="M0,62.992V9.06L1.139,9h0l.968-.172a31.892,31.892,0,0,0,3.276-.082c1.364-.167.593.908.888,1.352a41.584,41.584,0,0,0,7.177.573,2.9,2.9,0,0,1,2.2-.552c1.192-.571,2.4-1.106,3.569-1.728.713-.381,1.22-1.5,2.223-.48h0l2.593.156c1.327.121,2.725-.513,3.98.373,2.76-.227,5.461-.054,8.2-1.382A7.272,7.272,0,0,1,42.4,6.885l7.125-.026c1.727-.127,3.452-.332,5.181-.368,7.712-.159,15.419-1.045,23.137-.148L81.6,6.3a76.625,76.625,0,0,1,13.906.13h0l1.12.158h0c1.671.869,3.25-.581,4.9-.193h0a6.764,6.764,0,0,1,3.565-.111v0a16.788,16.788,0,0,1,5.739-.134c.709-.461,1.351.092,2.025.135l-.408.24a.526.526,0,0,0,.409-.24c2.5.115,4.992.59,7.495.06,1.873-.17,3.723-.723,5.63-.337,1.835.052,3.679.007,5.5.176,4.121.381,8.186-.915,12.3-.338a3.646,3.646,0,0,1,2.873.334h0a.413.413,0,0,1,.429.154,20.111,20.111,0,0,0,4.331.485c4.3.257,8.48-.943,12.753-.933l1.738.327a18.969,18.969,0,0,1,3.739.487c3.5,1.169,7.4-.134,10.747,1.828a54.708,54.708,0,0,0,6.271-.229,9.443,9.443,0,0,1,5.046.424c.933.378,2.174.933,2.156,1.857-.024,1.179-1.495.959-2.381,1.264-.77.666-1.646.4-2.5.288a1.171,1.171,0,0,1,.257.37,1.293,1.293,0,0,1,1.6.877l.137-.044c.656-.017,1.109.433,1.635.714,6.753,3.128,13.67.9,20.527.634-.444-1.008-1.828-.246-2.291-1.217q-.037-1.07-.076-2.14l-.539-.543c-1.276.349-1.918-1.34-3.193-.994a3.432,3.432,0,0,1-3.328.192c-1.066-.458-.212-.815.448-.9,2.964-.8,5.912.322,8.871.071.8,0,1.594-.021,2.391,0,2.619.067,2.477,1.182,1.039,2.775q0,.489-.007.977a3.571,3.571,0,0,0,1.048,1.447,53.864,53.864,0,0,0,7.279-1.059,35.276,35.276,0,0,1,9.066-.751c-3.392-.868-6.728-2.072-10.338-1.387a1.272,1.272,0,0,1-1.645-1.066,1.227,1.227,0,0,1,1.41-1.329c3.644.524,7.225-1.178,10.863-.245a13.145,13.145,0,0,1,5.423.866l-3.756.924h0c-1.006.177-.323,1.842-1.077,2.227A35.771,35.771,0,0,0,239.8,12.2h0v0a8.8,8.8,0,0,1,5.218-.1l5.467-.447c2.144-1.246,4.487-.39,6.714-.52a95.73,95.73,0,0,1,24.264,1.606l2,0c-.45-.6.687-.9.612-1.43.57-.815.89-2.2,2.338-1.207.907.621.894,1.271-.209,1.72h0a3.224,3.224,0,0,0-.671.922l2.589.006a11.124,11.124,0,0,1,3.907-.009c.969.076,2-.191,2.859.494h0l2.011.274a16.164,16.164,0,0,0,5.247-.168c2.709-1.051,7.066-1.183,8.289-.34a6.009,6.009,0,0,1,1.026.477l.055,0a10.282,10.282,0,0,1,3.808-.215,3.189,3.189,0,0,1,2.3-.355h0c6.756-.7,13.525.467,20.282-.15h0l5.665-.439c2.947-.331,5.958.352,8.868-.565.159.061.315.129.47.2a5.239,5.239,0,0,0,2.41.058,48.928,48.928,0,0,1,8.686-.481,7.591,7.591,0,0,1,5.635.067,16.6,16.6,0,0,1,6.048.567l.231-.071.221.1.638-.194c2.757-.914,5.575.083,8.351-.267,2.539-.1,5.074-.5,7.62-.105l.653-.192c.87-.609,1.854-.249,2.786-.328l1.462-.232a38.176,38.176,0,0,1,10.318-.069,2.421,2.421,0,0,1,1.19.226h0l6.256.988,3.135.163h0c1.2-.458,2.493.553,3.669-.241,1.748-.747,3.4-.121,5.073.337a4.24,4.24,0,0,1,2.459.259l6.31.379c.821.031,1.7-.365,2.43.33l.878-.013a6.364,6.364,0,0,1,4.969-.205c2.063.618,4.184-.127,6.256.267l1.74-.371h0l4.381-.8a1.93,1.93,0,0,1,1.709-.313c1.481-.216,2.966-.489,4.354.372l8.384-.916,7.162-.245c7.662.81,15.345.513,23.024.419.9-.148,1.793-.679,2.693,0,6.05.331,12.094.5,18.092-.636A8.711,8.711,0,0,1,525.4,9.773c1.909-1.192,4.026-.541,6.055-.68a3.365,3.365,0,0,1,2.814-.817c2.953.052,5.906.115,8.86.173L549.7,7.7l.765-.306h0c2.908.247,5.255-1.9,8.1-1.9l2.307-.941,2.889-.505c1.614.1,3.284-.567,4.841.346h0a17.2,17.2,0,0,0,3.236.256c5.773-.609,11.639.193,17.358-1.17l2.142-.1a5.167,5.167,0,0,1,1.748-.655c5.555.147,11.03-1.02,16.576-.975l4.995-.5a163.582,163.582,0,0,1,18.6-.882c.856-.291,1.712-.655,2.563.011h0l-.077.132a.385.385,0,0,0,.249.259L635.746.51a3.435,3.435,0,0,1,2.191.172l2.118.171c4.148.623,8.375.729,12.434,1.92h0a4.788,4.788,0,0,1,3.207-.48,16.958,16.958,0,0,1,7.76.58l2.748.036c.757-.137,1.359-.856,2.223-.6a2.059,2.059,0,0,1,1.64-.089c3.065-.866,5.245,1.321,7.786,2.26,1.533.138,1.707.743.627,1.8s-1.168,2.123-.018,3.192l0,0,1.953-.081h0c.188-.476.611-.523,1.036-.57.831-1.148-.453-1.888-.691-2.957l2.977.188h0c.508-.754,1.225-.44,1.894-.372q2.329.1,4.664.2c.8-.389,1.576-.573,2.266.209l1.11.557c.981-.914,1.862-.7,2.681.237,1.272-.3,1.33.477,1.243,1.39.649.91,1.582.468,2.414.505a1.833,1.833,0,0,1,.429-.116,4.813,4.813,0,0,1,2.415-.273h0c.718.039,1.439-.41,2.155.013l3.942.059,3.246-.039.569-.138a4.2,4.2,0,0,1,2.722.548h0l.05.057c1.1-1.4,2.46-.577,3.686-.318.334.071-.141.6-.334.879q.245.527.49,1.053l1.729.118q.554-.588,1.106-1.175c-.308-.277-.924-.668-.871-.811.227-.612.833-.413,1.338-.364.727-.315,1.617.17,2.28-.462l.6.08,3.134-.153.968-.172a31.892,31.892,0,0,0,3.276-.082c1.364-.167.593.908.888,1.352a41.584,41.584,0,0,0,7.177.573,2.9,2.9,0,0,1,2.2-.552c1.192-.571,2.4-1.106,3.569-1.728.713-.381,1.22-1.5,2.223-.481h0l2.593.156c1.327.121,2.724-.513,3.98.373,2.76-.227,5.461-.054,8.2-1.382a7.272,7.272,0,0,1,6.192-.178l7.125-.027c1.727-.126,3.452-.331,5.181-.367,7.711-.159,15.419-1.045,23.137-.148l3.749-.042a76.716,76.716,0,0,1,13.906.129h0l1.12.159h0c1.671.869,3.25-.581,4.9-.193h0a6.774,6.774,0,0,1,3.565-.112v0a16.788,16.788,0,0,1,5.739-.134c.709-.461,1.351.092,2.025.135l-.409.24a.526.526,0,0,0,.41-.24c2.5.115,4.992.589,7.495.06,1.873-.17,3.723-.723,5.63-.337,1.835.052,3.679.007,5.5.176,4.121.381,8.186-.915,12.305-.338a3.646,3.646,0,0,1,2.873.334h0a.413.413,0,0,1,.429.154,20.174,20.174,0,0,0,4.331.485c4.3.257,8.48-.943,12.752-.933l1.739.327a18.968,18.968,0,0,1,3.739.487c3.5,1.169,7.4-.134,10.747,1.827h0a54.483,54.483,0,0,0,6.271-.228,9.443,9.443,0,0,1,5.046.424c.933.378,2.174.933,2.155,1.857-.023,1.179-1.494.959-2.381,1.264-.769.666-1.645.4-2.5.288a1.171,1.171,0,0,1,.257.37,1.293,1.293,0,0,1,1.6.877l.137-.044c.656-.017,1.109.433,1.635.714,6.752,3.128,13.67.9,20.527.634-.444-1.008-1.828-.246-2.291-1.217q-.038-1.07-.076-2.14l-.539-.543c-1.276.349-1.918-1.34-3.194-.994a3.432,3.432,0,0,1-3.327.192c-1.066-.458-.212-.815.448-.9,2.964-.8,5.912.322,8.871.071.8,0,1.594-.021,2.39,0,2.62.067,2.478,1.181,1.04,2.775q0,.489-.007.977h0a3.706,3.706,0,0,0,2.387,2.169,39.658,39.658,0,0,0,5.83-.335l0,0v0a8.81,8.81,0,0,1,5.218-.095l5.467-.447c2.144-1.246,4.487-.39,6.714-.52a95.73,95.73,0,0,1,24.264,1.606l6.656.015a11.129,11.129,0,0,1,3.908-.009c.968.076,2-.191,2.858.494h0l2.011.274c3.194.63,6.343-.85,9.537-.2l5.08.174a10.283,10.283,0,0,1,3.808-.215,3.194,3.194,0,0,1,2.3-.355h0c1-.1,2-.157,3-.191l.1-.015a1.4,1.4,0,0,0,.625-1.258h-5.33c2.326-1.616,8.107-1.968,9.545-.977a3.888,3.888,0,0,1,2.348,1.8,5.514,5.514,0,0,0,.9.575,71.082,71.082,0,0,0,9.1-.081h0l5.665-.439c2.947-.331,5.958.352,8.868-.565.159.061.315.129.47.2a5.238,5.238,0,0,0,2.41.058,48.928,48.928,0,0,1,8.686-.481h0a7.591,7.591,0,0,1,5.635.067,16.606,16.606,0,0,1,6.049.567l.23-.071.221.1.638-.194c2.757-.914,5.576.083,8.351-.267,2.539-.1,5.074-.5,7.62-.1l.653-.192c.87-.609,1.854-.249,2.786-.328l1.462-.232a38.176,38.176,0,0,1,10.318-.069,2.42,2.42,0,0,1,1.19.226h0l6.256.988,3.135.163h0c1.2-.458,2.493.553,3.669-.24,1.748-.748,3.405-.121,5.074.336a4.245,4.245,0,0,1,2.458.259l6.31.379c.821.031,1.7-.365,2.43.33l.878-.013a6.364,6.364,0,0,1,4.969-.205c2.063.618,4.184-.127,6.256.267l1.74-.371h0l4.381-.8a1.93,1.93,0,0,1,1.709-.313c1.481-.215,2.966-.488,4.354.372l8.384-.916,7.162-.245h0c7.662.811,15.345.513,23.023.419.9-.148,1.794-.679,2.694,0,6.05.33,12.094.5,18.092-.637a8.711,8.711,0,0,1,3.259-1.048c1.91-1.192,4.027-.541,6.055-.68a3.364,3.364,0,0,1,2.814-.817c2.953.052,5.907.115,8.86.173l6.572-.746.766-.306h0c2.908.247,5.255-1.9,8.1-1.9l2.307-.941,2.889-.505c1.614.1,3.284-.567,4.841.346h0a17.2,17.2,0,0,0,3.236.256c5.773-.609,11.639.193,17.358-1.17l2.142-.1a5.166,5.166,0,0,1,1.748-.655c5.555.147,11.03-1.02,16.576-.975l4.995-.5a163.353,163.353,0,0,1,18.6-.881c.856-.292,1.712-.656,2.564.011h0l-.077.132a.39.39,0,0,0,.249.26l-.249-.26a3.434,3.434,0,0,1,2.191.172l2.118.171c4.148.623,8.375.729,12.435,1.92a4.788,4.788,0,0,1,3.207-.48,16.958,16.958,0,0,1,7.76.58l2.748.036c.757-.137,1.358-.856,2.223-.6a2.059,2.059,0,0,1,1.64-.089c3.066-.866,5.245,1.321,7.786,2.26,1.533.138,1.707.743.627,1.8s-1.168,2.123-.018,3.192l0,0,1.953-.08h0c.189-.475.612-.523,1.037-.57.831-1.148-.453-1.888-.691-2.957l2.977.188h0c.508-.754,1.225-.44,1.894-.372q2.329.1,4.664.2c.8-.389,1.576-.573,2.266.209l1.11.557c.981-.914,1.863-.7,2.681.237,1.272-.3,1.33.477,1.243,1.39.649.91,1.582.468,2.414.505a1.883,1.883,0,0,1,.429-.116,4.813,4.813,0,0,1,2.415-.273h0c.718.039,1.439-.41,2.155.013l3.942.059,3.246-.039.569-.138a4.2,4.2,0,0,1,2.722.549l.05.057c1.1-1.4,2.46-.577,3.686-.318.334.071-.141.6-.334.879q.245.527.49,1.053l1.729.118,1.106-1.175c-.308-.277-.924-.668-.871-.811.227-.613.833-.413,1.338-.364.727-.315,1.617.17,2.28-.462l.6.08,1.995-.1V62.992Zm4.11-52.7,0,.015.026-.006-.031-.009m11.216.1a.5.5,0,0,0,.324-.273l-.324.273m11.492-.146H26.8l-2.163,0c-.016.251-.272.511-.3.761,1.136-.618,2.364.582,3.684,0-.82-.069-1.452-.045-1.207-.761m78.009-1.964c-.341-.188-.561-.433-.523-.709a.4.4,0,0,1-.254.042,2.875,2.875,0,0,0,2.4,1.2,4.37,4.37,0,0,1-1.619-.536m23.98-.426.167.023c.018-.045.035-.095.052-.149-.073.04-.146.079-.219.126m20.23,7.924.067-.005a.193.193,0,0,1,.015-.057c.12-.243-.1-.079-.082.062m4.33,1.954-.048.036c.055.015.11.027.166.045.129.011.259.027.388.039a4.819,4.819,0,0,0-.506-.12m2.676-.38-.044,0c-.006.01-.009.019-.015.029v0l0,0c-.007.01-.009.02-.016.031a2.255,2.255,0,0,1-1.778.473c.811.082,1.62.177,2.43.275a1.131,1.131,0,0,1-.576-.808m1.479.91c.428.049.858.09,1.287.13a2.151,2.151,0,0,0-1.287-.13m16.709-.873c-.048-.037-.111,0-.153.06.064-.013.127-.026.191-.036-.013-.009-.025-.014-.038-.024m13.782-.239c.006.014.012.03.018.043h.041l-.059-.042m65.144-4.371c-.005.017-.011.03-.015.046.022-.013.045-.023.067-.036a.058.058,0,0,1,.011-.011h-.063m27.934,1.145-.183,0a1.841,1.841,0,0,0,.478.342c-.091-.1-.187-.212-.295-.344m68.076,3.718c-.447-1.636-1.683-2.215-3.215-2.445-.966-.145-2.064-.051-2.645-1.041a4.134,4.134,0,0,1-2.549,1.172q-1.889.341-3.793.575a6.741,6.741,0,0,0,3.987-.382c2.189.414,2.526.5,1.76,2.235.028.006.057.01.085.017a4.369,4.369,0,0,1,2.179-.395,17.854,17.854,0,0,1,4.193.271l0-.007M372.3,28.444a5.858,5.858,0,0,1-.6-.153c-.417-.011-.793.019-.581.626l.021,0a1.617,1.617,0,0,1,.646.372h.006c-.176-.556.68-.62,1.021-.927a.528.528,0,0,1-.517.078m13.232-13.861c-1.317-.165-2.873.458-3.868-.929-.478.786-1.4,1.043-2.1,1.575-.521.871.356.653.665.881.974.321,2.056.491,2.494,1.586a17.527,17.527,0,0,1,4.468-.4c0-.052,0-.1,0-.155,1.063-1.9-.013-2.349-1.656-2.555m2.987,4.706a3,3,0,0,1-1.125.085c-3.844-.308-3.843-.307-4.231,3.609a.617.617,0,0,1-.05.156.437.437,0,0,1,.33.134.541.541,0,0,1,.149-.193c2.128-.175,3.1-2.577,5.236-2.723a3.212,3.212,0,0,1,.18.274,4.327,4.327,0,0,0-.489-1.342m6.762,11.036c-.037.018-.071.037-.1.055.052.246.153.055.1-.055m7.9-12.631c0,.008-.007.014-.009.023.017-.008.032-.013.049-.02l-.04,0m13.464-.539v0c-.031.014-.063.027-.089.041l.09-.039m-3.786-1.6h0l.013.012-.012-.012m3.458-1.921c-.471.03-.972.008-1.432.057a8.518,8.518,0,0,0-1.4.823,2.519,2.519,0,0,0-.229.9.687.687,0,0,1,.3.067,2.276,2.276,0,0,1,.582.683c.014.032.025.063.038.095a4.151,4.151,0,0,0,2.5.423c1.03-1.107-.253-2.028-.357-3.045m124.1-4.247a1.517,1.517,0,0,0-.189.11c.194-.036.385-.058.578-.091-.127-.008-.26-.012-.389-.019m7.667,2.245c-.006.009-.013.014-.019.022.054,0,.107,0,.161.011-.047-.013-.095-.02-.142-.033m4.5.129a.494.494,0,0,0,.044.085c.027-.028.053-.058.079-.087l-.123,0m4.993,9.334c-.005.01-.011.016-.016.028-.01-.012-.022-.022-.033-.033l0,.044,0,0c.036-.008.065-.007.1-.013a.454.454,0,0,0-.05-.023m2.16-9.457-.435.007a1.2,1.2,0,0,0,.182.353A.778.778,0,0,0,559.748,11.635Zm22.8-3.941c-.018.015-.037.025-.055.041l.152.076a1.081,1.081,0,0,0-.1-.117m7.138,4.24c.037,0,.073.006.109.009l.035-.014-.144.005m2.221.274.027.028h-.08c.01.037.022.077.029.111.024-.029.049-.057.072-.09l-.021-.021h.027c-.018-.009-.036-.02-.054-.028m.063.032,0,.007-.009.012h.051l-.038-.02m18.88-.025-.02,0-.005.018.025-.022m-11.733,1.678a1.551,1.551,0,0,1,.019.213l.348-.1c-.123-.042-.245-.077-.367-.115m1.712-2.583a1.518,1.518,0,0,1,.032.255c.154-.075.306-.149.468-.234-.168-.009-.332-.013-.5-.021m1.649-1.933a1.382,1.382,0,0,0-.2-.2,1.6,1.6,0,0,0-.189.264,1.527,1.527,0,0,0,.393-.068m3.854-5.934V3.45l.008-.007h-.009M604.109,9.4h0l-1.1.145-.25.207a1.193,1.193,0,0,1,.288.019c2.82-.04,5.654.264,8.47-.17l-7.4-.2m14,1.993c.051-.06.1-.12.153-.188h-.225a.918.918,0,0,1,.072.188m6.511-1.84-8.229.037a20.774,20.774,0,0,0,3.439.227,10.113,10.113,0,0,1,1.632.151C622.549,9.99,623.685,10.295,624.624,9.552Zm1.344.22c-.128-.066-.257-.122-.386-.177a.8.8,0,0,1,.252.891l.664.007a16.161,16.161,0,0,1,2.107-.159l.2-.053a12.964,12.964,0,0,1-2.839-.509m8.412.254q-.783.088-1.573.163c.106.051.211.111.316.175.245,0,.49,0,.735,0q.6,0,1.193.016a.681.681,0,0,1,.053-.427c-.241.023-.482.045-.724.073m3.1.952c-.013,0-.026,0-.038.006l.041.007,0-.013m4.8,6.882a.624.624,0,0,0-.82.221c.351-.017.7-.046,1.05-.081a.677.677,0,0,0-.23-.14m6.187-6.882-.063-.011c-.022.053-.042.105-.059.156A.5.5,0,0,0,648.459,10.978Zm2.266,6.193a.746.746,0,0,0-.218-.3,2.887,2.887,0,0,1,.216.3h0m.369,1.863c.181.013.365.018.551.016a.5.5,0,0,0-.551-.016m3.964-13.928a1.4,1.4,0,0,0-1.579.635,8.3,8.3,0,0,1,1.714-.535c-.045-.033-.089-.068-.135-.1m3.989,3.68a.147.147,0,0,0,0,.126h0c.024,0,.048.005.072.005-.02-.04-.044-.084-.07-.131m13.824-4.391c-.074.6-.812.554-1.313.657-.2.041-.407.08-.6.114A2.581,2.581,0,0,1,673.452,7c.116-1.412.208-1.518,1.315-1.435a3.764,3.764,0,0,1-1.9-1.175m6.061,9.2c-1.444-2.465-1.448-2.469-3.23-.426a3.379,3.379,0,0,1-.351.38c.642.7,1.165,1.533,2.188,1.77a2.365,2.365,0,0,0,2.14-.428,1.05,1.05,0,0,0,.033-.257c-.3-.306-.508-.705-.78-1.039m3.941-3.491a.885.885,0,0,1-.26.236,3.05,3.05,0,0,1-.381.109c.84.1,1.793-.086,2.367.688a.289.289,0,0,1,.358-.019,1.308,1.308,0,0,1,.3-.562c-.817-.041-1.694.21-2.384-.452m3.266,5.513c-.01.014-.023.025-.034.039l.034,0h0c0-.014,0-.027,0-.041m4.142-9.733h.014l0,0-.018,0M705.1,9.5a1.471,1.471,0,0,1-.093.139,5.116,5.116,0,0,1-3.023.54c-.094,0-.188,0-.283-.01v0c.022,0,.043,0,.064,0a1.433,1.433,0,0,1,.591.317,1.089,1.089,0,0,1,.032.111,2.685,2.685,0,0,1,1.084-.078,3.028,3.028,0,0,1,2.152.034,1.631,1.631,0,0,0,.72-.506A1.708,1.708,0,0,1,705.1,9.5m8.813,1.118h-.064l.027.028C713.893,10.634,713.9,10.623,713.916,10.614Zm12.725.592h-.234a1.643,1.643,0,0,0-.074.33A.718.718,0,0,0,726.641,11.206Zm5.032-2.178.005.015.026-.006-.031-.009m11.216.1a.5.5,0,0,0,.324-.273l-.324.273m11.492-.146h-.014l-2.163,0c-.016.251-.272.51-.3.761,1.136-.618,2.364.582,3.684,0-.82-.069-1.452-.045-1.207-.761M832.39,7.022c-.341-.188-.561-.433-.523-.709a.4.4,0,0,1-.254.042,2.875,2.875,0,0,0,2.4,1.2,4.37,4.37,0,0,1-1.619-.536M856.37,6.6l.167.023c.018-.045.035-.1.052-.149-.073.039-.146.079-.219.126M876.6,14.52l.068-.005a.185.185,0,0,1,.015-.057c.12-.243-.1-.079-.083.062m4.331,1.954-.049.036c.056.015.111.027.167.045.129.011.259.027.388.039a4.817,4.817,0,0,0-.506-.12m2.676-.38-.044,0c-.006.01-.009.019-.015.029v0c-.007.01-.009.02-.016.03a2.252,2.252,0,0,1-1.778.474c.811.082,1.62.177,2.43.274a1.127,1.127,0,0,1-.576-.807m1.479.91c.428.049.857.091,1.287.13a2.151,2.151,0,0,0-1.287-.13m16.709-.873c-.048-.037-.111,0-.154.06.065-.013.128-.027.192-.036-.013-.01-.025-.014-.038-.024m13.782-.239c.006.013.012.03.018.043h.041l-.059-.042m50.018-1.838-.015.045c.022-.013.045-.023.067-.036a.058.058,0,0,1,.011-.011l-.063,0M993.529,15.2l-.184,0a1.8,1.8,0,0,0,.145.121l.129-.017c-.031-.038-.057-.065-.09-.106m104.442.651c-1.317-.165-2.873.458-3.868-.929-.477.786-1.4,1.043-2.1,1.575-.521.871.356.653.665.881.931.307,1.954.485,2.426,1.455.16.022.32.043.479.066a14.952,14.952,0,0,1,4.057-.338c0-.052,0-.1,0-.155,1.063-1.9-.013-2.348-1.656-2.555m9.749,15.741-.1.056c.052.246.153.055.1-.056m7.9-12.629a.133.133,0,0,0-.008.022l.048-.02-.04,0m13.464-.54v0c-.031.014-.063.027-.089.041l.09-.039m-3.786-1.6h0l.012.013h0l-.012-.012m3.458-1.921c-.471.03-.972.008-1.432.057a8.518,8.518,0,0,0-1.4.823,2.521,2.521,0,0,0-.229.9.687.687,0,0,1,.3.067,2.263,2.263,0,0,1,.582.683c.014.032.025.064.038.1a4.151,4.151,0,0,0,2.5.423c1.03-1.107-.252-2.028-.357-3.045m124.1-4.247a1.513,1.513,0,0,0-.189.11c.194-.036.385-.058.578-.091-.127-.008-.26-.012-.389-.019m7.667,2.245-.019.022c.054.005.107,0,.161.011-.047-.012-.095-.02-.142-.033m4.5.129a.491.491,0,0,0,.044.085c.027-.028.053-.058.08-.087l-.124,0m4.993,9.334c-.005.01-.011.017-.016.028-.01-.012-.022-.022-.033-.033,0,.015,0,.028,0,.044l0,0c.036-.008.065-.007.1-.013a.453.453,0,0,0-.05-.023m2.16-9.457-.435.007a1.2,1.2,0,0,0,.182.353A.787.787,0,0,0,1272.185,12.9Zm22.8-3.941c-.018.015-.037.025-.055.041l.153.076a1.427,1.427,0,0,0-.1-.117m7.138,4.24c.037.005.073.006.109.009l.035-.014-.144.005m2.221.274.027.028h-.08c.011.038.022.077.029.111a1.075,1.075,0,0,0,.072-.09l-.021-.021h.027c-.018-.009-.036-.02-.054-.028m.063.032,0,.007-.009.013h.051l-.038-.02m18.88-.024a.138.138,0,0,0-.02,0l-.005.018c.009-.007.016-.015.025-.021m-11.733,1.677a1.553,1.553,0,0,1,.02.213l.347-.1c-.123-.042-.245-.077-.367-.115m1.713-2.583a1.759,1.759,0,0,1,.032.255c.153-.075.305-.149.468-.234-.169-.009-.332-.013-.5-.021m1.648-1.933a1.376,1.376,0,0,0-.2-.2,1.6,1.6,0,0,0-.189.264,1.526,1.526,0,0,0,.393-.068h0m3.854-5.934v.007l.008-.007Zm-2.222,5.956h0l-1.1.145-.25.207a1.193,1.193,0,0,1,.288.019c2.82-.04,5.654.264,8.47-.17l-7.4-.2m14.005,1.993c.05-.059.1-.12.152-.188h-.225a.98.98,0,0,1,.073.188m6.51-1.84-8.229.037a20.774,20.774,0,0,0,3.439.227,10.137,10.137,0,0,1,1.633.151C1334.986,11.256,1336.123,11.561,1337.061,10.818Zm1.344.22c-.128-.066-.257-.122-.386-.176a.8.8,0,0,1,.252.89l.664.008a15.989,15.989,0,0,1,2.107-.16l.2-.053a12.963,12.963,0,0,1-2.839-.509m8.412.253q-.783.09-1.573.164c.106.051.211.111.316.175h.735q.6,0,1.193.016a.681.681,0,0,1,.053-.427c-.241.023-.482.045-.724.072m3.1.953c-.013,0-.026,0-.038.006l.041.007,0-.013m4.8,6.882a.625.625,0,0,0-.82.221c.351-.017.7-.046,1.05-.081a.666.666,0,0,0-.23-.14m6.187-6.882-.062-.01c-.023.052-.043.1-.06.155A.5.5,0,0,0,1360.9,12.244Zm2.266,6.193a.754.754,0,0,0-.217-.3,3,3,0,0,1,.215.3h0Zm.369,1.863c.181.013.365.018.551.016a.5.5,0,0,0-.551-.016m3.964-13.928a1.4,1.4,0,0,0-1.579.635,8.36,8.36,0,0,1,1.714-.535c-.045-.033-.089-.068-.135-.1m3.989,3.68a.147.147,0,0,0,0,.126h0c.024,0,.048,0,.072,0-.02-.041-.043-.084-.07-.131m13.824-4.391c-.074.6-.812.554-1.313.657-.2.042-.407.08-.6.114a2.581,2.581,0,0,1,2.5,1.839c.116-1.412.208-1.518,1.315-1.435a3.764,3.764,0,0,1-1.9-1.175m6.061,9.2c-1.444-2.465-1.448-2.468-3.23-.426a3.467,3.467,0,0,1-.35.38c.641.7,1.164,1.533,2.187,1.77a2.365,2.365,0,0,0,2.14-.428,1.049,1.049,0,0,0,.033-.257c-.305-.306-.508-.705-.78-1.039m3.941-3.491a.888.888,0,0,1-.26.236,3.054,3.054,0,0,1-.381.109c.84.1,1.793-.086,2.367.688a.291.291,0,0,1,.359-.019,1.3,1.3,0,0,1,.3-.562c-.817-.041-1.694.211-2.384-.452m3.266,5.513c-.01.014-.023.025-.034.039l.034,0h0c0-.014,0-.027,0-.041m4.142-9.733h.018l-.018,0m14.822,3.612c-.028.046-.058.092-.092.138a5.121,5.121,0,0,1-3.024.54c-.094,0-.188,0-.283-.01v0c.022,0,.043,0,.064,0a1.433,1.433,0,0,1,.591.317c.017.037.019.074.032.111a2.688,2.688,0,0,1,1.085-.078,3.025,3.025,0,0,1,2.151.034,1.632,1.632,0,0,0,.72-.506,1.711,1.711,0,0,1-1.244-.552m8.814,1.118h-.065l.027.028C1426.33,11.9,1426.338,11.89,1426.354,11.881Zm12.49.59a1.643,1.643,0,0,0-.074.33.713.713,0,0,0,.308-.329h-.234" transform="translate(0 -0.002)" fill="#b0d9e6"/>
      </g>
    </g>
  </g>
</svg>
