<?xml version="1.0" encoding="UTF-8"?>
<svg version="1.1" xmlns="http://www.w3.org/2000/svg" width="2307" height="317">
<path d="M0 0 C0.6865567 -0.00508575 1.3731134 -0.01017151 2.08047485 -0.01541138 C4.02106264 -0.02709584 5.9617304 -0.02173501 7.90234375 -0.015625 C9.01988037 -0.01336914 10.13741699 -0.01111328 11.28881836 -0.00878906 C14.0625 0.25 14.0625 0.25 17.0625 2.25 C17.25 4.875 17.25 4.875 17.0625 7.25 C11.93924471 9.70489316 7.72354589 10.75341703 2.0625 11.25 C2.7225 12.57 3.3825 13.89 4.0625 15.25 C-1.2175 16.24 -6.4975 17.23 -11.9375 18.25 C-10.11958919 20.53450882 -10.11958919 20.53450882 -7.48291016 20.27490234 C-5.93289307 20.11948975 -5.93289307 20.11948975 -4.3515625 19.9609375 C-3.17883789 19.85104492 -2.00611328 19.74115234 -0.79785156 19.62792969 C0.47606445 19.50321289 1.74998047 19.37849609 3.0625 19.25 C5.05398969 19.08687625 7.04549223 18.92385105 9.03741455 18.76609802 C12.58862759 18.48302689 16.13805925 18.17938289 19.6875 17.875 C20.43273926 17.81130219 21.17797852 17.74760437 21.94580078 17.68197632 C30.70590277 16.92453184 39.39091376 16.05433734 48.0625 14.5625 C59.57194885 12.60978169 68.02552575 12.85446084 79.0625 17.25 C81.0625 19.25 81.0625 19.25 81.0625 22.25 C80.0725 22.25 79.0825 22.25 78.0625 22.25 C78.0625 22.91 78.0625 23.57 78.0625 24.25 C78.65417969 24.21519531 79.24585938 24.18039063 79.85546875 24.14453125 C85.01619213 23.96773648 87.6771179 24.3648802 92.0625 27.25 C97.46539668 28.35088906 102.33602413 28.18737924 107.765625 27.69140625 C109.47384762 27.55075011 111.18210084 27.41046509 112.89038086 27.27050781 C113.77660126 27.19529907 114.66282166 27.12009033 115.57589722 27.04260254 C129.05161787 25.90951974 142.4711639 24.95390035 156 25 C157.66627441 25.00495483 157.66627441 25.00495483 159.36621094 25.01000977 C166.76212438 25.09981219 166.76212438 25.09981219 169.0625 26.25 C169.3925 27.24 169.7225 28.23 170.0625 29.25 C175.45844712 29.96872246 180.2959898 30.34322452 185.71069336 29.51123047 C196.49131243 28.31375695 207.58241903 29.46135452 218.3125 30.5625 C219.67642117 30.69640243 221.04035361 30.83019007 222.40429688 30.96386719 C229.8452174 31.71081806 237.20154833 32.68363392 244.5625 34 C252.57978736 35.419158 259.95577074 35.03654043 268.0625 34.25 C275.55022349 33.78357896 281.82583375 34.0135959 289 36.3125 C298.48097545 39.13598799 307.71401724 38.11277811 317.47509766 37.42578125 C325.62811616 36.87188681 332.62510234 36.86791043 340.3984375 39.58984375 C344.74100698 40.66593501 349.02923794 40.36236548 353.47265625 40.16015625 C357.0625 40.25 357.0625 40.25 360.8984375 41.20703125 C368.30052006 42.99298287 376.04831391 42.72432949 383.625 42.875 C385.22202483 42.91325209 386.81903061 42.95230782 388.41601562 42.9921875 C392.29801951 43.08739681 396.18011956 43.17170952 400.0625 43.25 C400.330625 43.889375 400.59875 44.52875 400.875 45.1875 C401.94917752 47.58131686 401.94917752 47.58131686 405.0625 48.25 C411.67817858 48.54951141 418.28494525 48.38892498 424.875 47.75 C429.96423336 47.27546338 435.01699935 47.10558277 440.125 47.0625 C441.23355347 47.04316406 441.23355347 47.04316406 442.36450195 47.0234375 C446.14799115 47.01642698 447.83589973 47.09893315 451.0625 49.25 C449.825 49.930625 449.825 49.930625 448.5625 50.625 C447.325 51.429375 447.325 51.429375 446.0625 52.25 C446.0625 52.91 446.0625 53.57 446.0625 54.25 C447.12162598 54.3001123 448.18075195 54.35022461 449.27197266 54.40185547 C453.21968936 54.59089467 457.16677485 54.79111318 461.11376953 54.99462891 C462.81869692 55.08099119 464.5237786 55.16436374 466.22900391 55.24462891 C468.68699536 55.36085617 471.14422227 55.48799879 473.6015625 55.6171875 C474.73629501 55.66732498 474.73629501 55.66732498 475.89395142 55.71847534 C480.24304298 55.95933145 484.00455725 56.51155199 488.0625 58.25 C488.72916667 59.58333333 489.39583333 60.91666667 490.0625 62.25 C496.03291512 64.85666599 502.39914711 64.9569249 508.80664062 65.4609375 C513.23076217 65.84593232 517.02341855 66.2346579 521.0625 68.25 C520.7325 68.91 520.4025 69.57 520.0625 70.25 C517.99609375 70.6640625 517.99609375 70.6640625 515.5 70.875 C514.26056641 70.98714844 514.26056641 70.98714844 512.99609375 71.1015625 C512.35800781 71.15054688 511.71992188 71.19953125 511.0625 71.25 C511.0625 71.91 511.0625 72.57 511.0625 73.25 C513.7025 73.58 516.3425 73.91 519.0625 74.25 C519.0625 75.57 519.0625 76.89 519.0625 78.25 C515.14959763 80.00380558 511.4882665 80.77564918 507.25 81.375 C506.08855469 81.54257813 504.92710937 81.71015625 503.73046875 81.8828125 C502.40982422 82.06457031 502.40982422 82.06457031 501.0625 82.25 C501.65264893 82.33564209 502.24279785 82.42128418 502.85083008 82.50952148 C505.52597393 82.89935599 508.20048429 83.29338014 510.875 83.6875 C511.80376953 83.82220703 512.73253906 83.95691406 513.68945312 84.09570312 C514.58212891 84.22783203 515.47480469 84.35996094 516.39453125 84.49609375 C517.21671143 84.61654053 518.0388916 84.7369873 518.88598633 84.86108398 C521.0625 85.25 521.0625 85.25 524.0625 86.25 C526.5950893 86.34954686 529.09287922 86.39183136 531.625 86.375 C532.36717773 86.37089111 533.10935547 86.36678223 533.87402344 86.36254883 C539.52295573 86.30757282 545.16825488 86.17381675 550.8125 85.9375 C551.93700562 85.90390381 551.93700562 85.90390381 553.08422852 85.86962891 C557.50408636 85.64780795 560.59929441 85.08233702 564.0625 82.25 C565.2813121 78.69327821 565.2813121 78.69327821 566.0625 75.25 C568.85731859 73.8525907 571.19574019 74.11788411 574.3125 74.125 C575.43140625 74.12242188 576.5503125 74.11984375 577.703125 74.1171875 C581.0625 74.25 581.0625 74.25 583.73046875 74.7265625 C588.83906894 75.52908586 593.9615656 75.58459907 599.125 75.75 C601.48960723 75.83396508 603.85419049 75.91860795 606.21875 76.00390625 C607.38664062 76.04531738 608.55453125 76.08672852 609.7578125 76.12939453 C616.8047755 76.38657536 623.84645579 76.71842725 630.88818359 77.09082031 C633.2816256 77.21084217 635.6746672 77.32176419 638.06884766 77.42480469 C641.77984464 77.58480769 645.48956698 77.76402891 649.19918823 77.95315552 C650.67685713 78.02534159 652.15484581 78.09128556 653.63308716 78.15060425 C668.61605143 78.76035996 668.61605143 78.76035996 674.0625 83.25 C675.3125 86.75 675.3125 86.75 675.0625 90.25 C672.4751515 92.91764853 670.80057301 94.129857 667.10746765 94.73101807 C666.01714737 94.72213562 664.92682709 94.71325317 663.8034668 94.70410156 C662.56255783 94.70379944 661.32164886 94.70349731 660.0431366 94.70318604 C658.69932404 94.68276278 657.35551811 94.66189885 656.01171875 94.640625 C654.62881795 94.63315866 653.24590652 94.62746758 651.86299133 94.62347412 C648.23447123 94.6082483 644.60659812 94.56899424 640.97833252 94.5246582 C637.27145132 94.48363873 633.56446493 94.46544895 629.85742188 94.4453125 C622.59215391 94.40249579 615.32741783 94.334283 608.0625 94.25 C610.05298826 96.24048826 613.98040608 95.48189224 616.7109375 95.53125 C617.4792691 95.54965942 618.24760071 95.56806885 619.03921509 95.58703613 C621.50522995 95.64596301 623.97131577 95.69868111 626.4375 95.75 C629.67462596 95.81765087 632.91153084 95.89138555 636.1484375 95.96875 C636.89539886 95.98232544 637.64236023 95.99590088 638.41195679 96.0098877 C641.54242586 96.08494263 644.07155376 96.25301792 647.0625 97.25 C647.0625 98.24 647.0625 99.23 647.0625 100.25 C642.51953241 101.39097965 638.05490439 101.40386234 633.40234375 101.37890625 C632.53584702 101.37645401 631.66935028 101.37400177 630.77659607 101.37147522 C617.88534214 101.28130678 605.0068338 100.61290419 592.13061523 100.02905273 C588.75524522 99.87757711 585.37962284 99.73335465 582.00390625 99.58984375 C580.46338341 99.51648048 580.46338341 99.51648048 578.89173889 99.44163513 C577.93561203 99.4015181 576.97948517 99.36140106 575.99438477 99.32006836 C575.1598024 99.28231796 574.32522003 99.24456757 573.46534729 99.20567322 C570.86692775 99.25360784 568.57468866 99.58724644 566.0625 100.25 C565.40338623 101.00869385 565.40338623 101.00869385 564.73095703 101.78271484 C562.02503135 104.16237732 558.80424701 103.71114325 555.3671875 103.7265625 C554.61913849 103.74214203 553.87108948 103.75772156 553.10037231 103.77377319 C550.71275855 103.82128681 548.32543741 103.84905982 545.9375 103.875 C543.54262655 103.91145311 541.14792039 103.95201834 538.75320435 103.99765015 C537.26313042 104.02494206 535.77293345 104.04626488 534.28268433 104.06118774 C530.88448468 103.81290578 530.88448468 103.81290578 528.0625 105.25 C551.46910631 105.64394142 551.46910631 105.64394142 574.8125 104.25 C609.71467399 100.78825582 646.12772468 102.77332621 681.0625 105.25 C681.625 107.1875 681.625 107.1875 682.0625 109.25 C681.0625 110.25 681.0625 110.25 677.56446838 110.35679626 C675.96556786 110.3535719 674.36667353 110.34474504 672.76782227 110.33178711 C671.89570099 110.32872055 671.02357971 110.32565399 670.12503052 110.32249451 C668.21746993 110.31531165 666.30991677 110.30590755 664.40237617 110.29459953 C661.34750502 110.27716453 658.29268679 110.26688857 655.23777771 110.25868225 C646.54543011 110.23432251 637.85315041 110.19974418 629.16088867 110.15405273 C603.38001652 110.02312377 577.77562296 110.2388173 552.0625 112.25 C559.32455882 112.29913289 566.53585976 112.25949978 573.78125 111.76171875 C582.71354073 111.21552557 591.61495269 111.05207689 600.5625 111.0625 C601.37480072 111.06243958 602.18710144 111.06237915 603.02401733 111.06231689 C619.982452 111.07972449 636.92678265 111.57170085 653.875 112.125 C655.14601563 112.16420563 656.41703125 112.20341125 657.7265625 112.24380493 C661.38710282 112.35899614 665.04702921 112.48610284 668.70703125 112.6171875 C669.79204422 112.65062759 670.87705719 112.68406769 671.99494934 112.71852112 C678.83588827 112.98267463 685.36340129 113.83925417 692.0625 115.25 C692.0625 116.57 692.0625 117.89 692.0625 119.25 C684.92523722 121.62908759 678.68518484 121.40075215 671.26904297 120.7421875 C664.33553443 120.20322534 657.44568095 120.13271648 650.49383926 120.17483521 C648.32334673 120.18785676 646.15291682 120.19417743 643.98239136 120.19897461 C639.38406555 120.21026551 634.78579293 120.229538 630.1875 120.25 C624.8305485 120.27371876 619.47362623 120.29403809 614.11663437 120.30593872 C611.99016014 120.31236448 609.86377925 120.32486184 607.73733521 120.33764648 C606.43843353 120.34094971 605.13953186 120.34425293 603.80126953 120.34765625 C602.09803024 120.35551147 602.09803024 120.35551147 600.36038208 120.36352539 C596.86916544 120.2433447 593.51598472 119.75651589 590.0625 119.25 C587.78727613 119.53056336 587.78727613 119.53056336 585.75 120.1875 C579.4571137 121.74233668 573.55217193 121.48417706 567.1171875 120.87890625 C553.97345918 119.72508408 541.7813652 121.4210978 528.82885742 123.75341797 C522.44351658 124.89963483 516.19423969 125.5385413 509.72070312 125.85546875 C506.62268339 126.02450463 504.02245833 126.26334722 501.0625 127.25 C502.0339814 128.4425702 502.0339814 128.4425702 503.81370544 128.35559082 C504.57699661 128.34717163 505.34028778 128.33875244 506.12670898 128.33007812 C506.99143326 128.32423706 507.85615753 128.318396 508.74708557 128.31237793 C509.69550827 128.30210571 510.64393097 128.2918335 511.62109375 128.28125 C519.63846673 128.23711025 527.64475903 128.28366129 535.66015625 128.46875 C536.65203949 128.49098633 537.64392273 128.51322266 538.66586304 128.53613281 C540.73989578 128.58284887 542.81392115 128.62989334 544.88793945 128.67724609 C560.94478055 129.03812841 576.99741719 129.29445959 593.05859375 129.28125 C594.06141231 129.28048714 594.06141231 129.28048714 595.08448982 129.27970886 C602.22706024 129.272658 609.3694808 129.24935632 616.51196289 129.21289062 C628.94784011 129.16072837 641.3701004 129.25217813 653.80078125 129.62109375 C654.99505737 129.651427 656.1893335 129.68176025 657.4197998 129.7130127 C663.93382695 129.93543836 669.96303511 130.58305195 676.25 132.3125 C683.68079583 134.29516939 690.56731822 134.41784409 698.25 134.25 C707.8697552 134.04683433 717.18453517 134.04316722 726.0625 138.25 C726.3925 139.24 726.7225 140.23 727.0625 141.25 C723.65612404 144.81121123 721.67026496 145.34467979 716.7043457 145.5402832 C706.78721763 145.9325371 698.97623872 146.88040542 691.0625 153.25 C689.31970257 153.79444879 687.56847494 154.31218072 685.8125 154.8125 C678.81392465 157.24348411 674.51891122 161.75461852 671.0625 168.25 C670.3948019 172.05870045 670.46540979 175.43894275 671.0625 179.25 C665.22244812 183.66564898 659.67496634 183.8225798 652.5859375 184.07421875 C649.61528143 184.22242221 646.9484943 184.56996686 644.0625 185.25 C645.44779462 188.6988064 646.67621505 189.89350033 650.0625 191.375 C652.62970838 192.5170302 654.04449302 193.23199302 656.0625 195.25 C656.4375 197.625 656.4375 197.625 656.0625 200.25 C653.8147146 203.04035429 652.48519984 204.10910005 649.0625 205.25 C647.28936149 205.33209792 645.51329225 205.35746294 643.73828125 205.34765625 C642.71025391 205.34443359 641.68222656 205.34121094 640.62304688 205.33789062 C639.55119141 205.32951172 638.47933594 205.32113281 637.375 205.3125 C635.74981445 205.30573242 635.74981445 205.30573242 634.09179688 205.29882812 C631.41530915 205.28703743 628.73893223 205.27058063 626.0625 205.25 C629.4420977 210.31939655 635.30583533 211.01019884 641.0625 212.25 C644.2835602 212.42281944 647.3838507 212.39372368 650.6015625 212.1953125 C653.0625 212.25 653.0625 212.25 656.0625 214.25 C656.25 217.375 656.25 217.375 656.0625 220.25 C653.0925 221.24 650.1225 222.23 647.0625 223.25 C647.0625 223.91 647.0625 224.57 647.0625 225.25 C649.54531814 226.49140907 651.34485458 226.44032883 654.12109375 226.53125 C655.14783203 226.56863281 656.17457031 226.60601562 657.23242188 226.64453125 C658.31072266 226.67933594 659.38902344 226.71414062 660.5 226.75 C682.53222204 227.48486102 682.53222204 227.48486102 686.0625 229.25 C686.17105028 233.70056166 685.70236714 237.8509134 685.0625 242.25 C685.124375 243.1575 685.18625 244.065 685.25 245 C685.0625 247.25 685.0625 247.25 683.25 249 C674.30202542 254.11312833 659.89066403 252.84999069 650.1796875 250.859375 C643.21190567 249.49725224 636.12607986 248.90225811 629.0625 248.25 C628.22477051 248.1679834 627.38704102 248.0859668 626.52392578 248.00146484 C616.52827618 247.07352687 607.08801111 246.96271125 597.1875 248.8125 C595.96667725 249.0283374 595.96667725 249.0283374 594.72119141 249.24853516 C590.51284887 250.15804331 588.02179431 251.07300381 585.10620117 254.28393555 C580.09869351 258.70849766 574.43515658 258.16850412 568.04296875 258.203125 C566.78921951 258.23428406 565.53547028 258.26544312 564.24372864 258.29754639 C560.9215447 258.37632223 557.60086608 258.43107892 554.27813721 258.47253418 C549.61436215 258.53569283 544.9513892 258.63959797 540.28840637 258.74530029 C537.81213853 258.79916046 535.33560114 258.8421138 532.8589325 258.87237549 C526.79664548 258.98172528 521.19437153 259.46565622 515.2797699 260.79730225 C512.0579762 261.45509261 508.9030591 261.54216006 505.62109375 261.59375 C504.96851089 261.6083728 504.31592804 261.62299561 503.64356995 261.63806152 C500.9081511 261.69911368 498.17253331 261.73965456 495.43676758 261.78173828 C487.75390701 261.91153795 480.51340161 262.20820597 473.0625 264.25 C474.81704385 267.43234105 474.81704385 267.43234105 477.0625 270.25 C477.1875 272.75 477.1875 272.75 477.0625 275.25 C476.0625 276.25 476.0625 276.25 473.5 276.3125 C472.695625 276.291875 471.89125 276.27125 471.0625 276.25 C470.5675 273.775 470.5675 273.775 470.0625 271.25 C469.0725 271.25 468.0825 271.25 467.0625 271.25 C466.93875 272.3225 466.815 273.395 466.6875 274.5 C465.93002108 277.16460669 465.41375953 278.03508021 463.01953125 279.5 C460.39391629 280.54210454 457.76375838 281.42418672 455.0625 282.25 C453.45775817 282.7899603 451.85355136 283.33151447 450.25 283.875 C447.89744923 284.65088535 445.54264599 285.41951761 443.1875 286.1875 C440.92078016 287.09000966 440.92078016 287.09000966 439.8125 289.25 C436.9592612 292.51084435 433.18831932 292.73219002 429.0625 293.25 C423.28870893 293.46307951 417.526044 293.39509243 411.75 293.3125 C408.69143956 293.27553369 405.63291802 293.24540757 402.57421875 293.22265625 C401.83762527 293.21674973 401.1010318 293.2108432 400.34211731 293.20475769 C395.02034982 293.1882322 389.78991577 293.53307445 384.49194336 294.05200195 C381.60290808 294.28745644 378.8760183 294.15558908 376 293.8125 C371.10252394 293.29765363 366.35656187 293.22715544 361.4375 293.41015625 C359.0625 293.25 359.0625 293.25 357.19042969 292.21704102 C354.64763373 291.06146337 353.37869756 291.20445056 350.640625 291.6171875 C344.35366196 292.39559527 338.14124308 292.39960363 331.8125 292.375 C330.57064941 292.37234131 329.32879883 292.36968262 328.04931641 292.36694336 C318.50743145 292.31976543 308.97437283 292.11400478 299.4375 291.8125 C298.14553711 291.77334473 296.85357422 291.73418945 295.52246094 291.69384766 C294.3265332 291.65179199 293.13060547 291.60973633 291.8984375 291.56640625 C290.84188965 291.52974854 289.7853418 291.49309082 288.69677734 291.45532227 C286.0625 291.25 286.0625 291.25 283.0625 290.25 C283.3925 287.94 283.7225 285.63 284.0625 283.25 C281.77555777 282.74620971 281.77555777 282.74620971 279.0625 283.25 C277.33026336 285.19348501 275.66368397 287.19720004 274.0625 289.25 C270.85094123 291.35385424 268.20773357 291.50696506 264.4140625 291.515625 C263.32609375 291.51820313 262.238125 291.52078125 261.1171875 291.5234375 C259.41949219 291.51183594 259.41949219 291.51183594 257.6875 291.5 C256.5634375 291.50773437 255.439375 291.51546875 254.28125 291.5234375 C241.63842666 291.49354903 241.63842666 291.49354903 237.125 287.5625 C234.95806176 285.89683384 234.95806176 285.89683384 231.4375 286.5 C228.21408477 287.07315111 228.21408477 287.07315111 226.0625 288.25 C223.62388222 288.15812974 221.21639839 288.00706523 218.78515625 287.81640625 C208.35435772 287.10134851 197.9502989 287.13855895 187.5 287.1875 C185.60221474 287.19253219 183.70442817 287.19709202 181.80664062 287.20117188 C177.22522706 287.21202486 172.64387871 287.22919156 168.0625 287.25 C167.7325 285.93 167.4025 284.61 167.0625 283.25 C170.63943459 280.86537694 173.97606434 280.38082347 178.125 279.6875 C183.23989766 278.95492744 183.23989766 278.95492744 188.0625 277.25 C188.0625 276.59 188.0625 275.93 188.0625 275.25 C187.44761719 275.07984375 186.83273437 274.9096875 186.19921875 274.734375 C179.55452733 272.74202733 179.55452733 272.74202733 177 270.1875 C176.0625 268.25 176.0625 268.25 176.0625 266.25 C166.57232119 263.37995191 154.95673436 265.29323661 145.1875 265.875 C144.01703125 265.92011719 142.8465625 265.96523438 141.640625 266.01171875 C135.17107742 266.41514859 131.01235134 266.95655293 126.52905273 271.85766602 C122.21791722 275.9506252 114.72573558 275.34052233 109.1875 275.625 C101.04380723 276.12574486 94.20511021 278.30239205 87.1875 282.4375 C84.28137999 284.12304961 82.39423578 285.06990617 79.0625 285.25 C77.7425 284.59 76.4225 283.93 75.0625 283.25 C75.3925 280.28 75.7225 277.31 76.0625 274.25 C71.6462235 273.58339223 67.52713513 273.22640397 63.0625 273.375 C58.44417149 273.43245329 54.32343344 272.76565829 49.8125 271.796875 C41.66168586 270.16545184 33.63952983 269.62491384 25.34130859 269.43164062 C23.03493729 269.37431492 20.73106655 269.28575398 18.42578125 269.1953125 C10.96778024 268.95673548 4.9504831 269.07996232 -1.9375 272.25 C-4.60479843 272.83086675 -7.21648062 273.12166739 -9.9375 273.4375 C-10.61683594 273.51935547 -11.29617188 273.60121094 -11.99609375 273.68554688 C-13.64218619 273.88261428 -15.28971472 274.06762793 -16.9375 274.25 C-16.9375 276.23 -16.9375 278.21 -16.9375 280.25 C-24.93107879 282.13084207 -34.73743979 283.17002753 -42.35546875 279.6875 C-45.25 277.75 -45.25 277.75 -47.73828125 275.78125 C-50.03797949 273.86906259 -50.03797949 273.86906259 -53.9375 274.25 C-54.040625 275.36375 -54.14375 276.4775 -54.25 277.625 C-54.476875 278.82125 -54.70375 280.0175 -54.9375 281.25 C-60.70066989 285.09211326 -68.18434054 284.63460205 -74.9375 284.25 C-75.55077148 284.08064941 -76.16404297 283.91129883 -76.79589844 283.73681641 C-79.15301837 283.20100962 -81.12326907 283.2148099 -83.53515625 283.328125 C-100.77348525 283.8985225 -100.77348525 283.8985225 -108.7734375 279.44140625 C-111.93923721 277.69850208 -114.3343494 277.25 -117.9375 277.25 C-118.93883779 278.24866042 -119.93876823 279.24873338 -120.9375 280.25 C-126.75070684 281.35250475 -132.59755463 281.36886691 -138.5 281.4375 C-139.20785645 281.45063232 -139.91571289 281.46376465 -140.64501953 281.47729492 C-144.35834182 281.48288339 -147.64453627 281.17125207 -151.2421875 280.21875 C-155.332787 279.14637296 -157.8251919 279.42753838 -161.9375 280.25 C-167.39393491 281.19745361 -172.54255287 281.33836986 -178.05078125 281.19921875 C-178.92576263 281.18112152 -179.80074402 281.16302429 -180.70223999 281.14437866 C-183.55170824 281.08252852 -186.40080696 281.01088754 -189.25 280.9375 C-190.22514557 280.91388397 -191.20029114 280.89026794 -192.20498657 280.86593628 C-239.06719589 279.71608162 -239.06719589 279.71608162 -261.12109375 276.51953125 C-264.01480174 276.05067502 -264.01480174 276.05067502 -266.9375 277.25 C-273.5547832 277.56161721 -280.12072142 277.48404139 -286.64453125 276.2734375 C-289.16537222 276.13707398 -289.16537222 276.13707398 -292.36425781 277.24780273 C-297.71837785 278.61613355 -302.91141811 278.41398392 -308.40234375 278.26171875 C-309.5242662 278.23942703 -310.64618866 278.21713531 -311.80210876 278.19416809 C-315.49336227 278.11862133 -319.18408774 278.02809345 -322.875 277.9375 C-325.45651989 277.88173389 -328.03806365 277.82706279 -330.61962891 277.7734375 C-334.63567651 277.68946829 -338.65168756 277.60482014 -342.66760254 277.51473999 C-352.02671088 277.30526477 -361.38574184 277.13436531 -370.74609375 276.98828125 C-372.65554024 276.95791023 -372.65554024 276.95791023 -374.6035614 276.92692566 C-379.5275877 276.84866872 -384.45161105 276.77047878 -389.3757019 276.69638062 C-401.35359133 276.51348719 -413.30260371 276.2398289 -425.26425171 275.5778656 C-431.66490677 275.23311058 -438.02849883 275.20527227 -444.4375 275.3125 C-455.09669134 275.40903607 -465.62769035 274.85401008 -476.24804688 273.96118164 C-486.9673563 273.07397359 -497.31472579 273.01792565 -508 274.25 C-518.00737527 275.31436191 -527.88383957 275.45681816 -537.9375 275.25 C-537.9375 276.24 -537.9375 277.23 -537.9375 278.25 C-536.62523437 278.23839844 -535.31296875 278.22679687 -533.9609375 278.21484375 C-522.38956333 278.14312254 -510.81861475 278.24175272 -499.25 278.5 C-498.0110498 278.51409912 -496.77209961 278.52819824 -495.49560547 278.54272461 C-488.33789376 278.73564317 -482.54511667 279.6760545 -475.93823242 282.49902344 C-472.44234513 283.37391965 -469.90018493 283.04182487 -466.37034607 282.54797363 C-462.18140975 282.03491504 -457.99225428 282.10757593 -453.77734375 282.1171875 C-452.82920303 282.11623077 -451.88106232 282.11527405 -450.90419006 282.11428833 C-448.90658501 282.11361155 -446.9089777 282.11543057 -444.91137695 282.11962891 C-441.90766243 282.12494222 -438.90410031 282.11968838 -435.90039062 282.11328125 C-406.63730169 282.09936647 -406.63730169 282.09936647 -395.9375 285.25 C-393.39801545 285.35733904 -390.85342876 285.3771876 -388.3125 285.3125 C-383.97581168 285.21133993 -380.16477564 285.3033793 -375.9375 286.25 C-372.11187101 286.37144854 -368.7058556 286.37805927 -364.9375 285.75 C-358.41564159 284.6630236 -353.94323205 285.19605589 -347.6875 287.1875 C-340.02721553 289.51006561 -332.33928922 289.83515713 -324.375 290.125 C-322.53663574 290.19835571 -322.53663574 290.19835571 -320.66113281 290.27319336 C-314.20545071 290.54932554 -314.20545071 290.54932554 -307.95532227 289.22070312 C-304.46674254 288.09857765 -302.10440096 288.23579969 -298.46875 288.6015625 C-292.02651604 289.16372221 -285.62191347 289.38223404 -279.15625 289.4609375 C-277.73070801 289.48211639 -277.73070801 289.48211639 -276.27636719 289.50372314 C-272.34136016 289.56185692 -268.40647943 289.61638685 -264.47119141 289.65136719 C-252.58862675 289.76537691 -241.4912085 290.3338155 -229.9375 293.25 C-220.36275406 295.90203235 -220.36275406 295.90203235 -210.9375 294.25 C-206.9943804 294.11856268 -203.51393305 294.15211514 -199.625 294.8125 C-196.84782625 295.47819173 -196.84782625 295.47819173 -193.9375 294.25 C-192.23147445 294.19070769 -190.52313169 294.18908478 -188.81640625 294.22265625 C-187.80392822 294.23611084 -186.7914502 294.24956543 -185.74829102 294.26342773 C-184.67635498 294.27962158 -183.60441895 294.29581543 -182.5 294.3125 C-174.89030326 294.38510194 -167.78930874 294.15370307 -160.30859375 292.64453125 C-151.95046458 291.25380465 -142.66864123 294.30880497 -134.9375 297.25 C-133.26987814 298.58213846 -131.603081 299.91531072 -129.9375 301.25 C-127.80112406 301.6904669 -127.80112406 301.6904669 -125.75 301.4375 C-121.9375 301.25 -121.9375 301.25 -119.9375 302.25 C-120.2675 303.24 -120.5975 304.23 -120.9375 305.25 C-129.24701117 308.01983706 -140.25353635 306.2295806 -148.86376953 305.60595703 C-155.02396396 305.18406704 -161.1447273 305.21142849 -167.31640625 305.3125 C-170.9375 305.25 -170.9375 305.25 -174.15112305 304.74780273 C-178.17871795 304.21828658 -182.09089574 304.15856965 -186.140625 304.22265625 C-187.76000492 304.23689047 -189.37939009 304.25053699 -190.9987793 304.26367188 C-191.84435394 304.27197021 -192.68992859 304.28026855 -193.56112671 304.28881836 C-207.95696053 304.41862358 -222.25826917 304.18766375 -236.625 303.25 C-246.38441708 302.61605037 -256.07411319 302.09606901 -265.85961914 302.21655273 C-283.69955906 302.40329321 -301.6214262 301.62611331 -319.4375 300.75 C-320.19562988 300.71463135 -320.95375977 300.6792627 -321.73486328 300.64282227 C-326.6924461 300.37252695 -326.6924461 300.37252695 -328.9375 299.25 C-328.9375 298.26 -328.9375 297.27 -328.9375 296.25 C-329.75089844 296.4665625 -330.56429688 296.683125 -331.40234375 296.90625 C-338.00251177 298.50989037 -343.94034349 299.43980077 -350.74633789 299.36669922 C-351.47534081 299.36051008 -352.20434374 299.35432095 -352.95543766 299.34794426 C-355.28302675 299.32483823 -357.61012682 299.28901541 -359.9375 299.25 C-360.69213909 299.23863258 -361.44677818 299.22726517 -362.22428513 299.21555328 C-367.83628694 299.1287583 -373.44737266 299.00968466 -379.05859375 298.8828125 C-379.93728685 298.86324368 -380.81597996 298.84367485 -381.72130013 298.82351303 C-386.37439348 298.71970435 -391.02742583 298.61353388 -395.68041992 298.50537109 C-399.46061468 298.41787971 -403.24086444 298.33464932 -407.02124023 298.25537109 C-427.15954959 297.83185828 -447.17464003 297.23317427 -467.24710083 295.47113037 C-474.71417524 294.85739359 -482.20315607 294.56833618 -489.6875 294.25 C-490.58052826 294.21053253 -491.47355652 294.17106506 -492.39364624 294.13040161 C-514.47434963 293.16116275 -536.56994292 292.58136448 -558.66384983 292.00627804 C-561.62221884 291.9289959 -564.58053354 291.8497348 -567.53884697 291.77035713 C-569.55970004 291.7170802 -571.58063805 291.66705496 -573.60157776 291.61717224 C-580.65383394 291.42865125 -587.67893932 291.10058396 -594.7181921 290.63300991 C-603.05251707 290.09150999 -611.39602125 289.82080572 -619.7421875 289.53125 C-621.51792085 289.4680112 -623.29364702 289.40457071 -625.06936646 289.34094238 C-629.71160552 289.17508263 -634.3539281 289.01169514 -638.99627686 288.84893799 C-643.640794 288.68576939 -648.28523982 288.52060102 -652.9296875 288.35546875 C-653.83526524 288.32331268 -654.74084297 288.29115662 -655.67386246 288.25802612 C-660.17304307 288.09819844 -664.67220205 287.93779147 -669.17132568 287.77636719 C-670.90555809 287.71418782 -672.63979067 287.65201325 -674.37402344 287.58984375 C-675.20756222 287.5599234 -676.041101 287.53000305 -676.89989853 287.49917603 C-681.73804131 287.32621323 -686.5763774 287.16184624 -691.41503906 287.00390625 C-702.01755887 286.64577587 -712.56892427 286.08896498 -723.14453125 285.24609375 C-736.61137852 284.17752439 -750.06621031 283.75650395 -763.56851196 283.41629028 C-783.49028368 282.91255281 -803.36961346 282.23551762 -823.25 280.8125 C-845.10796028 279.26037915 -866.97688504 278.61885286 -888.87556076 277.96311569 C-921.84026321 276.97409027 -954.76088829 275.62780441 -987.6875 273.75 C-988.63831829 273.69588329 -989.58913658 273.64176659 -990.56876755 273.58600998 C-1008.83512209 272.54411447 -1027.09806051 271.45058133 -1045.35546875 270.26171875 C-1046.47053802 270.18925934 -1047.5856073 270.11679993 -1048.73446655 270.04214478 C-1053.53781513 269.72810652 -1058.34028525 269.40625112 -1063.14160156 269.0625 C-1080.40648142 267.85235088 -1097.32707101 268.130017 -1114.5625 269.625 C-1117.65845578 269.88777608 -1120.7548194 270.14511101 -1123.8515625 270.3984375 C-1125.09667603 270.50069138 -1125.09667603 270.50069138 -1126.36694336 270.60501099 C-1133.58440835 271.17983501 -1140.80765539 271.60555205 -1148.03580093 272.0213623 C-1167.68610904 273.15583433 -1187.29085901 274.75753741 -1206.90485382 276.39344788 C-1215.45942169 277.10529848 -1224.0149417 277.80569165 -1232.5703125 278.5078125 C-1233.50300838 278.5844664 -1234.43570427 278.6611203 -1235.39666367 278.74009705 C-1252.51525686 280.14632193 -1269.6387597 281.46968696 -1286.76821899 282.73721313 C-1300.36065994 283.74313738 -1313.94268775 284.82601716 -1327.52175903 285.9977417 C-1340.78939919 287.13557924 -1354.06969393 287.97950517 -1367.36010742 288.80200195 C-1384.55641732 289.87486586 -1401.71168068 291.30747073 -1418.875 292.8125 C-1435.24285568 294.2462615 -1451.58446111 295.58556655 -1468 296.3125 C-1498.38429979 297.67216049 -1529.00041896 299.37283215 -1559.0078125 304.515625 C-1566.41039951 305.72596881 -1572.21482352 305.81713446 -1578.9375 302.25 C-1580.4922669 299.14046621 -1580.22394437 296.68733239 -1579.9375 293.25 C-1578.11260595 289.80297791 -1576.48655883 287.66514204 -1573.375 285.3125 C-1570.26594353 282.68175991 -1569.4701966 279.98178302 -1567.9375 276.25 C-1565.75 273.8125 -1565.75 273.8125 -1563.9375 272.25 C-1564.7109375 271.1671875 -1564.7109375 271.1671875 -1565.5 270.0625 C-1566.9375 267.25 -1566.9375 267.25 -1566.875 264.9375 C-1565.9375 262.25 -1565.9375 262.25 -1564.8984375 260.54296875 C-1562.21826389 256.06689649 -1561.74078904 253.60977527 -1562.875 248.4375 C-1563.25978516 247.06658203 -1563.25978516 247.06658203 -1563.65234375 245.66796875 C-1563.9375 243.25 -1563.9375 243.25 -1562.71533203 241.66748047 C-1560.68287443 240.04698489 -1559.31600789 239.6391066 -1556.77734375 239.15234375 C-1555.98392578 238.99056641 -1555.19050781 238.82878906 -1554.37304688 238.66210938 C-1553.54869141 238.50548828 -1552.72433594 238.34886719 -1551.875 238.1875 C-1550.23694768 237.87008753 -1548.60014035 237.54616096 -1546.96484375 237.21484375 C-1546.24031006 237.0768335 -1545.51577637 236.93882324 -1544.76928711 236.79663086 C-1542.71106494 236.34048563 -1542.71106494 236.34048563 -1540.9375 234.25 C-1541.57558594 233.981875 -1542.21367188 233.71375 -1542.87109375 233.4375 C-1545.46012149 232.20963037 -1547.69292071 231.03798236 -1549.9375 229.25 C-1550.84424601 226.52455079 -1550.79454826 224.15668548 -1550.9375 221.25 C-1552.85814793 219.6600567 -1552.85814793 219.6600567 -1554.9375 219.25 C-1554.57250534 212.07177161 -1554.57250534 212.07177161 -1551.8125 208.5 C-1549.59416116 206.76390873 -1547.62851881 205.46103087 -1545.1875 204.125 C-1541.67873224 202.57987952 -1541.67873224 202.57987952 -1540.9375 199.25 C-1542.05125 198.96125 -1543.165 198.6725 -1544.3125 198.375 C-1547.9375 197.25 -1547.9375 197.25 -1549.9375 195.25 C-1549.6875 193.1875 -1549.6875 193.1875 -1548.9375 191.25 C-1548.2775 190.92 -1547.6175 190.59 -1546.9375 190.25 C-1547.1025 189.569375 -1547.2675 188.88875 -1547.4375 188.1875 C-1547.6025 187.218125 -1547.7675 186.24875 -1547.9375 185.25 C-1548.14375 184.1775 -1548.35 183.105 -1548.5625 182 C-1547.69354609 176.78627656 -1544.87773332 174.77637145 -1541.00390625 171.36328125 C-1538.91368332 169.22564305 -1538.2991766 168.16314065 -1537.9375 165.25 C-1538.55625 164.858125 -1539.175 164.46625 -1539.8125 164.0625 C-1541.9375 162.25 -1541.9375 162.25 -1542.8125 159.75 C-1544.37271996 156.28284454 -1546.51873256 155.6620996 -1549.9375 154.25 C-1549.2975 150.538 -1549.2975 150.538 -1547.375 149 C-1545.50876585 147.11990435 -1545.50876585 147.11990435 -1546.0625 143.3125 C-1546.14757813 142.64347656 -1546.23265625 141.97445312 -1546.3203125 141.28515625 C-1545.9375 139.25 -1545.9375 139.25 -1543.89453125 137.17578125 C-1540.56009914 135.00421582 -1537.25644173 133.6028351 -1533.5 132.375 C-1532.73558594 132.12451904 -1531.97117187 131.87403809 -1531.18359375 131.6159668 C-1512.94972104 125.95139972 -1493.80590398 122.95882443 -1474.83398438 121.18676758 C-1473.82142578 121.08904053 -1472.80886719 120.99131348 -1471.765625 120.890625 C-1470.8777832 120.81360352 -1469.98994141 120.73658203 -1469.07519531 120.65722656 C-1466.73088328 120.41824506 -1466.73088328 120.41824506 -1464.9375 118.25 C-1464.84657743 116.20385916 -1464.84657743 116.20385916 -1465.0625 113.9375 C-1465.09247998 110.824579 -1464.95430621 109.28865429 -1463.6875 106.375 C-1455.816752 100.29305836 -1443.4787979 100.50935492 -1433.9375 99.6875 C-1431.37435312 99.46434045 -1428.81180306 99.23418448 -1426.25 98.99609375 C-1425.13238281 98.89997803 -1424.01476563 98.8038623 -1422.86328125 98.70483398 C-1420.12316614 98.27886315 -1418.30232556 97.65429498 -1415.9375 96.25 C-1419.21214167 94.61267917 -1422.82460935 95.19401579 -1426.41796875 95.2578125 C-1428.15689508 95.27534114 -1429.89582777 95.29224822 -1431.63476562 95.30859375 C-1434.37558598 95.33945829 -1437.11608796 95.37484866 -1439.85668945 95.42138672 C-1442.50215503 95.46396678 -1445.14725232 95.48724203 -1447.79296875 95.5078125 C-1449.00898018 95.53574387 -1449.00898018 95.53574387 -1450.2495575 95.5642395 C-1455.56602738 95.58797173 -1459.24615366 94.81791853 -1463.9375 92.25 C-1464.5975 91.26 -1465.2575 90.27 -1465.9375 89.25 C-1468.95571022 88.24392993 -1471.21754345 88.11995764 -1474.375 88 C-1478.29501315 87.66770749 -1479.56822111 87.55213727 -1482.6875 85 C-1483.9375 82.25 -1483.9375 82.25 -1484 79.5625 C-1482.9375 77.25 -1482.9375 77.25 -1480.375 75.9375 C-1479.570625 75.710625 -1478.76625 75.48375 -1477.9375 75.25 C-1478.31583598 71.97108813 -1479.19869062 70.96332737 -1481.5 68.4375 C-1483.75751323 65.86770828 -1483.93415599 65.28232548 -1484.3125 61.625 C-1484.02253657 59.01532916 -1483.56814101 56.77256403 -1482.9375 54.25 C-1482.59122147 48.91341252 -1482.59122147 48.91341252 -1484.9375 44.25 C-1484.65149587 39.86460334 -1483.58906269 36.75385069 -1480.9375 33.25 C-1447.76670342 10.20814309 -1378.11619865 20.63666912 -1339.03214264 20.27009583 C-1336.92691394 20.24989844 -1334.82170293 20.22835881 -1332.7164917 20.2064209 C-1324.53222156 20.12183116 -1316.34825131 20.05691455 -1308.16360474 20.01983643 C-1305.60976291 20.00668199 -1303.05594081 19.98878872 -1300.50216675 19.96600342 C-1296.96746549 19.93645408 -1293.43324747 19.9264007 -1289.8984375 19.921875 C-1288.85562119 19.90957855 -1287.81280487 19.8972821 -1286.73838806 19.88461304 C-1277.8272851 19.91200578 -1277.8272851 19.91200578 -1273.9375 23.25 C-1272.55906808 25.21918846 -1271.21939588 27.21664791 -1269.9375 29.25 C-1267.22870665 30.60439668 -1264.92816732 30.31501451 -1261.9375 30.25 C-1261.9375 27.14448334 -1262.4768715 25.89738916 -1263.9375 23.25 C-1260.68988991 20.00238991 -1252.56578392 21.02682809 -1248.09375 20.8984375 C-1247.34364655 20.87483154 -1246.59354309 20.85122559 -1245.82070923 20.8269043 C-1243.35977235 20.75314385 -1240.89873879 20.68784696 -1238.4375 20.625 C-1237.58879333 20.60254211 -1236.74008667 20.58008423 -1235.86566162 20.5569458 C-1222.58648009 20.22080713 -1209.34045039 20.26152866 -1196.0625 20.625 C-1195.27077393 20.64632996 -1194.47904785 20.66765991 -1193.66333008 20.68963623 C-1186.36103918 20.89467761 -1179.07095086 21.15817013 -1171.7820282 21.65103149 C-1160.60251758 22.40034688 -1149.44996948 22.32791283 -1138.25 22.25 C-1116.569026 22.09999573 -1116.569026 22.09999573 -1105.98071289 22.99609375 C-1095.52451574 23.7531035 -1084.97813764 23.60279843 -1074.5 23.75 C-1060.07840093 23.95526919 -1045.67526601 24.19896045 -1031.26754761 24.88354492 C-1019.93631492 25.41301044 -1008.59891504 25.59557457 -997.25805664 25.80224609 C-994.41546834 25.85504359 -991.5729764 25.91179672 -988.73046875 25.96875 C-987.91120407 25.98232544 -987.09193939 25.99590088 -986.24784851 26.0098877 C-980.67755221 26.12271621 -975.12532348 26.40394579 -969.56420898 26.73413086 C-959.419476 27.32574754 -949.27601854 27.57601556 -939.1171875 27.78515625 C-938.12224651 27.80636662 -937.12730553 27.82757698 -936.10221481 27.84943008 C-928.33917499 28.01453775 -920.57590527 28.16569826 -912.8125 28.3125 C-911.65209702 28.33471745 -910.49169403 28.35693489 -909.29612732 28.37982559 C-866.65885711 29.19094173 -824.03133421 29.44497051 -781.38740253 29.4376502 C-779.20513431 29.4375012 -777.02286716 29.43797015 -774.84059906 29.43867874 C-742.76810917 29.448958 -710.70865352 29.30579357 -678.64373684 28.5279026 C-669.19634046 28.29958541 -659.76272215 28.19464316 -650.3125 28.25 C-637.51295148 28.30167197 -624.73603107 28.05377556 -611.94091797 27.74462891 C-596.8584571 27.38534068 -581.77702486 27.16129801 -566.69140625 26.99609375 C-565.75630785 26.98573153 -564.82120945 26.9753693 -563.85777473 26.96469307 C-554.35033423 26.85954959 -544.84287105 26.75890311 -535.33526897 26.66948795 C-531.72473556 26.6347257 -528.11424312 26.5965431 -524.50375175 26.55768013 C-522.81499211 26.54034018 -521.12621564 26.52455431 -519.43742561 26.51048088 C-510.95771921 26.4395 -502.57922851 26.20454961 -494.12557983 25.47613525 C-488.74007933 25.09413368 -483.35333722 25.07874236 -477.95604515 25.05034065 C-475.05513002 25.03444017 -472.15435048 25.00683112 -469.2535162 24.98029804 C-466.89829678 24.95890119 -464.54306771 24.93893186 -462.18783569 24.91897583 C-423.60457851 24.58031481 -385.09470655 23.28335119 -346.55317783 21.50716972 C-342.7293745 21.3310654 -338.90540855 21.1602845 -335.08105469 20.99658203 C-295.60707558 19.30427003 -256.11759749 16.17371734 -216.76586914 12.67431641 C-210.55627579 12.12333168 -204.34200346 11.64727839 -198.125 11.1875 C-189.4992952 10.54906193 -189.4992952 10.54906193 -180.890625 9.71875 C-174.49198321 9.05862846 -168.07742912 8.91303091 -161.65039062 8.73242188 C-155.39237936 8.51349475 -149.21254113 7.99889429 -142.9921875 7.3125 C-132.51138003 6.15939111 -122.02068623 5.37466194 -111.5 4.6875 C-110.52059448 4.62241241 -109.54118896 4.55732483 -108.53210449 4.49026489 C-92.6500612 3.44821953 -76.79276626 2.90291498 -60.88031006 2.64135742 C-50.25323753 2.4665416 -39.71631945 2.15597835 -29.125 1.1875 C-19.40466649 0.30310307 -9.75398697 0.02936213 0 0 Z M544.0625 89.25 C544.0625 90.24 544.0625 91.23 544.0625 92.25 C547.0325 92.25 550.0025 92.25 553.0625 92.25 C553.0625 91.59 553.0625 90.93 553.0625 90.25 C550.0925 89.92 547.1225 89.59 544.0625 89.25 Z M526.0625 91.25 C526.0625 91.91 526.0625 92.57 526.0625 93.25 C527.7125 92.92 529.3625 92.59 531.0625 92.25 C531.0625 91.92 531.0625 91.59 531.0625 91.25 C529.4125 91.25 527.7625 91.25 526.0625 91.25 Z M576.0625 216.25 C576.44449829 218.33188592 576.44449829 218.33188592 578.0625 220.25 C580.94055936 220.81046419 583.53248709 221.13009084 586.4375 221.3125 C591.84521374 221.75242798 596.7547847 222.29476752 601.9375 224 C610.0036407 226.26717797 619.95523139 225.23400824 628.0625 223.25 C628.7225 222.59 629.3825 221.93 630.0625 221.25 C627.98976687 219.17726687 623.89648416 219.45861232 621.0390625 219.09375 C620.22311615 218.9865564 619.4071698 218.87936279 618.5664978 218.7689209 C616.82991406 218.54168075 615.09305649 218.31652529 613.35595703 218.09326172 C610.73274174 217.75581975 608.11047254 217.4117052 605.48828125 217.06640625 C601.39293346 216.53028657 597.29570134 216.01233139 593.19592285 215.51123047 C591.30412834 215.27958658 589.41322227 215.04071234 587.52246094 214.80078125 C586.5534082 214.69121094 585.58435547 214.58164063 584.5859375 214.46875 C583.78849121 214.37529297 582.99104492 214.28183594 582.16943359 214.18554688 C579.67907044 214.26172948 578.18907194 214.99473604 576.0625 216.25 Z " fill="#76C2C6" transform="translate(1579.9375,-0.25)"/>
<path d="M0 0 C2.83054556 0.43546855 4.11392997 1.09294287 6.375 2.9375 C10.64894231 5.99347947 15.87466528 6.03226707 20.953125 6.60546875 C24 7 24 7 26 8 C25.375 9.875 25.375 9.875 24 12 C22 12.66666667 20 13.33333333 18 14 C16.86649466 16.01669827 16.86649466 16.01669827 16 18 C13.875 18.75 13.875 18.75 12 19 C13.79076757 22.36406809 13.79076757 22.36406809 17.75 23.1875 C26.70967732 24.91605511 35.88174533 24.17827565 44.890625 23.21875 C49.71477762 22.87936238 54.53023273 22.97959292 59.36376953 23.01953125 C64.51663154 23.04560519 69.55005527 22.78391427 74.67578125 22.21875 C76.90918225 22.00854755 79.07089622 21.96635492 81.3125 22 C84.94806697 22.11606246 84.94806697 22.11606246 88.25 21.375 C91 21 91 21 93.3125 21.6875 C95.39993284 23.31105887 95.65660347 24.42452602 96 27 C92.06111581 29.62857792 87.74414569 29.39595869 83.1796875 29.53125 C81.27568959 29.60478441 79.37171976 29.67904799 77.46777344 29.75390625 C76.43116577 29.79209473 75.39455811 29.8302832 74.32653809 29.86962891 C68.25985 30.10738983 62.19666014 30.41826976 56.1328125 30.71875 C53.48959178 30.84782943 50.8463625 30.97673348 48.203125 31.10546875 C46.86132739 31.17104622 45.51953052 31.23663872 44.17773438 31.30224609 C41.46520206 31.43476638 38.75263588 31.56656065 36.04003906 31.69775391 C32.05005571 31.89074304 28.06018289 32.08593925 24.0703125 32.28125 C22.87930939 32.338573 21.68830627 32.395896 20.46121216 32.45495605 C13.1048184 32.81729501 5.75869689 33.27051619 -1.58779907 33.79354858 C-6.89330821 34.1145525 -12.18639584 34.14795477 -17.5 34.125 C-19.1072998 34.1242749 -19.1072998 34.1242749 -20.74707031 34.12353516 C-27.91726866 34.0921723 -34.97499676 33.77005848 -42.109375 33.0234375 C-45.28667242 32.99767563 -47.12471748 33.71897982 -50 35 C-55.04856474 36.05213786 -59.61245939 36.25102194 -64.625 35 C-71.04784901 33.51165707 -77.34523495 34.28088388 -83.84472656 34.82226562 C-97.43549736 35.94302697 -110.98694307 36.05403988 -124.61499023 35.98901367 C-134.90927977 35.94188768 -145.15055802 36.06490631 -155.42895508 36.73242188 C-156.22197021 36.78076172 -157.01498535 36.82910156 -157.83203125 36.87890625 C-158.49952393 36.9260376 -159.1670166 36.97316895 -159.85473633 37.02172852 C-162 37 -162 37 -164.73866558 36.50531673 C-167.99922631 36.00011988 -171.02950606 35.88249809 -174.32661438 35.89320374 C-176.20780944 35.89548477 -176.20780944 35.89548477 -178.12700844 35.89781189 C-179.50695452 35.9045448 -180.88690027 35.91134753 -182.2668457 35.91821289 C-183.73373499 35.92173186 -185.2006255 35.92477049 -186.66751671 35.92736816 C-189.83458463 35.93383814 -193.00162384 35.94333739 -196.16867638 35.95512581 C-201.24491521 35.97375491 -206.32115143 35.9843951 -211.39741516 35.99351501 C-217.69717559 36.00517687 -223.99693116 36.01788113 -230.29668564 36.03242308 C-249.78501411 36.07714467 -269.27333742 36.10087425 -288.76171875 36.09765625 C-290.12406112 36.09743178 -290.12406112 36.09743178 -291.51392555 36.09720278 C-321.22702573 36.08911096 -350.92240095 35.86130583 -380.625 35 C-381.45530857 34.97601765 -382.28561714 34.95203529 -383.14108658 34.9273262 C-392.42879693 34.65627273 -401.71507998 34.35516322 -411 34 C-411 32.68 -411 31.36 -411 30 C-414.11785113 30.64644661 -414.11785113 30.64644661 -415 33 C-419.42911406 33.02486762 -423.85819025 33.04293889 -428.28735352 33.05493164 C-429.7915925 33.05993555 -431.29582668 33.06674073 -432.80004883 33.07543945 C-434.97218009 33.08767884 -437.14424659 33.09326786 -439.31640625 33.09765625 C-440.62037354 33.10289307 -441.92434082 33.10812988 -443.26782227 33.11352539 C-447 33 -447 33 -450.37329102 32.49633789 C-454.85296795 31.88326598 -459.1971214 31.9110108 -463.7109375 31.9609375 C-465.67805195 31.97135479 -467.64517599 31.98006304 -469.61230469 31.98730469 C-470.64995972 31.99113159 -471.68761475 31.9949585 -472.75671387 31.99890137 C-481.8665457 32.00198724 -490.97571412 31.83738167 -500.08398438 31.68261719 C-502.47682476 31.64368239 -504.86973685 31.60896044 -507.26269531 31.578125 C-510.77169762 31.53268877 -514.28029602 31.47481175 -517.7890625 31.4140625 C-518.85871246 31.40251129 -519.92836243 31.39096008 -521.03042603 31.37905884 C-522.02021454 31.35918915 -523.01000305 31.33931946 -524.02978516 31.31884766 C-525.32923569 31.29886215 -525.32923569 31.29886215 -526.65493774 31.2784729 C-529.16624079 30.98025914 -530.82585473 30.2613161 -533 29 C-533 28.34 -533 27.68 -533 27 C-532.01 26.34 -531.02 25.68 -530 25 C-529.67 24.01 -529.34 23.02 -529 22 C-525.66749498 20.88916499 -523.06961042 20.83240415 -519.5625 20.8125 C-518.42941406 20.79832031 -517.29632812 20.78414063 -516.12890625 20.76953125 C-513.14542021 20.98928865 -511.50704577 21.44156614 -509 23 C-509 23.66 -509 24.32 -509 25 C-507.52466797 24.65775391 -507.52466797 24.65775391 -506.01953125 24.30859375 C-497.59718129 22.50762693 -489.61718259 21.73166545 -481 22.125 C-480.14124268 22.15907959 -479.28248535 22.19315918 -478.39770508 22.22827148 C-473.24870625 22.54369936 -468.81999306 23.50362404 -463.99560547 25.33789062 C-460.89506943 26.36659796 -458.21748037 26.38609764 -455 26 C-453.22809091 24.64555699 -453.22809091 24.64555699 -452 23 C-444.80005658 20.60001886 -436.53912804 22.14273691 -429.125 23 C-417.12871026 24.29653549 -417.12871026 24.29653549 -405.09936523 23.77075195 C-397.01618052 22.80550463 -388.95105452 22.81389975 -380.82202148 22.81469727 C-378.30761141 22.81249572 -375.79363058 22.79424017 -373.27929688 22.77539062 C-371.66145981 22.7724584 -370.0436207 22.77047246 -368.42578125 22.76953125 C-367.68395096 22.76234573 -366.94212067 22.75516022 -366.17781067 22.74775696 C-361.4541773 22.76828471 -357.54540687 23.58193531 -353 25 C-349.1723436 25.31282493 -349.1723436 25.31282493 -345.3125 25.25 C-344.02988281 25.25515625 -342.74726562 25.2603125 -341.42578125 25.265625 C-338.2325771 25.01803334 -336.70708192 24.53712468 -334 23 C-331.5140002 23.31074997 -329.27374784 23.91948593 -326.875 24.625 C-324.78552327 25.2041405 -324.78552327 25.2041405 -322 24 C-316.83776477 23.57255377 -312.35458667 23.40890763 -307.5625 25.5 C-302.00308938 27.84080447 -295.18400733 28.28355295 -289.5 25.9921875 C-286.54758499 24.82044779 -284.29175998 24.76726057 -281.125 24.8125 C-279.5471875 24.83183594 -279.5471875 24.83183594 -277.9375 24.8515625 C-275 25 -275 25 -271.125 25.6875 C-267.1214344 26.08785656 -265.48289898 24.95042343 -262 23 C-255.10829586 19.96273931 -248.90612849 19.64197662 -241.45703125 19.890625 C-239.82794075 19.92672882 -239.82794075 19.92672882 -238.16593933 19.96356201 C-234.71423582 20.04412256 -231.2636016 20.14709741 -227.8125 20.25 C-225.51500668 20.30477553 -223.21748007 20.35817308 -220.91992188 20.41015625 C-190.27800352 21.14584961 -190.27800352 21.14584961 -182.25 23.625 C-176.01172935 25.5176123 -170.69393365 24.76215197 -164.40625 23.46484375 C-159.53726709 22.80038393 -154.72157603 22.80906601 -149.8125 22.8125 C-148.72694824 22.81258057 -147.64139648 22.81266113 -146.52294922 22.81274414 C-132.97514815 22.90468878 -119.42980831 23.88608006 -105.9597168 25.32470703 C-99.22348016 26.03058833 -99.22348016 26.03058833 -92.5625 25 C-89.20557024 24.11514207 -87.32184721 24.03962437 -84 25 C-78.85093811 25.39736113 -78.85093811 25.39736113 -74 24 C-69.31770584 23.67708316 -66.81495158 23.65251247 -62.41796875 25.52734375 C-57.2410556 27.55691533 -52.40597045 27.17953632 -46.9375 26.8125 C-45.50567383 26.74579102 -45.50567383 26.74579102 -44.04492188 26.67773438 C-38.71771047 26.37993995 -34.13555175 25.49463089 -29 24 C-25.38966979 23.63462029 -21.76696467 23.5880518 -18.140625 23.52148438 C-13.17407761 23.33902161 -9.58923612 22.58923612 -6 19 C-6.01592762 15.55107891 -6.01592762 15.55107891 -7 12 C-11.51391164 8.01713679 -17.1357612 7.90937728 -22.9375 8.19140625 C-24.97361946 8.36632385 -27.00610311 8.56312551 -29.0390625 8.77148438 C-33.93805956 9.18288664 -37.4278401 8.56572663 -42 7 C-42.33 5.68 -42.66 4.36 -43 3 C-37.46435775 0.49236404 -32.48643455 0.66881575 -26.5 0.6875 C-25.46746094 0.67138672 -24.43492187 0.65527344 -23.37109375 0.63867188 C-13.73625336 0.63245585 -13.73625336 0.63245585 -10 4 C-10 4.66 -10 5.32 -10 6 C-7.36 6 -4.72 6 -2 6 C-1.34 4.02 -0.68 2.04 0 0 Z " fill="#76C2C6" transform="translate(2165,280)"/>
<path d="M0 0 C2.19906976 0.00316518 4.39679873 -0.02035412 6.59570312 -0.0456543 C8.00715978 -0.04792729 9.41862001 -0.04863079 10.83007812 -0.04760742 C12.10109375 -0.05058838 13.37210938 -0.05356934 14.68164062 -0.05664062 C18.6650252 0.3642755 22.28968063 1.40027633 25.20507812 4.31567383 C29.83939118 4.58303804 32.98644856 4.15456364 37.20507812 2.31567383 C46.33839077 0.2860488 56.69854175 0.76294162 65.07226562 5.33520508 C65.59046875 5.67938477 66.10867188 6.02356445 66.64257812 6.37817383 C71.50350439 9.54992822 77.5684881 9.67149211 83.20507812 10.31567383 C83.20507812 11.63567383 83.20507812 12.95567383 83.20507812 14.31567383 C75.8500946 14.36233955 68.49514382 14.39771482 61.14004135 14.41929817 C57.72351543 14.42966534 54.30709198 14.44369254 50.890625 14.46655273 C46.94858087 14.49275983 43.00657593 14.50220494 39.06445312 14.51098633 C37.85770935 14.5213089 36.65096558 14.53163147 35.40765381 14.54226685 C16.04006974 14.54478836 16.04006974 14.54478836 9.70507812 10.25317383 C5.02077128 7.19819111 -0.36514981 7.55484236 -5.79492188 7.31567383 C-8.17054643 7.15815959 -10.54559331 6.99164729 -12.91992188 6.81567383 C-14.53253906 6.70739258 -14.53253906 6.70739258 -16.17773438 6.59692383 C-18.79492188 6.31567383 -18.79492188 6.31567383 -20.79492188 5.31567383 C-20.46492188 4.32567383 -20.13492187 3.33567383 -19.79492188 2.31567383 C-13.4742052 -0.52378476 -6.7812449 -0.02045282 0 0 Z " fill="#76C2C6" transform="translate(1500.794921875,293.684326171875)"/>
<path d="M0 0 C1 1 1 1 1.5 3.1875 C0.80886522 7.07513315 -1.10628444 8.34751181 -4.1484375 10.7109375 C-11.90572291 16.11157924 -22.5797293 15.15283123 -31.6796875 15.1328125 C-32.65487335 15.13376923 -33.6300592 15.13472595 -34.63479614 15.13571167 C-36.67677882 15.13638704 -38.71876373 15.13457802 -40.76074219 15.13037109 C-43.88741831 15.12497858 -47.01395307 15.13035577 -50.140625 15.13671875 C-52.13281282 15.13605854 -54.12500054 15.13477855 -56.1171875 15.1328125 C-57.04949188 15.13483673 -57.98179626 15.13686096 -58.94235229 15.13894653 C-59.81070709 15.13579437 -60.67906189 15.13264221 -61.57373047 15.12939453 C-62.33410614 15.12859894 -63.09448181 15.12780334 -63.87789917 15.12698364 C-66.03170395 14.99810288 -67.92924538 14.59107318 -70 14 C-70 13.34 -70 12.68 -70 12 C-68.90300781 11.80664062 -67.80601563 11.61328125 -66.67578125 11.4140625 C-65.22130418 11.15131825 -63.76687983 10.88828199 -62.3125 10.625 C-61.59126953 10.49867188 -60.87003906 10.37234375 -60.12695312 10.2421875 C-57.03843798 9.67807514 -54.30444599 9.13021485 -51.40625 7.890625 C-48.20535045 6.70587647 -45.58750631 6.95555223 -42.1875 7.125 C-31.78597814 7.38882077 -22.0092364 4.86690405 -12.5 0.6875 C-7.88513914 -1.31149218 -4.8723285 -1.15164128 0 0 Z " fill="#76C2C6" transform="translate(2105,275)"/>
</svg>
