<svg xmlns="http://www.w3.org/2000/svg" width="704.701" height="617.985" viewBox="0 0 704.701 617.985" preserveAspectRatio="none" xml:space="preserve">
  <g id="Group_2127" data-name="Group 2127" transform="translate(2023.333 -216.202)">
    <g id="Group_2128" data-name="Group 2128" transform="translate(-2024 216)">
      <path id="Path_82289" data-name="Path 82289" d="M373.644,618.09h-3.631c-1.7-.854-3.582-1.419-4.638-3.36a5.077,5.077,0,0,1-3.942,1.722c-4.643.362-9.216-.383-13.8-.864q-5.165-.542-10.339-1a11.479,11.479,0,0,0-1.96.16,10.6,10.6,0,0,0,.11,1.146c.389,1.732.209,1.976-1.535,1.779-3.822-.433-7.657-.8-11.458-1.375a234.882,234.882,0,0,1-24.666-5.173,277.145,277.145,0,0,1-41.239-14.213c-.576-.253-1.139-.537-2.018-.957,1.166-.706,2.018-1.222,3.155-1.912a27.937,27.937,0,0,0-3.428-1.678,28.139,28.139,0,0,0-3.708-.731c-2.372-.435-4.748-.843-7.116-1.3a3.082,3.082,0,0,1-2.117-1.693c-.609-1.108-1.247-2.2-1.883-3.292a3.878,3.878,0,0,0-2.271-1.784c-1.724-.555-3.428-1.177-5.123-1.817a143,143,0,0,1-23.421-10.926,45.365,45.365,0,0,1-9.2-6.934c-.495-.5-.945-1.046-1.436-1.593l2.02-3.033a9.378,9.378,0,0,0-4.551.288,2.5,2.5,0,0,1-2.954-1.237,13.783,13.783,0,0,1-1-2.069c-.329-.872-.576-1.777-.827-2.676a8.2,8.2,0,0,0-3.012-4.611c-2.171-1.587-4.313-3.234-6.61-4.624-2.532-1.535-5.239-2.782-7.841-4.209-2.457-1.345-4.872-2.768-7.313-4.141a3.575,3.575,0,0,1-1.858-2.72,5.325,5.325,0,0,0-1.494-3.227c-2.761-2.519-5.49-5.073-8.232-7.615-2.863-2.656-5.716-5.322-8.593-7.963a19.859,19.859,0,0,0-1.618-1.222c-1.2.665-1.027,1.918-1.653,2.873-1.39-1.061-2.745-2.076-4.075-3.122-9.187-7.207-17.725-15.15-26.2-23.165-8.032-7.6-16.013-15.251-24.528-22.321-3.719-3.091-7.406-6.238-10.911-9.567a32.136,32.136,0,0,1-8.61-13.5,4.485,4.485,0,0,0-2.132-2.706A97,97,0,0,1,39.639,419a99.159,99.159,0,0,1-17.776-35.07A4.3,4.3,0,0,0,20,381.33,10.354,10.354,0,0,0,18.13,380.3a2.552,2.552,0,0,1-1.672-1.842c-1.274-4.263-2.745-8.471-3.882-12.769-4.39-16.612-6.8-33.593-9.25-50.564-.943-6.528-1.788-13.07-2.8-19.587a12.149,12.149,0,0,1,.458-6.082c6.211-17.969,12.254-36,19.146-53.725a380.886,380.886,0,0,1,22.156-48.2c7.217-12.9,15.367-25.172,25.325-36.133A256.381,256.381,0,0,0,90.2,122.381c6.9-10.213,13.266-20.757,19.541-31.356a4.666,4.666,0,0,1,2.084-2,19.452,19.452,0,0,0,5.962-4.618,35.523,35.523,0,0,0,4.966-7.172c1.411-2.612,2.749-5.262,4.091-7.911a2.791,2.791,0,0,1,1.61-1.512,22.572,22.572,0,0,0,8.253-5.328c1.777-1.794,3.437-3.71,5.063-5.645,1.661-1.978,3.248-4.023,4.808-6.084a2.362,2.362,0,0,1,2.239-1.027c1.206.073,2.42-.012,3.631.029a2.745,2.745,0,0,0,1.951-.659,139.494,139.494,0,0,1,29-17.855,278.119,278.119,0,0,1,40.661-14.872c15.665-4.58,31.536-8.361,47.394-12.193a11.945,11.945,0,0,1,3.25-.329,144.631,144.631,0,0,0,21.42-.746c7-.754,13.985-1.576,20.981-2.318a172.44,172.44,0,0,1,24.4-.483c1.228.043,2.451.222,3.652.338-.033,1.382-1.456.889-1.945,1.734a78.6,78.6,0,0,0,20.4,1.982c4.458-.224,8.924-.615,12.33-3.549,2.175.392,4.108.806,6.061,1.079,4.011.559,8.013.06,12.021-.188,3.673-.228,7.358-.487,11.035-.448,4.24.044,8,1.4,10.615,5.022.041.058.2.035.363.058a5.338,5.338,0,0,1,2.884-2.266,17.148,17.148,0,0,1,7.354-.348c.671.083,1.361.356,1.463,1.226a1.447,1.447,0,0,1-.387.153c-1.761,0-3.522-.043-5.28,0a9.739,9.739,0,0,0-2.258.362.823.823,0,0,0-.6,1.222c.843-.05,1.705-.114,2.569-.155a150.27,150.27,0,0,1,33.328,2.428,296.506,296.506,0,0,1,32.017,7.754c14.441,4.263,28.615,9.333,42.841,14.242a2.83,2.83,0,0,1,1.539,1.355,10.575,10.575,0,0,0,9.165,5.252c.752.025,1.506,0,2.277,0-.421,2.061-.151,2.774,1.674,3.654a35.38,35.38,0,0,0,4.151,1.574c2.134.715,4.309,1.309,6.424,2.074a4.394,4.394,0,0,1,1.974,1.4c.356.483.242,1.313.342,2.016a1.69,1.69,0,0,0,.246.133c.361.135.727.255,1.086.391a115.654,115.654,0,0,1,28.138,14.648c5.007,3.656,9.573,7.768,12.666,13.258a2.117,2.117,0,0,0,1.436.972,25.736,25.736,0,0,1,11.24,6.952c1.9,1.976,3.661,4.1,5.39,6.236,2.281,2.822,4.412,5.767,6.708,8.576a29.969,29.969,0,0,0,10.142,8.286,2.236,2.236,0,0,1,1.144,1.313,123.359,123.359,0,0,0,9.743,19.071c5.747,9.246,11.657,18.392,17.526,27.561a309.4,309.4,0,0,1,16.295,27.714c5.309,10.561,9.577,21.478,11.276,33.264.172,1.183.626,1.585,1.858,1.719.862.093,1.732.1,2.652.149.07.539.151.967.174,1.394a104.62,104.62,0,0,0,3.366,19.633c2.146,8.525,4.425,17.028,5.256,25.82.261,2.78.4,5.573.592,8.342-.563.294-.936.522-1.332.692a12.245,12.245,0,0,1-7.928.271c-1.423-.338-2.861-.607-4.651-.984a12.381,12.381,0,0,0,.737,2.113,4.278,4.278,0,0,0,3.273,2c2.123.273,4.265.385,6.4.561.642.054,1.286.093,1.924.137.085.354.149.561.182.771a110.97,110.97,0,0,1,1.676,15.564c.021.918.211,1.835.323,2.753V308.81a25.837,25.837,0,0,0-.336,2.571,34.436,34.436,0,0,1-1.7,9.378,13.263,13.263,0,0,1-2.542,4.773,6.239,6.239,0,0,1-5.724,2.262,8.037,8.037,0,0,0-.918,0c.617,2.186.922,2.384,3.041,1.953a2.556,2.556,0,0,1,2.853.932c-.638,2.8-1.233,5.639-1.941,8.456-.766,3.043-2.142,5.664-5.4,6.791a2.854,2.854,0,0,0,2.053,1,4.989,4.989,0,0,1,3.669,2.2,16.24,16.24,0,0,0-2.737,6.37c-.34,1.442-.729,2.879-1.2,4.28a4.149,4.149,0,0,1-4.3,3.169,5.317,5.317,0,0,0-.843.147c.522,1.187.938,2.314,1.5,3.364.8,1.5,1.779,2.913,2.54,4.435a17.513,17.513,0,0,1,1.547,3.969c.534,2.411-.539,4.4-2.14,6.124a.987.987,0,0,1-1.651-.251,2.46,2.46,0,0,1-.321-1.245c.027-1.152.155-2.3.215-3.453.033-.619.006-1.239.006-2.024-.323.236-.487.3-.563.419-1.365,2.169-3.2,2.192-5.214.767-.611-.431-1.228-.854-1.966-1.369a3.977,3.977,0,0,0,1.662,4.33c.856.592,1.784,1.085,2.664,1.643a4.322,4.322,0,0,1,2.067,4.516c-.052.425-.1.853-.178,1.556a14.071,14.071,0,0,0,1.937-1.307,11.762,11.762,0,0,0,1.247-1.678c1.477.735,1.722,1.421.953,2.7a4.116,4.116,0,0,1-2.894,2c-.35.066-.711.077-1.032.11a37.457,37.457,0,0,1,1.011,4.089,18.536,18.536,0,0,1,.1,4.114,30.307,30.307,0,0,1-8.568,19,24.185,24.185,0,0,1-3.862,2.766,5.1,5.1,0,0,1-.907.439,36.12,36.12,0,0,1,.4,5.378c-.168,2.324-.319,4.591.7,6.816-7.193,2.846-9.258,8.206-7.754,15.353-.369.155-.659.3-.965.4a15.435,15.435,0,0,0-8.777,7.093c-1.239,2.078-2.372,4.218-3.607,6.3a15,15,0,0,1-6.447,6.2,28.54,28.54,0,0,1-3.7,1.376,2.132,2.132,0,0,0-1.405,1.206c-1.328,2.652-2.755,5.254-4.1,7.9-1.471,2.886-2.894,5.8-4.342,8.7-.112.226-.261.435-.392.652-1.038-.257-1.318-1.086-1.757-1.759-1.09-1.67-1.951-1.916-3.909-1.027.3.22.566.4.818.6,1.214.963,1.392,1.6.827,3a6.4,6.4,0,0,1-.354.744c-1.344,2.382-2.378,4.839-1.744,7.657a2.374,2.374,0,0,1-.584.174,12.242,12.242,0,0,0-8.034,2.954c-1.574,1.2-3.1,2.465-4.615,3.739a23.591,23.591,0,0,1-11.011,5.666c-.095.017-.176.122-.315.224a18.968,18.968,0,0,1-5.446,9.016,36.583,36.583,0,0,1-5.977,4.632c-3.255,1.924-6.671,3.6-10.1,5.189-4.037,1.871-8.179,3.509-12.247,5.31a29.377,29.377,0,0,0-6.766,4.065,13.417,13.417,0,0,1-2.032,1.386c-11.087,6.084-22.466,11.584-33.9,16.973-12.873,6.064-25.909,11.783-38.529,18.383a52.108,52.108,0,0,1-12.981,4.713,18.445,18.445,0,0,0-7.391,3.453c-1.442,1.1-2.88,2.21-4.338,3.292-2.165,1.6-4.348,3.182-6.517,4.781a7.1,7.1,0,0,1-6.525,1.313c-2.463-.735-4.394.1-6.08,1.867-1.253,1.313-2.55,2.585-3.832,3.87a11.147,11.147,0,0,1-10.795,3.4,12.033,12.033,0,0,0-8.489,1.177c-2.256,1.255-4.5,2.534-6.714,3.859-2.832,1.69-5.6,3.493-8.45,5.144a24.4,24.4,0,0,1-10.971,3.228c-3.679.207-7.36.369-11.035.622-4.466.307-8.682,1.371-12.229,4.313a8.365,8.365,0,0,1-1.115.673M643.022,386.925c-.292-.744-.543-1.384-.795-2.022a2.755,2.755,0,0,0-.507,1.539,26.919,26.919,0,0,0-.025,3.134,15.225,15.225,0,0,1-1.9,8.245c-.953,1.856-1.98,3.677-3,5.5-1.052,1.869-2.26,3.66-3.182,5.587-.967,2.022-1.692,4.16-2.484,6.264a15.83,15.83,0,0,0-.439,1.931c-.327-.911-.325-1.786-1.438-1.949-.089.752-.135,1.446-.255,2.126a12.838,12.838,0,0,1-3.919,7.284c-1.8,1.692-3.776,3.194-5.626,4.833a40.489,40.489,0,0,0-4.04,3.87,8.717,8.717,0,0,0-1.941,7.715c.106.522.153,1.055.219,1.537-.2.112-.3.2-.392.209a9.07,9.07,0,0,0-6.693,4.046c-1.108,1.506-2.134,3.072-3.267,4.557a8.56,8.56,0,0,1-5.258,3.449,1.552,1.552,0,0,0-1.376,1.353,30.028,30.028,0,0,1-6.024,11.986,91.987,91.987,0,0,1-6.461,7.043c-2.778,2.741-5.8,5.237-8.568,7.988a65.922,65.922,0,0,0-6.153,6.867,19.821,19.821,0,0,0-3.576,17.165,11.947,11.947,0,0,1,.147,1.307c-.408.021-.675.046-.943.048a8.507,8.507,0,0,0-6.666,3.076c-1.141,1.322-2.27,2.654-3.663,4.288.841-.317,1.347-.468,1.821-.692,6.111-2.882,12.3-5.612,18.307-8.7a159.14,159.14,0,0,0,37.891-26.7,164.808,164.808,0,0,0,19.765-22.989c.352-.491.57-1.17,1.3-1.369.348.936-.012,2.154,1.409,2.542.284-.532.6-1.042.835-1.583.688-1.556,1.291-3.155,2.034-4.686a46.862,46.862,0,0,1,2.643-4.928A8.326,8.326,0,0,1,646.2,443a2.57,2.57,0,0,0,2.111-1.761c1.407-3.578,2.822-7.153,4.28-10.712,1.289-3.153,2.538-6.325,3.984-9.4a17.992,17.992,0,0,1,5.834-7.249,1.921,1.921,0,0,0,.694-1.2,31.013,31.013,0,0,1,3.325-10.474c2.25-4.327,4.582-8.612,6.886-12.929a3.14,3.14,0,0,0,3.163,1.463c.968-.095,1.7-.539,1.807-1.172.149-.854-.644-.916-1.1-1.224-1.819-1.212-2.422-2.515-1.862-4.64a35.309,35.309,0,0,1,1.485-4.185c1.019-2.525,1.649-5.032.048-7.5.972-1.193,1.262-1.322,2.4-.94.779.261,1.519.644,2.3.907,1.467.5,2.119.131,2.679-1.483-2.2-1.135-3.029-3.217-3.551-5.452a28.9,28.9,0,0,1-.184-11.794,30.147,30.147,0,0,1,1.21-4.267,1.744,1.744,0,0,1,1.423-1.376c.188,2.989-.725,5.811-.435,8.705a.841.841,0,0,0,.441-.466c.613-1.879,1.313-3.737,1.786-5.651a22.727,22.727,0,0,0,.153-8.369,14.893,14.893,0,0,1,4.369-13.1c.383-.383.735-.8,1.106-1.2-.17-.53-.313-1-.47-1.463a52.517,52.517,0,0,1-2.469-11.752,80.652,80.652,0,0,1,1.123-21.841c.53-3.08,1.168-6.138,1.759-9.221a10.463,10.463,0,0,1-1.887-.586,1.278,1.278,0,0,1-.085-2.349c.379-.172.949.083,1.576.162-.36-.961-.7-1.873-1.042-2.784a22.593,22.593,0,0,1-1.628-6.366c-.187-2.536.429-4.7,2.813-6.035.077-.043.112-.16.213-.317a6.1,6.1,0,0,0-.622-.089,4.118,4.118,0,0,1-3.909-2.8,20,20,0,0,1-.986-3.306c-.62-2.9-1.144-5.819-1.755-8.721-.282-1.334.418-2.161,1.746-1.866a15.7,15.7,0,0,1,1.856.675c1.5.539,2.014.232,2.192-1.349a7.746,7.746,0,0,0-.062-1.212c-.651.089-1.189.147-1.724.236a12.381,12.381,0,0,1-6.8-.572,32.128,32.128,0,0,0-3.953-1.127,4.929,4.929,0,0,0-1.133-.014,30.753,30.753,0,0,1,1.409,13.447c-.495.077-.818.128-1.141.18-2.654.418-3.372,1.434-2.844,4.083.116.592.321,1.164.479,1.748.141.52.276,1.042.435,1.641-1.121.089-2.161.091-3.168.273a3.025,3.025,0,0,0-2.685,3.8,110.582,110.582,0,0,1,2.444,17.118,72.125,72.125,0,0,1-.207,13.838c-.313,2.571-1.193,4.645-3.764,5.664-.253.1-.46.321-.715.408a2.013,2.013,0,0,0-1.355,1.864c-.362,2.612-.837,5.216-1.057,7.839-.425,5.04-.651,10.1-1.063,15.139a45.954,45.954,0,0,1-2.906,13.652c-.145.361-.346.7-.539,1.081-.646-.708-.526-1.86-1.663-1.96a2.876,2.876,0,0,0-.079.408c-.01.715-.017,1.431-.012,2.146a47.321,47.321,0,0,1-4.682,21.064c-2.977,6.188-6.053,12.328-9.167,18.651M323.789,572.13c-.056-.112-.112-.226-.17-.338-.976,0-1.953.008-2.929,0-8.467-.081-16.937-.039-25.4-.284s-16.911-.8-25.369-1.177c-2.007-.089-4.019-.014-6.227-.014.8.781.46,1.438-.012,2.088-.288.4-.588.8-.843,1.222a2.483,2.483,0,0,0-.234,2.625c1.591.28,3.255.621,4.935.854,1.005.139,1.336-.151,1.682-1.172.288-.843.541-1.7.8-2.534,2.036,1.867,3.839,3.727,5.848,5.328,5.927,4.717,12.755,7.717,19.9,10.039,12.852,4.176,26.117,5.9,39.551,6.569a216.886,216.886,0,0,0,24.561-.244,206.974,206.974,0,0,0,31.642-4.375,132.776,132.776,0,0,0,16.933-4.846c.611-.224,1.253-.34,1.378-1.195.259-1.738.621-3.458.893-5.195a7.077,7.077,0,0,0-.907-4.466,44.41,44.41,0,0,1-4.3,1.763,14.311,14.311,0,0,1-6.381.187c-2.871-.462-5.7-1.164-8.572-1.637a31.145,31.145,0,0,0-6.358-.677c-4.276.189-8.533.851-12.809,1.055a321.068,321.068,0,0,1-33.966.017c-4-.232-7.98-.775-11.961-1.251a10.144,10.144,0,0,1-3.839-1.083l2.144-1.26M617.757,178.794l.478.135c-.684,2.461-1.96,4.86-1.591,7.462.359,2.532,1.092,5.013,1.693,7.661,1.23,0,2.266-.064,3.292.019s2.219-.014,2.842,1.21c-3.076,1.083-3.227,1.266-2.73,3.368,1.9.489,3.025,1.968,4.075,3.551a23.691,23.691,0,0,0,1.765,2.382,4.6,4.6,0,0,0,2.958,1.628c-.24-.582-.423-.955-.549-1.347a56.277,56.277,0,0,1-1.96-6.439,18.27,18.27,0,0,1-.008-5.073,5.981,5.981,0,0,1,2.6-4.013c-.16-.4-.273-.708-.4-1.005q-5.834-13.461-11.673-26.92c-3.967-9.123-7.974-18.228-12.786-26.949-.338-.615-.7-1.218-1.04-1.809-.47.064-.793.112-1.115.153a5.058,5.058,0,0,1-5.2-2.447c-.506-.783-.934-1.616-1.384-2.434-.53-.961-.988-1.968-1.579-2.892-1.458-2.279-3.167-2.927-5.79-2.289-.383.093-.771.157-1.27.257,1.361-2.606,1.229-3.859-.594-6-.675-.8-1.444-1.51-2.142-2.287a29.98,29.98,0,0,1-2.016-2.391,3.944,3.944,0,0,1-.727-3.582,2.945,2.945,0,0,0,.052-.731c-2.111-1.637-3.29-1.595-5.135.131-.321.3-.617.624-.926.938-.686.692-1.332,1.467-2.6,1.054,2.7,3.961,5.276,7.719,7.835,11.487a78.762,78.762,0,0,0,9.635,11.908,4.2,4.2,0,0,1,.963,1.5,144.527,144.527,0,0,0,9.886,20.828q6.986,12.527,13.919,25.083c.06.106.193.172.315.275.323-.854.619-1.634.914-2.415M462.4,540.922c-.056.112-.112.224-.17.336.416.408.806.847,1.251,1.22a13.233,13.233,0,0,0,5.763,2.7,27.02,27.02,0,0,0,13.2-.655,31.281,31.281,0,0,0,14.46-8.172,16.058,16.058,0,0,0,4.9-10.178,2.382,2.382,0,0,1,.273-.582h6.351a1.485,1.485,0,0,0-.868-.588,19.3,19.3,0,0,0-9.3.155,44.873,44.873,0,0,0-11.53,5.185c-3.317,1.941-6.579,3.986-9.921,5.885-4.468,2.54-9.109,4.63-14.406,4.7M53.815,289.26c0,4.816-.108,9.432.06,14.037a11.961,11.961,0,0,0,1.3,4.545,4.986,4.986,0,0,0,4.831,2.774c.029-1.454.1-2.763.075-4.067-.058-2.523-.476-4.922-2.761-6.536,1.929-1.112,2.461-1.487,2.954-2.619a9.364,9.364,0,0,0-.878-9.544,3.138,3.138,0,0,0-2.494-1.547c-.244,1.7-.642,3.273-3.093,2.958m116.7-165.883c-.288-1.075-.439-1.883-.723-2.643-.976-2.608-2.9-3.549-5.347-2.3a18.609,18.609,0,0,0-9.279,10.839c-.015.044.01.1.015.159a6.612,6.612,0,0,0,7.914-1.771c.259-.284.514-.574.746-.878,1.6-2.1,3.542-3.6,6.673-3.406m-109.08,153.4c-.122-1.529-.257-2.938-.344-4.35-.23-3.785-.423-7.574-.675-11.357a23.015,23.015,0,0,0-.454-2.552,4.541,4.541,0,0,0-4.089,3.12c-1.276,3.306-1.067,6.451,1.438,9.2-1.4,3.23-1.081,6.173.9,7.539a3.135,3.135,0,0,1,3.223-1.6m625.124-39.106c-1.587.18-3.054.313-4.512.518a29.349,29.349,0,0,0-4.524.787c-1.92.59-2.579,2.072-2.04,4.009,4.174-.758,8.361-1.465,11.075-5.314m11.584,22.062a6.836,6.836,0,0,1,1.141-4.819,3.934,3.934,0,0,0,.427-3.874c-1.44-.427-2.7-.8-4.089-1.21a9.539,9.539,0,0,1-.06,5.142,8.231,8.231,0,0,0-.151,1.632c0,1.746.684,2.565,2.732,3.13m.18,21.862a19.7,19.7,0,0,1,.69,3.629,21.8,21.8,0,0,1-.646,3.791c2.161-.126,2.987,1.595,4.278,2.809a10.637,10.637,0,0,1,.2-8.545c-.851-.489-1.514-.858-2.163-1.249a2.662,2.662,0,0,0-2.362-.435m-6.337-30.672c-2.527-.671-3.979.218-4.3,2.59a5.508,5.508,0,0,0,.841,3.774c1.015,1.591,2.33,1.5,3.317-.2-1.558-.92-1.8-1.494-1.214-3.2a19.323,19.323,0,0,1,.812-1.794c.178-.385.356-.771.539-1.171M573.967,109.9c-.126-1.083-.081-1.846-1.407-1.719.468.57.826,1.007,1.407,1.719" transform="translate(0.322 0.098)" fill="#1a1818"/>
    </g>
  </g>
</svg>
