<svg xmlns="http://www.w3.org/2000/svg" width="412.098" height="415.003" viewBox="0 0 412.098 415.003">
  <path id="GG-Bradenton2023-D2-0672-PSD" d="M334.534,72.171c-3.544-7.17-12.405-17.359-20.567-14.53-.477-.938,1.03-1.843,2.525-2.656-3.154,1.962-11.153-1.962-3.712-3.534C301.605,33.221,278.9,36.3,276.107,21.586c-7.333,4.493-9.289-6.709-14.378-8.541-2.065,1.918-4.5,5.149-5.728,4.753-.623-6.021-7.717-7.631-14.085-9.484-1.837-.022-3.647-.135-5.436-.325a2.317,2.317,0,0,1-.553,1,6.752,6.752,0,0,0-.52-1.138,51.875,51.875,0,0,1-17.613-5.382c-1.648-.91-3.366-1.707-5.1-2.471-22.681,4.6-44.136,5.723-65.663,11.121a6.122,6.122,0,0,1-1.111,1.631c-4.547-.542-13.836,6.173-16.486,7.349-7.8.309-19.255,5.295-31.33,12.378C87.032,40.2,77.342,49.626,61.929,63.251c-6.514,5.761-11.273,9.723-15.96,13.587a9.98,9.98,0,0,1-1.74,2.845C31.8,93.237,27.06,108.85,19.1,122.28c.152-.244-1.989-1.122-2.531.119-.374.905,2.189.916,1.859,1.767-3,8.129-8.357,17.722-11.636,24.713,1.176,6.276-.661,13.18-2.195,20.957-.417,2.038-1.664,10.189-4.6,13.522.835,1.572,2.921-.623,4.428-.938-5.192,10.519,3.235,19.814-2.916,27.959,2.1,5.4,1.236,11.874,2.276,17.532.84,4.693-2.726,14.427-2.146,18.383.211,1.463,3.284,1.279,3.116,2.97-.287,2.157-3.485,5.43-3.29,7.17-.016-.4,2.916-2.471,3.2-2.1.791.943-.4,7.007.466,10.655.043.038,3.095-3.084,3.16-2.054.585,4.449-5.685,17.445,2.954,15.559-7.566,5.826,4.292,5.447-4.558,8.5,5.208,8.46,10.107,8.46,6.666,21.618,6.026-4.476,6.319,6.7,5.517,10.411,10.08-.033,12.02,24.772,21.033,25.184-4.542,9.582,14.1,10.021,9.782,19.526,10.964-.45,13.11,15.017,26.219,14.763-1.051,6,13.782,12.541,19.353,13.278-4.964,3.441.455,6.948,2.488,4.9-.564-.927-2.011-1.431-.634-3.132,17.223,17.369,46.039,9.9,60.118,21.461,4.493-3.794,4.5-.672,6.953-3.588,12.492,8.492,20.876-2.591,35.877.905.726.591,13.012-5.306,12.649-.791,31.325-14.909,61.376-15.565,102.667-50.645.948.52,1.523,1.94,3.16.482,31.07-27.309,57.68-55.165,72.263-82.122,9.365-17.348,16.9-39.443,17.115-55.284,5.647-8.628-3.008-14.15,4.178-26.756-3.577-2.238-5.165-5.214-.5-10.7-4.612-6.043-3.116-6.27-9.95-9.473,5.907-10.422-5.7-12.92.341-20.2-8.417-6.942-14.92-17.418-15.429-24.9-1.6,1.588-3.23,3.051-3.8,1.534,1.312-1.377,2.016-1.095,3.208-2.1-2.005-2.2-3.837-4.921-7.549-2.038,2.878-9.517-11.088-29.72-17.787-32.306,1.371-1.61,2.878-1.246,2.574-2.7-6.693,1.794-13.256-13.012-22.513-11.229,3.089-8.048-5.371-9.294-6.157-10.92" fill="#222" fill-rule="evenodd"/>
</svg>
