<svg xmlns="http://www.w3.org/2000/svg" width="501.426" height="381.934" viewBox="0 0 501.426 381.934">
  <path id="Union_37" data-name="Union 37" d="M4735.183,115.935a2.656,2.656,0,0,1-.769-.132h0a3.292,3.292,0,0,0-2.537-.791c-1.148.685-2.306.179-3.461.044a.355.355,0,0,1-.2-.019,1.954,1.954,0,0,0-1.87-.932,1.019,1.019,0,0,1-1.013.01,1.484,1.484,0,0,0-1.868.122h0c-.423.282-.733-.07-1.082-.192a6.159,6.159,0,0,1-2.551-.177l-.312-.045-.881.377h0c-.114.754-.525.957-1.184.621a1.178,1.178,0,0,0-1.233,0c-.691.375-1.32-.066-1.926-.391a6.329,6.329,0,0,0-2.649-.341c-.3,0-.6.008-.893,0-.6.4-.871-.237-1.3-.39a7.64,7.64,0,0,0-2.711-.309l-.011,0-.083.027c-.2.088-.266.31-.416.45-.227.271-.423.193-.609-.048a2.861,2.861,0,0,0-2.737-.011l-.826.385-.286.174c-.279.366-.549.137-.82-.014-.041,0-.083,0-.126,0-.234.008-.469.018-.562-.3-.218-.615-.672-.6-1.127-.581a3.143,3.143,0,0,1-.4,0,6.583,6.583,0,0,0-1.6.19c-.366.475-.713.782-1.3.211a1.275,1.275,0,0,0-1.235-.222c-.461.572-.906.2-1.354-.025h-.374a2.393,2.393,0,0,1-2.837.969,6.706,6.706,0,0,0-2.966.111,2.1,2.1,0,0,1-1.387-.07c-.136,0-.275,0-.414,0a1.956,1.956,0,0,1-1.449-.368h0c-.151-.14-.3-.278-.455-.418-.645-.24-1.29-.553-1.925.024-.314.424-.528,1.271-1.173.278l-.4-.008c-.079.388-.308.252-.527.155-.221.121-.363.038-.453-.179h0c-.089-.368-.6-.107-.692-.469,0-.557-.552-.489-.817-.746-.476-.144-.471.337-.686.533.049.438-.147.686-.583.648-.238-.021-.645.012-.44-.473-.275-.738-1.083-.345-1.524-.729h0a.38.38,0,0,1-.2.066,6.684,6.684,0,0,1-2.287.158c-.388-.018-.776-.036-1.162-.02-.142.181-.115.481-.4.562a3.448,3.448,0,0,1-1.021-.177,2.5,2.5,0,0,0-1.458-.105c-.211.23-.7.078-.749.5-.117.981-.82,1.105-1.59,1.152a5.072,5.072,0,0,1-3.494-.548c-.466-.035-.934-.069-1.4-.106h0l-.922.05c.253-.323.59-.172.9-.166.434-.332.96-.146,1.434-.259a.53.53,0,0,0,.246-.508,2.815,2.815,0,0,1-1.473-.434c-.206.183-.413.365-.62.548a1.82,1.82,0,0,1-.814.337.408.408,0,0,1-.117.3c-.2.216-.386-.018-.524-.2a.894.894,0,0,0-.1-.172,1.3,1.3,0,0,1-.44-.263.294.294,0,0,0-.205.078c-.68.606-1.013.189-1.374-.274a.91.91,0,0,1-.367-.289.284.284,0,0,0-.108.01l-.048.006-1.233.142a1.077,1.077,0,0,1-.717.111,2.541,2.541,0,0,0-.264.056,1.367,1.367,0,0,0-.666.709,2.663,2.663,0,0,1-2.4-.048.332.332,0,0,1-.156-.129c-.276.271-.533.561-.989.428l-1.114.155a3.5,3.5,0,0,1-1.456.335,13.231,13.231,0,0,1-2.6,0,4.928,4.928,0,0,0-2.661-.2.972.972,0,0,1-.215.043,1.261,1.261,0,0,1-.823.226c-.741-.137-1.468-.36-2.2-.55-.351-.093-.468-.291-.247-.621.352-.855.388-.964-.367-.958a10.939,10.939,0,0,0-.907,1.234c-.174.406-.63.377-1.019.37l-1.242-.021a.707.707,0,0,1-.33-.344.6.6,0,0,1-.333-.033,4.734,4.734,0,0,0-1.13-.2.208.208,0,0,1-.046.092c-.15.148-.285.008-.411-.069a.979.979,0,0,1-.128-.094,2.311,2.311,0,0,1-.937-.346,1.592,1.592,0,0,0-.923-.119c-.087-.035-.173-.07-.261-.107l-.031-.014.031.016a7.656,7.656,0,0,1-1.78.062,6.778,6.778,0,0,0-2.073.125c-.474.127-.721-.407-.881-.839l-.246-.232c-.7.476-1-.069-1.362-.459-.128.01-.255.017-.383.017-.488.267-1.026.032-1.544,0l-.074.007a1.186,1.186,0,0,1-1.1.562,1.274,1.274,0,0,0-.021.369c.016.227.044.5-.312.426-.232-.051-.257-.274-.19-.469a2.408,2.408,0,0,0,.147-.457c-.03-.017-.062-.026-.092-.045a2.757,2.757,0,0,0-1.034-.214.461.461,0,0,0-.036.029,2.2,2.2,0,0,1-.009.377.386.386,0,0,1-.374.354.27.27,0,0,1-.211-.147c-.049-.279.3-.142.362-.328.03-.09.061-.178.091-.267,0-.013-.009-.026-.013-.041a1.327,1.327,0,0,1-.99-.519.27.27,0,0,0-.014-.03l-.782-.337c-.034-.023-.068-.045-.1-.069a1.22,1.22,0,0,0-.643.234.856.856,0,0,1-1.067.025,1.2,1.2,0,0,1-.7-.248l-.479-.055a6.317,6.317,0,0,1-2.16.376,3,3,0,0,1-1.4-.61,3.965,3.965,0,0,1-.694,0,1.511,1.511,0,0,1-1.037,0,8.37,8.37,0,0,0-3.482-.672,26.424,26.424,0,0,0-3.3.92,3.109,3.109,0,0,1-2.183-.192,8.755,8.755,0,0,0-2.037-.5h0l-.316,0h0c-1.93.406-3.888.617-5.845.833-.722.08-1.3-.471-1.991-.547a4.581,4.581,0,0,0-1.57.26c-.81.334-1.014-.421-1.314-.938h0l-.436-.08h0a.8.8,0,0,1-.669-.048.96.96,0,0,0-.544-.093c-.278.031-.556.057-.832.064l-1.026.079c-.6.306-1.328.307-1.845.8a2.558,2.558,0,0,1-2.066.3,3.942,3.942,0,0,0-1.728.057,5.387,5.387,0,0,1-1.281.128,11.715,11.715,0,0,0-1.417.025,5.611,5.611,0,0,1-3.034-.393c-.161-.184-.369-.147-.574-.124-1.058.44-2.094,1.062-3.289.432-.215-.113-.446-.179-.616.024-.5.6-1.018.426-1.628.152-.858-.387-1.738.023-2.612.086a54.037,54.037,0,0,1-5.692.384h0c-.661.116-1.225.585-1.931.544a.926.926,0,0,1-.162.018l-.683.074-1.089.1c-2.027.245-4.005.813-6.054.886l-.692.092c-.481.068-.9.464-1.43.263a1.419,1.419,0,0,1-.771.227l-.417.067c-.253.167-.411.019-.464-.2-.042-.171.105-.254.285-.216l.511-.42.089,0c-.016-.134.05-.192.176-.2.648-.013,1.3-.039,1.949-.038,1.232,0,1.4-.264.9-1.472l-.021-.027c-.094-.136-.188-.272-.283-.407a.311.311,0,0,1,0-.175c-.087-.309.219-.4.387-.568l-.023,0c-.152.068-.273.074-.345-.02a1.822,1.822,0,0,1-.448.055,1.242,1.242,0,0,1-.069.572c-.154.154-.309.31-.462.464h0c-.2.311-.5.284-.8.227-.276.1-.368.549-.769.409-.27.118-.538.237-.807.357a2.756,2.756,0,0,0-2-.122c-.376.383-.914.653-.892,1.312l.04.021.945.208h.08c.134,0,.275,0,.327.15.078.229-.072.224-.2.218h-.072c-.28.007-.562,0-.844-.007-.086.018-.174.038-.26.058-.4.319-.9.215-1.354.328-.483.122-.511-.121-.632-.507-.137-.439.2-.809.024-1.208-.281-.785-.76-1.059-1.523-.6-.639.106-1.291.432-1.765-.4-.206-.363-.631-.755-.916.042-.135.376-.44.371-.741.368a2.326,2.326,0,0,0-.242,0l-.64.561a.726.726,0,0,1-.7.344h0l-.348.088a.994.994,0,0,0-.486.956c.018.235.062.536-.312.579l0,0a2.45,2.45,0,0,1-1.769.2,4.625,4.625,0,0,0-.931-.066c-.054,0-.122-.195-.184-.3-.134-.494.287-.4.512-.45a2.324,2.324,0,0,1,1.135.072,2.234,2.234,0,0,0-1.468-.086,1.423,1.423,0,0,1-1.115-.116c-.089-.137-.176-.273-.265-.411-.257-.07-.512-.143-.771-.216a1.488,1.488,0,0,1-1.2.073,1.864,1.864,0,0,0-.947-.044,1.311,1.311,0,0,1-.127.045c-.353.206-.608,1.016-1.135.164h0c-.213-.023-.426-.045-.64-.07a1.315,1.315,0,0,0-.616-.049c-.341.025-.683.05-.93-.325-.384-.376-.762-.533-1.224-.079a.7.7,0,0,1-.7.218l-.74.075h0a1.362,1.362,0,0,1-1.729-.226c-.281-.14-.595-.246-.443-.681.18-.517.6-.476,1.009-.468.382-.334.7-.795,1.315-.649.2-.331.558-.636.179-1.067l-.67.039a1.308,1.308,0,0,1-.253.021l-.769.063-.52.054a.27.27,0,0,1-.274.212c-.248.314-.5.627-.746.94-.416-.081-.708-.519-1.187-.421h0l-1.328.055.094.08c.054-.011.107-.023.159-.037.425.024.464.283.372.623l-.241.475c.078.5-.218.582-.621.6-1.364.057-2.726.178-4.09.189a8.7,8.7,0,0,0-2.621.388l-.641.544c-.34.432-.829.329-1.279.366a1.872,1.872,0,0,1-1.8-.094h0c-.258-.3-.651-.147-.957-.289a4.291,4.291,0,0,0-2.566.542,1.111,1.111,0,0,1-1.02-.031,1.8,1.8,0,0,0-.75-.142c-.711.333-1-.389-1.5-.6h0l-.977.113a7.254,7.254,0,0,0-3.013-.184,2.672,2.672,0,0,1-1.326.155l-.021-.048h-.048l.069.047a3.663,3.663,0,0,0-.893.67,1.168,1.168,0,0,1-1.565.131.241.241,0,0,1-.117-.094c-.045-.039-.089-.081-.132-.127q-.141-.265-.28-.529a.551.551,0,0,0-.494-.259l-.4.149a1.211,1.211,0,0,1-1.131.09,1.351,1.351,0,0,0-1,0c-.856,1-1.787,1.8-3.235,1.341h0a3.3,3.3,0,0,0-2.537-.792c-1.149.686-2.306.179-3.462.045a.357.357,0,0,1-.2-.02,1.953,1.953,0,0,0-1.872-.931,1.018,1.018,0,0,1-1.012.01,1.484,1.484,0,0,0-1.867.121h0c-.421.283-.731-.069-1.082-.192a6.135,6.135,0,0,1-2.55-.175l-.312-.045-.88.377h0c-.112.754-.526.956-1.186.619a1.175,1.175,0,0,0-1.231,0c-.691.375-1.319-.066-1.926-.391a6.311,6.311,0,0,0-2.645-.341c-.3,0-.6.008-.9,0-.6.4-.87-.238-1.3-.39a7.617,7.617,0,0,0-2.712-.31.021.021,0,0,1-.01,0c-.028.011-.056.018-.083.027-.2.09-.268.311-.417.451-.227.27-.424.193-.61-.049a2.864,2.864,0,0,0-2.736-.011l-.827.387-.286.173c-.279.366-.55.137-.821-.013l-.125,0c-.235.01-.47.018-.562-.3h0c-.221-.615-.673-.6-1.129-.58a3.133,3.133,0,0,1-.4,0,6.636,6.636,0,0,0-1.6.19h0c-.367.475-.712.782-1.3.211a1.272,1.272,0,0,0-1.234-.223c-.461.572-.907.2-1.354-.025h-.373a2.4,2.4,0,0,1-2.838.97,6.716,6.716,0,0,0-2.965.11,2.091,2.091,0,0,1-1.388-.069c-.138-.006-.276,0-.416,0a1.954,1.954,0,0,1-1.447-.368h0c-.151-.14-.3-.278-.454-.417-.645-.239-1.291-.553-1.925.024l-.093-.036a.2.2,0,0,1-.02.027l.057.023.056-.014c-.314.422-.528,1.271-1.173.279l-.4-.011c-.078.388-.31.252-.529.156-.221.121-.363.037-.451-.179h0c-.089-.369-.6-.107-.691-.47,0-.557-.552-.488-.817-.745-.477-.146-.471.337-.687.532h0c.048.437-.146.685-.582.647-.239-.021-.646.013-.441-.471-.189-.508-.632-.48-1.032-.539l-.181.05h0c-.1.007-.193.012-.289.018a.854.854,0,0,1-.419.073c-.27.045-.541.092-.811.14a1.918,1.918,0,0,1-1.18.184,2.618,2.618,0,0,0-.853.041,1.412,1.412,0,0,1-.7.021.353.353,0,0,1-.1.049,5.063,5.063,0,0,1-1.339-.261c-.348.131-.7.263-.826.685a1.159,1.159,0,0,1-1.183.258c-.257.565-.841.656-1.469.695a5.073,5.073,0,0,1-3.493-.548l-1.4-.106-.921.051c.251-.325.589-.173.9-.167a1.438,1.438,0,0,1,.934-.215,2.459,2.459,0,0,1-.324-.528l0,0-.572.134h0c-.114.625-.7.5-1.057.555a1.357,1.357,0,0,0-1.1.841,2.655,2.655,0,0,1-2.4-.048c-.545-.247.313-.748-.11-1.072a.315.315,0,0,1-.16-.044.189.189,0,0,1-.185.007c-.432.087-.865.161-1.291.264-.53.127-.858-.041-.983-.544a1.772,1.772,0,0,1-1.65-.082c-.362-.234-.713.137-.989.4-.3.285-.558.625-1.046.483l-1.113.156a2.561,2.561,0,0,1-.9.277,1.866,1.866,0,0,1-1.59,1.016c-.741-.137-1.469-.36-2.2-.553-.348-.091-.464-.285-.255-.607a3.3,3.3,0,0,0-1.775,0c-.573.187-.925-.189-1.317-.485-.349.285-.477.942-1.1.718-.834-.3-1.831-.1-2.6-.584a1.65,1.65,0,0,1-.762.093c-.413-.006-.826-.014-1.238-.021-.281-.127-.357-.4-.477-.648a.194.194,0,0,1,.008-.032,3.286,3.286,0,0,1-1.061-.215,1.618,1.618,0,0,1-.389-.237,1.174,1.174,0,0,0-.613.356l.012.01a.753.753,0,0,1,.256-.014.3.3,0,0,0,.184-.037c.107-.047.213-.093.288.081a.281.281,0,0,1-.05.252c-.15.147-.285.008-.411-.069a2.538,2.538,0,0,1-.269-.212l-.021,0,.011-.013c-.584-.042-1.091-.48-1.71-.337l-.26-.106a7.726,7.726,0,0,1-1.781.062,6.748,6.748,0,0,0-2.074.125.46.46,0,0,1-.412-.078,1.375,1.375,0,0,1-.382-.154c-.7-.368-1.65.016-2.214-.755-.034-.076-.069-.154-.106-.23a1.753,1.753,0,0,0-.478-.181c-.066-.006-.132-.014-.2-.025a1.2,1.2,0,0,0-.756.236.858.858,0,0,1-.987.074,1,1,0,0,0-.081.538c.018.228.046.5-.312.427-.232-.05-.257-.276-.19-.47a1.3,1.3,0,0,0,.144-.61,2.937,2.937,0,0,1-.343-.183h0l-.464-.054a.549.549,0,0,0-.351.159,2.2,2.2,0,0,1-.008.377.387.387,0,0,1-.374.356.266.266,0,0,1-.21-.148c-.049-.279.3-.142.361-.327.028-.091.061-.179.091-.267a1.49,1.49,0,0,0-.057-.177c-.033-.013-.066-.027-.1-.042a.972.972,0,0,1-.166-.024c-.273-.236-.706-.118-.937-.442a.255.255,0,0,1-.137-.033,7.355,7.355,0,0,1-2.387.334,1.518,1.518,0,0,1-1.037.006c-.375-.128-.747-.255-1.124-.366a3.668,3.668,0,0,1-1.008.079,2.54,2.54,0,0,1-1.08-.4c-.09,0-.18,0-.271.012a26.28,26.28,0,0,0-3.3.918,3.1,3.1,0,0,1-2.181-.19,8.777,8.777,0,0,0-2.038-.5h0l-.315,0h0c-1.93.407-3.889.618-5.845.834-.723.079-1.3-.473-1.992-.548a4.556,4.556,0,0,0-1.57.26c-.81.335-1.012-.421-1.313-.938h0l-.437-.08a.8.8,0,0,1-.669-.048.952.952,0,0,0-.544-.092c-.278.03-.557.056-.834.063l-1.026.08c-.6.3-1.327.306-1.844.8a2.552,2.552,0,0,1-2.066.3,3.949,3.949,0,0,0-1.729.058,5.311,5.311,0,0,1-1.28.127,12.54,12.54,0,0,0-1.419.024,5.592,5.592,0,0,1-3.031-.391c-.162-.183-.369-.147-.574-.124-1.058.439-2.095,1.063-3.289.433-.214-.113-.445-.179-.616.024-.5.6-1.017.425-1.629.15-.858-.385-1.737.023-2.611.086a54.368,54.368,0,0,1-5.691.385h0c-.66.116-1.225.584-1.931.544a.823.823,0,0,1-.162.017l-.683.074-1.09.1c-2.025.243-4,.812-6.053.886l-.691.091c-.482.068-.9.465-1.431.263a1.39,1.39,0,0,1-.77.227l-.418.068c-.253.166-.412.019-.464-.2-.041-.171.106-.254.285-.216l.512-.42.087,0c-.016-.134.051-.192.177-.2.65-.013,1.3-.039,1.948-.039,1.235,0,1.4-.263.9-1.472l-.021-.027-.283-.407a.287.287,0,0,1,0-.175c-.088-.308.217-.4.386-.568a.2.2,0,0,0-.024,0c-.151.068-.273.073-.344-.021a1.765,1.765,0,0,1-.447.055,1.289,1.289,0,0,1-.068.572q-.235.233-.463.465h0c-.2.31-.5.283-.8.227-.276.1-.369.548-.77.408l-.805.357a2.753,2.753,0,0,0-2-.121c-.376.382-.915.652-.893,1.31h0l.039.023.946.208h.08c.133,0,.274,0,.326.149.079.23-.072.224-.2.218l-.07,0c-.28.01-.562,0-.844-.006l-.261.057c-.4.32-.9.216-1.354.329-.483.123-.512-.121-.632-.507-.137-.439.2-.808.025-1.208-.281-.784-.761-1.059-1.523-.6-.639.1-1.291.431-1.764-.4-.207-.363-.632-.755-.919.042-.132.376-.436.371-.737.368-.083,0-.164,0-.244,0l-.642.562a.725.725,0,0,1-.7.344h0l-.347.087a.994.994,0,0,0-.487.957c.016.234.062.535-.312.578l0,0a2.442,2.442,0,0,1-1.77.2,4.621,4.621,0,0,0-.93-.066c-.055,0-.124-.195-.185-.3-.132-.5.287-.4.511-.45a2.328,2.328,0,0,1,1.137.07,2.222,2.222,0,0,0-1.467-.085,1.432,1.432,0,0,1-1.115-.116c-.09-.137-.178-.274-.267-.411l-.77-.216a1.492,1.492,0,0,1-1.2.073,1.861,1.861,0,0,0-.949-.044c-.043.017-.086.032-.129.044-.354.208-.608,1.016-1.132.165v0l-.641-.07a1.312,1.312,0,0,0-.616-.05c-.341.026-.682.051-.93-.323-.385-.377-.761-.533-1.224-.079a.708.708,0,0,1-.7.218l-.74.074h0a1.363,1.363,0,0,1-1.73-.226c-.28-.138-.595-.246-.442-.683.18-.516.6-.475,1.009-.467.382-.333.7-.795,1.315-.648h0c.2-.332.557-.637.177-1.067l-.668.038a1.211,1.211,0,0,1-.253.02l-.768.066-.52.053a.273.273,0,0,1-.275.214q-.374.469-.745.939c-.417-.081-.708-.519-1.187-.421l-1.327.056.095.081c.053-.012.105-.024.158-.039.424.026.464.284.372.623l-.241.476c.077.5-.217.582-.621.6-1.365.06-2.727.18-4.089.191a8.659,8.659,0,0,0-2.62.388c-.216.18-.429.362-.643.543-.339.431-.828.328-1.278.368a1.873,1.873,0,0,1-1.794-.094c-.256-.3-.651-.147-.957-.289a4.275,4.275,0,0,0-2.566.542.906.906,0,0,1-.813.036V-265.213a2.512,2.512,0,0,0,.957.209c.708-.333,1,.388,1.5.6l.976-.115a7.261,7.261,0,0,0,3.014.184,2.67,2.67,0,0,1,1.326-.155,3.7,3.7,0,0,0,.893-.67,1.168,1.168,0,0,1,1.565-.131.238.238,0,0,1,.118.094,1.622,1.622,0,0,1,.131.126q.141.265.281.529a.551.551,0,0,0,.493.259l.4-.149a1.208,1.208,0,0,1,1.13-.09,1.351,1.351,0,0,0,1,0,3.348,3.348,0,0,1,2.4-1.474h.071a2.652,2.652,0,0,1,.768.132h0a3.292,3.292,0,0,0,2.535.792c1.149-.686,2.306-.179,3.462-.045a.36.36,0,0,1,.2.02,1.951,1.951,0,0,0,1.869.931,1.021,1.021,0,0,1,1.012-.01,1.488,1.488,0,0,0,1.87-.121c.423-.283.733.069,1.082.192a6.117,6.117,0,0,1,2.551.175l.313.047.882-.378c.114-.753.525-.957,1.186-.619a1.175,1.175,0,0,0,1.232,0c.69-.375,1.319.066,1.924.391a6.355,6.355,0,0,0,2.65.343c.3,0,.6-.008.9,0,.594-.4.869.237,1.3.39a7.614,7.614,0,0,0,2.711.31l.01,0c.029-.011.057-.019.083-.027.2-.09.269-.311.417-.451.226-.27.424-.193.61.049a2.86,2.86,0,0,0,2.735.011l.827-.387.286-.173c.279-.366.549-.138.821.013l.126,0c.233-.01.469-.018.561.3.218.615.672.6,1.128.58a3.17,3.17,0,0,1,.4,0,6.571,6.571,0,0,0,1.594-.19c.366-.476.713-.783,1.3-.212a1.272,1.272,0,0,0,1.234.223c.463-.572.907-.2,1.354.025h.374a2.4,2.4,0,0,1,2.838-.969,6.7,6.7,0,0,0,2.965-.11,2.087,2.087,0,0,1,1.386.069c.136.006.276,0,.416,0a1.959,1.959,0,0,1,1.449.368h0l.453.417c.646.24,1.291.554,1.926-.023.314-.424.529-1.272,1.174-.279l.4.01c.079-.388.311-.253.528-.156.221-.119.362-.038.452.179h0c.088.369.6.109.691.47,0,.557.552.488.817.745.476.146.473-.337.686-.532-.048-.438.147-.687.584-.648.239.02.644-.013.439.473.276.736,1.083.345,1.524.729l0,0a.391.391,0,0,1,.2-.066,6.69,6.69,0,0,1,2.289-.156c.387.017.775.035,1.161.019.141-.18.116-.48.4-.561a3.413,3.413,0,0,1,1.021.177,2.486,2.486,0,0,0,1.458.1c.21-.229.7-.078.749-.5.118-.981.821-1.105,1.589-1.152a5.068,5.068,0,0,1,3.494.547h0l1.4.106h0c.309-.016.615-.033.923-.05-.253.325-.589.173-.9.167-.435.332-.961.144-1.434.259a.529.529,0,0,0-.247.507,2.825,2.825,0,0,1,1.473.434c.207-.183.415-.364.62-.547a1.827,1.827,0,0,1,.814-.338.408.408,0,0,1,.118-.3c.2-.217.386.017.523.2a.937.937,0,0,0,.1.173,1.292,1.292,0,0,1,.439.261.3.3,0,0,0,.207-.078c.68-.606,1.013-.189,1.373.275a.909.909,0,0,1,.368.29.3.3,0,0,0,.106-.011l.049,0,1.232-.143a1.075,1.075,0,0,1,.716-.11,2.213,2.213,0,0,0,.264-.057,1.368,1.368,0,0,0,.666-.708,2.664,2.664,0,0,1,2.4.048.325.325,0,0,1,.155.129c.277-.271.533-.561.989-.428l1.114-.156a3.5,3.5,0,0,1,1.456-.334,13.058,13.058,0,0,1,2.6,0,4.948,4.948,0,0,0,2.66.2.97.97,0,0,1,.213-.043,1.269,1.269,0,0,1,.825-.227c.742.137,1.467.36,2.2.551.352.093.469.29.249.619-.353.856-.388.964.366.96a10.675,10.675,0,0,0,.907-1.235c.174-.4.631-.376,1.021-.369l1.24.021a.7.7,0,0,1,.33.342.625.625,0,0,1,.333.033,4.733,4.733,0,0,0,1.13.2.219.219,0,0,1,.046-.092c.15-.148.287-.008.411.069a1.272,1.272,0,0,1,.129.094,2.3,2.3,0,0,1,.938.347,1.588,1.588,0,0,0,.922.118l.263.107.029.014-.031-.016a7.724,7.724,0,0,1,1.78-.062,6.749,6.749,0,0,0,2.074-.125c.472-.126.721.407.881.839l.245.233c.7-.477,1,.069,1.363.458.127-.008.255-.016.382-.017.488-.266,1.028-.031,1.543,0,.025,0,.05,0,.075-.007a1.185,1.185,0,0,1,1.1-.561,1.321,1.321,0,0,0,.021-.37c-.017-.227-.045-.5.312-.426.233.051.259.276.19.47a2.446,2.446,0,0,0-.146.457c.031.016.06.026.092.044a2.73,2.73,0,0,0,1.034.214c.011-.01.024-.016.036-.027a2.306,2.306,0,0,1,.008-.377.386.386,0,0,1,.375-.354.267.267,0,0,1,.21.147c.049.278-.3.142-.361.327-.029.091-.061.178-.091.267a.329.329,0,0,0,.014.041,1.332,1.332,0,0,1,.988.52h0a.142.142,0,0,0,.012.029l.782.337c.033.024.067.047.1.069a1.215,1.215,0,0,0,.643-.234.855.855,0,0,1,1.066-.025,1.221,1.221,0,0,1,.7.248l.478.055a6.322,6.322,0,0,1,2.16-.375,3.012,3.012,0,0,1,1.405.609,3.949,3.949,0,0,1,.693,0,1.514,1.514,0,0,1,1.038-.006,8.367,8.367,0,0,0,3.482.672,26.218,26.218,0,0,0,3.3-.919,3.107,3.107,0,0,1,2.182.191,8.705,8.705,0,0,0,2.039.5h0l.313,0h0c1.931-.406,3.888-.617,5.846-.833.723-.08,1.3.471,1.991.548a4.619,4.619,0,0,0,1.571-.26c.809-.335,1.013.421,1.313.937h0l.437.081h0a.8.8,0,0,1,.668.048.974.974,0,0,0,.545.092c.277-.03.555-.057.831-.063l1.026-.08c.6-.3,1.329-.306,1.846-.8a2.549,2.549,0,0,1,2.067-.3,3.941,3.941,0,0,0,1.727-.058,5.311,5.311,0,0,1,1.28-.126,12.243,12.243,0,0,0,1.418-.025,5.613,5.613,0,0,1,3.034.393c.161.183.367.147.572.124,1.059-.44,2.1-1.063,3.289-.433.216.113.447.179.616-.024.5-.6,1.018-.425,1.628-.15.859.385,1.739-.023,2.612-.087a54.368,54.368,0,0,1,5.693-.384c.661-.116,1.226-.585,1.932-.544a.813.813,0,0,1,.161-.017l.683-.075,1.09-.1c2.027-.243,4-.812,6.054-.886l.69-.091c.481-.068.9-.465,1.43-.263a1.4,1.4,0,0,1,.771-.227l.417-.068c.253-.167.413-.019.464.2.042.171-.105.253-.284.216l-.51.42-.091,0c.016.134-.049.192-.176.2-.648.013-1.3.039-1.948.039-1.232,0-1.4.263-.9,1.472l.022.027c.093.136.187.272.282.407a.3.3,0,0,1,0,.175c.087.308-.22.4-.388.568l.025,0c.152-.068.273-.073.343.021a1.77,1.77,0,0,1,.447-.055,1.261,1.261,0,0,1,.069-.572c.155-.156.309-.31.464-.465h0c.2-.311.495-.284.8-.227.273-.1.366-.549.767-.408.271-.119.538-.237.807-.358a2.743,2.743,0,0,0,2,.122c.376-.382.917-.653.893-1.312l-.039-.021-.947-.208h-.079c-.134,0-.274,0-.327-.149-.077-.23.073-.224.2-.22l.072,0c.281-.01.562,0,.845.007l.261-.059c.4-.319.9-.215,1.354-.328.483-.123.511.121.632.507.137.438-.2.808-.026,1.207.282.785.761,1.06,1.524.6.639-.105,1.291-.431,1.764.4.206.363.631.755.918-.043.133-.376.438-.371.739-.366.082,0,.164,0,.242,0l.641-.562a.73.73,0,0,1,.7-.345l.346-.087a1,1,0,0,0,.486-.957c-.017-.234-.062-.535.311-.578l0,0a2.442,2.442,0,0,1,1.771-.2,4.8,4.8,0,0,0,.93.066c.056,0,.123.195.186.3.132.5-.287.4-.513.45a2.309,2.309,0,0,1-1.135-.072,2.223,2.223,0,0,0,1.467.086,1.433,1.433,0,0,1,1.115.116c.089.137.177.275.267.411l.77.216a1.494,1.494,0,0,1,1.2-.073,1.867,1.867,0,0,0,.947.044c.043-.017.087-.032.13-.045.353-.206.608-1.016,1.134-.164v0l.64.07a1.313,1.313,0,0,0,.616.049c.341-.025.684-.05.93.325.385.377.762.533,1.224.079a.71.71,0,0,1,.7-.218c.246-.025.491-.049.739-.075h0a1.359,1.359,0,0,1,1.728.224c.281.14.6.247.443.683-.181.517-.6.475-1.009.467-.381.334-.7.795-1.316.649-.2.331-.557.637-.178,1.067l.669-.038a1.315,1.315,0,0,1,.255-.021l.767-.064.52-.053a.272.272,0,0,1,.275-.214l.744-.939c.417.081.708.518,1.187.421h0l1.329-.055-.095-.081c-.054.012-.106.024-.157.038-.427-.025-.467-.284-.373-.623.079-.159.16-.317.24-.476-.076-.5.218-.582.622-.6,1.364-.058,2.727-.179,4.09-.19a8.675,8.675,0,0,0,2.622-.388l.64-.543c.34-.432.83-.329,1.279-.368a1.877,1.877,0,0,1,1.8.094h0c.257.3.652.147.957.289a4.278,4.278,0,0,0,2.567-.542,1.109,1.109,0,0,1,1.021.032,1.783,1.783,0,0,0,.749.141c.709-.333,1,.389,1.5.6l.976-.113a7.3,7.3,0,0,0,3.013.184,2.663,2.663,0,0,1,1.327-.155,3.72,3.72,0,0,0,.894-.67,1.164,1.164,0,0,1,1.564-.131.225.225,0,0,1,.118.093c.044.039.089.081.131.126l.281.529a.547.547,0,0,0,.493.259l.4-.148a1.211,1.211,0,0,1,1.129-.091,1.34,1.34,0,0,0,1,0c.854-1,1.787-1.8,3.235-1.341h0a3.284,3.284,0,0,0,2.535.792c1.149-.686,2.306-.179,3.462-.044a.358.358,0,0,1,.2.019,1.955,1.955,0,0,0,1.871.932,1.017,1.017,0,0,1,1.011-.01,1.487,1.487,0,0,0,1.87-.122c.421-.282.733.07,1.083.192a6.156,6.156,0,0,1,2.55.177l.312.045.88-.377h0c.114-.754.525-.957,1.187-.621a1.175,1.175,0,0,0,1.23,0c.692-.375,1.319.066,1.926.391a6.313,6.313,0,0,0,2.646.34c.3,0,.6-.007.9,0,.6-.4.87.237,1.3.39a7.636,7.636,0,0,0,2.711.309l.01,0c.028-.011.057-.018.083-.027.2-.088.266-.31.416-.45.227-.271.426-.193.61.048a2.861,2.861,0,0,0,2.737.011l.825-.385.286-.174c.28-.366.55-.137.821.014.041,0,.083,0,.126,0,.234-.008.47-.018.562.3h0c.22.615.674.6,1.129.581a3.17,3.17,0,0,1,.4,0,6.574,6.574,0,0,0,1.595-.19h0c.366-.474.713-.781,1.3-.21a1.27,1.27,0,0,0,1.233.222c.464-.572.908-.2,1.357.025h.373a2.393,2.393,0,0,1,2.836-.969,6.705,6.705,0,0,0,2.966-.112,2.1,2.1,0,0,1,1.386.072c.137,0,.277,0,.417,0a1.952,1.952,0,0,1,1.447.368h0l.455.415c.645.24,1.29.553,1.924-.023.314-.424.528-1.271,1.175-.279l.4.01c.08-.388.31-.252.528-.155.222-.121.364-.038.453.179h0c.089.368.6.107.691.469,0,.557.551.489.816.746.477.144.471-.338.686-.533-.047-.438.147-.687.584-.648.239.023.644-.013.44.473.19.508.631.48,1.032.538l.182-.05h0l.289-.018a.865.865,0,0,1,.418-.072c.27-.048.541-.093.812-.14a1.908,1.908,0,0,1,1.18-.184,2.621,2.621,0,0,0,.854-.042,1.427,1.427,0,0,1,.7-.02.351.351,0,0,1,.1-.05A5.044,5.044,0,0,1,4586-263c.35-.131.7-.261.827-.685a1.16,1.16,0,0,1,1.182-.257c.257-.566.842-.656,1.469-.7a5.072,5.072,0,0,1,3.492.549q.7.052,1.4.106l.919-.051c-.25.323-.587.172-.9.166a1.436,1.436,0,0,1-.934.215,2.522,2.522,0,0,1,.326.528v0l.572-.135h0c.112-.625.694-.5,1.054-.555a1.353,1.353,0,0,0,1.1-.843,2.661,2.661,0,0,1,2.4.049c.544.247-.312.748.11,1.073a.307.307,0,0,1,.16.044.182.182,0,0,1,.184-.007c.432-.087.865-.161,1.292-.264.528-.127.857.041.981.543a1.78,1.78,0,0,1,1.651.082c.362.234.713-.137.987-.4.3-.285.558-.625,1.046-.485l1.114-.155a2.539,2.539,0,0,1,.9-.278,1.864,1.864,0,0,1,1.591-1.014c.741.136,1.467.359,2.2.551.347.091.464.286.254.609a3.3,3.3,0,0,0,1.776,0c.571-.186.923.189,1.315.485.348-.284.477-.942,1.1-.718.833.3,1.83.1,2.6.585a1.67,1.67,0,0,1,.761-.094l1.239.021c.281.127.358.4.478.648a.3.3,0,0,1-.008.032,3.281,3.281,0,0,1,1.059.216,1.64,1.64,0,0,1,.39.236,1.17,1.17,0,0,0,.613-.356l-.013-.008a.743.743,0,0,1-.255.013.3.3,0,0,0-.186.038c-.107.045-.213.092-.288-.081a.277.277,0,0,1,.052-.252c.15-.148.283-.008.41.069a2.35,2.35,0,0,1,.269.212.063.063,0,0,1,.021,0l-.011.013c.583.042,1.09.481,1.709.337l.261.107a7.651,7.651,0,0,1,1.78-.062,6.781,6.781,0,0,0,2.073-.125.468.468,0,0,1,.414.076,1.357,1.357,0,0,1,.381.155c.7.366,1.649-.017,2.212.754h0c.034.076.071.154.106.23a1.723,1.723,0,0,0,.477.181c.066.006.133.016.2.026a1.2,1.2,0,0,0,.755-.236.857.857,0,0,1,.988-.074,1.031,1.031,0,0,0,.08-.539c-.017-.228-.046-.5.313-.426.231.05.256.274.188.469a1.325,1.325,0,0,0-.143.611,2.59,2.59,0,0,1,.343.183h0l.462.054a.547.547,0,0,0,.351-.16,2.422,2.422,0,0,1,.009-.377.389.389,0,0,1,.374-.356.271.271,0,0,1,.21.148c.05.278-.3.142-.36.328-.029.09-.061.178-.09.266a1.4,1.4,0,0,0,.057.177l.1.042a1.086,1.086,0,0,1,.167.024c.272.236.705.118.936.443a.243.243,0,0,1,.137.033,7.355,7.355,0,0,1,2.387-.335,1.515,1.515,0,0,1,1.039,0c.373.127.746.253,1.124.365a3.71,3.71,0,0,1,1.007-.079,2.556,2.556,0,0,1,1.081.4c.09,0,.18,0,.271-.012a26.172,26.172,0,0,0,3.3-.919,3.1,3.1,0,0,1,2.182.191,8.763,8.763,0,0,0,2.038.5h0l.314,0h0c1.929-.407,3.888-.618,5.845-.834.722-.08,1.3.473,1.992.547a4.549,4.549,0,0,0,1.569-.26c.811-.334,1.013.421,1.314.938h0c.146.026.292.051.438.079a.8.8,0,0,1,.667.049.966.966,0,0,0,.546.092c.277-.03.556-.058.832-.064l1.027-.079c.6-.306,1.327-.307,1.845-.8a2.556,2.556,0,0,1,2.066-.3,3.945,3.945,0,0,0,1.728-.057,5.382,5.382,0,0,1,1.281-.128,11.99,11.99,0,0,0,1.418-.024,5.6,5.6,0,0,1,3.033.393c.161.183.369.146.573.123,1.06-.439,2.094-1.062,3.291-.433.215.113.445.179.614-.023.5-.6,1.018-.426,1.63-.152.858.387,1.737-.023,2.611-.086a54.038,54.038,0,0,1,5.693-.384h0c.66-.117,1.224-.585,1.93-.545h0a1.022,1.022,0,0,1,.161-.017l.683-.074,1.09-.1c2.026-.245,4-.813,6.053-.886l.691-.092c.481-.068.9-.464,1.431-.263a1.414,1.414,0,0,1,.771-.227l.418-.067c.253-.167.411-.019.464.2.04.171-.105.254-.286.217l-.51.42-.089-.006c.016.134-.051.192-.177.2-.648.013-1.3.039-1.947.038-1.233,0-1.4.264-.9,1.472l.022.027c.093.136.188.272.282.407a.273.273,0,0,1,0,.175c.089.309-.217.4-.386.568l.024,0c.152-.068.273-.074.344.02a1.772,1.772,0,0,1,.448-.055,1.267,1.267,0,0,1,.068-.572c.155-.154.31-.31.463-.465.2-.31.495-.284.8-.227.275-.1.368-.549.769-.409l.807-.356a2.764,2.764,0,0,0,2,.121c.375-.383.915-.652.891-1.31h0l-.039-.021-.946-.208h-.08c-.133,0-.273,0-.325-.15-.078-.229.073-.224.2-.218l.07,0c.28-.01.563,0,.845.006l.26-.057c.4-.32.9-.215,1.354-.329.483-.123.512.121.632.507.138.439-.2.809-.025,1.208.283.785.761,1.059,1.525.6.638-.105,1.289-.432,1.764.4.206.363.633.757.917-.042.133-.376.437-.371.737-.368a2.086,2.086,0,0,0,.245,0l.64-.561a.723.723,0,0,1,.7-.344h0c.116-.029.23-.058.346-.088a1,1,0,0,0,.488-.957c-.016-.234-.061-.535.312-.578l0,0a2.444,2.444,0,0,1,1.771-.2,4.7,4.7,0,0,0,.929.067c.056,0,.123.195.185.3.132.5-.287.4-.511.451a2.337,2.337,0,0,1-1.135-.072,2.221,2.221,0,0,0,1.467.086,1.423,1.423,0,0,1,1.115.116c.089.136.178.273.265.411l.771.216a1.486,1.486,0,0,1,1.2-.073,1.862,1.862,0,0,0,.946.044.939.939,0,0,1,.129-.044c.354-.209.609-1.017,1.134-.165v0l0,0,.64.069a1.3,1.3,0,0,0,.617.05c.34-.025.682-.05.929.323.385.377.76.535,1.223.08a.709.709,0,0,1,.7-.218c.247-.026.492-.05.74-.074l0,0a1.362,1.362,0,0,1,1.729.226c.281.14.595.246.443.683-.181.516-.6.475-1.008.467-.383.334-.7.795-1.317.648h0c-.2.333-.555.637-.176,1.068l.668-.039a1.207,1.207,0,0,1,.253-.02c.256-.023.513-.043.768-.064l.52-.054a.272.272,0,0,1,.276-.212q.371-.471.744-.94c.416.081.708.519,1.188.42l1.326-.055h0l-.1-.08c-.052.011-.105.023-.157.038-.425-.025-.466-.284-.373-.624l.24-.475c-.075-.5.218-.582.623-.6,1.364-.059,2.726-.179,4.09-.19a8.659,8.659,0,0,0,2.62-.388c.214-.181.427-.362.641-.544.341-.431.828-.329,1.278-.366a1.87,1.87,0,0,1,1.8.094h0c.257.3.652.147.957.289a4.288,4.288,0,0,0,2.565-.542.9.9,0,0,1,.813-.036V-241.8h0v356.95a2.489,2.489,0,0,0-.957-.21c-.709.333-1-.388-1.5-.6-.325.038-.651.078-.977.115a7.3,7.3,0,0,0-3.014-.184,2.671,2.671,0,0,1-1.326.155l-.021-.047h-.045l.066.045a3.646,3.646,0,0,0-.891.67,1.167,1.167,0,0,1-1.567.131.238.238,0,0,1-.119-.093c-.044-.039-.087-.081-.132-.127l-.279-.529a.548.548,0,0,0-.493-.259l-.4.148a1.215,1.215,0,0,1-1.131.091,1.342,1.342,0,0,0-1,0,3.352,3.352,0,0,1-2.4,1.474Zm-479.839-1.5v0h0Zm493.618-.212a.333.333,0,0,1,.007.118.311.311,0,0,1,.042-.122C4748.994,114.216,4748.979,114.216,4748.962,114.218Zm-33.929.1a.478.478,0,0,0,.041-.039.464.464,0,0,0-.115-.03C4714.979,114.266,4715,114.289,4715.033,114.314Zm-324.949-.042a.055.055,0,0,1,.017-.013l-.009,0-.03-.007Zm-110.644-.215.05-.037h-.006Zm223.981-.07,0,0h0Zm-7.8-.094a.334.334,0,0,1,.041-.121h-.047A.339.339,0,0,1,4495.622,113.893Zm185.718-.032.054.021.057-.014-.091-.035A.255.255,0,0,0,4681.34,113.86Zm-219.653.01c.013-.013.027-.024.041-.039a.6.6,0,0,0-.115-.031A.686.686,0,0,0,4461.687,113.87Zm263.917-.036.035-.011-.048,0Zm-87.44-.006.016-.014c-.016-.008-.034-.016-.051-.024Zm-110.643-.216.05-.037h-.007Zm-253.024-.064,0,.006.022-.02c.013-.006.028-.011.041-.018a.145.145,0,0,1,.057-.081c-.081-.445.329-.716.386-1.111a1.139,1.139,0,0,1-.512-.882c.028-.43.25-.761.746-.36l1.148.042c.358-.147.3-.511.405-.788a.672.672,0,0,1-.047-.15c-.173-.1-.345-.2-.519-.3a.665.665,0,0,1-.266.053,10.343,10.343,0,0,0-2.628.672c-.655.181-.387.666-.173,1.073,0,.011,0,.02,0,.03.12.007.25.006.257.177.008.2-.178.174-.3.215-.03.473.671.794.284,1.341h0a5.464,5.464,0,0,1,.577-.066A.79.79,0,0,1,4274.5,113.548Zm388.079,0a1.753,1.753,0,0,1,.8-.23l-.008,0a.8.8,0,0,0-.392-.119A.387.387,0,0,0,4662.575,113.552Zm-362.422-.024a.45.45,0,0,0,.056,0,.291.291,0,0,0,.155-.036.894.894,0,0,1-.136-.043A.5.5,0,0,1,4300.153,113.529Zm388.479-.053h.009l-.006-.008S4688.634,113.474,4688.633,113.476Zm-409.918-1.6c-.43.012-.861-.029-.806.612.293.27.714.372,1,.656l.164.049a.7.7,0,0,1,.372.223,1.108,1.108,0,0,1-.063-.717l.108-.061c.009-.493-.2-.763-.73-.763Zm193.543,1.518a.369.369,0,0,1,.038-.01.4.4,0,0,0-.051,0Zm-195.115-.006h0v0Zm407.228-.135h0l0,0Zm-161.794-.146,0,.006a.223.223,0,0,0,.021-.021l.043-.016a.143.143,0,0,1,.056-.084c-.08-.444.329-.716.386-1.111a1.133,1.133,0,0,1-.511-.881c.028-.43.249-.761.746-.362l1.149.044c.355-.148.3-.513.4-.79a.541.541,0,0,1-.047-.15c-.174-.1-.346-.2-.52-.3a.65.65,0,0,1-.264.054,10.327,10.327,0,0,0-2.628.672c-.656.18-.387.666-.175,1.073a.275.275,0,0,1,0,.03c.12.007.249.006.257.177.007.2-.178.174-.3.215-.031.473.67.794.285,1.34l0,0a5.424,5.424,0,0,1,.578-.066A.791.791,0,0,1,4522.576,113.1Zm187.091-.013a.229.229,0,0,1,.036-.041h-.019l.065-.043a.45.45,0,0,0-.083.043h.018l-.018.012a.03.03,0,0,1-.009-.007C4709.66,113.068,4709.664,113.079,4709.667,113.091Zm-161.435-.007a.44.44,0,0,0,.057,0,.3.3,0,0,0,.154-.036,1,1,0,0,1-.136-.044A.407.407,0,0,1,4548.232,113.083Zm-257-.014a.028.028,0,0,0,.012-.007l-.009-.006C4291.232,113.062,4291.229,113.066,4291.229,113.069Zm144.058-.037h.008l-.005-.008Zm91.508-1.6c-.43.011-.862-.029-.806.611.291.271.712.374,1,.656.055.018.108.035.164.048a.725.725,0,0,1,.371.224,1.1,1.1,0,0,1-.064-.715l.109-.062c.009-.494-.2-.763-.728-.763Zm-1.574,1.512h0v0Zm-138.877-.061h.042a1.13,1.13,0,0,0,.314-.042l.024-.033A1.966,1.966,0,0,1,4386.344,112.879Zm-129.659-.01h0Zm414.74-.023.009,0v0Zm12.9-.029a.661.661,0,0,1,.131-.168,3.763,3.763,0,0,1,1.64-.316c.258-.036.521.061.548-.224l-.139,0a.9.9,0,0,1-.557.175,5.064,5.064,0,0,1-1.3,0,1.32,1.32,0,0,1-.271-.072,1.64,1.64,0,0,0-.275-.134h-.3a.254.254,0,0,1-.09-.314.3.3,0,0,1-.1-.074.129.129,0,0,1-.046-.112.623.623,0,0,0-.4.189.823.823,0,0,1-.265.021.213.213,0,0,1-.028,0l-.16.122-.057,0a.2.2,0,0,1-.018.125c.012.006.023.01.036.017.21.468.506.765,1.083.616a.635.635,0,0,1,.16-.021A.566.566,0,0,1,4684.32,112.818Zm-253.3-.013h0v0Zm-46.9-.03a2.523,2.523,0,0,1,.538-.069,3.511,3.511,0,0,0-.354-.02h-.109C4384.176,112.715,4384.152,112.746,4384.126,112.776Zm319.365-.026h0a.1.1,0,0,0,.019,0c-.007-.007-.017-.014-.024-.023Zm-326.747,0a.162.162,0,0,0-.027-.014Zm-100.882-.082a2.155,2.155,0,0,0,.5.067.991.991,0,0,0,.909-.529l-.055-.011C4276.849,112.429,4276.315,112.187,4275.862,112.663Zm371.457,0-.006.012,0,0c0-.006.011-.012.015-.019Zm-191-.014a.418.418,0,0,1,.035-.041h-.018c.02-.014.043-.029.064-.043a.5.5,0,0,0-.083.043h.019l-.019.013-.011-.007C4456.313,112.623,4456.317,112.633,4456.321,112.645Zm82.987-.02.013-.006-.009-.007A.134.134,0,0,0,4539.308,112.625Zm-254.252-.023.161.013a.668.668,0,0,1-.01-.067A1.093,1.093,0,0,0,4285.056,112.6Zm451.3-.115h.117v-.048C4736.43,112.458,4736.392,112.472,4736.353,112.488Zm-7.84-.044h.065a.249.249,0,0,0-.058-.066C4728.519,112.4,4728.515,112.42,4728.513,112.444Zm-223.75-.019h0Zm-73.788-.05a.7.7,0,0,1,.129-.168,3.738,3.738,0,0,1,1.643-.315c.256-.037.52.058.545-.226l-.138,0a.9.9,0,0,1-.556.177,3.964,3.964,0,0,1-.606.044c-.231,0-.464-.018-.7-.041a1.354,1.354,0,0,1-.271-.072,1.608,1.608,0,0,0-.274-.132h-.3a.256.256,0,0,1-.091-.315.322.322,0,0,1-.1-.073.131.131,0,0,1-.046-.112.613.613,0,0,0-.4.189.826.826,0,0,1-.265.021l-.028,0-.16.121c-.02,0-.037,0-.055,0a.206.206,0,0,1-.018.125l.035.016c.211.47.507.766,1.083.617a.65.65,0,0,1,.161-.021A.567.567,0,0,1,4430.975,112.375Zm-155.967-.053.047-.124a.056.056,0,0,1,.008-.014l-.036.006h0A.283.283,0,0,0,4275.008,112.322Zm175.137-.018h0l.021,0a.211.211,0,0,1-.025-.024Zm286.327,0c0-.012,0-.024,0-.037h-.28Zm-212.529-.085a2.1,2.1,0,0,0,.5.069.987.987,0,0,0,.909-.53l-.054-.01C4524.927,111.985,4524.395,111.743,4523.942,112.217Zm181.007-.027a.4.4,0,0,0,.032-.208.5.5,0,0,0-.146.1.162.162,0,0,0,.013.012h0A.867.867,0,0,0,4704.949,112.19Zm-171.815-.031.162.014c0-.021-.009-.044-.011-.069A1.15,1.15,0,0,0,4533.134,112.159Zm210.7-.066a.154.154,0,0,0,.019.019.112.112,0,0,1,.024-.035h-.022C4743.85,112.082,4743.844,112.088,4743.836,112.093Zm-39.033,0h.04a.069.069,0,0,0-.01-.011.084.084,0,0,0-.013-.013A.188.188,0,0,1,4704.8,112.092Zm31.266-.032.034-.006a.227.227,0,0,0-.023-.031A.294.294,0,0,1,4736.069,112.059Zm-26.922-.414c.013,0,.025,0,.04.006.2.039.7.082.455.4h.017c.112-.074.227-.2.339-.233a.761.761,0,0,0-.567-.185C4709.337,111.634,4709.242,111.641,4709.147,111.645Zm-226.142.4h.116c0-.016,0-.032,0-.047C4483.084,112.014,4483.045,112.028,4483.006,112.044Zm-7.84-.045h.068a.341.341,0,0,0-.06-.066A.422.422,0,0,1,4475.166,112Zm-191.853-.122c.283.1.566.2.8-.2a.874.874,0,0,0,.14-.239c-.049-.508-.42-.744-.855-.925-.074.01-.147.018-.221.029a1.578,1.578,0,0,1-.3-.05l-.066-.013c-.3.437-.017.875.1,1.312h.014A1.23,1.23,0,0,1,4283.313,111.877Zm393.526.066.021-.023h-.021A.088.088,0,0,1,4676.839,111.942Zm-413.8-.045.1,0,.121,0v0C4263.184,111.894,4263.113,111.894,4263.041,111.9Zm472.562-.008s.009,0,.012-.017h-.015C4735.6,111.883,4735.6,111.889,4735.6,111.889Zm-212.5-.144a.287.287,0,0,0-.02.132c.016-.041.033-.082.048-.124,0,0,.006-.008.008-.014Zm-39.979.113v-.037h-.279Zm-31.523-.113a.435.435,0,0,0,.033-.208.536.536,0,0,0-.148.1l.014.012h-.006A.769.769,0,0,0,4451.6,111.744Zm256.363-.018c.03,0,.062,0,.091,0a5.293,5.293,0,0,0,.674-.081C4708.482,111.658,4708.222,111.717,4707.967,111.726Zm-217.477-.078a.148.148,0,0,0,.018.019.127.127,0,0,1,.025-.035h-.023Zm-39.034,0h.04a.061.061,0,0,0-.01-.01h0l0,0-.015-.011Zm-159.829-.011c0-.02,0-.043,0-.063-.024,0-.051,0-.075,0A.241.241,0,0,0,4291.627,111.637Zm191.1-.021.034-.006c-.007-.012-.016-.023-.022-.032C4482.731,111.59,4482.728,111.6,4482.723,111.615ZM4455.8,111.2l.039,0c.2.041.7.085.454.4h.019a1.612,1.612,0,0,1,.34-.234.755.755,0,0,0-.563-.184C4455.993,111.19,4455.9,111.2,4455.8,111.2Zm-169.957-.9c-.073.014-.147.024-.221.035l-.727.607c.246.609.829.5,1.32.587a.455.455,0,0,1,.161-.2,1.758,1.758,0,0,0,.469-.406c.13-.246.119-.5-.325-.781l-.475-.033A.443.443,0,0,1,4285.844,110.3Zm245.547,1.134c.285.1.567.2.8-.2a.889.889,0,0,0,.142-.238c-.051-.51-.421-.744-.856-.925-.073.008-.147.017-.22.029a1.553,1.553,0,0,1-.3-.05l-.066-.013c-.3.437-.018.874.1,1.312h.019A1.167,1.167,0,0,1,4531.391,111.433Zm-230.706.07h.01l0,0v0l0,0Zm.016,0,.006-.006h-.011Zm210.421-.045c.027,0,.057,0,.086,0s.086,0,.13,0l0,0C4511.263,111.45,4511.193,111.448,4511.121,111.453Zm-28.865-.008s.007,0,.012-.016l-.015,0C4482.251,111.438,4482.253,111.445,4482.256,111.445Zm-27.637-.162c.032,0,.062,0,.1,0a5.307,5.307,0,0,0,.671-.082C4455.135,111.213,4454.876,111.272,4454.62,111.283Zm85.086-.091c0-.02,0-.042,0-.062-.025,0-.05,0-.077,0A.263.263,0,0,0,4539.706,111.192Zm-5.784-1.337c-.073.013-.146.023-.219.033l-.728.607c.246.61.829.5,1.319.587a.483.483,0,0,1,.161-.2,1.793,1.793,0,0,0,.472-.406c.129-.247.117-.5-.326-.781l-.475-.033A.45.45,0,0,1,4533.922,109.855Zm14.842,1.2.009,0,0,0v0l0,0Zm.017,0,.007,0h-.011Zm-259.991-.079a4.009,4.009,0,0,0,.546.036,11.734,11.734,0,0,0,2.246-.335,1.173,1.173,0,0,1-.947-.42c.014-.041.028-.079.043-.118l0-.01-.012.013a.665.665,0,0,1-.869.088.325.325,0,0,0-.038.007.351.351,0,0,1-.247-.09h-.058C4289.631,110.671,4288.76,110.444,4288.789,110.975Zm-9.744-.288c.76-.055,1.579-.07,2.361-.158a.621.621,0,0,0-.258-.019.6.6,0,0,1-.361-.055l-.041.006a1.154,1.154,0,0,1-.23.024,1.026,1.026,0,0,1-.182-.016,1.444,1.444,0,0,1-.224-.094.216.216,0,0,1-.069-.024c.129.205-.09.3-.271.279-.05,0-.1-.007-.15-.007A3.742,3.742,0,0,0,4279.045,110.687Zm257.823-.158a4.013,4.013,0,0,0,.547.036,11.818,11.818,0,0,0,2.245-.334,1.175,1.175,0,0,1-.947-.421c.015-.038.031-.079.044-.118l0-.008-.013.013a.668.668,0,0,1-.87.087c-.013,0-.025,0-.04.007a.346.346,0,0,1-.245-.088h-.058C4537.71,110.226,4536.84,110,4536.868,110.529Zm-181.346-.2h.01l0,0,.012.016.009-.02h-.016l.022-.019C4355.542,110.317,4355.532,110.324,4355.522,110.33Zm-.008,0h.013l-.006,0Zm-10.421-.018.136,0a.455.455,0,0,1-.016-.109A.461.461,0,0,0,4345.094,110.317Zm-74.333-.013.021,0a.094.094,0,0,1-.015-.016C4270.764,110.291,4270.763,110.3,4270.761,110.3Zm256.362-.061c.762-.055,1.58-.07,2.361-.159a.635.635,0,0,0-.257-.018.618.618,0,0,1-.362-.054l-.04,0a1.069,1.069,0,0,1-.229.025,1.052,1.052,0,0,1-.184-.017,1.289,1.289,0,0,1-.222-.094.189.189,0,0,1-.069-.024c.127.205-.09.3-.271.279-.051,0-.1-.007-.15-.007A3.644,3.644,0,0,0,4527.123,110.243Zm76.479-.358h.011s0,0-.007.007l.014.013c0-.006,0-.013.008-.02h-.015c.008-.007.014-.011.021-.018C4603.623,109.872,4603.612,109.88,4603.6,109.885Zm-.009.006h.013l0-.006Zm-10.421-.017h.138a.344.344,0,0,1-.014-.11A.461.461,0,0,0,4593.172,109.874Zm-74.332-.014.021,0a.1.1,0,0,0-.017-.014C4518.844,109.847,4518.842,109.853,4518.84,109.86Zm-219.635-.265c.006-.014.013-.03.018-.045h0l-.043-.006A.387.387,0,0,1,4299.205,109.595Zm21.385-.048.031,0-.005-.007Zm-15.838-.018.058.008c0-.048.012-.092.018-.131A.775.775,0,0,0,4304.752,109.529Zm28.515,0,.07,0c-.011-.013-.022-.029-.032-.043A.422.422,0,0,0,4333.267,109.532Zm-73.492-.144a.176.176,0,0,0,.006-.021h-.01l0-.011-.02,0A.392.392,0,0,1,4259.774,109.387Zm69.759-.026c.038,0,.076-.006.115-.007-.042-.035-.088-.068-.134-.1C4329.521,109.287,4329.527,109.324,4329.533,109.361Zm-36.726-.142a.348.348,0,0,0,.028.029c.009-.011.016-.021.022-.031Zm0,0-.022-.049h-.007A.3.3,0,0,1,4292.805,109.218Zm420.144-.023c.006.006.013.01.019.016a.077.077,0,0,0,0-.02Zm-165.664-.045c0-.014.013-.03.018-.044-.014,0-.029,0-.043-.007A.417.417,0,0,1,4547.285,109.15Zm21.383-.048h.032l0-.008Zm-15.837-.017c.02,0,.039.006.056.007.007-.048.013-.091.02-.13A.758.758,0,0,0,4552.831,109.085Zm28.514,0,.071,0-.031-.043C4581.371,109.06,4581.358,109.071,4581.345,109.087Zm-234.7-.026a.144.144,0,0,0-.021,0l.016,0c.014,0,.023-.009.019-.009Zm161.211-.117c0-.007,0-.014.005-.023h-.01v-.011h-.018C4507.84,108.919,4507.847,108.931,4507.854,108.943Zm69.759-.026.114-.008c-.042-.033-.087-.067-.133-.1C4577.6,108.843,4577.607,108.879,4577.612,108.917Zm-36.727-.142a.311.311,0,0,0,.03.027l.022-.03Zm0,0-.021-.048h-.007A.37.37,0,0,1,4540.884,108.773Zm-81.281-.023c.006.007.014.011.019.017a.113.113,0,0,0,0-.02Zm-197.739.016h.02c0-.018-.01-.033-.014-.05A.471.471,0,0,0,4261.863,108.766Zm332.859-.15a.075.075,0,0,1-.021,0l.016,0c.014-.005.023-.01.019-.01Zm110.781-.048h.113a.164.164,0,0,0-.081-.117A.354.354,0,0,0,4705.5,108.567Zm-376.5-.243a.257.257,0,0,1,.106-.02.2.2,0,0,0-.125-.1A.326.326,0,0,1,4329.008,108.324Zm180.933,0h.02c0-.018-.009-.033-.014-.05A.372.372,0,0,1,4509.941,108.322Zm188.873-.124a.308.308,0,0,1,.034,0c0,.007,0,.016,0,.023l.01-.023h-.011v0l-.032-.007Zm.047,0,.005-.012h-.02Zm-246.7-.078h.113a.163.163,0,0,0-.082-.116A.347.347,0,0,0,4452.158,108.123Zm-187.929-.08.121.035a.67.67,0,0,0-.064-.087A.571.571,0,0,1,4264.229,108.043Zm416.288-.08a.187.187,0,0,0,.06.031,1.046,1.046,0,0,0-.119-.152C4680.442,107.867,4680.451,107.9,4680.517,107.964Zm-103.43-.085a.258.258,0,0,1,.107-.019.209.209,0,0,0-.125-.1A.375.375,0,0,1,4577.087,107.879Zm-131.62-.127a.35.35,0,0,0,.035,0c0,.007,0,.016,0,.023l.01-.02-.012,0h0l-.032-.007Zm.034-.007.014.012.006-.013Zm66.809-.146c.041.012.079.021.121.035a.73.73,0,0,0-.064-.087C4512.347,107.566,4512.328,107.583,4512.309,107.6Zm-166.074-.741-.007,0,0,.011c.009-.007.018-.017.026-.023S4346.24,106.855,4346.235,106.858Zm.044-.021a.025.025,0,0,0,.01,0h0A.017.017,0,0,1,4346.279,106.837Zm248.035-.421-.006,0s0,.007,0,.011a.25.25,0,0,1,.025-.023Zm.047-.023s.005,0,.009,0h0A.012.012,0,0,0,4594.36,106.393Zm-243.945-.864c.007.02.016.041.024.062a10.947,10.947,0,0,0,2.781-.517c.107-.035.307,0,.3-.079,0-.107-.187-.053-.292-.088-.306-.1-.664-.143-.609-.57l-.046,0c-.519-.326-1.054-.109-1.583-.05l-.134,0C4351.007,104.792,4350.194,105,4350.416,105.529Zm6.874-.2a3.114,3.114,0,0,1-.146-.673h-.016a.537.537,0,0,1-.4-.2.278.278,0,0,1-.128.155c-.21.131-.489.112-.728.223a.219.219,0,0,0-.021.183.311.311,0,0,0,.18.236,3.727,3.727,0,0,1,.487-.014,1.838,1.838,0,0,0,.271.01h.091A.759.759,0,0,1,4357.289,105.331Zm241.206-.247a.543.543,0,0,0,.023.062,11.017,11.017,0,0,0,2.782-.516c.105-.035.3.006.3-.08,0-.107-.189-.053-.293-.087-.306-.1-.663-.143-.608-.57h-.047c-.52-.326-1.055-.109-1.584-.049l-.134,0C4599.086,104.349,4598.273,104.554,4598.5,105.084Zm7.045-.012a.442.442,0,0,0,.042-.044h-.072A.461.461,0,0,1,4605.541,105.072Zm-.172-.185q.146,0,.292.011c.032,0,.063,0,.1,0a.4.4,0,0,1,.071-.035.8.8,0,0,1,.461.013l.16-.006c.048-.062.1-.125.144-.189.321-.43.257-1.056.7-1.424.009-.008.017-.02.026-.03a1.2,1.2,0,0,1-.269-1.491c-.026-.017-.053-.033-.08-.049a1.847,1.847,0,0,0-1.185-.291.375.375,0,0,0,.023.113c.013,0,.026,0,.039.007.652.471.66.539-.037.883a1.262,1.262,0,0,1-.085,1.5c-.227.295-.589.477-.924.106a.274.274,0,0,1-.126.155,6.489,6.489,0,0,1-.729.224.234.234,0,0,0-.022.183.312.312,0,0,0,.18.235,3.756,3.756,0,0,1,.489-.013,1.83,1.83,0,0,0,.269.008h.085A.775.775,0,0,1,4605.368,104.887Zm-247.123-2.406c.248.074.409.35.608.529a1.16,1.16,0,0,1-.029-.264,4.125,4.125,0,0,0-.587-.368A.151.151,0,0,1,4358.245,102.481Zm-13.887-.021a.336.336,0,0,0,.022-.074h-.046A.152.152,0,0,0,4344.358,102.459Zm248.079-.444a.428.428,0,0,0,.023-.074h-.047A.18.18,0,0,0,4592.437,102.015Zm-250.608-.253h.007a.043.043,0,0,0-.008-.017A.052.052,0,0,1,4341.829,101.762Zm248.08-.445.006,0a.092.092,0,0,0-.007-.018A.06.06,0,0,1,4589.908,101.317Zm18.133-2.728h.012l-.014-.01Zm-.183-1.321,0,0h0Zm.326-.993.028.027a.353.353,0,0,1,.013-.047C4608.212,96.263,4608.2,96.268,4608.184,96.275Zm6-.061h0l0,0Zm-253.83-.668a1.015,1.015,0,0,0,.489.332l.019,0,1.45-.03v-.138l.234-.205a.69.69,0,0,0-.333-.672c-.2.36-.627.407-1,.532-.06.008-.119.014-.181.021a.625.625,0,0,1-.676.152Zm248.079-.444a1.018,1.018,0,0,0,.489.332l.087.023a3.465,3.465,0,0,0,.942-.006c.1-.008.2-.011.3-.016a1.222,1.222,0,0,1,.162,0c.338-.123.8-.023.936-.518a1.652,1.652,0,0,0-.571-.759h-.395c-.122.588-.646.623-1.087.77-.061.01-.12.017-.18.023a.634.634,0,0,1-.678.152Zm3.868-.58h-.005a.19.19,0,0,0,.017.019.35.35,0,0,1,.023-.031h-.051ZM4390.655-244.22h.395c.12-.588.646-.623,1.086-.77.061-.01.12-.016.181-.021a.629.629,0,0,1,.678-.152l0,0a1,1,0,0,0-.488-.331c-.03-.007-.058-.016-.086-.025a3.51,3.51,0,0,0-.942.007c-.1.008-.2.011-.3.017-.055,0-.108,0-.161,0-.34.122-.8.021-.937.517h0A1.636,1.636,0,0,0,4390.655-244.22Zm-1.561-.356h.05l-.016-.012h.006l-.017-.02A.356.356,0,0,1,4389.095-244.576Zm250.024-1.344v.14l-.233.205a.694.694,0,0,0,.332.673c.2-.362.627-.409,1-.532.061-.01.12-.017.181-.023a.627.627,0,0,1,.676-.152l0,0a1.01,1.01,0,0,0-.489-.332l-.018,0C4640.085-245.938,4639.6-245.929,4639.119-245.92Zm-251.874-.356v0h0Zm5.955-.047a.359.359,0,0,0,.041-.019c-.008-.01-.018-.018-.026-.027C4393.209-246.353,4393.206-246.336,4393.2-246.322Zm.367-1.01h0Zm-.195-1.322.014.01v-.011Zm18.147-2.714s0-.011,0-.016h-.006A.089.089,0,0,0,4411.519-251.368Zm-16.541-3.564c-.049.062-.1.125-.145.187-.321.43-.256,1.056-.7,1.424-.008.008-.017.02-.025.029a1.2,1.2,0,0,1,.268,1.492c.026.017.054.032.08.05a1.865,1.865,0,0,0,1.186.291.32.32,0,0,0-.023-.115l-.039-.006c-.652-.471-.658-.541.036-.884a1.263,1.263,0,0,1,.087-1.5c.226-.295.588-.477.922-.106a.287.287,0,0,1,.126-.156,7.081,7.081,0,0,1,.729-.223.223.223,0,0,0,.021-.181.311.311,0,0,0-.18-.236,3.543,3.543,0,0,1-.488.013,1.81,1.81,0,0,0-.269-.008.908.908,0,0,1-.5-.086c-.1,0-.2,0-.292-.011l-.094,0a.629.629,0,0,1-.072.036.81.81,0,0,1-.46-.014Zm264.619,3.12a.089.089,0,0,1,0-.016l-.007,0A.142.142,0,0,0,4659.6-251.812Zm-250.633-.195h.046a.191.191,0,0,0-.021-.075A.369.369,0,0,0,4408.964-252.006Zm233.636-.806a4.112,4.112,0,0,0,.588.368.143.143,0,0,1-.008-.1c-.249-.074-.409-.35-.609-.529A1.134,1.134,0,0,1,4642.6-252.812Zm14.444.36h.045a.171.171,0,0,0-.022-.074A.336.336,0,0,0,4657.044-252.452Zm-254.692-1.458.135,0c-.148-.507.665-.712.444-1.242-.007-.02-.016-.041-.024-.062a11.024,11.024,0,0,0-2.783.516c-.1.035-.3,0-.3.08,0,.106.189.053.294.088.306.1.665.142.61.57.015,0,.029,0,.045,0C4401.288-253.634,4401.825-253.851,4402.353-253.91Zm248.079-.445c.045,0,.091,0,.135,0-.147-.507.666-.712.443-1.242a.538.538,0,0,0-.022-.062,10.963,10.963,0,0,0-2.782.517c-.105.032-.305-.007-.3.079,0,.107.189.053.293.087.306.1.663.143.609.57h.046C4649.366-254.078,4649.9-254.3,4650.431-254.355Zm-6.148-.368h.015a.538.538,0,0,1,.4.2.27.27,0,0,1,.127-.156c.209-.131.488-.112.728-.223a.221.221,0,0,0,.021-.183.308.308,0,0,0-.179-.235,3.748,3.748,0,0,1-.489.013,1.683,1.683,0,0,0-.27-.008.92.92,0,0,1-.5-.085A3.014,3.014,0,0,1,4644.283-254.723Zm-248.44-.371.071,0-.03-.045A.333.333,0,0,0,4395.843-255.094Zm11.214-1.361h0a.106.106,0,0,0,.022-.012A.067.067,0,0,1,4407.057-256.454Zm.041-.019a.126.126,0,0,0,.014-.007l.007,0s0-.007,0-.011S4407.105-256.479,4407.1-256.473Zm248.038-.425.01,0Zm.04-.019.015-.007.006,0,.006-.011C4655.193-256.933,4655.185-256.923,4655.176-256.917Zm-166.115-.7c.018-.019.038-.036.054-.051l-.12-.036A.544.544,0,0,0,4489.061-257.613Zm66.844-.2h.02l-.013-.011A.062.062,0,0,0,4555.9-257.81Zm.007-.013h.011v0l.033.007,0-.006c-.012,0-.023,0-.035,0v-.023Zm-131.68-.1a.207.207,0,0,0,.125.1.346.346,0,0,1-.018-.119A.257.257,0,0,1,4424.231-257.925Zm-103.265.017c.017-.024.008-.061-.058-.121a.188.188,0,0,0-.062-.032A1.213,1.213,0,0,0,4320.967-257.908Zm416.173-.149a.72.72,0,0,1,.056-.053c-.04-.012-.081-.021-.121-.035A.423.423,0,0,0,4737.14-258.057Zm-187.9-.014a.356.356,0,0,0,.031-.117h-.114A.176.176,0,0,0,4549.235-258.071Zm-246.675-.183h.02l-.016-.011Zm.005-.014s.008,0,.013,0h0a.317.317,0,0,0,.031.007l0,0a.323.323,0,0,0-.034,0c0-.007,0-.016,0-.023Zm369.87,0a.379.379,0,0,1-.019-.121.242.242,0,0,1-.106.02A.2.2,0,0,0,4672.436-258.27Zm-180.958-.068c0-.016,0-.033.006-.05h-.019C4491.468-258.37,4491.474-258.354,4491.478-258.338Zm-195.67-.295a.164.164,0,0,0,.082.116.332.332,0,0,0,.033-.117Zm-5.387,0h0Zm116.284-.049.02,0-.017,0C4406.69-258.681,4406.675-258.675,4406.7-258.681Zm332.852-.1c0-.016,0-.033.008-.05h-.021C4739.547-258.814,4739.553-258.8,4739.556-258.782Zm-278.992-.01.006,0c-.01-.017-.021-.033-.029-.05Zm81.244-.021.016,0a.138.138,0,0,1-.021-.016C4541.805-258.826,4541.805-258.819,4541.808-258.813Zm-81.32-.025.052,0a.365.365,0,0,0-.029-.029A.26.26,0,0,1,4460.487-258.838Zm-36.789-.137c.042.035.087.068.133.1a1.019,1.019,0,0,1-.019-.109C4423.774-258.981,4423.735-258.976,4423.7-258.975Zm69.868-.012h.01v.011l.018,0c-.008-.013-.014-.025-.021-.036A.069.069,0,0,1,4493.566-258.987Zm-45.046-.041a.706.706,0,0,0,.075-.124l-.057-.007C4448.532-259.111,4448.525-259.067,4448.52-259.027Zm-28.478-.085c.012-.014.025-.024.038-.041l-.071,0Zm234.74-.013a.106.106,0,0,1,.021,0l-.017,0C4654.768-259.125,4654.756-259.119,4654.782-259.125Zm-222.056-.041,0,.007.028-.01Zm21.4-.006.043.007a.2.2,0,0,1-.023-.051C4454.135-259.2,4454.128-259.186,4454.122-259.172Zm254.52-.063.008,0a.42.42,0,0,1-.03-.05Zm-420.18-.023.015,0a.2.2,0,0,0-.02-.014A.081.081,0,0,1,4288.462-259.258Zm420.105-.025.05,0a.211.211,0,0,0-.027-.027Zm-36.791-.137c.043.035.089.068.135.1-.008-.032-.014-.069-.02-.107C4671.854-259.425,4671.815-259.421,4671.776-259.42Zm69.868-.011h.012l0,.011h.018c-.008-.012-.014-.024-.021-.036A.1.1,0,0,1,4741.645-259.431Zm-45.047-.042a.741.741,0,0,0,.076-.123l-.057-.007C4696.611-259.555,4696.6-259.512,4696.6-259.473Zm-220.047-.483a.594.594,0,0,1,.047.15c.173.1.345.2.519.3a.64.64,0,0,1,.265-.053,10.41,10.41,0,0,0,2.629-.672c.655-.183.386-.666.173-1.073a.212.212,0,0,1,0-.03c-.121-.007-.25-.007-.258-.178-.006-.2.178-.173.3-.214.032-.473-.671-.794-.284-1.341h0c-.371.041-.749.171-1.094-.106l-.005,0-.022.02-.043.017a.137.137,0,0,1-.056.082c.081.445-.328.716-.386,1.111a1.14,1.14,0,0,1,.512.882c-.029.428-.25.76-.747.36l-1.149-.043C4476.6-260.6,4476.657-260.233,4476.551-259.956Zm191.57.4a.325.325,0,0,0,.038-.041l-.07,0Zm12.684-.054.006.008.024-.01Zm21.4,0c.014,0,.028,0,.042.007a.489.489,0,0,1-.024-.051C4702.214-259.646,4702.207-259.63,4702.2-259.616Zm-235.232-1.338a1.75,1.75,0,0,0-.471.407c-.129.246-.119.5.324.781l.476.032a.444.444,0,0,1,.2-.186c.073-.014.146-.025.221-.035.241-.2.483-.4.726-.607-.247-.61-.829-.5-1.321-.587A.47.47,0,0,1,4466.97-260.954Zm-5.205.656a1.181,1.181,0,0,1,.948.421l-.045.118,0,.008.012-.013a.667.667,0,0,1,.869-.087l.039-.007a.344.344,0,0,1,.246.09h.059c-.181-.525.69-.3.661-.828a4.009,4.009,0,0,0-.547-.036A11.83,11.83,0,0,0,4461.765-260.3Zm-53.634.465a.444.444,0,0,0,.122-.107l-.137,0A.44.44,0,0,1,4408.131-259.832Zm74.434-.09s.01.01.015.016l.006-.02Zm-84.767-.03h.016l-.021.018a.29.29,0,0,0,.031-.018h-.01s0,0,0-.006l-.011-.014A.192.192,0,0,0,4397.8-259.951Zm326.831-.449a.559.559,0,0,1,.048.15c.173.1.345.2.518.3a.662.662,0,0,1,.266-.054,10.353,10.353,0,0,0,2.628-.672c.655-.181.386-.666.173-1.073,0-.01,0-.019,0-.03-.122-.007-.25-.006-.258-.177-.007-.2.178-.174.3-.215.031-.473-.67-.794-.284-1.34v0c-.371.041-.748.171-1.094-.105l-.005-.006a.219.219,0,0,0-.021.021l-.042.017a.142.142,0,0,1-.055.082c.08.444-.329.716-.388,1.111a1.133,1.133,0,0,1,.512.881c-.029.431-.25.761-.745.362l-1.15-.043C4724.677-261.042,4724.737-260.678,4724.629-260.4Zm-326.806.448.009,0h-.014Zm75.188-.138a1.486,1.486,0,0,1,.224.094.261.261,0,0,1,.069.023c-.129-.2.09-.3.27-.278a2.851,2.851,0,0,0,.726-.056c-.759.054-1.577.07-2.359.158a.621.621,0,0,0,.257.018.607.607,0,0,1,.362.055l.04,0a1.063,1.063,0,0,1,.229-.024A1.055,1.055,0,0,1,4473.012-260.091Zm-2.549-.02.068.012c.3-.436.016-.874-.1-1.31a1.16,1.16,0,0,1-.394-.088c-.284-.1-.567-.2-.8.2a.913.913,0,0,0-.141.237c.049.51.42.744.856.925.072-.01.146-.017.219-.027A1.545,1.545,0,0,1,4470.463-260.111Zm244.585-1.288a1.789,1.789,0,0,0-.47.407c-.129.247-.118.5.325.781l.474.033a.454.454,0,0,1,.205-.187c.072-.013.146-.023.22-.033l.727-.609c-.245-.609-.829-.5-1.319-.586A.458.458,0,0,1,4715.048-261.4Zm-5.2.659a1.172,1.172,0,0,1,.947.42l-.045.118,0,.008.01-.012a.666.666,0,0,1,.87-.088c.014,0,.026,0,.04-.007a.344.344,0,0,1,.245.088h.058c-.18-.524.69-.3.662-.827a3.845,3.845,0,0,0-.546-.037A11.72,11.72,0,0,0,4709.845-260.74Zm-53.634.464a.45.45,0,0,0,.121-.107h-.135A.52.52,0,0,1,4656.21-260.276Zm74.433-.091c0,.006.011.011.015.017a.064.064,0,0,0,.006-.02A.129.129,0,0,1,4730.643-260.366Zm-84.767-.029h.016c-.008.007-.015.011-.022.018.011,0,.022-.013.033-.018l.007-.006h-.011l0,.006h-.011l.006-.006a.176.176,0,0,0-.013-.014A.129.129,0,0,1,4645.876-260.4Zm75.215-.14a1.334,1.334,0,0,1,.224.094.216.216,0,0,1,.067.023c-.128-.205.09-.3.271-.278a2.868,2.868,0,0,0,.726-.056c-.76.054-1.578.069-2.36.158a.654.654,0,0,0,.256.018.609.609,0,0,1,.363.055l.041-.006a1.137,1.137,0,0,1,.229-.024A1.077,1.077,0,0,1,4721.092-260.535Zm-2.549-.021c.021.006.043.008.065.014.3-.438.019-.875-.1-1.313a1.106,1.106,0,0,1-.394-.088c-.285-.1-.567-.2-.8.2a.838.838,0,0,0-.141.238c.048.51.421.745.855.925.074-.008.147-.017.221-.029A1.553,1.553,0,0,1,4718.542-260.556Zm-265.893-.566v0l0,0,.007-.011h-.01Zm-.011.008h.011l0,0Zm9.075-.081h.077a.258.258,0,0,0-.072-.064C4461.718-261.238,4461.715-261.215,4461.714-261.195Zm108.415-.72a1.355,1.355,0,0,1,.273.07,1.439,1.439,0,0,0,.274.134h.3a.256.256,0,0,1,.09.314.313.313,0,0,1,.1.074.127.127,0,0,1,.047.111.625.625,0,0,0,.4-.187.826.826,0,0,1,.266-.021l.028,0,.16-.121c.019,0,.037,0,.056,0a.2.2,0,0,1,.017-.127.223.223,0,0,1-.035-.016c-.211-.469-.507-.765-1.083-.616a.582.582,0,0,1-.566-.148.725.725,0,0,1-.129.168,3.744,3.744,0,0,1-1.643.316c-.258.037-.52-.06-.547.224.046,0,.093,0,.137,0a.9.9,0,0,1,.557-.175,3.835,3.835,0,0,1,.6-.044A6.83,6.83,0,0,1,4570.129-261.914Zm-25.016.241c-.113.074-.229.2-.34.233a1.064,1.064,0,0,0,.853.174c-.013,0-.027,0-.04-.006-.2-.039-.7-.084-.456-.4Zm.926.4c.251-.01.509-.068.766-.079-.03,0-.062,0-.091,0A5.341,5.341,0,0,0,4546.039-261.27Zm-72.069-1.048-.109.062c-.009.506.213.777.77.763.43-.012.862.029.806-.612-.292-.271-.713-.372-1-.656-.054-.018-.109-.035-.163-.048a.715.715,0,0,1-.372-.224A1.105,1.105,0,0,1,4473.97-262.318Zm45.188.823h.012c0-.011,0-.018,0-.018S4519.161-261.506,4519.158-261.494Zm-29.069-.024v0c.073,0,.144,0,.214,0h-.086Zm210.639-.049v0l.006,0,.007-.01-.01,0Zm-.009.008h.011l0,0Zm-150.93-.044a.534.534,0,0,0,.147-.1.05.05,0,0,0-.014-.012h.006a.951.951,0,0,0-.107-.1A.437.437,0,0,0,4549.789-261.6Zm160-.037c.025,0,.05,0,.076,0a.237.237,0,0,0-.071-.066C4709.8-261.682,4709.795-261.66,4709.793-261.64Zm-191.126-.035.022.031c0-.012.008-.024.013-.037Zm-200.946-.167a.316.316,0,0,1,.1.074.131.131,0,0,1,.048.113.63.63,0,0,0,.4-.189.822.822,0,0,1,.265-.023.216.216,0,0,0,.029,0l.16-.122c.018,0,.036,0,.056,0a.189.189,0,0,1,.017-.125l-.035-.016c-.211-.469-.507-.766-1.083-.617a.577.577,0,0,1-.567-.147.678.678,0,0,1-.129.168,3.754,3.754,0,0,1-1.641.316c-.257.036-.521-.06-.547.226l.137,0a.883.883,0,0,1,.557-.175,5.122,5.122,0,0,1,1.3,0,1.336,1.336,0,0,1,.271.072,1.6,1.6,0,0,0,.275.134h.3A.253.253,0,0,1,4317.722-261.842Zm232.218.14h0a.093.093,0,0,1,.015.011l.018-.023h-.041A.076.076,0,0,0,4549.939-261.7Zm-39.048,0h.023l.02-.016a.121.121,0,0,0-.017-.02A.159.159,0,0,1,4510.892-261.7Zm-219.126-.42c-.112.075-.228.2-.339.233a1.06,1.06,0,0,0,.853.174.217.217,0,0,1-.041,0c-.2-.041-.7-.084-.456-.4Zm.927.4c.251-.011.51-.069.766-.079-.03,0-.063,0-.094,0A5.284,5.284,0,0,0,4292.693-261.714Zm185.6-.105a.089.089,0,0,1-.007.014l.036-.006a.276.276,0,0,0,.02-.132C4478.323-261.9,4478.306-261.859,4478.291-261.819Zm-2.216,0,.056.011c.367-.239.9,0,1.354-.471a2.126,2.126,0,0,0-.5-.068A.987.987,0,0,0,4476.075-261.823Zm42.224-.064h.278l-.278-.037Zm-252.488-.051h.014c0-.011,0-.018,0-.018S4265.814-261.95,4265.811-261.938Zm456.237-.823-.108.061c-.01.507.213.777.771.763.429-.011.86.029.806-.611-.293-.27-.714-.374-1-.658-.053-.017-.108-.032-.164-.048a.733.733,0,0,1-.372-.223A1.091,1.091,0,0,1,4722.048-262.762Zm16.119.8,0,0c.072,0,.142,0,.214,0-.032,0-.064,0-.1,0S4738.207-261.965,4738.167-261.962Zm-413.6-.024h.021a.094.094,0,0,1,0-.02Zm201.628-.078a.319.319,0,0,0,.059.066c0-.02,0-.043.008-.067Zm-229.749.017a.527.527,0,0,0,.146-.1s-.008-.007-.012-.012h0a.713.713,0,0,0-.107-.1A.422.422,0,0,0,4296.443-262.047Zm221.858-.016c.039-.017.078-.031.118-.047h-.117C4518.3-262.093,4518.3-262.078,4518.3-262.062Zm-252.98-.057a.242.242,0,0,0,.023.032.337.337,0,0,1,.011-.038Zm31.261-.037.012.01h0a.046.046,0,0,0,.014.012.17.17,0,0,1,.017-.024Zm-39.036.014h.023c.006-.006.014-.011.019-.017l-.016-.019A.136.136,0,0,1,4257.546-262.142Zm210.594-.027a1.144,1.144,0,0,0,.151-.054l-.161-.014A.643.643,0,0,1,4468.14-262.17Zm258.23-.093-.007.014.035-.006a.259.259,0,0,0,.02-.132Zm-2.216,0c.019,0,.039.006.056.011.369-.24.9,0,1.354-.473a2.1,2.1,0,0,0-.5-.068A.991.991,0,0,0,4724.153-262.266Zm-459.2-.064h.28l-.279-.037C4264.953-262.356,4264.953-262.343,4264.952-262.331Zm286.328-.038-.02,0a.235.235,0,0,1,.023.023l0-.029Zm-278.434-.138a.3.3,0,0,0,.058.066c0-.021,0-.044.008-.067Zm223.813.018h0Zm-231.7-.017c.041-.018.08-.032.119-.048h-.118C4264.955-262.539,4264.955-262.522,4264.955-262.506Zm451.264-.107a1.161,1.161,0,0,0,.152-.055c-.059,0-.111-.01-.163-.013A.64.64,0,0,1,4716.219-262.614Zm-171.149-.057h.019l-.066.043a.489.489,0,0,0,.085-.043h-.019l.019-.012.009.007a.364.364,0,0,0-.011-.036A.305.305,0,0,1,4545.069-262.671Zm-82.966-.013.01.006a.025.025,0,0,1,0-.012Zm-108.013-.036.016-.006s0-.007,0-.012h0l0,0C4354.1-262.734,4354.1-262.727,4354.091-262.72Zm262.67-.051c.119.011.237.019.356.019h.107c.025-.03.049-.061.075-.09A2.524,2.524,0,0,1,4616.761-262.771Zm-318.827-.043-.02,0c.009.008.017.016.024.024l0-.03Zm326.775.018c-.01,0-.019-.011-.028-.014A.2.2,0,0,0,4624.709-262.8Zm-54.307-.07v0h0Zm44.323-.039c-.008.012-.016.024-.025.036a1.97,1.97,0,0,1,.381-.075h-.04A1.23,1.23,0,0,0,4614.725-262.906Zm-284.733-.006h0Zm414.747-.021,0,0h0ZM4476.2-263l0,0,0,0Zm-184.479-.112h.02l-.064.043a.574.574,0,0,0,.083-.043h-.019l.019-.012.008.006c0-.012-.007-.024-.011-.035A.216.216,0,0,1,4291.722-263.115Zm161.26,0a.921.921,0,0,1,.138.043.538.538,0,0,1,.073-.076.428.428,0,0,0-.055,0A.3.3,0,0,0,4452.981-263.116Zm113.148.018.006.008,0-.007-.008,0Zm144.054-.031s.007,0,.009.007a.066.066,0,0,1,0-.013Zm-372.131-.259.009.006c.239.146.688.242.79-.235A1.759,1.759,0,0,1,4338.053-263.388Zm-21,.078v0h0Zm212.076-.135.049,0a.073.073,0,0,0-.013-.013Zm195.149,0,0,0h0Zm-150.96-.041.092.035c.007-.008.012-.019.02-.027l-.056-.021Zm127.74-.073a1,1,0,0,1,.138.044.534.534,0,0,1,.072-.078l-.055,0A.307.307,0,0,0,4701.061-263.561Zm-388.271.026a.022.022,0,0,0,0-.007h-.009Zm161.067-.106h0l.046-.037C4473.889-263.666,4473.871-263.653,4473.856-263.641Zm31.9-.2.046,0h0a.357.357,0,0,1-.006-.118A.291.291,0,0,1,4505.761-263.837Zm-142.515-.043.051.025s-.034-.039-.034-.039S4363.252-263.885,4363.246-263.88ZM4539.7-263.9a.576.576,0,0,0,.114.03.728.728,0,0,0-.074-.069A.321.321,0,0,0,4539.7-263.9Zm-263.913.006.048,0a.12.12,0,0,1-.013-.012Zm44.188-.043.093.035.018-.027-.053-.021ZM4511.139-264h.048l-.069-.045Zm-13.138-.05h0v0Zm223.933-.036h.007l.043-.037Zm-469.519-.2.047,0a.364.364,0,0,1-.006-.119A.313.313,0,0,1,4252.416-264.281Zm33.937-.06a.448.448,0,0,0,.114.031.588.588,0,0,0-.075-.069A.282.282,0,0,0,4286.353-264.341Zm324.973.017.009,0,.029.006-.022-.023Zm-353.532-.119h.048l-.068-.047Zm488.289-.051h0l0,0Zm-2.429,378.92Zm-253.346-.444Zm-73.544-.782h0Zm-29.994-374.344h0Z" transform="translate(-4250 266)" fill="#014067"/>
</svg>
