<svg xmlns="http://www.w3.org/2000/svg" xmlns:xlink="http://www.w3.org/1999/xlink" width="77" height="77" viewBox="0 0 77 77">
  <defs>
    <clipPath id="clip-path">
      <rect id="Rectangle_153" data-name="Rectangle 153" width="77" height="77" transform="translate(0 -0.165)" fill="#2b7b7c"/>
    </clipPath>
  </defs>
  <g id="Group_2302" data-name="Group 2302" transform="translate(0 0.165)">
    <g id="Group_1049" data-name="Group 1049" clip-path="url(#clip-path)">
      <path id="Path_399" data-name="Path 399" d="M0,38.418A38.418,38.418,0,1,1,38.418,76.836,38.418,38.418,0,0,1,0,38.418M38.418,74.4A35.982,35.982,0,1,0,2.435,38.418,35.982,35.982,0,0,0,38.418,74.4" transform="translate(0 -0.001)" fill="#2b7b7c"/>
      <path id="Path_400" data-name="Path 400" d="M89.993,55.655A22.044,22.044,0,0,0,57.589,36.2c.244-.008.487-.019.733-.019a22.043,22.043,0,0,1,10.362,41.5A22.038,22.038,0,0,0,89.993,55.655" transform="translate(-29.533 -17.238)" fill="#2b7b7c"/>
      <path id="Path_401" data-name="Path 401" d="M70.151,78.505a1.926,1.926,0,1,0,1.382-2.347,1.926,1.926,0,0,0-1.382,2.347" transform="translate(-35.943 -39.024)" fill="#2b7b7c"/>
      <path id="Path_402" data-name="Path 402" d="M79.261,76.563A1.611,1.611,0,1,0,80.417,74.6a1.611,1.611,0,0,0-1.156,1.963" transform="translate(-40.621 -38.231)" fill="#2b7b7c"/>
      <path id="Path_403" data-name="Path 403" d="M61.9,81.058A1.611,1.611,0,1,0,63.06,79.1,1.61,1.61,0,0,0,61.9,81.058" transform="translate(-31.72 -40.536)" fill="#2b7b7c"/>
      <path id="Path_404" data-name="Path 404" d="M53.774,83.725a1.313,1.313,0,1,0,.942-1.6,1.313,1.313,0,0,0-.942,1.6" transform="translate(-27.555 -42.095)" fill="#2b7b7c"/>
      <path id="Path_405" data-name="Path 405" d="M73.554,88.385a1.313,1.313,0,1,0,.942-1.6,1.313,1.313,0,0,0-.942,1.6" transform="translate(-37.699 -44.484)" fill="#2b7b7c"/>
      <path id="Path_406" data-name="Path 406" d="M47.28,85.72a1.077,1.077,0,1,0,.773-1.312,1.077,1.077,0,0,0-.773,1.312" transform="translate(-24.228 -43.269)" fill="#2b7b7c"/>
      <path id="Path_407" data-name="Path 407" d="M42.449,87.3a.83.83,0,1,0,.6-1.012.831.831,0,0,0-.6,1.012" transform="translate(-21.755 -44.236)" fill="#2b7b7c"/>
      <path id="Path_408" data-name="Path 408" d="M67.718,99.049a.83.83,0,1,0,.6-1.012.831.831,0,0,0-.6,1.012" transform="translate(-34.714 -50.262)" fill="#2b7b7c"/>
      <path id="Path_409" data-name="Path 409" d="M38.358,88.632a.622.622,0,1,0,.447-.758.622.622,0,0,0-.447.758" transform="translate(-19.661 -45.054)" fill="#2b7b7c"/>
      <path id="Path_410" data-name="Path 410" d="M63.444,106.969a.623.623,0,1,0,.447-.759.623.623,0,0,0-.447.759" transform="translate(-32.525 -54.458)" fill="#2b7b7c"/>
      <path id="Path_411" data-name="Path 411" d="M59.187,112.634a.424.424,0,1,0,.3-.517.425.425,0,0,0-.3.517" transform="translate(-30.345 -57.49)" fill="#2b7b7c"/>
      <path id="Path_412" data-name="Path 412" d="M68.571,69.9a1.313,1.313,0,1,1,1.609.926,1.313,1.313,0,0,1-1.609-.926" transform="translate(-35.142 -34.996)" fill="#2b7b7c"/>
      <path id="Path_413" data-name="Path 413" d="M58.547,64.706a.83.83,0,1,1,1.018.586.83.83,0,0,1-1.018-.586" transform="translate(-30.009 -32.646)" fill="#2b7b7c"/>
      <path id="Path_414" data-name="Path 414" d="M51.055,60.448a.622.622,0,1,1,.763.439.622.622,0,0,1-.763-.439" transform="translate(-26.171 -30.597)" fill="#2b7b7c"/>
      <path id="Path_415" data-name="Path 415" d="M44.686,58.12a.424.424,0,1,1,.52.3.424.424,0,0,1-.52-.3" transform="translate(-22.908 -29.532)" fill="#2b7b7c"/>
      <path id="Path_416" data-name="Path 416" d="M60.067,137.063c-.266-.042-.585-.1-.676.19-.059.193.023.358.3.442a.6.6,0,0,0,.818-.463l.077-.248c-.124.121-.258.126-.515.079" transform="translate(-30.448 -70.249)" fill="#2b7b7c"/>
      <path id="Path_417" data-name="Path 417" d="M117.279,122.951a.837.837,0,0,0,1.1,1.251.838.838,0,0,0-1.1-1.251" transform="translate(-60.014 -62.965)" fill="#2b7b7c"/>
      <path id="Path_418" data-name="Path 418" d="M20.436,88.885a.688.688,0,0,0-.76-.532l.233,1.283a.658.658,0,0,0,.526-.752" transform="translate(-10.09 -45.309)" fill="#2b7b7c"/>
      <path id="Path_419" data-name="Path 419" d="M123.559,119.6c-.152.222-.342.485-.117.69.149.137.333.133.525-.076a.6.6,0,0,0-.068-.938l-.191-.175c.057.163,0,.286-.148.5" transform="translate(-63.251 -61.077)" fill="#2b7b7c"/>
      <path id="Path_420" data-name="Path 420" d="M18.375,82.259c.944-.053,1.455-.539,1.407-1.393l-.038-.651-2.96.167.037.651c.047.854.611,1.279,1.553,1.226" transform="translate(-8.608 -41.136)" fill="#2b7b7c"/>
      <path id="Path_421" data-name="Path 421" d="M105.421,127.707c-.6.335-.708,1.073-.279,1.849s1.112,1.078,1.715.743.711-1.067.279-1.848-1.117-1.075-1.715-.743" transform="translate(-53.786 -65.422)" fill="#2b7b7c"/>
      <path id="Path_422" data-name="Path 422" d="M77.42,137.427a.688.688,0,0,0-.669.642l1.305.021a.659.659,0,0,0-.636-.663" transform="translate(-39.36 -70.476)" fill="#2b7b7c"/>
      <path id="Path_423" data-name="Path 423" d="M115.222,34.182a1.56,1.56,0,0,0,2.423-.254,1.559,1.559,0,0,0,.043-2.435l-.591-.543-2.467,2.689Z" transform="translate(-58.785 -15.872)" fill="#2b7b7c"/>
      <path id="Path_424" data-name="Path 424" d="M97.481,134.423A.837.837,0,0,0,98.029,136a.838.838,0,0,0-.548-1.574" transform="translate(-49.734 -68.917)" fill="#2b7b7c"/>
      <path id="Path_425" data-name="Path 425" d="M36.958,122.447a.752.752,0,1,0,1.111-.115.777.777,0,0,0-1.111.115" transform="translate(-18.829 -62.639)" fill="#2b7b7c"/>
      <path id="Path_426" data-name="Path 426" d="M42.791,8.529A34.262,34.262,0,1,0,77.054,42.791,34.262,34.262,0,0,0,42.791,8.529m26.05,40.429a.437.437,0,1,1,.323.532.431.431,0,0,1-.323-.532M63.818,19.475a2.573,2.573,0,1,1-3.478,3.792l-1.345-1.233,3.479-3.793Zm-2.791-2.3-.409.646-1.95-1.234-.73,1.153,1.772,1.122-.409.645L57.53,18.385l-.8,1.258,1.95,1.234-.409.646L55.5,19.767l2.752-4.347Zm-8.089-3.361.3-.7L56.957,14.7l-.3.7-1.412-.6-1.717,4.027-.9-.382,1.717-4.027ZM51.03,12.485l.937.269L50.544,17.7l-.937-.269Zm-5.9-1.069,1.805.254a2.458,2.458,0,0,1,2.219,2.909,2.458,2.458,0,0,1-2.935,2.184l-1.806-.254Zm-1.809-.063.029.763-2.306.088.053,1.363,2.1-.08.029.763-2.1.08.057,1.488,2.306-.088.029.763-3.28.125-.2-5.142Zm-7.2.755c1.38-.289,2.245.039,2.434.939.142.679-.251,1.232-1.07,1.506l0,.015c.814-.107,1.26.126,1.431.942l.072.343a1.44,1.44,0,0,0,.411.822l-.984.206a1.211,1.211,0,0,1-.38-.748l-.074-.35c-.142-.679-.445-.871-1.093-.735l-.717.15.433,2.068-.953.2-1.055-5.034Zm-5,1.444a2.052,2.052,0,0,1,2.293.389l-.529.765a1.3,1.3,0,0,0-1.507-.366c-.8.329-1.03,1.207-.611,2.224s1.2,1.48,2,1.15a1.3,1.3,0,0,0,.814-1.321l.914.172a2.051,2.051,0,0,1-1.355,1.89,2.552,2.552,0,0,1-3.33-1.5,2.552,2.552,0,0,1,1.313-3.407m-5.2,2.664a2.051,2.051,0,0,1,2.325-.043l-.377.85a1.3,1.3,0,0,0-1.55-.08c-.725.472-.787,1.378-.188,2.3s1.453,1.231,2.178.76a1.3,1.3,0,0,0,.554-1.449h.93a2.051,2.051,0,0,1-.982,2.108,2.654,2.654,0,0,1-2.891-4.443m-4.317,3.4,4.911,2.443-.754.712-1.016-.542L23.295,23.6l.477,1.051-.72.679-2.16-5.038Zm21.191-1.173A24.345,24.345,0,1,1,18.446,42.791,24.345,24.345,0,0,1,42.791,18.446m23.522,38.86a.437.437,0,1,1-.139-.607.433.433,0,0,1,.139.607M46.976,69.675a.443.443,0,1,1-.5-.373.432.432,0,0,1,.5.373M23.35,61.819a.443.443,0,1,1,.012-.622.431.431,0,0,1-.012.622M17.777,53.5a.443.443,0,1,1-.217.584.431.431,0,0,1,.217-.584M11.9,42.863l4.175-.236.084,1.481a2,2,0,0,1-1.969,2.231,2,2,0,0,1-2.206-1.995Zm.507,5.636a1.436,1.436,0,1,1,2.8-.618,1.414,1.414,0,0,1-1.286,1.6l-.362-2a.761.761,0,0,0-.6.939.676.676,0,0,0,.527.6l-.183.554a1.289,1.289,0,0,1-.9-1.079m.615,2.64a1.378,1.378,0,0,1,.095-1.173l.509.237a.98.98,0,0,0-.09.842c.094.329.26.5.455.444.134-.038.206-.157.173-.458l-.05-.454a.778.778,0,0,1,.521-.925c.518-.148,1.026.269,1.209.915a1.248,1.248,0,0,1-.143,1.121l-.5-.261a.825.825,0,0,0,.127-.76c-.076-.268-.236-.414-.432-.359-.158.045-.222.169-.185.507l.043.383c.051.526-.148.845-.5.944-.536.152-1.038-.291-1.241-1m.958,2.872a1.014,1.014,0,0,1,.672-1.376l1.06-.4-.176-.468.451-.17.02.054A.6.6,0,0,0,16.88,52l.231-.087.018.047a1.373,1.373,0,0,0,.217.433l-.859.323.363.966-.521.2-.363-.966-1.161.437c-.29.11-.367.3-.3.484a.5.5,0,0,0,.442.294l-.122.573a.984.984,0,0,1-.848-.689m.505,1.06,2.5-1.123.1.22a1.384,1.384,0,0,0,.243.418l-2.547,1.144Zm1.546,3.086,1.461-.8c.333-.183.379-.389.227-.666a.719.719,0,0,0-1.065-.268l-1.21.665-.348-.633,2.4-1.32.116.211a1.378,1.378,0,0,0,.276.4l-.489.268a1.059,1.059,0,0,1,.982.6.881.881,0,0,1-.423,1.309l-1.583.869Zm2.108,3.211-.406-.581.337-.236a.878.878,0,0,1-.886-.438.769.769,0,0,1,.1-1.169c.519-.362,1,.091,1.369.511.261.3.373.412.6.256s.229-.346.037-.621a.649.649,0,0,0-.646-.328l-.04-.566a1.292,1.292,0,0,1,1.195.648.974.974,0,0,1-.214,1.517Zm1.188,1.55a1.016,1.016,0,0,1,.179-1.522l.869-.728-.322-.383.369-.309.037.044a.6.6,0,0,0,.941.038l.19-.158.033.038a1.4,1.4,0,0,0,.348.337l-.7.589.663.791-.427.358-.663-.791-.951.8c-.238.2-.247.405-.121.555a.5.5,0,0,0,.514.131l.075.582a.985.985,0,0,1-1.028-.369m.824.827,1.989-1.886.165.174a1.386,1.386,0,0,0,.368.315l-2.026,1.921Zm1.944,2.006a1.436,1.436,0,1,1,2.07-.071,1.495,1.495,0,0,1-2.07.071M26.988,67.2l-1.05,1.468-.588-.42.97-1.355c.221-.309.173-.515-.084-.7a.719.719,0,0,0-1.076.219l-.8,1.123-.587-.42,1.6-2.23.2.14a1.4,1.4,0,0,0,.421.239l-.324.454a1.057,1.057,0,0,1,1.146.119.88.88,0,0,1,.185,1.363M31,71.344,32.194,68.8l-1.932,1.24-.367-.172L29.612,67.6l-1.19,2.533-.653-.307,1.776-3.782.613.287.338,2.782L32.853,67.6l.579.272-1.776,3.782Zm4.309-.411-.519,1.682-.678-.209.121-.393a.878.878,0,0,1-.969.2c-.532-.164-.777-.531-.637-.985.187-.605.843-.542,1.394-.438.388.073.547.1.627-.165s-.031-.414-.352-.513a.649.649,0,0,0-.712.138l-.38-.422a1.292,1.292,0,0,1,1.341-.223.974.974,0,0,1,.763,1.329m2.009,0c-.329-.069-.627.153-.727.63l-.29,1.389-.707-.148.56-2.684.236.049a1.391,1.391,0,0,0,.481.049l-.119.57a.816.816,0,0,1,.9-.42.741.741,0,0,1,.6.637l-.6.3c-.064-.22-.156-.337-.342-.375m2.738,2.594L39.445,72.3l-.531.463-.071.629-.718-.081.471-4.156.239.027a1.451,1.451,0,0,0,.484.01l-.328,2.89L40.342,70.8l.749.085L40,71.928l.854,1.69Zm2.5-.384a.676.676,0,0,0,.691-.4l.509.287a1.289,1.289,0,0,1-1.234.67,1.436,1.436,0,1,1-.061-2.87A1.414,1.414,0,0,1,43.785,72.4l-2.033-.033a.762.762,0,0,0,.8.773m2.962.441a1.015,1.015,0,0,1-1.133-1.033L44.3,71.422l-.5.038-.036-.48.057,0c.448-.034.61-.332.58-.743l-.019-.247.05,0a1.388,1.388,0,0,0,.476-.087l.069.916,1.03-.078.042.556-1.03.077.094,1.238c.023.31.186.437.381.422a.5.5,0,0,0,.406-.342l.517.279a.986.986,0,0,1-.9.621m1.157-.188L46.3,70.682l.239-.033a1.4,1.4,0,0,0,.47-.116l.38,2.767Zm3.4-.619-.36-1.627c-.082-.371-.267-.473-.576-.4a.718.718,0,0,0-.556.947l.3,1.348-.7.156-.592-2.678.235-.052a1.4,1.4,0,0,0,.459-.154l.12.544a1.057,1.057,0,0,1,.854-.773.881.881,0,0,1,1.138.773l.39,1.763Zm3.123.535a1.414,1.414,0,0,1-1.323-.083L52.2,72.7a.827.827,0,0,0,.82.083.728.728,0,0,0,.509-1.063l-.179-.515a1,1,0,0,1-.674.879,1.442,1.442,0,0,1-.943-2.711,1.01,1.01,0,0,1,1.074.271l-.179-.515.227-.079a1.409,1.409,0,0,0,.438-.207l.882,2.538a1.4,1.4,0,0,1-.979,1.93m4.571-3.477a2.16,2.16,0,1,1,.689-2.844,2.063,2.063,0,0,1-.689,2.844m2.285-1.464-1.6-2.227.2-.14a1.408,1.408,0,0,0,.361-.322l.34.474a.817.817,0,0,1,.3-.949.74.74,0,0,1,.878-.015l-.183.646a.443.443,0,0,0-.508,0c-.272.2-.31.567-.026.962l.827,1.153Zm3.878-1.239a1.416,1.416,0,0,1-1.257.422l.1-.613a.825.825,0,0,0,.792-.232.727.727,0,0,0,.071-1.176l-.36-.409a1,1,0,0,1-.293,1.067,1.442,1.442,0,0,1-1.9-2.155,1.009,1.009,0,0,1,1.1-.154l-.36-.409.181-.159a1.417,1.417,0,0,0,.328-.357l1.774,2.017a1.4,1.4,0,0,1-.178,2.157m1.9-3.829-.3-.278a.877.877,0,0,1-.235.96.768.768,0,0,1-1.162.154c-.467-.427-.129-.993.2-1.446.233-.32.321-.453.12-.637s-.387-.149-.614.1a.649.649,0,0,0-.18.7l-.544.163a1.291,1.291,0,0,1,.373-1.306.973.973,0,0,1,1.527-.121l1.3,1.188Zm2.187-2.746-1.341-.988c-.305-.226-.512-.18-.7.075a.719.719,0,0,0,.2,1.079l1.112.818-.428.582L64.66,60.5,64.8,60.3a1.4,1.4,0,0,0,.245-.418l.449.33a1.057,1.057,0,0,1,.134-1.143.881.881,0,0,1,1.365-.167l1.453,1.07Zm.835-1.256L66.522,57.86l.127-.2a1.387,1.387,0,0,0,.21-.437l2.377,1.469Zm.7-1.1-.4-.211-.824-2.183-.688,1.313-.482-.252,1.116-2.133.4.211.824,2.183.752-1.437.482.252Zm2.028-4.294-.381-.153a.878.878,0,0,1,.116.982c-.208.516-.594.73-1.035.552-.587-.236-.469-.885-.32-1.425.106-.381.141-.537-.112-.639s-.415,0-.54.308a.648.648,0,0,0,.078.721l-.452.344a1.293,1.293,0,0,1-.11-1.355.973.973,0,0,1,1.387-.649l1.633.657Zm.915-2.519a1.015,1.015,0,0,1-1.371.685l-1.086-.327-.145.479-.461-.139.017-.055a.6.6,0,0,0-.484-.808l-.237-.072.015-.048a1.375,1.375,0,0,0,.09-.476l.88.266.3-.989.534.161-.3.988,1.189.358c.3.09.475-.016.532-.2a.506.506,0,0,0-.173-.5l.446-.382a.986.986,0,0,1,.255,1.063m.24-1.139-2.668-.631.055-.234a1.389,1.389,0,0,0,.061-.48l2.718.643Zm.608-2.726a1.435,1.435,0,1,1-1.2-1.689,1.493,1.493,0,0,1,1.2,1.689M72.21,44.6l1.379.055-.029.722-2.739-.11.01-.24a1.391,1.391,0,0,0-.032-.483l.557.022a1.059,1.059,0,0,1-.53-1.023.88.88,0,0,1,1.037-.9l1.8.072-.029.721-1.664-.066c-.38-.016-.525.137-.538.454a.718.718,0,0,0,.774.779" transform="translate(-4.374 -4.374)" fill="#2b7b7c"/>
      <path id="Path_427" data-name="Path 427" d="M36.109,33.579l1,2.2,1.135-1.071Z" transform="translate(-18.518 -17.22)" fill="#2b7b7c"/>
      <path id="Path_428" data-name="Path 428" d="M65.155,18.866c.778-.163,1.1-.485.987-1.027s-.538-.707-1.316-.545l-.564.119.329,1.571Z" transform="translate(-32.955 -8.838)" fill="#2b7b7c"/>
      <path id="Path_429" data-name="Path 429" d="M137.891,86.6a.752.752,0,1,0,.713.865.77.77,0,0,0-.713-.865" transform="translate(-70.231 -44.402)" fill="#2b7b7c"/>
      <path id="Path_430" data-name="Path 430" d="M87.022,18.4c.162-1.149-.3-1.883-1.343-2.03l-.8-.112-.508,3.611.795.112c1.042.147,1.69-.431,1.851-1.581" transform="translate(-43.27 -8.335)" fill="#2b7b7c"/>
      <path id="Path_431" data-name="Path 431" d="M135.5,101.855c.188.076.358.008.465-.256a.6.6,0,0,0-.393-.854l-.241-.1c.11.133.1.267.037.52s-.15.575.133.688" transform="translate(-69.389 -51.615)" fill="#2b7b7c"/>
      <path id="Path_432" data-name="Path 432" d="M27.922,113.33c-.183-.2-.4-.439-.648-.265-.167.116-.2.3-.04.53a.6.6,0,0,0,.931.137l.213-.148c-.171.019-.281-.059-.455-.254" transform="translate(-13.912 -57.952)" fill="#2b7b7c"/>
      <path id="Path_433" data-name="Path 433" d="M139.2,138.078l.209-.228a.584.584,0,0,0,.487.228c.211,0,.322-.1.322-.247,0-.118-.075-.2-.251-.242l-.223-.049c-.3-.066-.459-.24-.459-.482a.609.609,0,0,1,.674-.569.758.758,0,0,1,.611.259l-.218.217a.484.484,0,0,0-.407-.2c-.2,0-.313.108-.313.25s.091.2.248.237l.223.049c.291.063.462.236.462.487,0,.319-.275.567-.7.567a.832.832,0,0,1-.668-.281" transform="translate(-71.387 -69.995)" fill="#2b7b7c"/>
      <path id="Path_434" data-name="Path 434" d="M142.746,136.544h.294l.646,1.031.646-1.031h.277v1.816H144.3v-1.218l-.531.844h-.176l-.531-.842v1.216h-.314Z" transform="translate(-73.204 -70.023)" fill="#2b7b7c"/>
    </g>
  </g>
</svg>
