<svg xmlns="http://www.w3.org/2000/svg" xmlns:xlink="http://www.w3.org/1999/xlink" width="77" height="77" viewBox="0 0 77 77">
  <defs>
    <clipPath id="clip-path">
      <rect id="Rectangle_152" data-name="Rectangle 152" width="77" height="77" transform="translate(-0.434 -0.165)" fill="#fff"/>
    </clipPath>
  </defs>
  <g id="icon-florida" transform="translate(0.434 0.165)">
    <g id="Group_1047" data-name="Group 1047" clip-path="url(#clip-path)">
      <path id="Path_343" data-name="Path 343" d="M46.244,91.233l-.07,0-1.186-.09-.112,1.433,1.186.09a.719.719,0,0,0,.841-.572c0-.025.008-.051.01-.077h0a.728.728,0,0,0-.669-.781" transform="translate(-10.396 -21.113)" fill="#fff"/>
      <path id="Path_344" data-name="Path 344" d="M59.009,90.414l-.269,2.418,1.614-.384Z" transform="translate(-13.607 -20.945)" fill="#fff"/>
      <path id="Path_345" data-name="Path 345" d="M38.417,0A38.417,38.417,0,1,0,76.835,38.417,38.418,38.418,0,0,0,38.417,0M71.775,46.141a2.375,2.375,0,0,1,2.217-.179s-.47,1.724-1.411,2.217l0,0c-.851.451-1.567.358-1.836.067-.269.917-.582,1.813-.918,2.664a2.888,2.888,0,0,1,.918-.9c1.007-.516,2.261.4,2.261.4s-.672,1.589-1.679,1.836a2.764,2.764,0,0,1-1.97-.247c-.4.851-.806,1.657-1.254,2.418a2.839,2.839,0,0,1,1.076-.672c1.053-.247,2.217,1.007,2.217,1.007s-.874,1.411-1.9,1.388a3.183,3.183,0,0,1-1.97-.784A20.777,20.777,0,0,1,66.049,57.4a2.462,2.462,0,0,1,1.142-.384c1.1.046,2.127,1.614,2.127,1.614s-1.008,1.209-2.06.9a4.088,4.088,0,0,1-1.881-1.321,14.44,14.44,0,0,1-1.567,1.544,2.218,2.218,0,0,1,1.076-.045c1.1.336,1.948,2.194,1.948,2.194a2.205,2.205,0,0,1-2.194.336,5.13,5.13,0,0,1-1.7-1.767,10.973,10.973,0,0,1-1.7,1.052,2.282,2.282,0,0,1,1.052.247c1.074.649,1.7,2.731,1.7,2.731a2.125,2.125,0,0,1-2.239-.247,6.339,6.339,0,0,1-1.544-2.284,11.142,11.142,0,0,0-6.515,4.947l-.582-.784a10.886,10.886,0,0,1,4.276-3.9,12.3,12.3,0,0,1,2.261-.94,10.406,10.406,0,0,1,.313-3.023,3.7,3.7,0,0,1,1.679-2.239,8.959,8.959,0,0,1-.269,3.716,4.691,4.691,0,0,1-.828,1.254,8.921,8.921,0,0,0,1.746-.94,10.306,10.306,0,0,1-.045-3.112,4.542,4.542,0,0,1,1.365-2.6A8.575,8.575,0,0,1,63.762,58a5.434,5.434,0,0,1-.716,1.5A16.8,16.8,0,0,0,64.725,58a9.368,9.368,0,0,1-.4-2.977,5.2,5.2,0,0,1,1.03-2.866,8.19,8.19,0,0,1,.559,3.492,6.592,6.592,0,0,1-.47,1.522,21.225,21.225,0,0,0,1.433-1.858,8.8,8.8,0,0,1-.716-2.776,5.825,5.825,0,0,1,.672-3.023,7,7,0,0,1,.94,3.227,6.285,6.285,0,0,1-.291,1.634c.423-.695.845-1.455,1.229-2.239A6.966,6.966,0,0,1,67.7,49.635a6.362,6.362,0,0,1,.313-3.112,5.776,5.776,0,0,1,1.276,2.866,6.919,6.919,0,0,1-.112,1.767,27.692,27.692,0,0,0,.985-2.619,6.209,6.209,0,0,1-1.3-2.217,6.407,6.407,0,0,1-.041-3.092,4.985,4.985,0,0,1,1.544,2.463,7.768,7.768,0,0,1,.067,1.925c.266-.959.512-1.967.692-3a4.632,4.632,0,0,1-1.5-1.791,6.16,6.16,0,0,1-.4-2.955,3.909,3.909,0,0,1,1.767,1.97,7.476,7.476,0,0,1,.291,1.813,29.793,29.793,0,0,0,.358-3.134,3.708,3.708,0,0,1-1.679-1.365,5.567,5.567,0,0,1-.716-2.754,3.066,3.066,0,0,1,1.925,1.455,6.309,6.309,0,0,1,.515,1.836c.045-1.165.045-2.328-.022-3.47a3.088,3.088,0,0,1-1.767-.9,5,5,0,0,1-.985-2.485,2.485,2.485,0,0,1,2.015.9,5.461,5.461,0,0,1,.692,1.634c-.112-1.164-.247-2.328-.448-3.448a2.647,2.647,0,0,1-1.791-.4,4.168,4.168,0,0,1-1.229-2.151,2.216,2.216,0,0,1,2.038.358,4.869,4.869,0,0,1,.851,1.388c-.224-1.117-.493-2.217-.806-3.269a2.435,2.435,0,0,1-1.791.09c-.874-.291-1.433-1.746-1.433-1.746a2.228,2.228,0,0,1,2.015-.179,4.07,4.07,0,0,1,1.03,1.229,28.906,28.906,0,0,0-1.209-3.156,2.7,2.7,0,0,1-1.767.582c-.876-.045-1.567-1.321-1.567-1.321s1.03-.96,1.925-.692a3.713,3.713,0,0,1,1.276,1.1A20.2,20.2,0,0,0,67.031,20.8a2.921,2.921,0,0,1-1.657,1.052c-.873.179-1.679-.873-1.679-.873s.872-1.209,1.767-1.164a3.028,3.028,0,0,1,1.365.739,1.224,1.224,0,0,1-.134-.179,20.535,20.535,0,0,0-1.858-2.261,3.551,3.551,0,0,1-1.478,1.433c-.806.4-1.7-.4-1.7-.4s.695-1.388,1.567-1.59a2.381,2.381,0,0,1,1.411.358,16.9,16.9,0,0,0-2.194-1.9,4.236,4.236,0,0,1-1.276,1.813,1.657,1.657,0,0,1-1.7.045S60,16.346,60.807,15.92a2.493,2.493,0,0,1,1.522.022A14.335,14.335,0,0,0,60.784,15a1.307,1.307,0,0,1-1.3.269A3.067,3.067,0,0,1,58.3,14.085a2.4,2.4,0,0,1,1.276-.358c.582.134,1.052.94,1.186,1.186a12.18,12.18,0,0,1,1.119.6,4.881,4.881,0,0,1-.963-1.411,6.8,6.8,0,0,1-.112-2.821,3.074,3.074,0,0,1,1.229,1.791,7.328,7.328,0,0,1,.134,2.6,14.661,14.661,0,0,1,2.151,1.679,4.981,4.981,0,0,1-.764-1.592,6.563,6.563,0,0,1,.2-2.866,3.755,3.755,0,0,1,1.03,2.127,7.568,7.568,0,0,1-.154,2.619,20.769,20.769,0,0,1,1.881,2.127A5.294,5.294,0,0,1,66,18.112a6.346,6.346,0,0,1,.538-2.821,4.662,4.662,0,0,1,.784,2.418,7.687,7.687,0,0,1-.448,2.552,21.092,21.092,0,0,1,1.522,2.4,6.333,6.333,0,0,1-.246-1.544,5.671,5.671,0,0,1,.873-2.664,5.29,5.29,0,0,1,.493,2.619,7.065,7.065,0,0,1-.716,2.4,30.159,30.159,0,0,1,1.229,2.955,6.485,6.485,0,0,1-.09-1.724,4.873,4.873,0,0,1,1.186-2.44,5.748,5.748,0,0,1,.2,2.776,5.889,5.889,0,0,1-1.03,2.239c.335,1.03.627,2.127.873,3.246a6.639,6.639,0,0,1,.112-1.791A4.039,4.039,0,0,1,72.762,26.6a5.947,5.947,0,0,1-.134,2.843,4.963,4.963,0,0,1-1.3,1.97c.2,1.053.38,2.127.493,3.246a5.727,5.727,0,0,1,.313-1.614A3.456,3.456,0,0,1,73.881,31.3a5.856,5.856,0,0,1-.448,2.821,3.987,3.987,0,0,1-1.5,1.614c.09,1.03.112,2.082.112,3.134a5.116,5.116,0,0,1,.47-1.365,2.822,2.822,0,0,1,1.948-1.276,5.44,5.44,0,0,1-.786,2.709A3.488,3.488,0,0,1,72,40.141q-.068,1.511-.269,3.023a4.866,4.866,0,0,1,.649-1.276,2.486,2.486,0,0,1,2.127-.761,4.8,4.8,0,0,1-1.1,2.507,2.841,2.841,0,0,1-1.836.761c-.157.963-.336,1.9-.559,2.8a3.639,3.639,0,0,1,.761-1.052M37.453,74.573l-1.319-.089-.9-1.97-.828-.067-.134,1.881-1.119-.09.4-5.306,2.485.2a1.672,1.672,0,0,1,1.667,1.679,1.553,1.553,0,0,1-.01.179,1.506,1.506,0,0,1-1.276,1.478ZM9.694,38.418A28.723,28.723,0,1,1,38.417,67.141,28.723,28.723,0,0,1,9.694,38.418M32.151,70.856l-.224.963-2.507-.6-.515,2.151L27.761,73.1l1.254-5.172,3.672.9-.224.963-2.551-.629-.269,1.1Zm-18.139-10.2a4.9,4.9,0,0,1-1.7,1.767,2.188,2.188,0,0,1-2.194-.336s.851-1.836,1.948-2.194a1.97,1.97,0,0,1,1.076.045,16.9,16.9,0,0,1-1.567-1.544,3.853,3.853,0,0,1-1.881,1.321c-1.03.313-2.06-.9-2.06-.9s1.03-1.569,2.127-1.614a2.278,2.278,0,0,1,1.164.4,21.163,21.163,0,0,1-1.5-2.06,3.12,3.12,0,0,1-1.97.806c-1.053.045-1.9-1.388-1.9-1.388s1.141-1.231,2.217-1.007a2.667,2.667,0,0,1,1.076.692,24.5,24.5,0,0,1-1.254-2.418,2.833,2.833,0,0,1-1.992.247c-1.007-.246-1.679-1.836-1.679-1.836a2.573,2.573,0,0,1,2.261-.4,3.284,3.284,0,0,1,.94.918,23.61,23.61,0,0,1-.94-2.689A2.689,2.689,0,0,1,4.253,48.2c-.94-.493-1.411-2.217-1.411-2.217a2.371,2.371,0,0,1,2.217.179,3.78,3.78,0,0,1,.761,1.076c-.224-.9-.406-1.858-.559-2.821a2.884,2.884,0,0,1-1.836-.761,4.876,4.876,0,0,1-1.1-2.507,2.549,2.549,0,0,1,2.128.762,4.7,4.7,0,0,1,.672,1.343,28.916,28.916,0,0,1-.291-3.09,3.488,3.488,0,0,1-1.679-1.209,5.438,5.438,0,0,1-.784-2.709,2.822,2.822,0,0,1,1.948,1.276,5.04,5.04,0,0,1,.47,1.388A29.444,29.444,0,0,1,4.9,35.754a4.15,4.15,0,0,1-1.5-1.614,5.881,5.881,0,0,1-.449-2.822A3.456,3.456,0,0,1,4.7,33.065,5.9,5.9,0,0,1,5.015,34.7c.108-1.119.291-2.215.493-3.291a4.778,4.778,0,0,1-1.3-1.97A5.947,5.947,0,0,1,4.075,26.6a4.035,4.035,0,0,1,1.478,2.128,6.8,6.8,0,0,1,.112,1.813c.246-1.119.537-2.217.873-3.246a5.889,5.889,0,0,1-1.03-2.239,5.748,5.748,0,0,1,.2-2.776A4.87,4.87,0,0,1,6.9,24.717a6.812,6.812,0,0,1-.09,1.767,30.627,30.627,0,0,1,1.229-2.977,7.065,7.065,0,0,1-.716-2.4,5.023,5.023,0,0,1,.493-2.619,5.671,5.671,0,0,1,.873,2.664,6.571,6.571,0,0,1-.269,1.59,17.606,17.606,0,0,1,1.544-2.44,7.026,7.026,0,0,1-.448-2.552,4.662,4.662,0,0,1,.784-2.418,6.434,6.434,0,0,1,.538,2.821,6.091,6.091,0,0,1-.515,1.679,21.085,21.085,0,0,1,1.9-2.149,7.658,7.658,0,0,1-.154-2.642,3.916,3.916,0,0,1,1.03-2.127,6.552,6.552,0,0,1,.2,2.866,5.515,5.515,0,0,1-.761,1.59,15.941,15.941,0,0,1,2.151-1.679,7.328,7.328,0,0,1,.134-2.6,3.186,3.186,0,0,1,1.229-1.791,6.82,6.82,0,0,1-.112,2.821,4.471,4.471,0,0,1-.963,1.411,9.883,9.883,0,0,1,1.142-.6c.134-.246.627-1.052,1.186-1.186a2.4,2.4,0,0,1,1.276.358,3.067,3.067,0,0,1-1.186,1.186,1.307,1.307,0,0,1-1.3-.269,14.324,14.324,0,0,0-1.544.94,2.333,2.333,0,0,1,1.522-.022c.828.426,1.343,1.948,1.343,1.948a1.657,1.657,0,0,1-1.7-.045,4.518,4.518,0,0,1-1.276-1.813,18.533,18.533,0,0,0-2.194,1.9,2.556,2.556,0,0,1,1.411-.358c.876.2,1.567,1.59,1.567,1.59s-.9.805-1.7.4a3.837,3.837,0,0,1-1.478-1.433A22.767,22.767,0,0,0,10.184,20.4a1.224,1.224,0,0,0-.134.179,2.987,2.987,0,0,1,1.365-.716c.894-.045,1.767,1.164,1.767,1.164s-.828,1.052-1.679.873a2.917,2.917,0,0,1-1.657-1.03A19.04,19.04,0,0,0,8.168,23.8a3.649,3.649,0,0,1,1.275-1.075c.918-.294,1.925.692,1.925.692S10.7,24.691,9.8,24.735a2.581,2.581,0,0,1-1.767-.582,28.906,28.906,0,0,0-1.209,3.156,4.07,4.07,0,0,1,1.03-1.229,2.158,2.158,0,0,1,2.015.179s-.537,1.455-1.433,1.746a2.435,2.435,0,0,1-1.791-.09c-.313,1.03-.582,2.127-.806,3.246a4.582,4.582,0,0,1,.828-1.343A2.216,2.216,0,0,1,8.7,29.461a4.127,4.127,0,0,1-1.229,2.151,2.612,2.612,0,0,1-1.791.4c-.179,1.119-.336,2.284-.426,3.448a6.106,6.106,0,0,1,.692-1.634,2.566,2.566,0,0,1,2.015-.9,4.78,4.78,0,0,1-.985,2.485,3.006,3.006,0,0,1-1.767.9c-.067,1.143-.067,2.284-.022,3.448a6.142,6.142,0,0,1,.493-1.813,3.068,3.068,0,0,1,1.925-1.455,5.619,5.619,0,0,1-.716,2.754,3.708,3.708,0,0,1-1.679,1.365,29.194,29.194,0,0,0,.358,3.134,7.151,7.151,0,0,1,.291-1.791,3.907,3.907,0,0,1,1.781-1.969,6.16,6.16,0,0,1-.4,2.955,4.628,4.628,0,0,1-1.478,1.791c.2,1.03.423,2.015.692,2.977a7.45,7.45,0,0,1,.067-1.881,4.852,4.852,0,0,1,1.544-2.463,6.408,6.408,0,0,1-.045,3.09,5.84,5.84,0,0,1-1.3,2.194,27.2,27.2,0,0,0,.985,2.6A7.779,7.779,0,0,1,7.6,49.5a6.139,6.139,0,0,1,1.276-2.866,6.353,6.353,0,0,1,.313,3.112,7.165,7.165,0,0,1-1.007,2.507,25.456,25.456,0,0,0,1.229,2.239,6.285,6.285,0,0,1-.291-1.634,7,7,0,0,1,.94-3.227,5.746,5.746,0,0,1,.672,3.023,8.627,8.627,0,0,1-.716,2.776,21.223,21.223,0,0,0,1.433,1.858,6.592,6.592,0,0,1-.47-1.522,7.833,7.833,0,0,1,.559-3.492,5.2,5.2,0,0,1,1.03,2.866,9.356,9.356,0,0,1-.384,2.955,14.521,14.521,0,0,0,1.657,1.5,6.336,6.336,0,0,1-.692-1.478,8.625,8.625,0,0,1,.154-3.649,4.542,4.542,0,0,1,1.365,2.6,9.591,9.591,0,0,1-.045,3.112,8.323,8.323,0,0,0,1.746.94,4.116,4.116,0,0,1-.828-1.229,8.565,8.565,0,0,1-.269-3.716,3.8,3.8,0,0,1,1.679,2.239,10.531,10.531,0,0,1,.313,3.045,12.3,12.3,0,0,1,2.261.94l0,0a11.231,11.231,0,0,1,4.321,3.919l-.582.784a11.233,11.233,0,0,0-6.515-4.947A6.339,6.339,0,0,1,15.2,64.438a2.184,2.184,0,0,1-2.239.247s.625-2.082,1.7-2.731a2.032,2.032,0,0,1,1.052-.247,11.666,11.666,0,0,1-1.7-1.052M41.082,6l-1.9.358L38.4,8.125l-.918-1.7-1.948-.2,1.343-1.411-.4-1.9,1.746.828L39.9,2.775,39.649,4.7ZM28.991,4.255l1.881.47,1.455-1.3.134,1.948,1.657.985-1.791.716-.426,1.9-1.254-1.5-1.925.2,1.03-1.657ZM22.254,7.1l1.948.09,1.164-1.567L25.88,7.5l1.836.627L26.1,9.2l-.022,1.925L24.559,9.94,22.7,10.5l.672-1.813ZM43.791,3.179l1.544,1.142,1.836-.6-.627,1.836L47.708,7.1l-1.95-.022-1.119,1.59-.559-1.858-1.856-.582L43.813,5.1ZM54,9.468,52.123,9.02,50.69,10.34l-.179-1.925-1.683-.96,1.791-.761L51,4.79l1.276,1.478L54.2,6.044,53.2,7.7ZM49.054,72.9l-1.256.313L47.26,72.4l-2.217.538-.112.963-1.254.291.761-5.664,1.388-.336ZM42.492,74.26l-3.336.269-.4-5.306,1.119-.09.313,4.321,2.239-.179Z" fill="#fff"/>
      <path id="Path_346" data-name="Path 346" d="M69.736,41.482A28.254,28.254,0,1,0,41.482,69.735,28.253,28.253,0,0,0,69.736,41.482m-56.037,0A27.784,27.784,0,1,1,41.482,69.266,27.783,27.783,0,0,1,13.7,41.482" transform="translate(-3.064 -3.064)" fill="#fff"/>
      <path id="Path_347" data-name="Path 347" d="M68.517,42.009A26.508,26.508,0,1,0,42.009,68.517,26.508,26.508,0,0,0,68.517,42.009m-52.076,0A25.567,25.567,0,0,1,42.009,16.443v0A25.585,25.585,0,0,1,67.575,42.009v0a25.567,25.567,0,0,1-51.134,0" transform="translate(-3.591 -3.591)" fill="#fff"/>
      <path id="Path_348" data-name="Path 348" d="M33.828,71.578a3.8,3.8,0,0,0,3.829,1.433l.224-.269L35.372,69.7Z" transform="translate(-7.836 -16.145)" fill="#fff"/>
      <path id="Path_349" data-name="Path 349" d="M40.53,72.735l.179.224a3.734,3.734,0,0,0,3.9-1.388l-1.567-1.9Z" transform="translate(-9.389 -16.138)" fill="#fff"/>
      <path id="Path_350" data-name="Path 350" d="M40.626,53.844l-.067.09,2.6,3.179L44.5,55.478a4.671,4.671,0,0,0-3.873-1.634" transform="translate(-9.396 -12.471)" fill="#fff"/>
      <path id="Path_351" data-name="Path 351" d="M31.847,64.86a11.544,11.544,0,0,0,1.03,4.836L34.354,67.9Z" transform="translate(-7.377 -15.025)" fill="#fff"/>
      <path id="Path_352" data-name="Path 352" d="M31.876,61.48l2.418-2.955-1.321-1.59a9.5,9.5,0,0,0-1.1,4.545" transform="translate(-7.384 -13.189)" fill="#fff"/>
      <path id="Path_353" data-name="Path 353" d="M46.022,69.676a11.38,11.38,0,0,0,1.03-4.9l-2.529,3.09Z" transform="translate(-10.314 -15.005)" fill="#fff"/>
      <path id="Path_354" data-name="Path 354" d="M37.57,63.034l-2.6-3.156-2.485,3.045,2.575,3.156Z" transform="translate(-7.526 -13.871)" fill="#fff"/>
      <path id="Path_355" data-name="Path 355" d="M44.667,58.5l2.418,2.955a9.634,9.634,0,0,0-1.119-4.522Z" transform="translate(-10.347 -13.189)" fill="#fff"/>
      <path id="Path_356" data-name="Path 356" d="M45.641,62.9l-2.485-3.023-2.6,3.156,2.485,3.023Z" transform="translate(-9.396 -13.871)" fill="#fff"/>
      <path id="Path_357" data-name="Path 357" d="M37.914,53.965l-.067-.09a4.688,4.688,0,0,0-3.873,1.614l1.343,1.634Z" transform="translate(-7.87 -12.478)" fill="#fff"/>
      <path id="Path_358" data-name="Path 358" d="M39.076,64.86,36.567,67.9l2.485,3.045,2.509-3.067Z" transform="translate(-8.471 -15.025)" fill="#fff"/>
      <path id="Path_359" data-name="Path 359" d="M41.645,58.045l-2.6-3.179-2.6,3.179,2.6,3.134Z" transform="translate(-8.444 -12.71)" fill="#fff"/>
      <path id="Path_360" data-name="Path 360" d="M31.06,47.942a12.531,12.531,0,0,1,4.388,3.739h1.791c0,.022-.291-5.821-6.179-3.739" transform="translate(-7.195 -11.002)" fill="#fff"/>
      <path id="Path_361" data-name="Path 361" d="M40.705,51.63h2.127c2.619-2.217,2.776-3.627,3.962-4.187-4.545-1.544-6.089,4.187-6.089,4.187" transform="translate(-9.429 -10.929)" fill="#fff"/>
      <path id="Path_362" data-name="Path 362" d="M39.8,49.737a7.565,7.565,0,0,1,1.455-2.552l0,0A17.7,17.7,0,0,0,39.661,41.9c-1.813,3-1.5,6.224.134,7.837" transform="translate(-8.902 -9.706)" fill="#fff"/>
      <path id="Path_363" data-name="Path 363" d="M43.925,38.842l-.02.012.038-.019Z" transform="translate(-10.171 -8.996)" fill="#fff"/>
      <path id="Path_364" data-name="Path 364" d="M43.03,39.308l-.016.016.064-.024Z" transform="translate(-9.964 -9.104)" fill="#fff"/>
      <path id="Path_365" data-name="Path 365" d="M43.573,39.006l-.022.022-.017.034.151-.1Z" transform="translate(-10.085 -9.025)" fill="#fff"/>
      <path id="Path_366" data-name="Path 366" d="M43.986,38.813l-.032.016.051-.021Z" transform="translate(-10.182 -8.99)" fill="#fff"/>
      <path id="Path_367" data-name="Path 367" d="M44.271,38.556l.09-.045.067-.045.247-.224.067-.134h.022l-.022-.022-.09.112-.067.045-.224.179-.118.089-.067.067-.154.062.071-.018Z" transform="translate(-10.197 -8.823)" fill="#fff"/>
      <path id="Path_368" data-name="Path 368" d="M43.506,39.092l-.093.062L43.5,39.1Z" transform="translate(-10.057 -9.056)" fill="#fff"/>
      <path id="Path_369" data-name="Path 369" d="M43.4,39.173l-.031.018.008,0Z" transform="translate(-10.047 -9.074)" fill="#fff"/>
      <path id="Path_370" data-name="Path 370" d="M43.865,38.859l-.065.032-.07.046h0Z" transform="translate(-10.13 -9.002)" fill="#fff"/>
      <path id="Path_371" data-name="Path 371" d="M69.077,72.32l0-.009-.024.018Z" transform="translate(-15.997 -16.751)" fill="#fff"/>
      <path id="Path_372" data-name="Path 372" d="M42.367,38.692l-.09-.022-.09.022-.022.022-.09.022-.044-.043h-.068l-.112.022h-.045l-.022.022.045.022.045.022.09.045.112.067.067.067.09.022.112-.022.022-.09.067-.112-.022-.045Z" transform="translate(-9.68 -8.958)" fill="#fff"/>
      <path id="Path_373" data-name="Path 373" d="M66.969,72.3l-.022-.022H66.9l-.022-.067-.022.022-.067.022-.067.022.044.044.112.09.045-.022.022.022.045.067.067-.045-.022-.067Z" transform="translate(-15.457 -16.727)" fill="#fff"/>
      <path id="Path_374" data-name="Path 374" d="M67.335,72.8l-.09.09-.022.022h.022l.067-.022.067-.045H67.4v-.067l-.022.022Z" transform="translate(-15.572 -16.86)" fill="#fff"/>
      <path id="Path_375" data-name="Path 375" d="M66.244,72.685v-.045l-.022-.067-.134-.022H66.02L66,72.529l-.045-.022-.022-.022-.022-.022-.022-.022-.022-.022v-.045l-.022-.022-.074-.068-.112-.022-.022.022v.022l.022.022.022.045v.022l-.045.045-.022-.022-.022-.022-.022-.045-.045-.067-.022.045.022.022.022.112h-.022v.022l-.022.022-.067.022-.022-.022-.022-.022-.067.022-.045.022-.045.022-.022.022v.067l-.067.022v.025l-.045-.022-.067-.067H65.01l-.045.067-.045.067v.045L64.9,72.8l-.045.022-.067.022v.045l-.112.134-.045.022-.045.022h-.022l-.045.045-.022.022-.022.022-.022.022-.045.022h-.022l-.022-.022h-.022L64.3,73.2v.02l-.022.022-.067.022h-.022l-.022-.022h-.09l-.022.022h-.022l-.022.022-.09-.022-.022.067-.022.022v.023H63.8l-.022.022v.067l.022.022.045-.022h.112l.067-.022.09-.022.067-.022h.057l.154-.022h.022l.045-.022.022-.022.022-.022.022-.022.154-.045.154-.022.269-.179.112-.022L65.262,73v-.09l.022-.022v-.022l.022-.022.022-.022.09.022.022.022-.022.022v.022H65.4v.022l.067.022h.045l.045.022.09-.022.067-.022.067.022v.09l.022.022h.022l.022-.022L65.976,73l.067-.022.022-.022.067-.022h.022l.022-.022.022-.022h.022l.022-.022.067-.022.022-.022-.067-.045Z" transform="translate(-14.775 -16.739)" fill="#fff"/>
      <path id="Path_376" data-name="Path 376" d="M70.725,71.205l-.045.089h-.022l-.022-.022-.022.022-.045.022-.022.045-.022.022-.067.067h.022l.045-.022.022-.022.045-.022.045-.022.067-.067.045-.022.022-.022h.022l.022-.045-.022-.022Z" transform="translate(-16.322 -16.49)" fill="#fff"/>
      <path id="Path_377" data-name="Path 377" d="M43.274,39.217l.035-.021-.212.08.087-.015Z" transform="translate(-9.983 -9.08)" fill="#fff"/>
      <path id="Path_378" data-name="Path 378" d="M72.985,68.76v-.022l.022-.022h.022L73.1,68.6v-.081l-.127.237Z" transform="translate(-16.904 -15.873)" fill="#fff"/>
      <path id="Path_379" data-name="Path 379" d="M68.779,72.367l-.022.022H68.69l-.022-.022h-.022l-.022-.022v-.022h-.045l-.022.022-.022.022-.045.045-.022.022-.045.022-.022.022h-.022l-.022.022-.067.022h-.045l-.022-.022-.067.022v.023l.022.022.022.022.022.022.022.022h.022l.045-.022h.067l.045-.022v-.067l.022-.022.022-.022.022-.022.045-.022.045-.022H68.6l.022-.022h.022l.022.022v.022l.022.022.022-.022.022-.022.067-.045.045-.036-.025.013Z" transform="translate(-15.788 -16.754)" fill="#fff"/>
      <path id="Path_380" data-name="Path 380" d="M43.011,39.331l-.012,0,.005,0Z" transform="translate(-9.961 -9.111)" fill="#fff"/>
      <path id="Path_381" data-name="Path 381" d="M71.8,70.041h-.022v.022l-.022.067-.022.022-.022.022-.022.045h-.112v.014l.022.022V70.3l-.022.045-.022.067v.022h-.022l-.045.045h-.022l-.022-.022-.022.022-.045.022-.022.022-.067.022-.022.022-.045.022-.022.022.022.022-.022.022-.022.045-.022.022-.022.022-.045.045-.045.022v.022l.022.022.112-.09.045-.067.022-.022.045-.067.022-.022h.022l.045-.045.022-.022h.025l.067-.022h.022l.022-.022.022-.022.045-.067.033-.05.034-.017V70.3l.067-.067.022-.022h.022v-.022l.022-.022.022-.045V70.1H71.8v-.022H71.78l.022-.022.032-.048-.013.013Z" transform="translate(-16.457 -16.217)" fill="#fff"/>
      <path id="Path_382" data-name="Path 382" d="M72.175,69.828l-.067.067-.022.045-.012.018.009-.009h.022v-.022h.022l.022-.022.071-.106-.023.008Z" transform="translate(-16.696 -16.169)" fill="#fff"/>
      <path id="Path_383" data-name="Path 383" d="M69.443,72v-.022L69.4,72l-.114.09-.022.022-.022.022-.022.022H69.2l-.022.022-.045.022h-.022l-.018.035.044-.035.067-.022.09-.09h.154l.022-.022h.022v-.022l-.022-.022Z" transform="translate(-16.004 -16.673)" fill="#fff"/>
      <path id="Path_384" data-name="Path 384" d="M72.262,69.647h-.022l-.022-.022h-.022L72.15,69.6V69.58l-.022-.022-.067.045.067.045.045.022h.02l.022.022.022.022-.019.028.044-.015.067-.067v-.014l-.022.022Z" transform="translate(-16.693 -16.113)" fill="#fff"/>
      <path id="Path_385" data-name="Path 385" d="M60.882,59.951l.012.036v-.024Z" transform="translate(-14.103 -13.888)" fill="#fff"/>
      <path id="Path_386" data-name="Path 386" d="M60.847,59.884l.017.041.01.011-.01-.032Z" transform="translate(-14.095 -13.872)" fill="#fff"/>
      <path id="Path_387" data-name="Path 387" d="M61.7,60.466h-.022l-.09-.045-.022-.022-.067.022-.045.067-.179-.09-.045-.022h-.09l-.022-.022-.067-.045-.022-.022L61,60.265l-.022-.022-.022-.09V60.13l-.022-.022-.022-.067-.022-.022V60l-.022.136.022.045v.045l.045.154.022.045.022.022.022.022.022.022.134.067.112.09.067.022.067.022.067.022h.045l.067-.022.112-.09.09-.067.022-.022v-.022H61.7Z" transform="translate(-14.1 -13.899)" fill="#fff"/>
      <path id="Path_388" data-name="Path 388" d="M61.922,73.65,61.81,73.6h-.045l-.022.022-.022.09-.067.088v.067l.022.022.224-.022.045-.067.022-.067-.022-.067Z" transform="translate(-14.282 -17.051)" fill="#fff"/>
      <path id="Path_389" data-name="Path 389" d="M60.678,59.441l-.022-.067-.112-.2-.022-.112v-.022l.022-.022-.022-.067H60.5l-.022.022-.022.022-.022.067v.022l.022.067.09.09.045.09.045.134.045.112.073.091-.073-.182Z" transform="translate(-13.999 -13.656)" fill="#fff"/>
      <path id="Path_390" data-name="Path 390" d="M56.69,49.727l-.022-.112-.022-.067-.022-.067H56.6l-.022.022-.022.045.022.045.022.067.022.045v.067l-.022.067v.269l.045.022.022-.022v-.112l-.022-.067.022-.066Z" transform="translate(-13.101 -11.462)" fill="#fff"/>
      <path id="Path_391" data-name="Path 391" d="M70.088,71.564l-.022.022-.045.022-.067.045-.022.022V71.7l.022-.022.112-.045h.112l.022-.022v-.045l.045-.067-.067-.022Z" transform="translate(-16.2 -16.557)" fill="#fff"/>
      <path id="Path_392" data-name="Path 392" d="M42.562,39.157l.022.022.09.067.067.067.022.022.067-.022.062-.023-.061-.021-.134-.045-.134-.09H42.54Z" transform="translate(-9.854 -9.066)" fill="#fff"/>
      <path id="Path_393" data-name="Path 393" d="M60.962,59.8l.022-.022.022-.022h.09l.045-.022.022-.022.045-.022.045-.045-.022-.022-.022-.09.09-.09h.112l.022.045v.067H61.5l.022-.022h.022l.022.022.022.045.045.045h.022l.022-.045.022-.045.067-.09.022-.022.067-.067.022-.022.09-.045.154-.134.022-.067.045-.09h.022L62.233,59l.022-.022.022-.022.067-.045.022-.022.09-.134.022-.045v-.022l.022-.045-.022-.022h-.045l-.022-.022V58.46l.022-.067-.022-.022-.022-.022v-.022l-.022-.045v-.045h-.022V58.1l-.022-.022v-.022l.022-.022.022-.134v-.022h.022v-.022h.021l.045-.022v-.022l.022-.112.022-.022v-.022l-.022-.022V57.5l.022-.045V57.41l.022-.045.045-.022v-.022l.022-.022.022-.022.045-.067v-.022l.022-.022.067-.179v-.022l.022-.067v-.022l.022-.045.022-.045h.022v-.022l.022-.022.022-.022h.045l.045-.022.067-.022.067-.022.022.022.045.022.022.045.022.022-.022.067v.022l-.022.022-.022.067v.022l.022.022.056.056.018-.056-.022-.022.022-.112v-.022l.022-.09.022-.067V56.65l.022-.022.022-.022.022-.022v-.022l.022-.022v-.045l.022-.022-.022-.045v-.045l.022-.022v-.09l.022-.022v-.269l-.022-.022v-.134l.022-.022v-.2l-.022-.112v-.358l.022-.134v-.179l.022-.022V54.7l.022-.154V54.4l.022-.067v-.09l.022-.022v-.179l.022-.067v-.022l.022-.022V53.9l.022-.022.022-.224V53.5h.022V53.37l.022-.154v-.2l.022-.067v-.112l.022-.067v-.022l.022-.154v-.022l.022-.179.022-.134v-.426l-.022-.154.022-.134v-.068l-.022-.022V51.43l-.022-.178-.022-.068.022-.022h.022V51.05l-.022-.111-.022-.112-.022-.112-.022-.112-.022-.067-.022-.09-.022-.068-.022-.022-.022-.067-.022-.023v-.045l-.022-.09-.067-.178-.022-.068-.112-.223-.022-.045-.022-.022-.022-.066-.022-.067-.022-.045-.022-.022v-.022l-.067-.134-.045-.09.022-.022.022-.022-.022-.09-.022-.045L63,48.9l-.022-.022-.09-.154v-.022l-.022-.022-.022-.045-.154-.313-.022-.09-.112-.2-.067-.224-.09-.269-.067-.154h-.022l-.067-.112-.045-.179-.022-.067-.022-.154h-.022v-.022l-.045-.067-.022-.022-.022-.022-.022-.022v-.067h-.022v-.045l-.022-.022-.022-.045-.022-.067-.022-.022-.022-.067-.022-.112-.022-.022-.022-.09-.022-.045-.022-.045-.022-.067-.022-.022-.134-.269H61.57l-.134-.247-.291-.538-.022-.022-.022-.022v-.022l-.09-.179-.022-.067-.022-.045-.022-.045-.022-.022-.022-.045-.022-.022-.022-.067-.022-.067v-.022l-.022-.09-.045-.134v-.045l-.022-.045v-.022l-.022-.022L60.7,43.88v-.022l-.022-.045-.022-.022v-.045l-.022-.022V43.7l-.045-.247v-.067l-.022-.09-.022-.112v-.112l.022-.045v-.09l.022-.022v-.045l.022-.067v-.022l.022-.045.022-.022v-.022l.022-.022.045-.067.067-.067.112-.067.067-.022V42.4l-.067-.09-.022-.09-.09-.179-.045-.179v-.022l-.045-.112-.045-.067-.112-.134-.045-.067-.154-.2-.09-.112-.045-.067-.154-.2-.022-.022-.022-.045-.09-.134-.291-.426-.022-.022-.09-.112-.179-.313-.134-.154-.022-.067-.022-.022-.022-.045-.022-.045v-.022l-.022-.022v-.022h-.022l-.022-.022-.022-.09L59,39.274l-.022-.045-.154-.2-.022-.045-.022-.067-.022-.022-.022-.022-.022-.022v-.022l-.022-.067-.045-.067-.022-.045-.022-.067-.022-.022-.022-.067-.022-.022-.022-.067-.022-.045-.067-.112-.067-.112v-.022l-.022-.045-.022-.022L58.292,38l-.022-.045-.022-.022-.022-.022-.179-.4L58,37.42l-.112-.247-.022-.022-.022-.067-.022-.067-.045-.067-.09-.154-.067-.154-.022-.067-.067-.154-.022-.067-.022-.112-.022-.022-.022-.022v-.022l-.045-.112v-.022l-.022-.022V36l-.022-.022v-.022l-.067-.134-.067-.179-.022-.067v-.022l-.045-.179v-.247h-.022l-.022-.112-.022-.09-.045-.067-.022-.022L57,34.812l-.022-.045v-.022l-.045-.112-.022-.09-.134-.515-.134-.515-.067-.247-.067-.224-.022-.112v-.022l-.022-.022v-.022l-.022-.067v-.022l-.022-.022v-.045l-.022-.09v-.224l-.022-.09v-.022l-.045-.112-.022-.313-.067-.067h-.067l-.045-.022.022-.022.022-.067-.022-.067-.022-.112v-.269l.022-.134v-.022l.022-.022.022-.134v-.045l.022-.134-.022-.022-.067-.045-.022.022-.045-.022h-.045v-.022h-.022l-.045-.045-.022-.022-.045.022h-.045l-.022.022h-.022L55.77,30.6l-.022.022-.022.022v.022l-.022.022h-.045l-.022-.022h-.09v-.022h-.023l-.022-.022h-.068l-.045-.022h-.022l-.022-.022-.023.022-.022.022v.022h-.022l-.022-.022V30.6l-.022-.022V30.56h-.045l-.022.022L55.1,30.6l-.022-.022h-.022v-.067l-.022-.022H55.01l-.022-.022h-.022l-.022.022v.022l-.022.022H54.9l-.067-.022H54.81v-.045h-.022l-.067.022h-.09l-.022-.022-.067-.067v-.045H54.5l-.022-.022-.022-.022h-.067v.022h-.022v.022h-.022l-.022-.022v-.022l-.022-.022-.022-.022h-.022l-.045-.022-.045.022h-.045l-.045.022h-.022l-.022-.022-.022-.022-.022-.022-.067.022-.022-.022-.022-.022-.022-.022-.022-.045v-.022l-.022-.022-.022-.022h-.045v.022l-.022.022h-.09l-.045-.022-.022-.022-.022-.022-.022-.022h-.022l-.045.045-.022.022V30.2l-.022.067-.022.022-.022.022h-.022l-.022-.022-.022-.022-.022-.022-.045-.022h-.067l-.022.022v.045l.022.045.022.067v.022l-.022.022-.045.022H53.07l-.022.022v.067l-.022.022v.045l.022.022v.022l.022.067-.022.067-.022.067v.134l.022.022.022.022v.023h.022l-.022.022-.022.627.022.022.022.045.022.045-.022.022v.022h.028l.022.022.022.045.022.045v.045l.022.045V32.1l-.022.067-.022.09v.09l.022.022v.09l-.022.022v.09l-.022.045H53.12v.045l-.022.067v.022l-.022.022V32.8l.022.022v.015l-.022.022-.022.022V32.9l-.022.022.022.022.022.067v.067l-.022.022v.022l-.022.022h-.022l-.045.022h-.022l-.067.022-.067-.022-.022-.022h-.022v-.022h-.112l-.022.022h-.067l-.067.022-.022.022-.022-.022h-.022l-.045-.045-.022-.022-.022-.022-.022-.022-.022-.067-.022-.022-.022-.112V32.81l.022-.022V32.7l-.022-.022v-.022l.022-.045.022-.022v-.045l-.022-.045-.022-.022-.022-.022-.022-.022-.022-.022-.022-.022v-.045l-.022-.022-.022-.022v-.045l.022-.045v-.022l.022-.022h.022l.022-.022.022-.022h-.022l-.154-.022h-.045l-.134-.022h-.426l-.2-.022h-.538l-.045-.022h-.179l-.47-.022H49.97l-.828-.022H48.85l-.515-.022h-.384l-.067-.022h-.538l-.179-.022h-.022l-.134-.022h-.179l-.045-.022h-.493l-.154-.022h-.134l-.224-.022-.134-.022h-.806l-.045-.022h-.154l-.134-.022-.582-.022H43.7l-.067-.022h-.2l-.022-.022h-.134l-.448-.022h-.582v-.022h-.4l-.224-.022h-.448l-.09-.022H40.93l-.224-.022h-.313l-.224-.022h-.112l-.022-.067-.022-.022-.045-.022v-.022l-.022-.045-.022-.045h-.134v-.067l-.022-.022-.022-.022.022-.022v-.022l-.045-.067v-.09L39.7,31l-.022-.022v-.112l.022-.022.022-.022v-.067l-.022-.022-.022-.022V30.6h-.022v-.045l.022-.022V30.49l-.022-.022h-.022v-.022l-.022-.045-.022-.022-.022-.022-.045-.067-.022-.022-.022-.022-.022-.022-.022-.022-.022-.022v-.112l.022-.022V30l-.022-.022-.022-.022-.022-.022h-.045L39.3,29.91l-.022-.022v-.022l.022-.045v-.09H37.463l-.313.022H34.933l-.134-.022h-.559l-.224-.022H33.3l-.067-.022h-.806l-.09-.022h-.692l-.067-.022h-.091l-.022-.022v.022H31.4l-.179-.022H31l-.179-.022h-.9l-.2-.022h-.692l-.022-.022h-.179l.224-.246h-.962l-.134-.022h-.224v.038l.022.045v.022l.022.022-.022.022v.022l.022.022V29.5l.022.022-.022.067-.022.067v.022h-.022l-.022.022-.022.045-.022.022v.022l-.022.022v.022l-.022.022v.022L27.6,29.9l-.022.022v.09h-.022l-.022.022v.022l-.022.067.022.022v.022l.022.022H27.53v.045l.022.022.022.022.022.022-.022.022H27.6l.022.022.022.022.022.022v.022l.022.022.022.022.022.022.022.022.022.045H27.8l.022.022.022.022.022.022h.022l.022.045V30.7l.022.022.022.022v.022l.022.022v.045l.045.022.067.022v.022l.022.022v.022h.022l.045.022.022.022v.022l.022.022.022.022.022.022.045.022h.045l.022.022v.022H28.4l.022.022h.022l.022.022.022.022h.022l.022.022h.024l-.022.022.022.022.022.045.022.022.022.022L28.6,31.4l.022.022v.112l-.022.022v.022h.022l-.022.045-.022.022h-.025l-.022.022-.022.067-.022.045V31.8h-.022l-.022.022.022.022-.022.022H28.4l-.022.022-.022.022h-.022l-.067.134v.045l.022.022h-.022v.022l.022.022v.022h.047l.022.067v.022l-.022.022-.022.022v.022l.022.022h.022v.022l.022.022.045.045h.022l.022.022h.022l.022.022.022-.022.045.022H28.6l.022.022.022.022v.022l.022.022h-.022V32.6l-.022.022-.045.022-.022.022h-.022l-.022.022-.022.022-.022.022h-.022v.022h-.067l-.022-.022h-.022v.022h-.022l-.022.022V32.8l-.022.022h-.022l-.022.022v.045l-.022.022-.022.022-.022.022v.134l-.022.045h-.022l-.022.022h-.134l-.045.022-.022.022v.1h.019v.022h.112l.022-.022h.026l.022.022.022-.022h.022l.022-.022v.067l-.224.067h-.022l-.067.022v.045l.47-.09.134-.045.179-.045.112-.022.045-.022.045-.022.067-.022.067.022.067.022.269-.022h.022l.067-.022.112-.022h.045l.224-.045.873-.179.022-.022h.022l.112-.022.112-.022.045-.022.224-.022.224-.045.559-.022.47.045.067.022h.472l.045.022.09.022h.045l-.112-.112.2.022.067.022.313.09h.022l.022.022.067.022.559.179.384.154.045.022.022.022.336.154.022.022h.022l.022.022.045.022.045.022.067.045.022.022.022.022.09.045.045.022.067.045.067.045.045.022.045.022.045.022.022.022h.022l.067.067.022.022h.062l.022.022.067.067v.022l.022.022.134.09.179.09.022.022h.022l.067.022.022.022.067.022v.022l.045.022.022.022H36.7l.022.045.022.045.022.045.022.022v.022l.067.067.067.067.022.022.022.022.134.112.112.067.067.022h.045l.067.022.067.022h.022l.067.067h.022v.022l.067.067v.022h.022l.022.022.022.045.045.067.09.134.045.112.022.022.022.022.022.022.022.022.022.022v.067l.022.022.022.022v.022l.022.045v.045l-.022.067v.013l-.022.4L38,36.484l-.134.022h-.022l-.045-.045-.067-.067-.09-.291-.045-.2.022-.154.022-.154.022-.067-.067.022-.022.067-.022.045v.077l.022.154.067.313.022.067.022.022.045.112.045.112.09.112.022.022-.022-.067.022-.022h.022l.112-.045.134-.022.134.022.154-.09h.045l.179-.045.112-.022.154-.045.09-.022h.134l.179.045.154-.022.045-.022.067-.022.022-.022.022-.022.022-.067.067-.022.045-.022.067-.134.022-.045.045-.022h.045l.022.022.045.045L40,36.006l-.045.067-.045.112.022.022.022.045h.022L40,36.185l.067-.045.022-.022.067-.022.045-.022h.067l.291-.179h.022l.112-.09.154-.134.045-.022.067.022.022-.022H41l.022-.022V35.6l.022-.022.022-.022.154-.112.022-.022.022-.022.112-.067.067-.045.022-.022.067-.045.112-.022.067.022.112-.067.09-.022.022.067.045.022.045.022h.09l.134.045h.022l.112-.022.022-.022h.022l.022-.067.022-.067-.022-.045v-.045L42.433,35l-.022-.067v-.09l-.022-.067h-.045l-.022-.022L42.3,34.62v-.09l.022-.134.022-.022.067-.022.112-.022.022.022.067.045h.045l.067-.022.022-.045.022-.022-.022-.045.022-.045.022-.022.067-.022.022.022.022.045.045.022H43.1V34.24h.022l.022.022.067.045.067.022h.045l.067-.045.022-.022.045-.045.067.022.022-.022.022-.022h.045l.022.022h.022l.022-.022.022-.022.022-.022.022-.022h.224l.09.022.045.067v.022h.022l.045.022.022.022.022.022h.022l.022.022.045.022.067.067.022.022-.022.022.022.022.045.022.045.022.045.022.045.022.067.022.134.067.022.022.022.022.022.022.022.022.022.022.022.022.067.022.067.022h.067l.067.045.067.045.022.022.09.045.09.067h.022l.134.067.022.022.067.067.022.045.022.022h.022l.067.045.022.09.022.022.022.045v.022l.022.067.045-.067.045.022.045.09.022.112v.022l-.022.022V35.8l.022.022.022.022.067.045.045.09.045.067.022.022.022.022.067.022.022.022H46.4l.045.022.022.022.022.022h.022l.022.045v.045l.022.022.09.045.022.022h.022l.022-.022h.046l.09.045h.022v.022l.022.067.022.045v.022l.022.022.022.134-.022.09v.09l.022.067v.045l.022.067v.179l.067.022.022.045.045.022h.067l.022.045.09.067h.09l.022.022v.045l.067.112v.022H47.5l.09.022.045-.022h.112l.022.022.022.022.067.045v.022l.022.022.045.067.022.022v.112l.067.045.067.09v.09l-.022.022.022.067v.045l.022.09h.022l.022.022h.022l.022-.022h.022l.09.022v.022l.09.045.09.022.045.067.022.022-.067.179.045.112.067.067.022.045v.033l-.022.067v.022l-.022.022.067.022.022.09.067-.022.022-.022h.022l.022-.022v-.045l.022-.022.384.09.022-.022h.022v.022h.022l.022.022h.022l.067.022H49.6l.134.022h.134l.154.022.112.067-.022.09.045.067v.022l-.022.022h-.045l-.067.022.022.112h.179v.045l.022.022.09.045.022.154-.022.112-.022.022.022.022.112-.022.022.112.022.067.022.045.09.09.022.022.022.067.022.067.067.022h.067l.067.067.022.022v.022l-.022.09.022.09-.022.022-.022.022.022.134v.045l.022.022v.045l-.022.067v.045l-.022.067-.067.045.022.067.022.045-.022.022.022.022.045.045-.022.022-.022.134-.022.179.022.067-.045.09.067.067-.022.067v.058l-.022.067v.022l.022.022-.022.067-.022.022-.022.045v.112l.022.022h.022v.09l-.022.022-.022.067v.022l-.045.045.022.067-.022.045-.022.022-.067.045-.022.045-.022.045V43.4l-.022.022-.022.045-.022.022v.022l-.022.022-.067.09-.022.134.022.045-.022.022v.022l-.022.09-.022.022-.022.022L50.319,44l-.022.022-.022.022V44.2l-.022.022v.022l-.022.022-.045.045-.067.067L50.1,44.4l-.022.045v.022l-.022.09.045.022h.027l.022.045h.022l.022.067v.045l-.022.067v.022l.022.154v.112l-.022.022-.022.067-.022.022v.134l-.022.045V45.4l-.022.134v.022l-.022.022-.067.134v.022l-.022.022-.022.022-.022.045h-.045v-.022l.022-.112v-.022l.022-.112v-.022l-.022-.022-.045.134-.022.067-.022.067-.022.067v.134l.022.045v.045l.022.022.022.022.022.045.045.067.045.045.067.045.045.045.022.022.022.022.022.022.067.067.022.022.022.09.022.045H50.3l.022.022.022.022.022.022.022.067v.47l.022.022.022.022.112-.067.022-.067-.045-.022-.022-.022L50.48,47.1l-.022-.067-.022-.022.022-.134.022-.022h.087l.067.022v-.067h.02l.045.022h.067l.022-.022.022-.022.022-.067.022-.022v-.09l-.022-.045v-.022l.022-.067v-.022l.022-.022.022-.022.022-.022.022-.067h.022l.022-.045.067-.045-.022-.045V46.12l-.022-.045-.022-.067h.154l-.022-.045v-.09l-.2.067-.112-.09v-.09l.022-.022h-.2l-.067-.022-.022-.022-.022-.022h-.067l-.022-.022-.045-.022v-.045l-.022-.022v-.022l.022-.022.022-.022h.022l.291-.045.134-.022.134-.022.134.022h.045l.022.022.045.067.022.022.022.045v.022l.022.045v.1l-.022.022-.022.022v.022l.022.022.045.022L51.3,45.9l-.022.022-.022.022h-.067v.067l.067.045.134.067.112.022h.09l.022-.112-.022-.022-.045-.022-.022-.045v-.179L51.5,45.7v-.045l.2-.269.067.045h.022v.045l.022.022h.022l.067.022h.112l.045.112.022.154v.022l.022.022V45.9l-.022.112-.045.022-.022.022v.067h-.022l-.067.09v.022l.022.022v.022h-.022V46.3l-.022.022h-.022l-.067.045-.09.022-.022.022.022.022V46.5l-.022.022h-.067l-.09.09-.112.179-.067.154-.022.022L51.3,47.1l-.022.045-.067.067-.067.022-.067.045v.09l-.09.112-.022.045-.022.045v.03l-.022.045h-.067l-.067.022-.022.022-.022.022v.045h-.112l-.022-.022.022-.067v-.045l-.045-.022-.067-.022-.067-.022H50.43l.022.022.022.022.022.022h.022l.022.022.022.022.022.067.022.022v.022l.022.022v.024l.022.022.022.022v.022l.067.134v.022l-.022.022.09.067.09.09.09.09.09.154.022.022.09.112.045.045.067.09.022.045V48.9h.031l.022.022.022.022.022.022.067.022.022.045v.04l.022.067.09.154.067.09.022.045.112.2.022.154h.022l.022.022.022.067.022.022.022.067h.022V50L52,50.07l.134.224.09.179.134.224.022.022.09.154.045.045v.022l.022.022.179.269.067.067.045.09.045.112.022.022.022.154V51.7l.022.154.022.022.045-.179.022-.09.045-.067.067.067h.179l.022-.045.112-.022.022-.022-.067-.336-.09-.247-.022-.09.022-.045h.024l.022-.022h.112l.067-.112.022-.045h.022l.022-.022h.154l.067.022v.112l-.022.022h-.09l-.022.022-.022.067v.09l.022.022.112.022.022.022.022.022v.247l.022.067v.046l-.022.067.022.067-.022.022V51.6l-.022.067-.045.112-.022.022-.022.067-.022.09-.022.09v.022l-.022.022h-.022l-.022-.022h-.022v-.022l-.067-.112-.022-.022V51.9H53.5l-.022-.022h-.045l-.067-.022-.045.022h-.051V51.9H53.25l-.022.022v.112l.134.112.022.022.022.022.022.022.022.022.023.022.022.067v.022l.022.09v.022l.022.022v.045l.023.022v.045l.022.022v.09l.045.112.022.112v.09l.022.067v.022h.045l.045-.022h.022l.022-.022.022-.045.022-.067.022-.022.067-.022.09.022.045.022H54.1v.042l-.022.045.022.045.067-.022.067.022.067.022v.048l.022.022L54.3,53.2l.022.022.045.022.09.045.067.045.067.045.022.022.022.045v.022l.045.067.022.022v.022l.09.067v.05l.022.045.022.045.022.022.045.112.022.022.067.179v.045l.022.022.022.134v.022l.022.067v.045l.022.112V54.6l.022.112v.069l.022.045.022.067v.022l.022.067v.022l.045.2v.045l.022.045.179.358v.022l.022.022h.022l.022.022.022.022v.179l.022.045v.022l.022.022.022.067.022.112v.022l.045.022.022.022.112.224v-.025H55.8l.022.022V56.5h.022l.022-.067.022-.045v-.045l.022-.067.045-.045L56,56.213h.09l.045.022.134.022h.022l.179-.067H56.6l.022.022v.067l.022.022.022-.022.067-.022H56.8l.022.022.067.067L57,56.5l.067-.022.022-.022.022.022.112.067h.022l.022.045.022.022.134.067h.022l.022.022.022.022.022.067.022.045.022.045-.022.022-.09.045.022.022.022.022.045.022.022.045v.134l.045.022.022-.022.2.154.067.112.045.022.09.112.067.112v.067l.045.067v.067l.022.067.067.067.022.045.022.022-.022.112v.067l.09.112.067.045.045.067.134.291v.022l-.022.022v.067l.045.022h.067l.022.045.045.09-.022.045-.022.045-.067-.022-.022.022-.022.045-.022.045.022.022-.022.067-.022.022v.022l-.022.022v.022l-.022.067v.067l-.022.022v.154l.022.022.067.045.045.09.022.045.022.112.022.022.067.022.022.022.09.09.067.045.022-.022.112-.045h.134l.067.022H59.3l.134-.067h.134l.154-.111.067.022L59.815,60l-.022-.022v-.045l.112-.09h.067l.067-.022.045.022.022.022.022.022.022.022.045-.022.09-.045.179.022.022.022.022.045v.022l.022.022.067-.022h.022l.022.022.067.022v-.045l.022-.067.022-.022.022-.022h.075l.045-.022h.067Z" transform="translate(-6.372 -6.784)" fill="#fff"/>
      <path id="Path_394" data-name="Path 394" d="M72.7,68.876l-.022.022.022.045v.067h.022l-.022.045-.022.022V69.1l-.022.045-.022.045H72.61l-.022.022h-.022l-.045-.022-.067-.022-.045-.022v.022l.045.112.022.067v.045l-.05.05.028-.014.022-.022H72.5l.022-.022.045-.022.09-.112.022-.022L72.7,69.2l.022-.022.067-.09v-.022l.022-.022v-.022L72.833,69v-.022l-.022-.045v-.067l.022-.022.007-.013h-.075Z" transform="translate(-16.774 -15.945)" fill="#fff"/>
      <path id="Path_395" data-name="Path 395" d="M69.583,71.957l.045-.022h.022l.022-.022H69.65Z" transform="translate(-16.119 -16.659)" fill="#fff"/>
      <path id="Path_396" data-name="Path 396" d="M72.409,69.662h0V69.64l.017-.017-.017.008Z" transform="translate(-16.774 -16.128)" fill="#fff"/>
      <path id="Path_397" data-name="Path 397" d="M73.394,67.57l.022-.022.045-.022v-.09l.022-.022.067-.154.067-.09.09-.291.045-.09-.022-.179h-.022l-.045.067V66.7l-.022.045v.025l.022.022-.022.067-.022.067-.022.134v.022l-.022.022-.022.045-.022.022-.022.022-.022.022h-.022l-.022.022-.022.022-.022.022v.025h-.022v.022l-.022.045v.067l-.022.022v.022l-.022.022.065.041-.067.112v.045l-.045.045-.022.022-.022.022-.022.022-.067.045h-.045l-.022-.022-.022-.022-.112.022-.022.022.134.067.022.022.022.022v.107l.045-.085.022-.022.045-.067.022-.022.022-.045.045-.09L73.3,67.7v-.022l.022-.022v-.022l.045-.022.022-.022Z" transform="translate(-16.888 -15.43)" fill="#fff"/>
      <path id="Path_398" data-name="Path 398" d="M74,65.421l-.011-.011,0,.011Z" transform="translate(-17.139 -15.152)" fill="#fff"/>
    </g>
  </g>
</svg>
