<?xml version="1.0" encoding="UTF-8"?>
<svg xmlns="http://www.w3.org/2000/svg" xmlns:xlink="http://www.w3.org/1999/xlink" width="800px" height="806px" viewBox="0 0 800 805" version="1.1" preserveAspectRatio="none" xml:space="preserve">
<g id="surface1">
<path style=" stroke:none;fill-rule:evenodd;fill:rgb(13.333333%,13.333333%,13.333333%);fill-opacity:1;" d="M 649.582031 139.996094 C 642.699219 126.085938 625.492188 106.320312 609.644531 111.808594 C 608.71875 109.988281 611.644531 108.234375 614.546875 106.65625 C 608.421875 110.464844 592.890625 102.851562 607.339844 99.800781 C 585.640625 64.441406 541.554688 70.414062 536.128906 41.871094 C 521.890625 50.585938 518.09375 28.859375 508.210938 25.304688 C 504.203125 29.023438 499.472656 35.292969 497.089844 34.523438 C 495.878906 22.84375 482.105469 19.722656 469.738281 16.128906 C 466.171875 16.085938 462.660156 15.867188 459.183594 15.496094 C 458.996094 16.222656 458.625 16.890625 458.109375 17.4375 C 457.84375 16.671875 457.503906 15.933594 457.101562 15.230469 C 445.167969 13.816406 433.585938 10.277344 422.902344 4.789062 C 419.699219 3.023438 416.363281 1.476562 413 -0.00390625 C 368.957031 8.917969 327.296875 11.097656 285.496094 21.566406 C 284.953125 22.730469 284.226562 23.800781 283.339844 24.730469 C 274.511719 23.679688 256.472656 36.707031 251.328125 38.988281 C 236.183594 39.585938 213.941406 49.257812 190.492188 62.996094 C 168.996094 77.976562 150.179688 96.261719 120.25 122.691406 C 107.601562 133.867188 98.359375 141.550781 89.261719 149.046875 C 88.453125 151.0625 87.308594 152.929688 85.882812 154.566406 C 61.746094 180.855469 52.542969 211.144531 37.085938 237.195312 C 37.382812 236.71875 33.226562 235.015625 32.171875 237.425781 C 31.445312 239.179688 36.421875 239.203125 35.78125 240.851562 C 29.957031 256.621094 19.554688 275.230469 13.1875 288.789062 C 15.472656 300.964844 11.90625 314.355469 8.925781 329.441406 C 8.117188 333.394531 5.695312 349.207031 -0.00390625 355.671875 C 1.617188 358.71875 5.667969 354.460938 8.59375 353.851562 C -1.488281 374.253906 14.875 392.285156 2.929688 408.085938 C 7.007812 418.558594 5.332031 431.117188 7.347656 442.09375 C 8.980469 451.195312 2.054688 470.078125 3.183594 477.75 C 3.59375 480.589844 9.558594 480.230469 9.234375 483.511719 C 8.675781 487.695312 2.464844 494.046875 2.84375 497.421875 C 2.8125 496.644531 8.507812 492.628906 9.058594 493.347656 C 10.59375 495.175781 8.28125 506.9375 9.964844 514.015625 C 10.046875 514.089844 15.972656 508.03125 16.097656 510.03125 C 17.234375 518.660156 5.058594 543.871094 21.835938 540.210938 C 7.144531 551.511719 30.167969 550.777344 12.984375 556.699219 C 23.097656 573.109375 32.609375 573.109375 25.929688 598.632812 C 37.628906 589.949219 38.199219 611.628906 36.640625 618.828125 C 56.214844 618.765625 59.980469 666.878906 77.480469 667.679688 C 68.664062 686.265625 104.859375 687.117188 96.476562 705.554688 C 117.765625 704.679688 121.933594 734.683594 147.386719 734.191406 C 145.34375 745.828125 174.148438 758.515625 184.964844 759.945312 C 175.328125 766.621094 185.847656 773.425781 189.796875 769.453125 C 188.699219 767.652344 185.890625 766.675781 188.566406 763.375 C 222.007812 797.066406 277.960938 782.582031 305.300781 805.003906 C 314.023438 797.644531 314.035156 803.703125 318.800781 798.046875 C 343.054688 814.519531 359.335938 793.019531 388.464844 799.800781 C 389.875 800.949219 413.730469 789.507812 413.023438 798.265625 C 473.851562 769.347656 532.203125 768.074219 612.378906 700.027344 C 614.21875 701.035156 615.335938 703.792969 618.515625 700.964844 C 678.84375 647.988281 730.515625 593.957031 758.832031 541.667969 C 777.015625 508.015625 791.648438 465.15625 792.0625 434.429688 C 803.027344 417.691406 786.222656 406.980469 800.175781 382.527344 C 793.230469 378.1875 790.148438 372.414062 799.207031 361.773438 C 790.25 350.050781 793.15625 349.609375 779.886719 343.398438 C 791.355469 323.179688 768.816406 318.335938 780.546875 304.214844 C 764.203125 290.75 751.578125 270.425781 750.589844 255.914062 C 747.480469 258.996094 744.316406 261.832031 743.210938 258.890625 C 745.757812 256.21875 747.125 256.765625 749.4375 254.816406 C 745.546875 250.550781 741.988281 245.269531 734.78125 250.863281 C 740.367188 232.402344 713.25 193.214844 700.242188 188.199219 C 702.90625 185.074219 705.832031 185.78125 705.242188 182.960938 C 692.246094 186.441406 679.5 157.71875 661.527344 161.179688 C 667.523438 145.566406 651.097656 143.148438 649.570312 139.996094 "/>
</g>
</svg>
