<svg xmlns="http://www.w3.org/2000/svg" width="2071.001" height="640.734" viewBox="0 0 2071.001 640.734">
  <path id="Path_84452" data-name="Path 84452" d="M1186,640.734h-.018a5.264,5.264,0,0,1-2.222-.552,20.694,20.694,0,0,0-6.23-1.583l-.508-.074-.126.008c-.1.005-.218.012-.331.012a1.181,1.181,0,0,1-.919-.34,32.2,32.2,0,0,0-7.679-1.121,19.147,19.147,0,0,0-3.669.346,50.4,50.4,0,0,1-9.6.965,40.918,40.918,0,0,1-7.36-.655c-3.03-.557-6.255-1.127-9.437-1.45a17.565,17.565,0,0,1-4.753-1.429,16.108,16.108,0,0,0-6.028-1.563c-.213,0-.428.008-.641.023h-.065c-.592,0-1.1-.579-1.691-1.249a4.217,4.217,0,0,0-2.437-1.726h-3.262c-1.1,0-2.408,0-3.729-.041h-.027c-.073,0-.161.006-.239.011-.094.006-.185.011-.275.011-.184,0-.441-.02-.547-.193s-.051-.464.167-.891a4.152,4.152,0,0,1,3.291-1.2c.282,0,.582.01.823.018h.02c.266.008.54.017.811.017a6.258,6.258,0,0,0,1.713-.193,4.227,4.227,0,0,0-.549-1.459c-.563-1.094-1.146-2.224.686-3.184l.222-.037h.029l.817-.136a1.4,1.4,0,0,1,.965-.432,2.688,2.688,0,0,1,1.181.4,3.129,3.129,0,0,0,1.027.392l.885-.312v.008c.2-.5.586-.533,1-.568a1.086,1.086,0,0,0,.968-.442,1.309,1.309,0,0,0-1.43-1.088,4.243,4.243,0,0,0-.595.049,2.816,2.816,0,0,1-.4.029,5.241,5.241,0,0,1-2.365-.776,5.22,5.22,0,0,0-2.354-.776h-.165c-.227,0-.592-.434-.65-.706-.09-.426.2-.584.488-.737a1.975,1.975,0,0,0,.285-.174,2.192,2.192,0,0,1,1.436-.4c.108,0,.218,0,.323.005h.03c.094,0,.211.005.323.005a3.431,3.431,0,0,0,.607-.044c.35-2.125,1.851-2.489,3.273-2.564l.163-.008h.033a1.777,1.777,0,0,0,1.264-.35.933.933,0,0,0,.179-.736c-.07-.732-.84-.817-1.415-.817-.082,0-.17,0-.269.005-2.208.082-4.507.157-6.536.223l-2.043.067a1.4,1.4,0,0,1-.871.309,3.032,3.032,0,0,1-1.256-.386c-.176-.083-.343-.162-.507-.222a2.426,2.426,0,0,0-.812-.171.817.817,0,0,0-.689.3,1.809,1.809,0,0,0-.088,1.51,7.491,7.491,0,0,1-.047,4.2c-.173.247-.385.5-.589.74l-.005.007c-.563.668-1.146,1.359-1.01,2.066.1.522.582,1,1.466,1.475l1.773-.172,1.359-.132a6.122,6.122,0,0,1-3.794,1.461c-.109,0-.223,0-.337-.009a2.575,2.575,0,0,1-1.429.432,5.724,5.724,0,0,1-1.947-.477,6.438,6.438,0,0,0-1.745-.471q-.057.406-.115.813l-.022.157a7.06,7.06,0,0,1-1.495,4.538c-.178.29-.381.619-.563.94a9.889,9.889,0,0,1-2.236.222c-.615,0-1.242-.036-1.848-.072s-1.229-.072-1.854-.072c-.407,0-.776.016-1.126.048l-4.509.886-.578.114a16.871,16.871,0,0,1-3.036.23c-.472,0-.964-.01-1.359-.018-.446-.008-.907-.017-1.358-.017a13.909,13.909,0,0,0-4.255.534c-.748.061-1.5.167-2.236.27a25.076,25.076,0,0,1-3.449.322h-.041a1.215,1.215,0,0,1,.963,1.423l-.005.028c-.075.881-.656.906-1.27.933h-.173c-.117,0-.238,0-.354-.009h-.031c-.113,0-.252-.01-.386-.01a2.074,2.074,0,0,0-1.038.225,9.008,9.008,0,0,1-2.458.346c-2.453,0-4.713-.969-7.35-2.425-.554-1.187-1.629-1.4-2.67-1.616l-.064-.013a2.167,2.167,0,0,0-.4-.052c-.114,0-.181.023-.2.07-.045.089.076.249.2.419s.267.355.225.462c-.018.046-.068.075-.151.089a1.791,1.791,0,0,1-1.053.392,1.678,1.678,0,0,1-1.054-.417,9.347,9.347,0,0,1-2.737.352c-1.528.045-3.108.091-4.4,1.393a5.679,5.679,0,0,1-3.958,1.481c-4.017.329-8.573.7-13.026.7-1.468,0-2.834-.039-4.178-.118-.09-.005-.188-.008-.3-.008h-.673a2.452,2.452,0,0,1-1.5-.386,2.813,2.813,0,0,1-2.107-1.169,4.731,4.731,0,0,0-1.39-.177c-.324,0-.652.019-.969.037s-.655.038-.978.038a3.761,3.761,0,0,1-2.334-.635h-.056c-1.177.053-2.394.107-2.668,2.124a5.512,5.512,0,0,1-.68-1.219c-.251-.566-.448-1.011-.967-1.189a3.663,3.663,0,0,0-1.536-2.966,5.623,5.623,0,0,0-2.915-.588c-.282,0-.571.007-.792.013h-.349c-.391,0-.788-.016-1.172-.03h-.029c-.379-.014-.77-.029-1.155-.029h-.349c-.156,0-.318.006-.473.008h-.01c-.981.01-1.907.021-2.239.582-.274.466-.095,1.272.549,2.464s-.475,1.963-1.578,2.583a4.049,4.049,0,0,1-1.994.588c-1.495,0-2.654-1.092-3.774-2.148-.4-.372-.8-.757-1.222-1.09a3.976,3.976,0,0,0-1.233-.33c-1.022-.161-2.079-.328-2.261-2.148-.032-.309-1.844-.925-3.359-1.388a79.76,79.76,0,0,1-10.535.545c-1.307.01-2.656.019-4,.055-.139,0-.28.005-.421.005a20.789,20.789,0,0,1-5.025-.674,6.89,6.89,0,0,1-1.343.144,3.815,3.815,0,0,1-3.8-2.889H966.5c-.516-.009-1.047-.019-1.328-.655.393-.692.735-1,1.11-1a1.112,1.112,0,0,1,.757.4,7.7,7.7,0,0,0,.56-1.614v-.005a11.029,11.029,0,0,1,.356-1.166,1.565,1.565,0,0,1-1.251.625,2.1,2.1,0,0,1-.411-.044h-.031c.173.6.184.995.034,1.193a.477.477,0,0,1-.407.163,3.27,3.27,0,0,1-.716-.125h-.007a3.225,3.225,0,0,0-.71-.123.568.568,0,0,0-.312.074c-.047-.083-.1-.166-.146-.246l-.008-.014a2.236,2.236,0,0,1-.421-1.068l-.047.005-.061.007a3.789,3.789,0,0,0-.9-.1,9.267,9.267,0,0,0-1.668.2h-.005a9.4,9.4,0,0,1-1.664.2c-.1,0-.2,0-.3-.01h-.042c-.138,0-.28.008-.414.016h-.014c-.129.007-.262.014-.392.014a1.445,1.445,0,0,1-1.231-.524l-.884-.01-1.345.4-.445.132-1.861.551a2.372,2.372,0,0,1-1.684.515,5.014,5.014,0,0,0-.819.077c-.833,2.7-2.271,4.075-4.276,4.075A8.028,8.028,0,0,1,941.485,627c-.417.292-.868.556-1.3.811l-.012.007a9.217,9.217,0,0,0-2.431,1.8,4.569,4.569,0,0,0-1.026,3.259c.043,1.417-1.68,2.135-2.423,2.378-.263.063-.536.149-.8.232a5.49,5.49,0,0,1-1.56.338c-.914,0-1.493-.624-1.823-1.965a1.215,1.215,0,0,0-1.111-.922.859.859,0,0,0-.554.2,4.614,4.614,0,0,1-3.058,1.055,13.564,13.564,0,0,1-2.4-.293,13.661,13.661,0,0,0-2.358-.292c-.376,0-.758-.018-1.127-.033h-.017c-.374-.016-.8-.034-1.209-.034a9,9,0,0,0-1.42.1,4.163,4.163,0,0,1-1.491.258,10.9,10.9,0,0,1-2.027-.26h-.006a10.922,10.922,0,0,0-2.053-.264,4.665,4.665,0,0,0-.708.051l-.323.047a3.1,3.1,0,0,0-2.382,1.112,6.913,6.913,0,0,1-5.727,2.987,11.827,11.827,0,0,1-3.977-.792,2.737,2.737,0,0,0-.938-.19,1.841,1.841,0,0,0-.772.171,7.793,7.793,0,0,1-3.2.78,5.635,5.635,0,0,1-4.068-1.8,4.088,4.088,0,0,0-3.039-1.334,10.3,10.3,0,0,0-2.816.55h-.007a13.023,13.023,0,0,1-2.249.518,4.486,4.486,0,0,0-1.166.352c-.165.066-.35.141-.529.2.293,1.149,1.138,1.354,2.033,1.571a7.649,7.649,0,0,1,.984.286,4.293,4.293,0,0,1-2.359.831,3.4,3.4,0,0,1-1.7-.482l-.348-.055-.569-.091c-.327-.011-.661-.026-1-.043h-.025c-.512-.024-1.042-.049-1.561-.049-.218,0-.421,0-.622.013h-.171c-.407,0-.652-.073-.748-.224-.125-.194.013-.495.147-.786a1.68,1.68,0,0,0,.2-.6l-.09-.128-.11-.158-.077-.11-.122-.175c-.673-.009-1.342-.023-2.084-.038-1.135-.023-2.309-.048-3.467-.048-.568,0-1.09.006-1.594.017h-.143c-.2,0-.4-.01-.6-.018h-.01c-.2-.009-.415-.018-.62-.018a2.513,2.513,0,0,0-2.481,1.388,1.524,1.524,0,0,1-1.382.633,1.645,1.645,0,0,1-1.2-.4,6.927,6.927,0,0,0-2.685-1.738,7.732,7.732,0,0,1-2.274-1.333,23.867,23.867,0,0,0-7.1-2.866,1.115,1.115,0,0,1-1.026-.6.457.457,0,0,1,.156-.528,2.347,2.347,0,0,0,.6-1.6c.108-.878.21-1.706,1.4-1.807,1.962-.168,3.957-.354,5.887-.534l.119-.011,2.573-.239,1.077-.007h.36l2.151-.012a1.543,1.543,0,0,1,1.029-.362,4.449,4.449,0,0,1,.974.15,4.534,4.534,0,0,0,.989.152,1.588,1.588,0,0,0,.83-.217,3.1,3.1,0,0,1,.383-.18c.346-.143.7-.292.789-.723a1.05,1.05,0,0,0,.013-.331,43.313,43.313,0,0,1-6.679.763c-2.461.045-4.96.187-7.377.323h-.025c-2.3.13-4.667.264-7,.317a1.291,1.291,0,0,1,.495,1c-.011,1-.794,1.113-1.382,1.113h-.031a.819.819,0,0,0-.14-.012,2.3,2.3,0,0,0-.558.1,2.32,2.32,0,0,1-.56.1c-.383,0-.62-.239-.766-.774a4.174,4.174,0,0,1,.307-1.5h-1.094c-5.495,0-11.084.3-16.489.586h-.012c-3.073.164-6.25.334-9.409.447-.207.008-.423.011-.644.011-1.153,0-2.323-.1-3.455-.2s-2.3-.206-3.463-.206a14.284,14.284,0,0,0-2.635.223,7.873,7.873,0,0,1-.9.191,23.886,23.886,0,0,1-4.291.279h-.972c-.747,0-1.548.007-2.337.056-3.209.449-6.484.68-9.651.9-1.13.08-2.3.162-3.448.253-.565.045-1.136.111-1.689.175h-.023a26.128,26.128,0,0,1-2.983.232,8.008,8.008,0,0,1-4.148-1.016.7.7,0,0,0-.35-.08,3.59,3.59,0,0,0-1.128.292,14.147,14.147,0,0,1-5.081,1.078,9.27,9.27,0,0,1-3.359-.614,28.936,28.936,0,0,1-3.1.214,9.862,9.862,0,0,1-4.292-.855c-.34,0-.7-.006-1.109-.006-.618,0-1.269.005-1.792.009h-.062c-.554,0-1.128.008-1.691.008a42.4,42.4,0,0,1-6.526-.4c-2.432-.378-4.359-.994-5.855-2.768h-.036a18.775,18.775,0,0,1-2.371.131l-6.588.363-.323.018-.2.011a7.718,7.718,0,0,0-2.921-.521,20.5,20.5,0,0,0-3.048.3l-.52.08a24.581,24.581,0,0,1-3.692.378,9.358,9.358,0,0,1-2.508-.318,25.375,25.375,0,0,0-3.484-.222c-1.982,0-3.989.184-5.93.362l-.138.013c-.484.044-.984.09-1.476.131a3.409,3.409,0,0,0-.5.1,3.336,3.336,0,0,1-.736.119c-.539,0-.858-.32-1-1.005l-.351.031-.106.009-.142.013-.25.022a14.551,14.551,0,0,1-2.652.229,24.8,24.8,0,0,1-3.711-.318,29.166,29.166,0,0,0-4.4-.291c-1.374,0-2.77.063-4.119.125h-.03c-1.34.061-2.726.124-4.091.124-.5,0-.956-.008-1.406-.024l-3.933.542-3.934.541a4.651,4.651,0,0,1-2.836.839,15.754,15.754,0,0,1-2.135-.2l-.1-.014c-.292.041-.6.1-.865.157a7.864,7.864,0,0,1-1.535.209,2.587,2.587,0,0,1-2-.866,3.675,3.675,0,0,0-.951-.122,6.978,6.978,0,0,0-2.551.625c-1.945,1.4-4.172,1.62-6.327,1.832-.855.084-1.74.172-2.6.332l-.723.237H652.7a6.66,6.66,0,0,0-1.077.172,5.945,5.945,0,0,1-1.216.175,2.1,2.1,0,0,1-1.373-.476l-.059.009a4.372,4.372,0,0,1-1.21-1.389c-.534-.815-1.084-1.657-2.169-1.657a2.526,2.526,0,0,0-.527.059,3.578,3.578,0,0,0-.167,1.375v.006a2.77,2.77,0,0,1-.381,1.766l-2.014.5c-.18.045-.365.1-.529.158a3.815,3.815,0,0,1-1.086.241c-.633,0-1.005-.451-1.171-1.419l-.43-.183-.43-.183h-.073l-1.208.078-.127.008-1.054.068a8.479,8.479,0,0,1-3.41,1.953,1.575,1.575,0,0,1-.59.133,1.077,1.077,0,0,1-.929-.573l-.853-.065-.889-.068a.357.357,0,0,1-.288.286c-.841,1.013-1.57,1.485-2.293,1.485a2.472,2.472,0,0,1-1.747-.92,3.038,3.038,0,0,1-1.935-.959,7.931,7.931,0,0,0-.663-.523,4.231,4.231,0,0,0-3.367-1.576,6.613,6.613,0,0,0-1.528.192,1.988,1.988,0,0,1-1.126.419,1.749,1.749,0,0,0-1.331.642,1.121,1.121,0,0,1-.888.524.965.965,0,0,1-.635-.256c-.549-.481-.272-.876,0-1.259a1.713,1.713,0,0,0,.3-.57l-.338-.187-.2-.112-1.3-.722a1.54,1.54,0,0,0-.426-.066,1.031,1.031,0,0,0-.9.517,2.292,2.292,0,0,1-2.006,1.424,5.273,5.273,0,0,1-1.763-.444,5.5,5.5,0,0,0-1.7-.444.429.429,0,0,1-.273.138.207.207,0,0,1-.1-.026c-.181.06-.365.128-.527.188a4.906,4.906,0,0,1-1.642.4,2.1,2.1,0,0,1-1.485-.631,1.045,1.045,0,0,0-1.079-.672c-.149,0-.305.014-.456.027l-.1.009-.71.761-.26.278a8.633,8.633,0,0,1-.156,1.036,3.389,3.389,0,0,0,.357,2.906.961.961,0,0,1,.17.908,1.618,1.618,0,0,1-1.135.884c-.925.243-1.871.433-2.786.617l-.089.018c-.359.072-.729.147-1.093.224a2.024,2.024,0,0,1-.372.04c-.761,0-.768-.637-.775-1.253-.006-.568-.012-1.154-.6-1.245L591.228,631l-.6-.245-1.588-.148-.065-.006-.367-.034-.827.06h-.048l-.726.052a2.217,2.217,0,0,0-.213,2.289,3.014,3.014,0,0,0,.552.25c.358.135.728.274.868.6a1.3,1.3,0,0,1-.108,1,6.44,6.44,0,0,1-2.473.409c-.336,0-.684-.012-.991-.023h-.008c-.323-.012-.656-.024-.992-.024-.314,0-.591.011-.847.033l-.888.165a2.68,2.68,0,0,1-1.218.436c-.689,0-.765-.755-.839-1.485a2.737,2.737,0,0,0-.295-1.217l-.481-.458-.615-.584c-.438.027-.882.095-1.31.16a11.544,11.544,0,0,1-1.7.172,3.823,3.823,0,0,1-1.928-.466l-1.953-.393a.893.893,0,0,1-.218.026,1.847,1.847,0,0,1-.778-.227,5.592,5.592,0,0,0-.671-.034,2.115,2.115,0,0,1-1.759-.584,8.92,8.92,0,0,1-1.087-.456,4.753,4.753,0,0,0-2-.609,2.451,2.451,0,0,0-.676.1l-.534.17q-.685.371-1.371.737l.012.029.005.014c-1.064.763-1.41,1.863-1.121,3.568.022.13.055.265.091.409.145.59.309,1.258-.386,1.472a2.421,2.421,0,0,1-.693.086c-.6,0-1.3-.157-1.424-.449a3.9,3.9,0,0,0-2.565-2.112,5.813,5.813,0,0,1-1.7-.911,6.758,6.758,0,0,0-1.145-.1,9.511,9.511,0,0,0-2.886.5c-.089.1-.191.236-.29.367l-.007.009c-.205.272-.415.551-.526.551h-.022a8.389,8.389,0,0,0-3.178-.5c-.418,0-.854.013-1.24.025h-.009c-.4.012-.819.025-1.227.025a6.625,6.625,0,0,1-5-1.7.7.7,0,0,0-.393-.185.132.132,0,0,0-.067.015,3.644,3.644,0,0,1-1.907.549,7.592,7.592,0,0,1-3-.876h-.008a7.6,7.6,0,0,0-3.016-.88c-.071,0-.142,0-.211.006-3.057.179-5.53,1.878-7.921,3.521l-.018.012c-.329.226-.669.46-1,.685a7.265,7.265,0,0,1-3.722,1.533,2.662,2.662,0,0,0-2.464,1.136,3.7,3.7,0,0,1-3.236,1.979,5.187,5.187,0,0,1-2.229-.552,20.706,20.706,0,0,0-6.232-1.583l-.506-.074-.127.008c-.11.006-.221.012-.329.012a1.177,1.177,0,0,1-.92-.341,32.269,32.269,0,0,0-7.68-1.12,19.214,19.214,0,0,0-3.668.345,50.392,50.392,0,0,1-9.6.965,40.9,40.9,0,0,1-7.359-.655c-3.167-.581-6.271-1.13-9.437-1.45a17.6,17.6,0,0,1-4.753-1.43A16.1,16.1,0,0,0,453.334,632c-.213,0-.43.008-.643.023h-.066c-.592,0-1.1-.579-1.69-1.25a4.219,4.219,0,0,0-2.437-1.726h-3.263c-1.107,0-2.418,0-3.744-.041h-.027c-.067,0-.145.005-.228.01h-.016c-.087.005-.18.011-.271.011-.184,0-.441-.02-.547-.193s-.051-.464.167-.891a4.149,4.149,0,0,1,3.29-1.2c.274,0,.554.009.824.018h.019c.266.008.54.017.812.017a6.265,6.265,0,0,0,1.713-.193,4.266,4.266,0,0,0-.549-1.459c-.564-1.093-1.146-2.224.685-3.185l.782-.13.286-.048a1.4,1.4,0,0,1,.965-.432,2.689,2.689,0,0,1,1.18.4,3.12,3.12,0,0,0,1.028.393l.065-.023.819-.289v.008c.2-.5.586-.533,1-.568a1.088,1.088,0,0,0,.969-.442,1.31,1.31,0,0,0-1.43-1.089,4.209,4.209,0,0,0-.594.049,2.816,2.816,0,0,1-.4.029,5.234,5.234,0,0,1-2.364-.776,5.226,5.226,0,0,0-2.355-.776h-.169c-.227,0-.591-.434-.648-.706-.09-.426.2-.584.487-.737a1.975,1.975,0,0,0,.285-.173,2.2,2.2,0,0,1,1.443-.406h.346c.094,0,.21.005.32.005a3.453,3.453,0,0,0,.609-.045c.35-2.125,1.85-2.488,3.272-2.563l.156-.007h.039a1.779,1.779,0,0,0,1.266-.35.935.935,0,0,0,.178-.735c-.068-.733-.841-.818-1.417-.818-.082,0-.169,0-.266.005-2.116.078-4.267.149-6.348.217H446.8l-2.164.071a1.4,1.4,0,0,1-.87.309,3.039,3.039,0,0,1-1.256-.387c-.175-.083-.341-.161-.506-.222a2.437,2.437,0,0,0-.812-.171.818.818,0,0,0-.69.3,1.809,1.809,0,0,0-.089,1.51,7.482,7.482,0,0,1-.047,4.2c-.172.246-.382.5-.585.737l-.009.01c-.563.668-1.145,1.358-1.008,2.064.1.521.58,1,1.465,1.474l.686-.066.486-.047.171-.017,1.79-.173a6.124,6.124,0,0,1-3.8,1.462c-.106,0-.219,0-.334-.009a2.574,2.574,0,0,1-1.428.432,5.737,5.737,0,0,1-1.945-.477,6.492,6.492,0,0,0-1.746-.472c-.041.3-.083.594-.126.891l-.011.079a7.061,7.061,0,0,1-1.5,4.538l-.01.016c-.185.3-.378.613-.554.924a9.872,9.872,0,0,1-2.235.222c-.61,0-1.23-.036-1.83-.071h-.022c-.608-.035-1.236-.072-1.855-.072-.407,0-.774.016-1.121.047l-4.507.886-.579.114a16.761,16.761,0,0,1-3.034.229c-.465,0-.955-.009-1.349-.017h-.049c-.434-.009-.883-.017-1.324-.017a13.913,13.913,0,0,0-4.251.533c-.741.06-1.492.166-2.218.268h-.014a24.852,24.852,0,0,1-3.455.323h-.04a1.216,1.216,0,0,1,.964,1.425l-.006.026c-.075.882-.655.908-1.269.934h-.172c-.128,0-.265-.005-.375-.009h-.016c-.126,0-.256-.01-.383-.01a2.072,2.072,0,0,0-1.037.225,8.994,8.994,0,0,1-2.457.345c-2.452,0-4.712-.969-7.351-2.424-.553-1.188-1.629-1.406-2.669-1.617l-.065-.013a2.145,2.145,0,0,0-.4-.052c-.114,0-.181.023-.2.069-.045.09.077.252.206.423s.266.353.223.46c-.018.046-.068.075-.15.089a1.791,1.791,0,0,1-1.053.392,1.685,1.685,0,0,1-1.055-.417,9.33,9.33,0,0,1-2.736.352c-1.528.045-3.107.091-4.4,1.394a5.68,5.68,0,0,1-3.958,1.48c-4.018.33-8.573.7-13.026.7-1.469,0-2.836-.038-4.18-.118-.091-.005-.189-.008-.3-.008h-.675a2.454,2.454,0,0,1-1.5-.385,2.82,2.82,0,0,1-2.106-1.169,4.724,4.724,0,0,0-1.389-.177c-.324,0-.652.019-.969.037h-.007c-.323.019-.651.038-.974.038a3.759,3.759,0,0,1-2.333-.635h-.056c-1.177.053-2.394.109-2.668,2.125a5.487,5.487,0,0,1-.681-1.22c-.25-.564-.448-1.01-.966-1.187a3.667,3.667,0,0,0-1.536-2.966,5.624,5.624,0,0,0-2.915-.588c-.283,0-.572.007-.793.012h-.348c-.389,0-.779-.015-1.156-.03h-.017c-.387-.015-.787-.03-1.181-.03h-.351c-.157,0-.318.006-.474.008h-.009c-.981.01-1.907.021-2.239.583-.275.466-.1,1.273.547,2.464s-.474,1.962-1.577,2.582a4.038,4.038,0,0,1-1.994.588c-1.5,0-2.655-1.093-3.776-2.15-.393-.37-.8-.754-1.215-1.084a3.994,3.994,0,0,0-1.233-.329c-1.022-.161-2.079-.327-2.262-2.147-.032-.308-1.844-.924-3.359-1.387a79.6,79.6,0,0,1-10.537.544c-1.306.009-2.655.019-3.995.054-.146,0-.292.006-.434.006a20.73,20.73,0,0,1-5.011-.674,6.882,6.882,0,0,1-1.343.144,3.813,3.813,0,0,1-3.8-2.889h-.138c-.512-.01-1.041-.02-1.322-.655.393-.692.736-1,1.111-1a1.11,1.11,0,0,1,.757.4,7.653,7.653,0,0,0,.561-1.618,10.946,10.946,0,0,1,.356-1.165,1.561,1.561,0,0,1-1.25.625,2.049,2.049,0,0,1-.412-.044h-.031c.173.6.184.995.035,1.193a.472.472,0,0,1-.408.163,3.283,3.283,0,0,1-.716-.125h-.006a3.292,3.292,0,0,0-.711-.123.571.571,0,0,0-.313.074c-.049-.087-.1-.174-.153-.258a2.244,2.244,0,0,1-.422-1.07l-.054.006-.054.006a3.789,3.789,0,0,0-.9-.1,9.234,9.234,0,0,0-1.664.2h0a9.419,9.419,0,0,1-1.666.2c-.1,0-.2,0-.3-.01h-.038c-.123,0-.25.007-.373.013h-.066c-.13.007-.265.015-.4.015a1.442,1.442,0,0,1-1.23-.524h-.407l-.473-.005-3.411,1.009-.241.071a2.37,2.37,0,0,1-1.685.516,4.99,4.99,0,0,0-.818.076c-.832,2.7-2.271,4.075-4.276,4.075a8.028,8.028,0,0,1-4.029-1.391c-.419.293-.874.56-1.313.817a9.2,9.2,0,0,0-2.429,1.8,4.563,4.563,0,0,0-1.026,3.259c.043,1.416-1.68,2.135-2.423,2.379-.266.064-.539.15-.8.233a5.5,5.5,0,0,1-1.556.336c-.914,0-1.493-.624-1.823-1.964a1.216,1.216,0,0,0-1.111-.922.86.86,0,0,0-.555.2,4.616,4.616,0,0,1-3.058,1.055,13.558,13.558,0,0,1-2.4-.293,13.672,13.672,0,0,0-2.359-.292c-.374,0-.755-.018-1.122-.034h-.017c-.4-.017-.809-.034-1.216-.034a8.986,8.986,0,0,0-1.419.1,4.143,4.143,0,0,1-1.49.259,10.818,10.818,0,0,1-2.028-.261h-.006a10.907,10.907,0,0,0-2.052-.264,4.686,4.686,0,0,0-.709.052l-.281.041-.043.006a3.1,3.1,0,0,0-2.379,1.112,6.917,6.917,0,0,1-5.728,2.986,11.794,11.794,0,0,1-3.976-.791,2.763,2.763,0,0,0-.937-.191,1.824,1.824,0,0,0-.772.172,7.792,7.792,0,0,1-3.2.779,5.632,5.632,0,0,1-4.069-1.8,4.09,4.09,0,0,0-3.039-1.334,10.3,10.3,0,0,0-2.817.551,13.211,13.211,0,0,1-2.255.52,4.445,4.445,0,0,0-1.162.35c-.191.077-.361.145-.533.2.293,1.15,1.139,1.354,2.034,1.571a7.655,7.655,0,0,1,.982.286,4.3,4.3,0,0,1-2.359.831,3.4,3.4,0,0,1-1.7-.482l-.317-.051-.6-.1c-.322-.01-.652-.026-.99-.042-.526-.025-1.069-.051-1.6-.051-.217,0-.419,0-.617.013h-.169c-.408,0-.654-.074-.75-.225-.125-.194.013-.495.147-.785a1.675,1.675,0,0,0,.2-.6l-.066-.095-.133-.191-.176-.252-.023-.033c-.7-.009-1.4-.024-2.09-.038h-.034c-1.13-.023-2.3-.048-3.446-.048-.565,0-1.08.005-1.575.017h-.145c-.191,0-.386-.008-.574-.016h-.039c-.2-.009-.411-.018-.617-.018a2.513,2.513,0,0,0-2.48,1.389,1.52,1.52,0,0,1-1.381.632,1.645,1.645,0,0,1-1.2-.4,6.934,6.934,0,0,0-2.683-1.736,7.711,7.711,0,0,1-2.276-1.334,23.848,23.848,0,0,0-7.1-2.865,1.117,1.117,0,0,1-1.026-.6.455.455,0,0,1,.156-.528,2.342,2.342,0,0,0,.6-1.6c-2.916.112-5.881.268-8.749.42h-.026c-3.073.163-6.25.331-9.378.444-.206.008-.423.011-.643.011-1.153,0-2.322-.1-3.453-.2s-2.3-.206-3.465-.206a14.388,14.388,0,0,0-2.637.223,7.915,7.915,0,0,1-.9.19,16.38,16.38,0,0,1-1.875.219,2.782,2.782,0,0,1,.742,1.005,9.112,9.112,0,0,0-4.254-.947c-.4,0-.79,0-1.179.014h-.152c-.264.008-.575.019-.883.038-3.2.449-6.463.679-9.622.9-1.141.081-2.318.163-3.478.255-.573.045-1.153.112-1.714.177a26.073,26.073,0,0,1-2.98.231,8.008,8.008,0,0,1-4.148-1.016.7.7,0,0,0-.35-.08,3.571,3.571,0,0,0-1.126.292,14.135,14.135,0,0,1-5.082,1.078,9.276,9.276,0,0,1-3.36-.615,28.7,28.7,0,0,1-3.1.215,9.837,9.837,0,0,1-4.293-.856c-.339,0-.7-.006-1.105-.006-.616,0-1.265.005-1.786.009H94.4c-.542,0-1.1.008-1.655.008a42.209,42.209,0,0,1-6.512-.4c-2.432-.378-4.358-.993-5.855-2.767h-.036a18.786,18.786,0,0,1-2.371.132l-7.11.391a7.733,7.733,0,0,0-2.921-.52,20.621,20.621,0,0,0-3.047.3l-.516.079a24.56,24.56,0,0,1-3.7.38,9.27,9.27,0,0,1-2.508-.318,25.367,25.367,0,0,0-3.484-.223c-1.973,0-3.977.183-5.914.36-.5.045-1.073.1-1.63.145a3.551,3.551,0,0,0-.5.1,3.233,3.233,0,0,1-.737.119c-.539,0-.858-.319-1-1l-.75.065-.1.009a14.535,14.535,0,0,1-2.65.229,24.977,24.977,0,0,1-3.714-.317,29.31,29.31,0,0,0-4.4-.291c-1.375,0-2.77.063-4.118.125h-.03c-1.341.061-2.728.124-4.094.124-.5,0-.959-.008-1.4-.024l-3.933.541-3.934.541a4.658,4.658,0,0,1-2.838.838,15.638,15.638,0,0,1-2.127-.2l-.106-.015c-.29.041-.582.1-.864.157a7.874,7.874,0,0,1-1.536.209,2.583,2.583,0,0,1-2-.866,3.673,3.673,0,0,0-.951-.122,7,7,0,0,0-2.551.625A8.412,8.412,0,0,1,0,628.873V6.3c.692.312,1.439.692,2.351,1.2C2.9,8.683,3.98,8.9,5.02,9.112l.065.013a2.148,2.148,0,0,0,.4.052c.114,0,.181-.023.2-.069.045-.089-.077-.251-.2-.422s-.266-.354-.223-.46c.018-.046.068-.075.15-.089A1.791,1.791,0,0,1,6.46,7.745a1.68,1.68,0,0,1,1.054.417,9.308,9.308,0,0,1,2.737-.353c1.528-.045,3.107-.091,4.4-1.394a5.68,5.68,0,0,1,3.958-1.48c4.019-.329,8.573-.7,13.026-.7,1.468,0,2.835.038,4.18.118.09,0,.188.007.3.007h.675a2.452,2.452,0,0,1,1.5.386A2.813,2.813,0,0,1,40.4,5.915a4.736,4.736,0,0,0,1.391.177c.324,0,.652-.019.969-.037s.654-.038.978-.038a3.76,3.76,0,0,1,2.333.635h.056c1.177-.053,2.393-.107,2.668-2.124a5.491,5.491,0,0,1,.682,1.22c.251.565.448,1.01.965,1.187A3.666,3.666,0,0,0,51.975,9.9a5.624,5.624,0,0,0,2.915.588c.283,0,.572-.007.792-.013h.349c.391,0,.788.016,1.172.031h.018c.38.015.773.03,1.164.03h.351c.156,0,.317-.006.472-.008h.011c.982-.01,1.908-.021,2.239-.582.275-.466.1-1.272-.548-2.464s.475-1.962,1.577-2.583a4.037,4.037,0,0,1,1.994-.588c1.5,0,2.654,1.092,3.775,2.148.4.373.8.758,1.222,1.09a3.981,3.981,0,0,0,1.234.33c1.022.161,2.078.328,2.26,2.147.032.309,1.844.925,3.359,1.388a79.724,79.724,0,0,1,10.533-.545h.011c1.307-.01,2.658-.019,3.987-.055.138,0,.28,0,.42,0a20.79,20.79,0,0,1,5.025.674,6.891,6.891,0,0,1,1.343-.144,3.813,3.813,0,0,1,3.8,2.889h.133c.515.009,1.046.019,1.326.655-.393.692-.735,1-1.11,1a1.112,1.112,0,0,1-.757-.4,7.693,7.693,0,0,0-.56,1.616,10.864,10.864,0,0,1-.357,1.169,1.561,1.561,0,0,1,1.25-.626,2.1,2.1,0,0,1,.411.044h.03c-.173-.6-.184-1-.035-1.193a.472.472,0,0,1,.408-.163,3.219,3.219,0,0,1,.716.126h.005a3.24,3.24,0,0,0,.711.124.581.581,0,0,0,.313-.075c.048.085.1.17.15.253v.007a2.241,2.241,0,0,1,.42,1.067h.055l.053-.006a3.787,3.787,0,0,0,.9.1,9.268,9.268,0,0,0,1.668-.2,9.279,9.279,0,0,1,1.669-.2c.1,0,.2,0,.3.01h.042c.137,0,.274-.007.414-.015.125-.007.268-.015.406-.015a1.444,1.444,0,0,1,1.231.523l.884.01,1.432-.424.821-.243,1.4-.414a2.372,2.372,0,0,1,1.684-.515,4.884,4.884,0,0,0,.819-.077c.833-2.7,2.272-4.075,4.276-4.075a8.028,8.028,0,0,1,4.029,1.391c.422-.3.876-.561,1.316-.818a9.215,9.215,0,0,0,2.431-1.8,4.563,4.563,0,0,0,1.026-3.259c-.043-1.417,1.68-2.135,2.423-2.378.259-.062.528-.147.788-.229h.014a5.5,5.5,0,0,1,1.557-.337c.914,0,1.493.624,1.823,1.965a1.216,1.216,0,0,0,1.112.921.86.86,0,0,0,.555-.2,4.615,4.615,0,0,1,3.058-1.055,13.6,13.6,0,0,1,2.4.293,13.657,13.657,0,0,0,2.358.292c.376,0,.758.018,1.127.033h.017c.374.016.8.034,1.209.034a9,9,0,0,0,1.421-.1,4.143,4.143,0,0,1,1.491-.258,10.861,10.861,0,0,1,2.032.262h.005a10.957,10.957,0,0,0,2.049.263,4.656,4.656,0,0,0,.708-.051l.323-.047A3.1,3.1,0,0,0,160.217,6.1a6.914,6.914,0,0,1,5.727-2.987,11.826,11.826,0,0,1,3.977.792,2.766,2.766,0,0,0,.938.19,1.822,1.822,0,0,0,.772-.171,7.793,7.793,0,0,1,3.2-.78,5.634,5.634,0,0,1,4.068,1.8,4.087,4.087,0,0,0,3.039,1.335,10.286,10.286,0,0,0,2.816-.55h.006a13.038,13.038,0,0,1,2.25-.518,4.456,4.456,0,0,0,1.167-.352c.173-.069.351-.141.528-.2-.293-1.149-1.139-1.354-2.034-1.571a7.623,7.623,0,0,1-.983-.286,4.3,4.3,0,0,1,2.359-.831,3.4,3.4,0,0,1,1.7.482l.333.053.584.093c.32.011.644.026.958.041h.045c.52.025,1.057.05,1.587.05.217,0,.421,0,.622-.013h.171c.407,0,.652.073.749.224.125.194-.014.5-.147.786a1.675,1.675,0,0,0-.2.6l.137.2.062.09.2.285c.674.009,1.343.022,2.085.038,1.134.024,2.307.048,3.464.048.569,0,1.091-.006,1.6-.018h.144c.2,0,.4.009.6.019h.012c.206.009.416.018.619.018a2.511,2.511,0,0,0,2.481-1.388,1.525,1.525,0,0,1,1.382-.633,1.645,1.645,0,0,1,1.2.4,6.931,6.931,0,0,0,2.686,1.738A7.734,7.734,0,0,1,213.4,6.419a23.842,23.842,0,0,0,7.1,2.867,1.115,1.115,0,0,1,1.026.6.457.457,0,0,1-.156.528,2.357,2.357,0,0,0-.6,1.6c-.108.877-.21,1.7-1.4,1.806-2,.171-4.029.361-5.992.544h-.008l-.423.039-2.155.2-1.08.007h-.357l-2.151.012a1.539,1.539,0,0,1-1.029.362,4.445,4.445,0,0,1-.979-.151,4.48,4.48,0,0,0-.984-.151,1.587,1.587,0,0,0-.829.217,2.971,2.971,0,0,1-.383.18c-.346.144-.7.292-.789.723a1.082,1.082,0,0,0-.013.331,43.069,43.069,0,0,1,6.679-.763c2.469-.045,4.975-.187,7.4-.325h.033c2.284-.129,4.646-.263,6.973-.315a1.291,1.291,0,0,1-.495-1c.01-1,.794-1.113,1.383-1.113h.03a.818.818,0,0,0,.14.012,2.3,2.3,0,0,0,.559-.1,2.319,2.319,0,0,1,.56-.1c.384,0,.62.239.767.774a4.173,4.173,0,0,1-.307,1.5h1.094c5.5,0,11.085-.3,16.491-.586h.01c3.073-.164,6.252-.333,9.409-.447.207-.007.423-.011.644-.011,1.153,0,2.323.1,3.454.2s2.306.206,3.464.206a14.286,14.286,0,0,0,2.635-.223,7.913,7.913,0,0,1,.9-.191,23.887,23.887,0,0,1,4.291-.279h.973c.747,0,1.548-.007,2.337-.056,3.209-.449,6.484-.68,9.651-.9,1.129-.08,2.3-.162,3.448-.253.579-.046,1.181-.116,1.712-.178a26.115,26.115,0,0,1,2.983-.232,8.007,8.007,0,0,1,4.148,1.016.7.7,0,0,0,.35.079,3.584,3.584,0,0,0,1.128-.292,14.129,14.129,0,0,1,5.081-1.077,9.27,9.27,0,0,1,3.359.614,28.961,28.961,0,0,1,3.1-.214,9.843,9.843,0,0,1,4.292.855c.34,0,.7.006,1.109.006.618,0,1.269-.005,1.792-.009h.064c.554,0,1.127-.008,1.69-.008a42.4,42.4,0,0,1,6.527.4c2.431.379,4.357.994,5.853,2.767h.037a18.792,18.792,0,0,1,2.371-.132q3.34-.182,6.679-.368l.281-.016.149-.008a7.716,7.716,0,0,0,2.921.521,20.487,20.487,0,0,0,3.047-.3l.52-.08a24.578,24.578,0,0,1,3.691-.378,9.273,9.273,0,0,1,2.508.318,25.386,25.386,0,0,0,3.485.222c1.979,0,3.987-.184,5.93-.362.574-.053,1.092-.1,1.614-.144a3.4,3.4,0,0,0,.5-.1,3.276,3.276,0,0,1,.736-.118c.539,0,.858.319,1,1.005l.356-.032.1-.009.142-.012.25-.022a14.556,14.556,0,0,1,2.652-.229,24.673,24.673,0,0,1,3.711.317,29.171,29.171,0,0,0,4.4.291c1.375,0,2.77-.063,4.119-.125h.032c1.34-.061,2.725-.124,4.09-.124.5,0,.957.008,1.406.024l4.066-.56,3.8-.523a4.646,4.646,0,0,1,2.836-.839,15.752,15.752,0,0,1,2.135.2l.1.014c.291-.041.6-.1.865-.158a7.864,7.864,0,0,1,1.535-.209,2.587,2.587,0,0,1,2,.866,3.676,3.676,0,0,0,.951.122,7.018,7.018,0,0,0,2.551-.625c1.945-1.4,4.173-1.62,6.328-1.833.855-.084,1.739-.172,2.6-.332l.723-.238h.278a6.73,6.73,0,0,0,1.074-.172,5.906,5.906,0,0,1,1.22-.176,2.087,2.087,0,0,1,1.373.476l.059-.009a4.371,4.371,0,0,1,1.209,1.389c.533.815,1.085,1.657,2.169,1.657a2.526,2.526,0,0,0,.527-.059,3.571,3.571,0,0,0,.167-1.377,2.78,2.78,0,0,1,.381-1.77l2.014-.5c.178-.045.364-.1.529-.158a3.816,3.816,0,0,1,1.086-.241c.633,0,1.005.451,1.171,1.419l.475.2.385.164h.076l1.193-.076h.068l1.125-.073a8.479,8.479,0,0,1,3.41-1.953,1.556,1.556,0,0,1,.59-.132,1.076,1.076,0,0,1,.929.574l.762.058h.033l.947.073a.36.36,0,0,1,.288-.286c.841-1.013,1.57-1.485,2.294-1.485a2.472,2.472,0,0,1,1.746.92,3.038,3.038,0,0,1,1.935.959,8.143,8.143,0,0,0,.663.523,4.231,4.231,0,0,0,3.367,1.576,6.684,6.684,0,0,0,1.529-.192,1.988,1.988,0,0,1,1.125-.419,1.749,1.749,0,0,0,1.331-.642,1.12,1.12,0,0,1,.889-.524.965.965,0,0,1,.635.256c.549.481.272.877,0,1.259a1.714,1.714,0,0,0-.3.57l.151.084,1.691.938a1.532,1.532,0,0,0,.425.066,1.031,1.031,0,0,0,.9-.517,2.29,2.29,0,0,1,2.006-1.424,5.279,5.279,0,0,1,1.763.444,5.5,5.5,0,0,0,1.7.444.429.429,0,0,1,.273-.138.207.207,0,0,1,.1.026c.169-.056.342-.119.508-.181l.019-.007a4.907,4.907,0,0,1,1.642-.4,2.1,2.1,0,0,1,1.485.631,1.046,1.046,0,0,0,1.08.672c.149,0,.3-.014.456-.027l.1-.009.615-.659.355-.38a8.631,8.631,0,0,1,.155-1.036,3.389,3.389,0,0,0-.357-2.906.961.961,0,0,1-.17-.908,1.617,1.617,0,0,1,1.135-.884c.924-.243,1.87-.433,2.786-.617l.088-.018c.359-.073.73-.147,1.094-.225a2.017,2.017,0,0,1,.372-.04c.761,0,.768.637.775,1.254.006.568.012,1.154.6,1.244l1.353.553.5.206,1.781.166.239.022.819-.059.26-.019.521-.037a2.217,2.217,0,0,0,.213-2.289,3.013,3.013,0,0,0-.552-.25c-.359-.135-.729-.275-.868-.6a1.3,1.3,0,0,1,.107-1,6.441,6.441,0,0,1,2.473-.409c.336,0,.684.012.991.023h.007c.323.012.656.024.992.024.314,0,.591-.011.847-.033l.888-.166a2.664,2.664,0,0,1,1.218-.436c.689,0,.765.755.839,1.486a2.737,2.737,0,0,0,.294,1.217l.375.357.119.113.6.573c.439-.027.882-.1,1.311-.16a11.55,11.55,0,0,1,1.7-.172,3.826,3.826,0,0,1,1.928.466l1.953.393a.9.9,0,0,1,.219-.027,1.848,1.848,0,0,1,.778.227,5.574,5.574,0,0,0,.671.034,2.115,2.115,0,0,1,1.759.584,8.711,8.711,0,0,1,1.088.456,4.749,4.749,0,0,0,2,.609,2.453,2.453,0,0,0,.676-.1l.535-.17q.686-.37,1.371-.737l-.007-.015-.005-.014-.005-.013c1.064-.763,1.409-1.863,1.12-3.568-.021-.126-.054-.258-.088-.4V6c-.145-.59-.31-1.259.386-1.472a2.429,2.429,0,0,1,.694-.087c.6,0,1.3.158,1.424.449A3.908,3.908,0,0,0,511.707,7a5.767,5.767,0,0,1,1.7.911,6.759,6.759,0,0,0,1.145.1,9.546,9.546,0,0,0,2.886-.5c.092-.1.2-.249.3-.376.2-.271.415-.551.527-.551h.022a8.4,8.4,0,0,0,3.18.5c.408,0,.824-.013,1.227-.025h.01c.405-.013.824-.025,1.239-.025a6.621,6.621,0,0,1,5,1.7.7.7,0,0,0,.393.185.126.126,0,0,0,.066-.015,3.645,3.645,0,0,1,1.908-.549,7.575,7.575,0,0,1,3,.876h.007a7.6,7.6,0,0,0,3.016.88c.071,0,.141,0,.211-.006,3.058-.179,5.53-1.878,7.922-3.521l.045-.031c.32-.22.651-.447.977-.666a7.266,7.266,0,0,1,3.722-1.533,2.664,2.664,0,0,0,2.465-1.136,3.7,3.7,0,0,1,3.236-1.979,5.19,5.19,0,0,1,2.229.552,20.705,20.705,0,0,0,6.233,1.584l.505.074L565,3.444c.111-.006.222-.012.33-.012a1.184,1.184,0,0,1,.92.34,32.26,32.26,0,0,0,7.68,1.12,19.133,19.133,0,0,0,3.668-.345,50.4,50.4,0,0,1,9.6-.965,40.9,40.9,0,0,1,7.359.655c3.165.581,6.268,1.129,9.437,1.45a17.61,17.61,0,0,1,4.754,1.43,16.116,16.116,0,0,0,6.025,1.562c.213,0,.429-.008.642-.024h.065c.593,0,1.1.579,1.691,1.25a4.223,4.223,0,0,0,2.437,1.726h3.246c1.107,0,2.418,0,3.744.041h.027a1.841,1.841,0,0,0,.215-.009h.029c.088-.006.181-.011.271-.011.184,0,.442.02.547.193s.051.464-.167.89a4.149,4.149,0,0,1-3.29,1.2c-.274,0-.554-.009-.825-.018h-.017c-.266-.008-.541-.017-.812-.017a6.259,6.259,0,0,0-1.713.193,4.266,4.266,0,0,0,.549,1.459c.564,1.093,1.147,2.224-.685,3.185l-.768.128-.3.05a1.392,1.392,0,0,1-.965.431,2.684,2.684,0,0,1-1.18-.4,3.121,3.121,0,0,0-1.028-.393l-.885.312v-.008c-.2.5-.587.533-1,.568a1.088,1.088,0,0,0-.969.442,1.31,1.31,0,0,0,1.43,1.089,4.223,4.223,0,0,0,.594-.049,2.812,2.812,0,0,1,.4-.029,5.234,5.234,0,0,1,2.364.776,5.222,5.222,0,0,0,2.355.776h.165c.227,0,.591.433.648.706.09.426-.2.584-.487.736H621.1a1.908,1.908,0,0,0-.28.171,2.2,2.2,0,0,1-1.442.406h-.346c-.094,0-.21,0-.32,0a3.447,3.447,0,0,0-.609.045c-.35,2.125-1.851,2.488-3.272,2.563l-.156.007h-.038a1.781,1.781,0,0,0-1.267.35.931.931,0,0,0-.178.735c.068.734.841.818,1.417.818.081,0,.169,0,.266,0,2.118-.078,4.271-.149,6.354-.217h.062l2.164-.072a1.4,1.4,0,0,1,.87-.309,3.044,3.044,0,0,1,1.256.387c.176.083.341.161.507.222a2.43,2.43,0,0,0,.812.171.815.815,0,0,0,.691-.3,1.809,1.809,0,0,0,.089-1.51,7.474,7.474,0,0,1,.047-4.2c.173-.248.384-.5.589-.741l.005-.006c.563-.668,1.145-1.358,1.008-2.064-.1-.522-.58-1-1.466-1.475l-.747.072-.3.029-2.083.2a6.122,6.122,0,0,1,3.8-1.462c.111,0,.224,0,.335.009a2.574,2.574,0,0,1,1.428-.432,5.733,5.733,0,0,1,1.948.478,6.428,6.428,0,0,0,1.744.471l.091-.648.026-.184.02-.139a7.055,7.055,0,0,1,1.5-4.538l.018-.03c.182-.3.371-.6.545-.91a9.877,9.877,0,0,1,2.236-.222c.609,0,1.23.036,1.83.071h.023c.607.035,1.235.072,1.854.072.408,0,.774-.016,1.122-.048l3.825-.752.4-.077.866-.17a16.757,16.757,0,0,1,3.034-.229c.464,0,.955.009,1.349.017h.047c.435.009.885.017,1.326.017a13.912,13.912,0,0,0,4.251-.533c.742-.06,1.494-.166,2.221-.268h.01a25.006,25.006,0,0,1,3.455-.323h.04a1.216,1.216,0,0,1-.964-1.424l.006-.027c.075-.882.655-.907,1.269-.934h.172c.129,0,.266.005.375.009h.009c.13,0,.261.011.391.011a2.072,2.072,0,0,0,1.037-.225,8.994,8.994,0,0,1,2.457-.345c2.453,0,4.713.969,7.351,2.424.553,1.188,1.629,1.406,2.669,1.617l.065.013a2.148,2.148,0,0,0,.4.052c.114,0,.181-.023.2-.069.045-.09-.077-.251-.2-.422s-.267-.354-.224-.461c.018-.046.068-.075.15-.089a1.8,1.8,0,0,1,1.054-.391,1.691,1.691,0,0,1,1.055.417,9.3,9.3,0,0,1,2.731-.352c1.532-.045,3.112-.091,4.4-1.394a5.68,5.68,0,0,1,3.958-1.48c4.018-.329,8.573-.7,13.026-.7,1.469,0,2.836.039,4.18.118.091,0,.189.007.3.007h.675a2.453,2.453,0,0,1,1.5.385,2.818,2.818,0,0,1,2.106,1.169,4.716,4.716,0,0,0,1.388.177c.319,0,.646-.019.962-.037h.02c.318-.019.646-.037.968-.037a3.76,3.76,0,0,1,2.333.635h.056c1.177-.054,2.394-.109,2.668-2.125a5.487,5.487,0,0,1,.681,1.22c.25.564.448,1.01.966,1.188A3.67,3.67,0,0,0,725.8,11.21a5.624,5.624,0,0,0,2.915.588c.283,0,.572-.007.792-.013h.348c.389,0,.779.015,1.155.03h.017c.388.015.788.03,1.182.03h.351c.157,0,.318-.006.473-.008h.01c.981-.01,1.907-.021,2.238-.583.275-.467.1-1.273-.547-2.464s.474-1.962,1.577-2.582A4.04,4.04,0,0,1,738.3,5.62c1.5,0,2.654,1.092,3.775,2.149.4.373.8.758,1.221,1.09a4,4,0,0,0,1.233.329c1.022.161,2.079.327,2.262,2.148.031.308,1.844.924,3.359,1.387a79.622,79.622,0,0,1,10.537-.544c1.306-.009,2.654-.019,3.994-.054.146,0,.292-.006.434-.006a20.72,20.72,0,0,1,5.011.674,6.891,6.891,0,0,1,1.343-.144,3.813,3.813,0,0,1,3.8,2.889h.139c.512.01,1.041.02,1.321.655-.393.692-.736,1-1.111,1a1.112,1.112,0,0,1-.757-.4,7.676,7.676,0,0,0-.56,1.612v.013a10.843,10.843,0,0,1-.354,1.159,1.563,1.563,0,0,1,1.249-.625,2.03,2.03,0,0,1,.412.044h.031c-.173-.6-.184-1-.035-1.193a.474.474,0,0,1,.408-.163,3.276,3.276,0,0,1,.716.125h.006a3.238,3.238,0,0,0,.711.123.571.571,0,0,0,.313-.074c.046.082.1.164.145.244l.01.016a2.231,2.231,0,0,1,.42,1.067l.054-.006.054-.006a3.736,3.736,0,0,0,.9.1,9.385,9.385,0,0,0,1.662-.2h.013a9.352,9.352,0,0,1,1.659-.2,2.88,2.88,0,0,1,.3.01h.038c.123,0,.249-.007.372-.013h.058c.13-.007.263-.015.394-.015a1.444,1.444,0,0,1,1.231.524h.406l.473.005,3.653-1.081a2.372,2.372,0,0,1,1.685-.516,4.872,4.872,0,0,0,.818-.076c.833-2.7,2.272-4.075,4.276-4.075a8.038,8.038,0,0,1,4.029,1.392c.419-.294.874-.56,1.313-.817h.007a9.224,9.224,0,0,0,2.428-1.8,4.563,4.563,0,0,0,1.026-3.259c-.043-1.416,1.68-2.135,2.423-2.379.267-.064.539-.15.8-.233a5.5,5.5,0,0,1,1.556-.336c.914,0,1.493.624,1.823,1.964a1.216,1.216,0,0,0,1.111.922.858.858,0,0,0,.555-.2,4.615,4.615,0,0,1,3.058-1.054,13.547,13.547,0,0,1,2.4.293,13.692,13.692,0,0,0,2.36.292c.388,0,.788.019,1.141.034h.012c.394.017.8.034,1.2.034a8.98,8.98,0,0,0,1.419-.1,4.142,4.142,0,0,1,1.49-.259,10.8,10.8,0,0,1,2.034.263,10.907,10.907,0,0,0,2.052.264,4.66,4.66,0,0,0,.709-.051l.287-.042.038-.006A3.1,3.1,0,0,0,834.032,7.4a6.917,6.917,0,0,1,5.728-2.986,11.79,11.79,0,0,1,3.976.791,2.744,2.744,0,0,0,.938.191,1.828,1.828,0,0,0,.773-.172,7.792,7.792,0,0,1,3.2-.779,5.632,5.632,0,0,1,4.069,1.8,4.09,4.09,0,0,0,3.039,1.334,10.293,10.293,0,0,0,2.817-.55,13.212,13.212,0,0,1,2.255-.52,4.422,4.422,0,0,0,1.164-.351l.017-.007c.168-.067.342-.137.513-.2-.293-1.15-1.139-1.354-2.035-1.571h-.005A7.737,7.737,0,0,1,859.5,4.1a4.3,4.3,0,0,1,2.359-.831,3.393,3.393,0,0,1,1.7.482l.311.05.058.009.547.087c.315.01.635.025.945.04h.046c.525.025,1.067.051,1.6.051.224,0,.426,0,.619-.013h.169c.408,0,.654.074.75.225.124.194-.014.494-.147.784a1.682,1.682,0,0,0-.2.6l.107.154.092.132.128.182.072.1c.7.009,1.4.024,2.09.038h.034c1.129.023,2.3.048,3.445.048.565,0,1.08-.006,1.574-.017h.146c.19,0,.386.008.575.016h.051c.2.009.4.018.606.018a2.51,2.51,0,0,0,2.479-1.389,1.523,1.523,0,0,1,1.381-.632,1.643,1.643,0,0,1,1.2.4,6.93,6.93,0,0,0,2.682,1.736A7.733,7.733,0,0,1,887.2,7.7a23.823,23.823,0,0,0,7.1,2.866,1.115,1.115,0,0,1,1.027.6.454.454,0,0,1-.156.528,2.342,2.342,0,0,0-.6,1.6c2.9-.11,5.856-.266,8.712-.417h.059c3.063-.162,6.231-.33,9.37-.444.207-.007.423-.011.644-.011,1.152,0,2.321.1,3.452.2s2.3.206,3.465.206a14.3,14.3,0,0,0,2.637-.223,7.911,7.911,0,0,1,.9-.19,16.438,16.438,0,0,1,1.875-.219,2.78,2.78,0,0,1-.741-1.005,9.114,9.114,0,0,0,4.253.947c.4,0,.791,0,1.179-.014h.152c.264-.008.574-.019.883-.038,3.2-.45,6.47-.68,9.63-.9,1.069-.075,2.281-.16,3.469-.255.572-.045,1.148-.112,1.707-.177h.009a26.027,26.027,0,0,1,2.979-.231,8.021,8.021,0,0,1,4.148,1.017.694.694,0,0,0,.349.079,3.565,3.565,0,0,0,1.129-.293,14.119,14.119,0,0,1,5.08-1.077,9.27,9.27,0,0,1,3.359.614,28.961,28.961,0,0,1,3.1-.215,9.845,9.845,0,0,1,4.293.855c.339,0,.7.006,1.106.006.615,0,1.264,0,1.786-.009h.053c.565,0,1.149-.008,1.72-.008a42.248,42.248,0,0,1,6.515.4c2.431.378,4.357.993,5.853,2.766h.037a18.777,18.777,0,0,1,2.37-.132l7.11-.392a7.735,7.735,0,0,0,2.921.52,20.608,20.608,0,0,0,3.047-.3l.515-.079a24.57,24.57,0,0,1,3.7-.38,9.347,9.347,0,0,1,2.508.318,25.24,25.24,0,0,0,3.485.223c1.977,0,3.979-.183,5.915-.36h.05c.517-.047,1.052-.1,1.578-.141a3.379,3.379,0,0,0,.5-.1,3.247,3.247,0,0,1,.739-.119c.538,0,.857.319,1,1l.761-.066.088-.008a14.526,14.526,0,0,1,2.65-.229,24.989,24.989,0,0,1,3.714.317,29.171,29.171,0,0,0,4.4.291c1.375,0,2.77-.063,4.119-.125h.031c1.34-.061,2.725-.124,4.09-.124.5,0,.957.008,1.406.024l7.867-1.083a4.653,4.653,0,0,1,2.837-.838,15.677,15.677,0,0,1,2.129.2l.1.015c.292-.041.6-.1.864-.158a7.873,7.873,0,0,1,1.536-.209,2.582,2.582,0,0,1,2,.866,3.676,3.676,0,0,0,.951.122,7,7,0,0,0,2.551-.625c1.945-1.4,4.174-1.619,6.329-1.832.854-.084,1.736-.171,2.594-.331l.645-.213.079-.026h.277a6.585,6.585,0,0,0,1.08-.172,5.857,5.857,0,0,1,1.215-.175,2.086,2.086,0,0,1,1.372.476l.06-.009a4.376,4.376,0,0,1,1.209,1.39c.533.814,1.084,1.657,2.169,1.657a2.527,2.527,0,0,0,.527-.059,3.574,3.574,0,0,0,.167-1.377,2.779,2.779,0,0,1,.381-1.77l2.015-.5c.175-.044.354-.1.527-.158A3.83,3.83,0,0,1,1087,9.749c.634,0,1.006.451,1.171,1.419l.86.366,2.23-.143.231-.015a8.584,8.584,0,0,1,3.41-1.953,1.552,1.552,0,0,1,.592-.133,1.076,1.076,0,0,1,.928.573l1.046.081.7.053a.362.362,0,0,1,.288-.285c.841-1.013,1.57-1.485,2.294-1.485a2.473,2.473,0,0,1,1.747.92,3.021,3.021,0,0,1,1.932.957,7.988,7.988,0,0,0,.666.525,4.229,4.229,0,0,0,3.366,1.576,6.726,6.726,0,0,0,1.529-.192,1.982,1.982,0,0,1,1.125-.42,1.746,1.746,0,0,0,1.33-.642,1.123,1.123,0,0,1,.89-.524.965.965,0,0,1,.635.255c.55.482.272.878,0,1.26a1.714,1.714,0,0,0-.3.57l.64.354,1.2.666a1.532,1.532,0,0,0,.425.066,1.031,1.031,0,0,0,.9-.518,2.292,2.292,0,0,1,2.006-1.423,5.273,5.273,0,0,1,1.763.444,5.547,5.547,0,0,0,1.7.445.43.43,0,0,1,.273-.139.207.207,0,0,1,.1.026c.18-.06.366-.128.53-.188a4.926,4.926,0,0,1,1.641-.4,2.1,2.1,0,0,1,1.484.63,1.045,1.045,0,0,0,1.078.673c.15,0,.306-.014.457-.027l.1-.009.255-.274.714-.765a8.65,8.65,0,0,1,.156-1.037,3.387,3.387,0,0,0-.357-2.905.96.96,0,0,1-.169-.909,1.622,1.622,0,0,1,1.135-.883c.928-.245,1.877-.436,2.794-.62l.032-.006c.374-.076.761-.154,1.141-.234a2.035,2.035,0,0,1,.373-.04c.762,0,.768.638.775,1.255.006.567.012,1.153.6,1.242l1.641.672.215.088q1.009.091,2.018.187l1.6-.114a2.223,2.223,0,0,0,.213-2.29,3.011,3.011,0,0,0-.552-.25c-.358-.135-.728-.274-.868-.6a1.3,1.3,0,0,1,.108-1,6.434,6.434,0,0,1,2.468-.408c.33,0,.663.012.985.023h.025c.321.011.653.023.979.023s.594-.011.853-.033l.888-.165a2.677,2.677,0,0,1,1.217-.437c.69,0,.766.756.839,1.486a2.737,2.737,0,0,0,.3,1.217l.239.227.344.327.173.165.339.323h.006c.433-.029.876-.1,1.3-.161a11.417,11.417,0,0,1,1.7-.173,3.822,3.822,0,0,1,1.927.466l1.954.393a.892.892,0,0,1,.218-.027,1.859,1.859,0,0,1,.777.228,5.591,5.591,0,0,0,.672.034,2.117,2.117,0,0,1,1.758.583,8.887,8.887,0,0,1,1.085.456,4.782,4.782,0,0,0,2,.609,2.429,2.429,0,0,0,.678-.1l.281-.089.093-.03.16-.051.647-.347.723-.389-.01-.025-.007-.018c1.064-.762,1.41-1.862,1.12-3.568-.022-.133-.058-.28-.09-.41-.145-.589-.309-1.257.386-1.47a2.421,2.421,0,0,1,.693-.086c.6,0,1.3.158,1.424.449a3.9,3.9,0,0,0,2.565,2.112,5.787,5.787,0,0,1,1.7.911,6.68,6.68,0,0,0,1.147.1,9.534,9.534,0,0,0,2.885-.5c.089-.1.19-.234.287-.364l.012-.015c.2-.272.413-.549.524-.549a.081.081,0,0,1,.022,0,8.433,8.433,0,0,0,3.186.5c.4,0,.817-.012,1.216-.024h.027c.4-.012.819-.025,1.226-.025a6.625,6.625,0,0,1,5,1.7.7.7,0,0,0,.391.186.132.132,0,0,0,.067-.016,3.645,3.645,0,0,1,1.908-.549,7.578,7.578,0,0,1,3,.875h.008a7.606,7.606,0,0,0,3.014.879c.068,0,.14,0,.213-.006a10.158,10.158,0,0,0,3.5-.883,27.751,27.751,0,0,0,4.442-2.656c.323-.222.665-.456,1-.679a7.278,7.278,0,0,1,3.723-1.533,2.662,2.662,0,0,0,2.464-1.136A3.653,3.653,0,0,1,1215.675,0h.016a5.287,5.287,0,0,1,2.223.552,20.686,20.686,0,0,0,6.23,1.583l.509.074.127-.008c.1-.006.218-.012.329-.012a1.185,1.185,0,0,1,.92.34,32.2,32.2,0,0,0,7.678,1.121,19.154,19.154,0,0,0,3.67-.346,50.4,50.4,0,0,1,9.6-.965,40.918,40.918,0,0,1,7.36.655c3.027.556,6.25,1.126,9.436,1.45a17.6,17.6,0,0,1,4.752,1.428,16.092,16.092,0,0,0,6.025,1.562c.213,0,.429-.008.641-.023h.065c.592,0,1.1.578,1.69,1.249a4.218,4.218,0,0,0,2.438,1.727h3.246c1.107,0,2.418,0,3.744.041h.027a1.841,1.841,0,0,0,.215-.009h.029c.087-.006.179-.011.271-.011.184,0,.441.02.547.193s.051.464-.167.89a4.149,4.149,0,0,1-3.29,1.2c-.281,0-.582-.01-.823-.018h-.021c-.265-.008-.54-.017-.811-.017a6.26,6.26,0,0,0-1.713.193,4.265,4.265,0,0,0,.549,1.457c.565,1.1,1.148,2.225-.684,3.186l-.234.039-.152.025-.682.114a1.4,1.4,0,0,1-.965.432,2.68,2.68,0,0,1-1.18-.4,3.145,3.145,0,0,0-1.027-.392l-.884.312v-.007c-.2.5-.586.533-1,.568a1.087,1.087,0,0,0-.969.442,1.308,1.308,0,0,0,1.429,1.088,4.307,4.307,0,0,0,.6-.049,2.812,2.812,0,0,1,.4-.029,5.241,5.241,0,0,1,2.365.776,5.22,5.22,0,0,0,2.354.777h.165c.227,0,.591.434.649.706.09.427-.2.585-.488.738h-.007a1.948,1.948,0,0,0-.276.169,2.189,2.189,0,0,1-1.435.4c-.108,0-.218,0-.325,0h-.351a3.513,3.513,0,0,0-.607.044c-.349,2.126-1.85,2.489-3.272,2.564l-.165.007h-.032a1.775,1.775,0,0,0-1.265.35.931.931,0,0,0-.178.735c.07.733.841.817,1.415.817.082,0,.17,0,.268-.006,2.15-.08,4.337-.151,6.451-.22h.088l2.041-.067a1.4,1.4,0,0,1,.87-.309,3.028,3.028,0,0,1,1.256.386c.176.083.343.162.507.222a2.426,2.426,0,0,0,.812.171.813.813,0,0,0,.69-.3,1.813,1.813,0,0,0,.089-1.51,7.474,7.474,0,0,1,.047-4.2c.175-.251.388-.5.594-.747.563-.668,1.146-1.359,1.009-2.065-.1-.522-.58-1-1.466-1.475l-1.374.133-.3.029-1.463.142a6.127,6.127,0,0,1,3.8-1.462c.109,0,.223,0,.337.009a2.575,2.575,0,0,1,1.429-.432,5.739,5.739,0,0,1,1.948.478,6.428,6.428,0,0,0,1.743.47q.055-.406.115-.813l.022-.157a7.063,7.063,0,0,1,1.493-4.535l.016-.026c.184-.3.375-.608.55-.918a9.891,9.891,0,0,1,2.237-.222c.615,0,1.24.036,1.845.072h.005c.6.036,1.227.072,1.85.072.408,0,.777-.016,1.127-.048l3.726-.733.522-.1.837-.164a16.837,16.837,0,0,1,3.033-.23c.462,0,.919.009,1.361.018s.9.017,1.356.017a13.93,13.93,0,0,0,4.258-.534c.745-.06,1.5-.166,2.231-.269a25.135,25.135,0,0,1,3.454-.323h.04a1.215,1.215,0,0,1-.963-1.423l.006-.028c.075-.881.655-.906,1.269-.933h.176c.117,0,.236,0,.351.009h.031c.112,0,.252.01.386.01a2.08,2.08,0,0,0,1.039-.225,8.958,8.958,0,0,1,2.458-.346c2.453,0,4.713.969,7.349,2.425.553,1.187,1.63,1.4,2.668,1.616l.066.013a2.169,2.169,0,0,0,.4.052c.114,0,.181-.023.2-.069.044-.09-.077-.251-.206-.422s-.266-.353-.223-.46c.019-.046.068-.075.15-.089a1.791,1.791,0,0,1,1.053-.392,1.681,1.681,0,0,1,1.055.417,9.306,9.306,0,0,1,2.736-.353c1.528-.045,3.107-.091,4.4-1.394A5.682,5.682,0,0,1,1352.2,5c4.019-.329,8.573-.7,13.026-.7,1.469,0,2.837.038,4.181.118.089,0,.187.007.3.007h.675a2.455,2.455,0,0,1,1.5.386,2.814,2.814,0,0,1,2.107,1.169,4.735,4.735,0,0,0,1.391.177c.324,0,.652-.019.969-.037s.654-.038.977-.038a3.76,3.76,0,0,1,2.333.635h.057c1.177-.053,2.394-.107,2.668-2.124a5.529,5.529,0,0,1,.682,1.22c.25.565.448,1.01.966,1.187a3.663,3.663,0,0,0,1.536,2.966,5.624,5.624,0,0,0,2.915.588c.283,0,.572-.007.792-.013h.349c.392,0,.789.016,1.172.031h.017c.38.015.774.03,1.165.03h.351c.156,0,.316-.006.471-.007h.012c.982-.01,1.907-.021,2.239-.582.275-.466.1-1.272-.548-2.464s.475-1.963,1.578-2.583a4.038,4.038,0,0,1,1.994-.588c1.5,0,2.654,1.092,3.775,2.148.4.373.8.758,1.222,1.09a3.973,3.973,0,0,0,1.234.33c1.022.161,2.078.328,2.26,2.147.031.309,1.844.925,3.359,1.388a79.716,79.716,0,0,1,10.533-.545h.011c1.307-.01,2.659-.019,3.987-.055.138,0,.28,0,.42,0a20.782,20.782,0,0,1,5.024.674,6.89,6.89,0,0,1,1.343-.144,3.813,3.813,0,0,1,3.8,2.889h.133c.516.009,1.047.019,1.327.655-.393.692-.735,1-1.11,1a1.114,1.114,0,0,1-.758-.4,7.651,7.651,0,0,0-.561,1.618,11.062,11.062,0,0,1-.356,1.167,1.561,1.561,0,0,1,1.25-.626,2.1,2.1,0,0,1,.411.044h.03c-.173-.6-.184-1-.035-1.193a.472.472,0,0,1,.408-.163,3.228,3.228,0,0,1,.716.126h.006a3.248,3.248,0,0,0,.712.124.581.581,0,0,0,.313-.075c.05.089.105.18.155.26a2.242,2.242,0,0,1,.42,1.067h.054l.054-.006a3.786,3.786,0,0,0,.9.1,9.336,9.336,0,0,0,1.666-.2,9.3,9.3,0,0,1,1.671-.2c.1,0,.2,0,.3.01h.042c.136,0,.273-.007.414-.015.119-.007.267-.015.406-.015a1.444,1.444,0,0,1,1.231.523l.884.01,1.432-.424.821-.243,1.4-.414a2.373,2.373,0,0,1,1.684-.515,4.882,4.882,0,0,0,.818-.077c.833-2.7,2.272-4.075,4.276-4.075a8.035,8.035,0,0,1,4.03,1.391c.422-.3.877-.562,1.316-.818a9.193,9.193,0,0,0,2.43-1.8,4.563,4.563,0,0,0,1.026-3.259c-.043-1.417,1.68-2.135,2.423-2.378.262-.063.532-.148.794-.231h.007a5.5,5.5,0,0,1,1.557-.337c.915,0,1.494.624,1.823,1.965a1.216,1.216,0,0,0,1.112.921.857.857,0,0,0,.554-.2,4.615,4.615,0,0,1,3.058-1.055,13.626,13.626,0,0,1,2.406.293,13.656,13.656,0,0,0,2.358.292c.375,0,.756.018,1.125.033h.018c.374.016.8.034,1.209.034a9,9,0,0,0,1.421-.1,4.143,4.143,0,0,1,1.491-.258,10.869,10.869,0,0,1,2.032.261h.005a10.97,10.97,0,0,0,2.05.263,4.657,4.657,0,0,0,.708-.051l.323-.047a3.1,3.1,0,0,0,2.381-1.112,6.915,6.915,0,0,1,5.728-2.987,11.82,11.82,0,0,1,3.976.792,2.767,2.767,0,0,0,.938.19,1.827,1.827,0,0,0,.773-.171,7.793,7.793,0,0,1,3.2-.78,5.635,5.635,0,0,1,4.068,1.8,4.087,4.087,0,0,0,3.039,1.335,10.3,10.3,0,0,0,2.816-.55h.006a13.035,13.035,0,0,1,2.25-.518,4.486,4.486,0,0,0,1.166-.352c.164-.066.348-.14.528-.2-.293-1.149-1.138-1.354-2.033-1.571a7.633,7.633,0,0,1-.984-.286,4.292,4.292,0,0,1,2.359-.831,3.4,3.4,0,0,1,1.7.482l.24.038.677.108c.321.011.646.026.96.041h.043c.52.025,1.057.05,1.586.05.217,0,.421,0,.623-.013h.171c.407,0,.652.073.748.224.125.195-.013.5-.147.786a1.677,1.677,0,0,0-.2.6l.2.286.2.285c.676.009,1.344.022,2.084.038,1.134.024,2.307.048,3.464.048.57,0,1.092-.006,1.6-.018h.143c.2,0,.4.009.6.019h.012c.206.009.416.018.62.018a2.513,2.513,0,0,0,2.481-1.388,1.521,1.521,0,0,1,1.382-.633,1.646,1.646,0,0,1,1.2.4,6.92,6.92,0,0,0,2.683,1.738,7.744,7.744,0,0,1,2.276,1.333,23.837,23.837,0,0,0,7.1,2.867,1.115,1.115,0,0,1,1.026.6.454.454,0,0,1-.156.528,2.35,2.35,0,0,0-.6,1.6c-.109.877-.21,1.7-1.4,1.806-2,.171-4.022.36-5.983.543h-.017l-.422.039-2.156.2-1.079.007h-.358l-2.151.012a1.539,1.539,0,0,1-1.029.362,4.443,4.443,0,0,1-.979-.151,4.48,4.48,0,0,0-.984-.151,1.59,1.59,0,0,0-.829.217,2.968,2.968,0,0,1-.383.18c-.346.144-.7.292-.788.723a1.116,1.116,0,0,0-.014.331,43.083,43.083,0,0,1,6.679-.763c2.468-.045,4.973-.187,7.4-.325h.034c2.285-.129,4.646-.263,6.975-.315a1.3,1.3,0,0,1-.495-1c.01-1,.794-1.113,1.383-1.113h.03a.819.819,0,0,0,.14.012,2.3,2.3,0,0,0,.558-.1,2.318,2.318,0,0,1,.561-.1c.384,0,.62.239.766.774a4.133,4.133,0,0,1-.307,1.5h1.094c5.5,0,11.085-.3,16.491-.586h.009c3.074-.164,6.254-.333,9.41-.447.207-.007.423-.011.644-.011,1.153,0,2.323.1,3.454.2s2.306.206,3.464.206a14.288,14.288,0,0,0,2.635-.223,7.819,7.819,0,0,1,.9-.191,23.887,23.887,0,0,1,4.291-.279h.973c.747,0,1.548-.007,2.337-.056,3.209-.449,6.484-.68,9.652-.9,1.128-.08,2.3-.162,3.448-.253.58-.046,1.181-.116,1.711-.178a26.118,26.118,0,0,1,2.983-.232,8.01,8.01,0,0,1,4.148,1.016.7.7,0,0,0,.35.079,3.591,3.591,0,0,0,1.128-.292,14.125,14.125,0,0,1,5.081-1.077,9.292,9.292,0,0,1,3.359.614,28.923,28.923,0,0,1,3.1-.214,9.849,9.849,0,0,1,4.292.855c.34,0,.7.006,1.109.006.618,0,1.269-.005,1.792-.009h.064c.554,0,1.127-.008,1.69-.008a42.4,42.4,0,0,1,6.526.4c2.431.379,4.357.994,5.853,2.767h.037a18.767,18.767,0,0,1,2.37-.132q3.385-.185,6.77-.374l.191-.01.15-.008a7.716,7.716,0,0,0,2.921.521,20.5,20.5,0,0,0,3.047-.3l.394-.06.126-.02a24.448,24.448,0,0,1,3.692-.378,9.277,9.277,0,0,1,2.508.318,25.376,25.376,0,0,0,3.485.222c1.979,0,3.987-.184,5.93-.362.574-.053,1.092-.1,1.614-.144a3.407,3.407,0,0,0,.5-.1,3.275,3.275,0,0,1,.736-.118c.539,0,.858.319,1,1l.461-.04.194-.017.194-.017a14.556,14.556,0,0,1,2.652-.229,24.673,24.673,0,0,1,3.711.317,29.171,29.171,0,0,0,4.4.291c1.375,0,2.77-.063,4.119-.125h.031c1.34-.061,2.725-.124,4.09-.124.5,0,.957.008,1.406.024l3.933-.541,3.934-.541a4.644,4.644,0,0,1,2.836-.839,15.75,15.75,0,0,1,2.135.2l.1.014c.291-.041.6-.1.865-.158a7.863,7.863,0,0,1,1.535-.209,2.587,2.587,0,0,1,2,.866,3.676,3.676,0,0,0,.951.122,7.018,7.018,0,0,0,2.551-.625c1.945-1.4,4.173-1.62,6.328-1.833.855-.084,1.739-.172,2.6-.332l.723-.238H1749a6.666,6.666,0,0,0,1.078-.172,5.877,5.877,0,0,1,1.217-.175,2.1,2.1,0,0,1,1.372.476l.06-.009a4.359,4.359,0,0,1,1.209,1.389c.533.814,1.084,1.657,2.17,1.657a2.525,2.525,0,0,0,.527-.059,3.585,3.585,0,0,0,.167-1.38,2.771,2.771,0,0,1,.381-1.767l2.014-.5c.18-.046.365-.1.528-.158a3.83,3.83,0,0,1,1.087-.241c.633,0,1.005.451,1.171,1.419l.453.193.407.174.081-.005,1.187-.076,1.193-.077a8.483,8.483,0,0,1,3.411-1.953,1.56,1.56,0,0,1,.59-.132,1.078,1.078,0,0,1,.93.574l.754.058h.045l.943.072a.362.362,0,0,1,.288-.286c.841-1.013,1.57-1.485,2.294-1.485a2.47,2.47,0,0,1,1.746.92,3.03,3.03,0,0,1,1.935.959,8.153,8.153,0,0,0,.663.523,4.229,4.229,0,0,0,3.366,1.576,6.677,6.677,0,0,0,1.529-.192,1.988,1.988,0,0,1,1.125-.419,1.749,1.749,0,0,0,1.33-.642,1.122,1.122,0,0,1,.889-.524.965.965,0,0,1,.635.256c.549.481.272.877,0,1.259a1.716,1.716,0,0,0-.3.57l.151.084.183.1,1.508.836a1.533,1.533,0,0,0,.425.066,1.031,1.031,0,0,0,.9-.517,2.292,2.292,0,0,1,2.006-1.424,5.3,5.3,0,0,1,1.763.444,5.5,5.5,0,0,0,1.7.444.429.429,0,0,1,.273-.138.207.207,0,0,1,.1.026c.172-.056.346-.121.515-.183h.013a4.906,4.906,0,0,1,1.642-.4,2.1,2.1,0,0,1,1.485.631,1.046,1.046,0,0,0,1.08.672c.149,0,.305-.014.456-.027l.1-.009.063-.069.551-.591.355-.38a8.634,8.634,0,0,1,.156-1.036,3.389,3.389,0,0,0-.357-2.906.959.959,0,0,1-.17-.908,1.622,1.622,0,0,1,1.134-.884c.924-.243,1.871-.433,2.786-.617l.088-.018c.359-.073.73-.147,1.094-.225a2.018,2.018,0,0,1,.372-.04c.762,0,.769.637.775,1.254.006.567.012,1.153.6,1.243l1.58.646.276.113,1.756.163.263.024.827-.059h.048l.727-.052a2.219,2.219,0,0,0,.212-2.289,2.983,2.983,0,0,0-.549-.249c-.362-.136-.731-.276-.87-.6a1.3,1.3,0,0,1,.107-1,6.441,6.441,0,0,1,2.473-.409c.335,0,.669.012.991.023h.008c.323.012.656.024.992.024.314,0,.591-.011.847-.033l.888-.166a2.665,2.665,0,0,1,1.218-.436c.689,0,.765.755.839,1.485a2.745,2.745,0,0,0,.3,1.218l.4.378.1.092.6.573c.44-.027.883-.095,1.311-.16a11.55,11.55,0,0,1,1.7-.172,3.829,3.829,0,0,1,1.928.466l1.953.393a.894.894,0,0,1,.219-.027,1.848,1.848,0,0,1,.777.227,5.575,5.575,0,0,0,.671.034,2.116,2.116,0,0,1,1.759.584,8.767,8.767,0,0,1,1.088.456,4.749,4.749,0,0,0,2,.609,2.451,2.451,0,0,0,.675-.1l.535-.17q.685-.37,1.37-.737c0-.01-.008-.018-.011-.027l-.006-.016c1.064-.763,1.41-1.863,1.12-3.568-.021-.126-.054-.258-.088-.4V6.059c-.145-.59-.31-1.259.386-1.472a2.429,2.429,0,0,1,.694-.087c.6,0,1.3.158,1.424.449a3.9,3.9,0,0,0,2.565,2.112,5.78,5.78,0,0,1,1.7.911,6.758,6.758,0,0,0,1.145.1,9.516,9.516,0,0,0,2.886-.5c.094-.106.206-.256.3-.376.2-.271.415-.551.527-.551h.022a8.4,8.4,0,0,0,3.181.5c.408,0,.826-.013,1.229-.025h.008c.4-.013.824-.025,1.238-.025a6.625,6.625,0,0,1,5,1.7.694.694,0,0,0,.393.185.132.132,0,0,0,.067-.015,3.642,3.642,0,0,1,1.907-.549,7.6,7.6,0,0,1,3,.876h.007a7.6,7.6,0,0,0,3.016.88c.071,0,.142,0,.211-.006,3.058-.179,5.531-1.879,7.922-3.522l.047-.033c.319-.219.649-.446.974-.664a7.266,7.266,0,0,1,3.722-1.533,2.663,2.663,0,0,0,2.464-1.136,3.7,3.7,0,0,1,3.236-1.979,5.19,5.19,0,0,1,2.229.552,20.691,20.691,0,0,0,6.234,1.584l.5.074.127-.008c.11-.006.221-.012.329-.012a1.178,1.178,0,0,1,.921.34,32.261,32.261,0,0,0,7.68,1.12,19.214,19.214,0,0,0,3.668-.345,50.4,50.4,0,0,1,9.6-.965,40.906,40.906,0,0,1,7.359.655c3.164.581,6.267,1.129,9.437,1.45a17.609,17.609,0,0,1,4.754,1.43,16.1,16.1,0,0,0,6.025,1.562c.213,0,.429-.008.643-.024h.065c.593,0,1.1.579,1.69,1.25a4.222,4.222,0,0,0,2.437,1.726h3.247c1.106,0,2.417,0,3.743.041h.028a1.874,1.874,0,0,0,.216-.009h.028c.087-.006.18-.011.271-.011.184,0,.441.02.547.193s.051.465-.167.891a4.149,4.149,0,0,1-3.29,1.2c-.274,0-.554-.009-.824-.018H1957c-.266-.008-.541-.017-.812-.017a6.259,6.259,0,0,0-1.713.193,4.245,4.245,0,0,0,.549,1.459c.564,1.093,1.147,2.224-.685,3.185l-.782.13-.286.048a1.4,1.4,0,0,1-.965.431,2.688,2.688,0,0,1-1.18-.4,3.121,3.121,0,0,0-1.028-.393l-.055.02-.829.293v-.008c-.2.5-.586.533-1,.568a1.09,1.09,0,0,0-.969.442,1.31,1.31,0,0,0,1.43,1.089,4.224,4.224,0,0,0,.594-.049,2.811,2.811,0,0,1,.4-.029,5.246,5.246,0,0,1,2.363.776,5.223,5.223,0,0,0,2.356.777h.166c.227,0,.591.433.648.706.09.426-.2.584-.487.736a1.922,1.922,0,0,0-.285.174,2.207,2.207,0,0,1-1.443.406h-.348c-.094,0-.21,0-.32,0a3.455,3.455,0,0,0-.609.045c-.349,2.125-1.85,2.488-3.272,2.563l-.154.007h-.041a1.783,1.783,0,0,0-1.267.35.935.935,0,0,0-.178.735c.068.734.841.818,1.417.818.081,0,.168,0,.266,0,2.116-.078,4.268-.149,6.348-.217h.067l2.164-.072a1.406,1.406,0,0,1,.87-.309,3.04,3.04,0,0,1,1.256.387c.178.084.344.163.508.222a2.425,2.425,0,0,0,.812.171.81.81,0,0,0,.689-.3,1.806,1.806,0,0,0,.09-1.51,7.474,7.474,0,0,1,.047-4.2c.17-.243.377-.489.577-.727l.017-.02c.563-.667,1.145-1.358,1.008-2.064-.1-.522-.58-1-1.465-1.475l-.722.07-.327.032-2.083.2a6.122,6.122,0,0,1,3.8-1.462c.111,0,.224,0,.335.009a2.575,2.575,0,0,1,1.429-.432,5.733,5.733,0,0,1,1.948.478,6.466,6.466,0,0,0,1.744.471c.045-.323.091-.647.137-.97a7.054,7.054,0,0,1,1.5-4.538c.188-.306.383-.622.564-.94a9.877,9.877,0,0,1,2.236-.222c.609,0,1.23.036,1.83.071h.028c.6.035,1.23.072,1.849.072.407,0,.774-.016,1.122-.048l3.94-.775.429-.084.717-.141a16.847,16.847,0,0,1,3.034-.229c.465,0,.955.009,1.349.017h.048c.435.009.884.017,1.325.017a13.912,13.912,0,0,0,4.251-.533c.741-.06,1.493-.166,2.22-.268h.012a25.006,25.006,0,0,1,3.455-.323h.04a1.215,1.215,0,0,1-.963-1.424l.005-.027c.075-.882.655-.907,1.269-.934h.172c.128,0,.259,0,.375.009h.009c.13.005.261.011.391.011a2.077,2.077,0,0,0,1.038-.225,8.993,8.993,0,0,1,2.457-.345c2.452,0,4.712.969,7.351,2.424.553,1.188,1.629,1.406,2.669,1.617l.065.013a2.148,2.148,0,0,0,.4.052c.114,0,.181-.023.2-.069.045-.09-.077-.252-.206-.423s-.266-.353-.223-.459c.019-.046.069-.075.15-.089a1.792,1.792,0,0,1,1.053-.391,1.685,1.685,0,0,1,1.055.417,9.3,9.3,0,0,1,2.731-.352c1.532-.045,3.112-.091,4.4-1.394a5.68,5.68,0,0,1,3.958-1.48c4.019-.329,8.573-.7,13.026-.7,1.469,0,2.835.039,4.179.118.091,0,.189.007.3.007h.675a2.455,2.455,0,0,1,1.5.385,2.811,2.811,0,0,1,2.106,1.169,4.727,4.727,0,0,0,1.389.177c.324,0,.652-.019.969-.037h.012c.318-.019.646-.037.967-.037a3.76,3.76,0,0,1,2.333.635h.056c1.177-.054,2.394-.109,2.668-2.125a5.487,5.487,0,0,1,.681,1.22c.251.565.449,1.01.966,1.188a3.668,3.668,0,0,0,1.537,2.966,5.624,5.624,0,0,0,2.915.588c.283,0,.572-.007.792-.013h.348c.389,0,.779.015,1.156.03h.017c.388.015.788.03,1.182.03h.351c.156,0,.316-.006.47-.007h.012c.981-.01,1.907-.021,2.239-.583.275-.466.1-1.272-.547-2.464s.474-1.961,1.576-2.582A4.893,4.893,0,0,1,2071,5.812V120.789l-.087-.016h-.071V519.748l.159-.036V624.98c-2.2.12-4.352.24-6.737.372a7.712,7.712,0,0,0-2.92-.521,20.473,20.473,0,0,0-3.047.3l-.52.08a24.575,24.575,0,0,1-3.691.378,9.267,9.267,0,0,1-2.508-.318,25.4,25.4,0,0,0-3.485-.222c-1.979,0-3.988.184-5.93.362-.552.05-1.09.1-1.614.144a3.537,3.537,0,0,0-.5.1,3.221,3.221,0,0,1-.736.119c-.54,0-.859-.32-1-1.005l-.423.037h-.05l-.374.033a14.574,14.574,0,0,1-2.653.229,24.8,24.8,0,0,1-3.711-.318,29.319,29.319,0,0,0-4.4-.291c-1.375,0-2.77.063-4.119.125h-.03c-1.34.061-2.726.124-4.091.124-.5,0-.957-.008-1.406-.024l-4.087.563-3.78.52a4.646,4.646,0,0,1-2.836.839,15.752,15.752,0,0,1-2.135-.2l-.1-.014c-.292.041-.6.1-.865.157a7.875,7.875,0,0,1-1.535.209,2.586,2.586,0,0,1-2-.866,3.673,3.673,0,0,0-.951-.122,7.018,7.018,0,0,0-2.551.625c-1.945,1.4-4.172,1.62-6.327,1.832-.855.084-1.74.172-2.6.332l-.724.237h-.278a6.646,6.646,0,0,0-1.077.172,5.878,5.878,0,0,1-1.216.175,2.092,2.092,0,0,1-1.373-.476l-.059.009a4.349,4.349,0,0,1-1.209-1.39c-.533-.814-1.084-1.656-2.169-1.656a2.515,2.515,0,0,0-.527.059,3.542,3.542,0,0,0-.167,1.379,2.787,2.787,0,0,1-.381,1.768l-2.014.5c-.176.044-.355.1-.529.158a3.831,3.831,0,0,1-1.086.241c-.633,0-1.005-.451-1.171-1.419l-.453-.193-.119-.05-.288-.123-.131.009-1.149.074-.127.008-1.054.068a8.456,8.456,0,0,1-3.41,1.953,1.562,1.562,0,0,1-.59.133,1.077,1.077,0,0,1-.929-.573l-.853-.065-.889-.068a.362.362,0,0,1-.288.286c-.841,1.013-1.57,1.485-2.294,1.485a2.47,2.47,0,0,1-1.746-.92,3.037,3.037,0,0,1-1.935-.96,8.287,8.287,0,0,0-.662-.523,4.231,4.231,0,0,0-3.367-1.576,6.667,6.667,0,0,0-1.528.192,1.981,1.981,0,0,1-1.125.419,1.746,1.746,0,0,0-1.33.642,1.123,1.123,0,0,1-.89.524.965.965,0,0,1-.635-.256c-.549-.481-.272-.876,0-1.258a1.709,1.709,0,0,0,.3-.571l-.168-.093-1.674-.928a1.53,1.53,0,0,0-.425-.066,1.033,1.033,0,0,0-.9.517,2.292,2.292,0,0,1-2.006,1.424,5.274,5.274,0,0,1-1.763-.444,5.539,5.539,0,0,0-1.7-.444.429.429,0,0,1-.272.138.2.2,0,0,1-.1-.026c-.174.057-.351.122-.521.185h-.008a4.9,4.9,0,0,1-1.641.4,2.1,2.1,0,0,1-1.485-.631,1.045,1.045,0,0,0-1.08-.672c-.15,0-.306.014-.457.027l-.1.009-.164.176-.518.555-.288.308a8.719,8.719,0,0,1-.155,1.031v.006a3.389,3.389,0,0,0,.358,2.906.96.96,0,0,1,.169.908,1.62,1.62,0,0,1-1.135.884c-.92.242-1.869.433-2.786.617-.421.085-.8.161-1.181.242a1.955,1.955,0,0,1-.373.04c-.761,0-.768-.638-.774-1.254-.006-.567-.013-1.153-.6-1.243l-1.035-.423-.82-.335-1.881-.175-.139-.013-.826.06-.775.056a2.217,2.217,0,0,0-.212,2.289,2.955,2.955,0,0,0,.552.25,1.371,1.371,0,0,1,.868.6,1.3,1.3,0,0,1-.108,1,6.438,6.438,0,0,1-2.473.409c-.335,0-.684-.012-.991-.023s-.66-.024-1-.024c-.314,0-.591.011-.847.033l-.888.165a2.664,2.664,0,0,1-1.218.436c-.689,0-.765-.755-.839-1.484a2.743,2.743,0,0,0-.3-1.218l-.322-.306-.155-.147-.62-.589c-.44.027-.883.095-1.311.16a11.4,11.4,0,0,1-1.7.172,3.827,3.827,0,0,1-1.928-.466l-1.953-.393a.846.846,0,0,1-.219.026,1.852,1.852,0,0,1-.778-.227,5.776,5.776,0,0,0-.671-.034,2.116,2.116,0,0,1-1.759-.584,8.74,8.74,0,0,1-1.086-.455,4.764,4.764,0,0,0-2-.61,2.451,2.451,0,0,0-.675.095l-.535.17q-.686.37-1.371.737l.009.023.006.016c-1.064.763-1.41,1.863-1.12,3.568.021.124.053.254.086.393v.016c.145.59.31,1.258-.386,1.471a2.419,2.419,0,0,1-.693.086c-.6,0-1.3-.157-1.424-.449a3.907,3.907,0,0,0-2.565-2.112,5.8,5.8,0,0,1-1.7-.911,6.757,6.757,0,0,0-1.145-.1,9.547,9.547,0,0,0-2.886.5c-.088.1-.188.232-.286.361l-.012.015c-.2.271-.413.551-.526.551a.041.041,0,0,1-.022,0,8.392,8.392,0,0,0-3.178-.5c-.418,0-.854.013-1.24.025h-.01c-.4.012-.818.025-1.225.025a6.624,6.624,0,0,1-5-1.7.7.7,0,0,0-.393-.185.128.128,0,0,0-.067.015,3.647,3.647,0,0,1-1.908.549,7.576,7.576,0,0,1-3-.876h-.006a7.6,7.6,0,0,0-3.016-.88c-.071,0-.141,0-.211.006-3.058.179-5.531,1.878-7.922,3.522l-.047.033c-.319.219-.649.446-.974.664a7.264,7.264,0,0,1-3.723,1.533,2.663,2.663,0,0,0-2.464,1.136,3.7,3.7,0,0,1-3.236,1.979,5.186,5.186,0,0,1-2.229-.552,20.719,20.719,0,0,0-6.233-1.583l-.506-.074-.126.008c-.11.006-.221.012-.329.012a1.177,1.177,0,0,1-.921-.341,32.268,32.268,0,0,0-7.679-1.12,19.217,19.217,0,0,0-3.669.345,50.4,50.4,0,0,1-9.6.965,40.894,40.894,0,0,1-7.359-.655c-3.166-.581-6.271-1.13-9.436-1.45a17.558,17.558,0,0,1-4.753-1.43,16.123,16.123,0,0,0-6.026-1.562c-.213,0-.43.008-.642.023h-.066c-.592,0-1.1-.578-1.689-1.248a4.224,4.224,0,0,0-2.438-1.728h-3.23c-1.107,0-2.418,0-3.744-.041h-.028c-.067,0-.145.005-.227.01h-.016c-.087.005-.18.011-.271.011-.184,0-.441-.02-.547-.193s-.051-.464.167-.891a4.15,4.15,0,0,1,3.29-1.2c.274,0,.554.009.824.018h.019c.266.008.54.017.812.017a6.258,6.258,0,0,0,1.713-.193,4.278,4.278,0,0,0-.547-1.455c-.566-1.1-1.149-2.227.683-3.188l.782-.13.286-.048a1.4,1.4,0,0,1,.965-.432,2.689,2.689,0,0,1,1.181.4,3.121,3.121,0,0,0,1.028.393l.123-.044.762-.269v.008c.2-.5.586-.533,1-.568a1.088,1.088,0,0,0,.969-.442,1.31,1.31,0,0,0-1.43-1.089,4.37,4.37,0,0,0-.594.049,2.825,2.825,0,0,1-.4.029,5.233,5.233,0,0,1-2.364-.776,5.251,5.251,0,0,0-2.355-.776h-.165c-.227,0-.591-.434-.648-.706-.09-.426.2-.584.487-.736h.006a1.815,1.815,0,0,0,.28-.17,2.211,2.211,0,0,1,1.443-.406h.346c.1,0,.211.005.32.005a3.363,3.363,0,0,0,.609-.045c.35-2.125,1.85-2.488,3.272-2.563l.154-.007h.04a1.782,1.782,0,0,0,1.267-.35.935.935,0,0,0,.178-.735c-.068-.733-.841-.818-1.417-.818-.082,0-.169,0-.266.005-2.116.078-4.268.149-6.348.217h-.068l-2.164.071a1.392,1.392,0,0,1-.87.309,3.019,3.019,0,0,1-1.255-.386c-.178-.084-.344-.162-.508-.222a2.436,2.436,0,0,0-.812-.171.813.813,0,0,0-.691.3,1.809,1.809,0,0,0-.089,1.51,7.482,7.482,0,0,1-.047,4.2c-.172.246-.382.5-.585.737l-.009.01c-.563.668-1.145,1.358-1.008,2.064.1.521.58,1,1.465,1.474l.617-.06.537-.052,1.979-.191a6.118,6.118,0,0,1-3.8,1.462c-.106,0-.218,0-.334-.009a2.575,2.575,0,0,1-1.428.432,5.7,5.7,0,0,1-1.947-.477,6.491,6.491,0,0,0-1.745-.471c-.024.176-.049.354-.074.531l-.062.439a7.06,7.06,0,0,1-1.494,4.537c-.169.274-.379.612-.565.941a9.83,9.83,0,0,1-2.236.222c-.61,0-1.23-.036-1.83-.071h-.022c-.608-.035-1.236-.072-1.855-.072-.407,0-.774.016-1.122.047l-4.507.886-.579.114a16.754,16.754,0,0,1-3.034.229c-.464,0-.955-.009-1.349-.017h-.047c-.435-.009-.884-.017-1.325-.017a13.913,13.913,0,0,0-4.251.533c-.74.06-1.49.165-2.216.267h-.015a24.852,24.852,0,0,1-3.455.323h-.04a1.216,1.216,0,0,1,.963,1.425l-.005.026c-.075.882-.655.907-1.268.934h-.173c-.129,0-.265-.005-.375-.009h-.016c-.126-.005-.256-.01-.384-.01a2.072,2.072,0,0,0-1.037.225,8.954,8.954,0,0,1-2.457.345c-2.453,0-4.713-.969-7.352-2.424-.553-1.188-1.629-1.406-2.669-1.617l-.065-.013a2.236,2.236,0,0,0-.4-.052c-.114,0-.181.023-.2.069-.044.09.077.251.206.423s.266.354.224.46c-.019.046-.068.075-.15.089a1.79,1.79,0,0,1-1.053.392,1.69,1.69,0,0,1-1.056-.417,9.292,9.292,0,0,1-2.735.352c-1.528.045-3.108.091-4.4,1.394a5.671,5.671,0,0,1-3.958,1.48c-4.018.33-8.573.7-13.026.7-1.469,0-2.836-.038-4.18-.118-.091,0-.189-.008-.3-.008h-.675a2.454,2.454,0,0,1-1.5-.385,2.813,2.813,0,0,1-2.106-1.169,4.754,4.754,0,0,0-1.389-.177c-.324,0-.652.019-.969.037h-.014c-.317.018-.645.037-.966.037a3.759,3.759,0,0,1-2.333-.635h-.056c-1.177.053-2.394.109-2.668,2.125a5.482,5.482,0,0,1-.681-1.22c-.25-.564-.448-1.01-.966-1.187a3.67,3.67,0,0,0-1.536-2.966,5.624,5.624,0,0,0-2.915-.588c-.283,0-.572.007-.792.012h-.348c-.389,0-.779-.015-1.156-.03h-.016c-.388-.015-.789-.03-1.182-.03h-.351c-.156,0-.317.006-.472.008h-.011c-.981.01-1.907.021-2.239.583-.275.466-.1,1.273.547,2.464s-.474,1.962-1.577,2.582a4.031,4.031,0,0,1-1.995.588c-1.5,0-2.654-1.093-3.775-2.149-.394-.372-.8-.755-1.221-1.09a3.989,3.989,0,0,0-1.232-.329c-1.023-.161-2.08-.327-2.263-2.148-.031-.308-1.844-.924-3.359-1.387a79.608,79.608,0,0,1-10.536.544c-1.306.009-2.655.019-3.995.054-.146,0-.292.006-.434.006a20.736,20.736,0,0,1-5.011-.674,6.891,6.891,0,0,1-1.343.144,3.813,3.813,0,0,1-3.8-2.889h-.139c-.512-.01-1.041-.02-1.322-.655.394-.692.736-1,1.111-1a1.112,1.112,0,0,1,.757.4,7.652,7.652,0,0,0,.561-1.618,11.043,11.043,0,0,1,.356-1.166,1.559,1.559,0,0,1-1.249.625,2.041,2.041,0,0,1-.412-.044h-.031c.173.6.184.995.035,1.193a.472.472,0,0,1-.408.163,3.27,3.27,0,0,1-.716-.125h-.005a3.311,3.311,0,0,0-.712-.124.577.577,0,0,0-.312.074c-.049-.087-.1-.174-.153-.258a2.245,2.245,0,0,1-.422-1.07l-.054.006-.054.006a3.783,3.783,0,0,0-.9-.1,9.364,9.364,0,0,0-1.66.2h-.011a9.234,9.234,0,0,1-1.665.2c-.1,0-.2,0-.3-.01h-.038c-.123,0-.25.007-.373.013h-.054c-.13.007-.265.015-.4.015a1.446,1.446,0,0,1-1.23-.524h-.406l-.473-.005-3.653,1.081a2.367,2.367,0,0,1-1.684.516,4.99,4.99,0,0,0-.818.076c-.833,2.7-2.271,4.075-4.276,4.075a8.028,8.028,0,0,1-4.029-1.391c-.422.3-.877.561-1.317.819a9.246,9.246,0,0,0-2.43,1.8,4.565,4.565,0,0,0-1.026,3.259c.043,1.416-1.68,2.135-2.423,2.379-.268.065-.552.154-.8.233a5.5,5.5,0,0,1-1.556.336c-.915,0-1.494-.624-1.823-1.964a1.218,1.218,0,0,0-1.111-.922.86.86,0,0,0-.555.2,4.615,4.615,0,0,1-3.058,1.055,13.556,13.556,0,0,1-2.4-.293,13.769,13.769,0,0,0-2.359-.292c-.375,0-.755-.018-1.123-.034h-.016c-.4-.017-.809-.034-1.216-.034a8.965,8.965,0,0,0-1.418.1,4.144,4.144,0,0,1-1.491.259,10.817,10.817,0,0,1-2.028-.261h-.006a10.906,10.906,0,0,0-2.052-.264,4.687,4.687,0,0,0-.709.052l-.281.041-.043.006a3.1,3.1,0,0,0-2.379,1.112,6.916,6.916,0,0,1-5.728,2.986,11.794,11.794,0,0,1-3.976-.791,2.761,2.761,0,0,0-.937-.191,1.828,1.828,0,0,0-.773.172,7.777,7.777,0,0,1-3.2.779,5.632,5.632,0,0,1-4.069-1.8,4.09,4.09,0,0,0-3.039-1.334,10.3,10.3,0,0,0-2.817.55,13.007,13.007,0,0,1-2.255.52,4.445,4.445,0,0,0-1.161.349c-.167.068-.352.142-.534.2.293,1.15,1.139,1.354,2.034,1.571h.005a7.7,7.7,0,0,1,.978.284,4.292,4.292,0,0,1-2.359.831,3.4,3.4,0,0,1-1.7-.482l-.327-.052-.031-.005-.558-.089c-.322-.01-.652-.026-.99-.042-.526-.025-1.069-.051-1.6-.051-.217,0-.419,0-.618.013h-.168c-.409,0-.654-.074-.75-.225-.125-.194.013-.5.147-.785a1.655,1.655,0,0,0,.2-.6l-.067-.1-.133-.19-.1-.142-.1-.143c-.7-.009-1.4-.024-2.089-.038h-.036c-1.129-.023-2.3-.047-3.444-.047-.565,0-1.08.005-1.575.017h-.146c-.19,0-.385-.008-.574-.016h-.039c-.2-.009-.411-.018-.618-.018a2.511,2.511,0,0,0-2.479,1.389,1.519,1.519,0,0,1-1.381.632,1.645,1.645,0,0,1-1.2-.4,6.92,6.92,0,0,0-2.683-1.736,7.738,7.738,0,0,1-2.276-1.334,23.826,23.826,0,0,0-7.1-2.865,1.117,1.117,0,0,1-1.027-.6.457.457,0,0,1,.156-.528,2.337,2.337,0,0,0,.6-1.6c-2.915.112-5.88.268-8.747.42h-.017c-3.073.163-6.25.331-9.377.444-.207.008-.423.011-.644.011-1.153,0-2.322-.1-3.452-.2s-2.3-.206-3.465-.206a14.371,14.371,0,0,0-2.636.223,7.9,7.9,0,0,1-.9.19,16.391,16.391,0,0,1-1.874.219,2.786,2.786,0,0,1,.74,1.005,9.113,9.113,0,0,0-4.254-.947c-.4,0-.79,0-1.178.014h-.171c-.264.008-.575.019-.883.038-3.2.449-6.464.679-9.622.9-1.14.08-2.316.163-3.477.255-.574.045-1.155.113-1.716.178a26.009,26.009,0,0,1-2.978.231,8.011,8.011,0,0,1-4.149-1.016.708.708,0,0,0-.349-.08,3.562,3.562,0,0,0-1.124.292,14.144,14.144,0,0,1-5.084,1.078,9.271,9.271,0,0,1-3.36-.615,28.707,28.707,0,0,1-3.1.215,9.845,9.845,0,0,1-4.292-.856c-.339,0-.7-.006-1.1-.006-.616,0-1.265.005-1.786.009h-.124c-.542,0-1.1.008-1.653.008a42.209,42.209,0,0,1-6.512-.4c-2.431-.378-4.357-.993-5.854-2.767h-.036a18.771,18.771,0,0,1-2.37.132l-7.11.391a7.736,7.736,0,0,0-2.921-.52,20.62,20.62,0,0,0-3.047.3l-.516.079a24.576,24.576,0,0,1-3.7.38,9.28,9.28,0,0,1-2.508-.318,25.377,25.377,0,0,0-3.484-.223c-1.969,0-3.966.182-5.9.359h-.016c-.5.045-1.073.1-1.63.145a3.545,3.545,0,0,0-.5.1,3.233,3.233,0,0,1-.737.119c-.539,0-.858-.319-1-1l-.744.065-.1.009a14.525,14.525,0,0,1-2.649.229,24.977,24.977,0,0,1-3.714-.317,29.3,29.3,0,0,0-4.4-.291c-1.375,0-2.77.063-4.118.125h-.03c-1.342.061-2.729.124-4.094.124-.5,0-.959-.008-1.4-.024l-3.934.541-3.933.541a4.658,4.658,0,0,1-2.838.838,15.6,15.6,0,0,1-2.125-.2h-.005l-.1-.014c-.291.041-.6.1-.864.157a7.877,7.877,0,0,1-1.535.209,2.586,2.586,0,0,1-2-.866,3.684,3.684,0,0,0-.951-.122,7.018,7.018,0,0,0-2.551.625c-1.946,1.4-4.174,1.619-6.329,1.832-.858.085-1.742.172-2.6.331l-.723.239h-.278a6.718,6.718,0,0,0-1.075.171,5.9,5.9,0,0,1-1.219.176,2.089,2.089,0,0,1-1.372-.476l-.059.009a4.349,4.349,0,0,1-1.208-1.387c-.534-.817-1.085-1.659-2.171-1.659a2.526,2.526,0,0,0-.528.059,3.579,3.579,0,0,0-.167,1.378,2.774,2.774,0,0,1-.381,1.768l-2.015.5c-.172.044-.349.1-.521.156h-.006a3.827,3.827,0,0,1-1.087.241c-.634,0-1.006-.451-1.172-1.419l-.859-.366-1.989.127-.473.03a8.571,8.571,0,0,1-3.41,1.953,1.547,1.547,0,0,1-.591.133,1.076,1.076,0,0,1-.928-.573l-1.026-.079h-.021l-.694-.053a.359.359,0,0,1-.288.285c-.841,1.013-1.57,1.485-2.293,1.485a2.475,2.475,0,0,1-1.747-.92,3.023,3.023,0,0,1-1.932-.958,8.178,8.178,0,0,0-.664-.524,4.233,4.233,0,0,0-3.366-1.576,6.685,6.685,0,0,0-1.529.192,1.981,1.981,0,0,1-1.125.419,1.752,1.752,0,0,0-1.332.642,1.122,1.122,0,0,1-.889.524.96.96,0,0,1-.635-.255c-.55-.481-.273-.877,0-1.26a1.714,1.714,0,0,0,.3-.57l-.669-.371-1.172-.65a1.532,1.532,0,0,0-.426-.066,1.032,1.032,0,0,0-.9.518,2.29,2.29,0,0,1-2.006,1.423,5.3,5.3,0,0,1-1.766-.445,5.5,5.5,0,0,0-1.7-.444.43.43,0,0,1-.273.139.207.207,0,0,1-.1-.026c-.172.057-.346.121-.514.183l-.016.006a4.89,4.89,0,0,1-1.64.4,2.1,2.1,0,0,1-1.484-.63,1.046,1.046,0,0,0-1.079-.673c-.149,0-.305.014-.456.027l-.1.009-.034.037-.935,1a8.753,8.753,0,0,1-.154,1.03v.006a3.389,3.389,0,0,0,.357,2.906.963.963,0,0,1,.169.909,1.618,1.618,0,0,1-1.135.883c-.923.244-1.874.435-2.793.62-.344.069-.771.155-1.174.241a2.037,2.037,0,0,1-.373.04c-.761,0-.768-.637-.775-1.253-.006-.568-.013-1.154-.6-1.244l-1.856-.76q-1.009-.091-2.019-.187l-1.285.092-.316.022a2.222,2.222,0,0,0-.214,2.289,3.016,3.016,0,0,0,.552.25c.358.135.728.273.868.6a1.3,1.3,0,0,1-.108,1,6.436,6.436,0,0,1-2.469.408c-.329,0-.661-.012-.983-.023h-.026c-.321-.011-.653-.023-.98-.023s-.594.011-.853.033l-.068.013-.146.027-.672.125a2.677,2.677,0,0,1-1.218.437c-.689,0-.765-.754-.839-1.484a2.752,2.752,0,0,0-.294-1.22l-.583-.555-.012-.012-.5-.476c-.436.027-.879.094-1.307.159a11.492,11.492,0,0,1-1.706.173,3.828,3.828,0,0,1-1.928-.466l-1.954-.393a.886.886,0,0,1-.218.027,1.859,1.859,0,0,1-.777-.228,5.573,5.573,0,0,0-.672-.034,2.117,2.117,0,0,1-1.758-.583,9.026,9.026,0,0,1-1.08-.453h-.006a4.748,4.748,0,0,0-2-.609,2.429,2.429,0,0,0-.678.1l-.367.117-.167.053-.5.268-.081.044-.788.424.006.016v.027c-1.064.762-1.41,1.862-1.121,3.568.022.129.055.266.091.41.145.589.308,1.257-.385,1.47a2.5,2.5,0,0,1-.693.086c-.6,0-1.3-.157-1.425-.449a3.9,3.9,0,0,0-2.564-2.112,5.77,5.77,0,0,1-1.7-.911,6.687,6.687,0,0,0-1.148-.1,9.535,9.535,0,0,0-2.884.5c-.09.1-.193.237-.3.379-.2.271-.412.549-.524.549h-.022a8.433,8.433,0,0,0-3.187-.5c-.413,0-.845.013-1.226.024h-.013c-.4.012-.821.025-1.23.025a6.625,6.625,0,0,1-5-1.7.694.694,0,0,0-.391-.185.126.126,0,0,0-.068.016,3.645,3.645,0,0,1-1.908.549,7.579,7.579,0,0,1-3-.875h-.008a7.585,7.585,0,0,0-3.013-.879c-.069,0-.141,0-.213.006a10.115,10.115,0,0,0-3.5.883,27.638,27.638,0,0,0-4.445,2.657l-.07.048c-.3.208-.616.423-.924.629a7.281,7.281,0,0,1-3.724,1.533,2.661,2.661,0,0,0-2.464,1.136,3.651,3.651,0,0,1-3.234,2.019m-105.439-10.6a.739.739,0,0,1,.576.325l.016.012.194.136c-.016-.13-.047-.279-.077-.422l-.018-.085a3.169,3.169,0,0,1,.31-.221l.009-.005h.006a1.9,1.9,0,0,1-1.41-.609,2.861,2.861,0,0,1,.022.977A.8.8,0,0,1,1080.56,630.134Zm71.41-4.035c-.379,0-.755.012-1.072.024a5.88,5.88,0,0,0,3.084,2.027,8.738,8.738,0,0,1,2.185,1.079c-.051.5-.219.767-.53.855a3.468,3.468,0,0,0,.859.124,2.148,2.148,0,0,0,.9-.188,1.709,1.709,0,0,1,.284-.051c.034-.242.07-.485.1-.727l.019-.132a2.828,2.828,0,0,1,1.656-.729,1.8,1.8,0,0,1,1.36.723,1.6,1.6,0,0,1-.339.4c.2-.063.4-.123.592-.182l.054-.016a11.838,11.838,0,0,0,1.626-.572,1.392,1.392,0,0,0,.076-1.253.826.826,0,0,0-.708-.294,1.871,1.871,0,0,0-.775.168,4.244,4.244,0,0,1-2.077.546,8.724,8.724,0,0,1-3.308-.909c-.5-.21-1.013-.427-1.532-.6a8.611,8.611,0,0,0-2.454-.3Zm588.391,2.769a.739.739,0,0,1,.574.324l.088.062.038.027.085.06c-.015-.12-.042-.253-.071-.4v-.013l-.02-.1a2.921,2.921,0,0,1,.3-.216l.021-.014a1.9,1.9,0,0,1-1.41-.609,2.891,2.891,0,0,1,.022.978.808.808,0,0,1,.372-.1Zm-1333.607,0a.739.739,0,0,1,.574.324l.087.062.038.027.085.06c-.015-.125-.044-.263-.074-.409l-.021-.1a3.046,3.046,0,0,1,.3-.216l.021-.014a1.9,1.9,0,0,1-1.409-.609,2.9,2.9,0,0,1,.022.978.8.8,0,0,1,.377-.1Zm686.216-1.8a2.246,2.246,0,0,1,1.034.172.02.02,0,0,1,.005.022.988.988,0,0,0,0,.766,1.139,1.139,0,0,0,.756.42c.355.1.691.188.755.527a.9.9,0,0,1,.485.246,2.429,2.429,0,0,1,1.711-.657,5.575,5.575,0,0,1,1.4.225l.174-.005a3.258,3.258,0,0,0-.75-.833,2.73,2.73,0,0,1-.854-1.057h-.009l-.176.021a4.783,4.783,0,0,1-1.921.911c-.558,0-.687-.655-.74-1.944a3.656,3.656,0,0,1,.4-.277h-1.195c-1.689,0-2.983,0-4.194.015a11.928,11.928,0,0,0-2.8.541,1.558,1.558,0,0,1-.033.254,2.832,2.832,0,0,0-.2.376l.1.226.052.113.108.234a1.465,1.465,0,0,0,.148.008,1.7,1.7,0,0,0,.266-.021,2.234,2.234,0,0,1,.294-.019,5.371,5.371,0,0,1,1.41.262h.008a5.4,5.4,0,0,0,1.412.265,2.069,2.069,0,0,0,1.557-.691,2.622,2.622,0,0,1,.8-.1Zm718.8-2.23c-.349,0-.691.011-1.071.024a5.871,5.871,0,0,0,3.085,2.027,8.768,8.768,0,0,1,2.184,1.078c-.051.5-.219.768-.531.857a3.443,3.443,0,0,0,.857.123,2.164,2.164,0,0,0,.9-.189,1.72,1.72,0,0,1,.285-.05q.06-.429.123-.859a2.828,2.828,0,0,1,1.656-.729,1.8,1.8,0,0,1,1.361.724,1.689,1.689,0,0,1-.339.4c.217-.07.438-.136.652-.2a11.75,11.75,0,0,0,1.62-.57,1.389,1.389,0,0,0,.077-1.253.828.828,0,0,0-.707-.295,1.857,1.857,0,0,0-.776.169,4.256,4.256,0,0,1-2.077.547,8.73,8.73,0,0,1-3.309-.91c-.5-.211-1.016-.428-1.531-.595a8.628,8.628,0,0,0-2.461-.3Zm-1333.606,0c-.349,0-.691.011-1.071.024a5.877,5.877,0,0,0,3.085,2.027,8.765,8.765,0,0,1,2.184,1.078c-.051.5-.22.768-.53.857a3.443,3.443,0,0,0,.857.123,2.164,2.164,0,0,0,.9-.189,1.707,1.707,0,0,1,.284-.05l.123-.859a2.834,2.834,0,0,1,1.656-.729,1.8,1.8,0,0,1,1.361.724,1.663,1.663,0,0,1-.339.4c.22-.071.443-.138.652-.2a11.734,11.734,0,0,0,1.619-.57,1.389,1.389,0,0,0,.076-1.253.828.828,0,0,0-.707-.295,1.857,1.857,0,0,0-.776.169,4.256,4.256,0,0,1-2.077.547,8.73,8.73,0,0,1-3.309-.91c-.5-.211-1.016-.428-1.531-.595a8.645,8.645,0,0,0-2.459-.3Zm1274.609.964a2.256,2.256,0,0,1,1.033.171.025.025,0,0,1,.005.022.988.988,0,0,0,0,.766,1.131,1.131,0,0,0,.755.421c.356.1.691.188.755.528a.881.881,0,0,1,.485.245,2.429,2.429,0,0,1,1.711-.657,5.531,5.531,0,0,1,1.4.226,1.681,1.681,0,0,0,.174-.006,3.264,3.264,0,0,0-.75-.831,2.724,2.724,0,0,1-.854-1.057l-.1.012h-.01l-.077.01a4.715,4.715,0,0,1-1.921.912c-.558,0-.687-.656-.741-1.945a3.667,3.667,0,0,1,.4-.277h-1.156c-1.7,0-3,0-4.231.015a12.042,12.042,0,0,0-2.8.541,1.338,1.338,0,0,1-.033.254,2.818,2.818,0,0,0-.2.376l.122.265.142.308a1.448,1.448,0,0,0,.147.008,1.7,1.7,0,0,0,.266-.021,2.382,2.382,0,0,1,.293-.018,5.384,5.384,0,0,1,1.417.265,5.394,5.394,0,0,0,1.413.265,2.069,2.069,0,0,0,1.559-.691,2.6,2.6,0,0,1,.794-.109Zm-1333.607,0a2.255,2.255,0,0,1,1.033.171.025.025,0,0,1,.005.022.988.988,0,0,0,0,.766,1.132,1.132,0,0,0,.756.421c.355.1.691.188.755.528a.881.881,0,0,1,.485.245,2.429,2.429,0,0,1,1.711-.657,5.531,5.531,0,0,1,1.4.226,1.681,1.681,0,0,0,.174-.006,3.264,3.264,0,0,0-.75-.831,2.724,2.724,0,0,1-.854-1.057l-.1.012-.088.011a4.715,4.715,0,0,1-1.921.912c-.557,0-.687-.656-.741-1.945a3.649,3.649,0,0,1,.4-.277h-1.156c-1.7,0-3,0-4.231.015a12.042,12.042,0,0,0-2.8.541,1.535,1.535,0,0,1-.033.254,2.821,2.821,0,0,0-.2.376c.088.191.177.383.264.573a1.447,1.447,0,0,0,.147.008,1.689,1.689,0,0,0,.266-.021,2.425,2.425,0,0,1,.294-.018,5.385,5.385,0,0,1,1.417.265,5.4,5.4,0,0,0,1.414.265,2.067,2.067,0,0,0,1.558-.691,2.629,2.629,0,0,1,.793-.11Zm600.671-1.7h0a6.255,6.255,0,0,0,2.364.524c.136,0,.269-.006.4-.017a.7.7,0,0,1,.421-.843l.02-.009-.205.06a7.492,7.492,0,0,1-2.085.407,3.271,3.271,0,0,1-.917-.128Zm659.8-1.266h0a6.249,6.249,0,0,0,2.363.523c.139,0,.268-.005.4-.017a.7.7,0,0,1,.422-.843l.02-.009-.2.059a7.451,7.451,0,0,1-2.089.408,3.282,3.282,0,0,1-.918-.127Zm-1333.607,0h0a6.23,6.23,0,0,0,2.363.523c.138,0,.268-.005.4-.017a.7.7,0,0,1,.421-.843l.02-.009-.194.057h-.006a7.486,7.486,0,0,1-2.089.408,3.268,3.268,0,0,1-.917-.125Zm598.415-.914h0a1.183,1.183,0,0,0,.525.129,2.3,2.3,0,0,0,1.3-.63,2.816,2.816,0,0,1,1.089-.61V620.8a11.538,11.538,0,0,1-1.431-5.1c0-.094,0-.187-.006-.282a3.716,3.716,0,0,0-1.328.532l-.033.039v.216c0,.68.005,1.383-.965,1.392a2.159,2.159,0,0,0-.589-1.509c-.206,0-.426.005-.642.023a3.086,3.086,0,0,0-.561.307l-.02.013c-.057.036-.114.073-.172.108a.887.887,0,0,1,.156.184,2.146,2.146,0,0,1-.224,2l-.368,1.062-.367,1.063c.054.048.115.094.178.14a.781.781,0,0,1,.377.462,2.163,2.163,0,0,1,.272.09,10.436,10.436,0,0,0,2.617.38Zm417.5-.215c-.095,0-.194,0-.295.015a.99.99,0,0,0,.282.041,1.217,1.217,0,0,0,.3-.04,2.508,2.508,0,0,0-.287-.022Zm-1333.607,0a2.891,2.891,0,0,0-.294.015.99.99,0,0,0,.282.041,1.216,1.216,0,0,0,.3-.04,2.558,2.558,0,0,0-.29-.022Zm1575.907-1.057h0a1.183,1.183,0,0,0,.525.129,2.3,2.3,0,0,0,1.3-.63,2.818,2.818,0,0,1,1.089-.61c-.043-.092-.085-.185-.127-.277l-.128-.282c-2.049.349-4.078.622-6.028.813a.643.643,0,0,1,.285.391,1.846,1.846,0,0,1,.272.09,10.419,10.419,0,0,0,2.621.38Zm-1333.606,0h0a1.183,1.183,0,0,0,.525.129,2.3,2.3,0,0,0,1.3-.63,2.817,2.817,0,0,1,1.089-.61l-.137-.3-.118-.26c-2.049.349-4.078.622-6.028.813a.64.64,0,0,1,.285.391,1.845,1.845,0,0,1,.272.09,10.467,10.467,0,0,0,2.621.38Zm1751.1-.215a2.187,2.187,0,0,0-.292.014.958.958,0,0,0,.282.042,1.271,1.271,0,0,0,.3-.039,2.538,2.538,0,0,0-.29-.013Zm-1333.606,0a2.165,2.165,0,0,0-.292.014.931.931,0,0,0,.282.042,1.269,1.269,0,0,0,.3-.039,2.536,2.536,0,0,0-.29-.013Zm278.836-.157h0a2.825,2.825,0,0,0,.667.08,5.468,5.468,0,0,0,2.438-.787c.121-.063.254-.148.381-.229a2.092,2.092,0,0,1,.993-.428.758.758,0,0,1,.655.443c.027-.069.053-.14.079-.212.178-.489.362-.994,1.036-.994h.041a1.822,1.822,0,0,1,.952,1.261.937.937,0,0,1,.373-.558,1.412,1.412,0,0,1-.184-.334l-.03.01h-.076a1.432,1.432,0,0,1-.923-.326,6,6,0,0,0-3.087-1.059,4.047,4.047,0,0,0-.467.027,9.746,9.746,0,0,1-1.01-.073,1.007,1.007,0,0,0-.187-.047,13.524,13.524,0,0,0-.328,1.727v.022c-.061.419-.124.852-.216,1.271a1.319,1.319,0,0,1-.757.236,1.639,1.639,0,0,1-.35-.029Zm73.5-1.2c-.041,0-.068.011-.071.028s.052.061.148.09a3.175,3.175,0,0,0,.692.1,2.551,2.551,0,0,1,.835.146l-.609-.435a1.691,1.691,0,0,1-.454.143v-.076a.21.21,0,0,0,0-.035.029.029,0,0,0,0,.013.572.572,0,0,1-.019.1c-.021.074-.055.112-.1.112a.173.173,0,0,1-.1-.049.519.519,0,0,0-.322-.133Zm-56.871.208h0v.009l.011.026h.014a4.57,4.57,0,0,1-.194-.615,2.6,2.6,0,0,0-.431-1.018.9.9,0,0,1-.14.251,3.233,3.233,0,0,1,.616,1.068l.024.057c.031.074.063.15.1.224Zm643.17-.272h0a2.829,2.829,0,0,0,.667.08,5.46,5.46,0,0,0,2.439-.787c.126-.065.264-.153.4-.237.072-.046.145-.092.218-.136a4.156,4.156,0,0,1-2.132-.8c-.036.006-.073.01-.111.014s-.068.007-.1.013c-.018.118-.035.236-.052.354v.006c-.062.426-.126.866-.22,1.293a1.328,1.328,0,0,1-.76.235,1.645,1.645,0,0,1-.349-.036Zm-1333.606,0h0a2.835,2.835,0,0,0,.667.08,5.459,5.459,0,0,0,2.439-.787c.126-.065.264-.153.4-.237.072-.046.145-.092.218-.136a4.147,4.147,0,0,1-2.132-.8c-.037.006-.073.01-.111.014s-.068.007-.1.013l-.051.344v.017c-.062.426-.126.866-.22,1.293a1.327,1.327,0,0,1-.759.235,1.668,1.668,0,0,1-.352-.037Zm1407.106-1.2c-.04,0-.067.01-.069.027s.051.061.147.09a3.181,3.181,0,0,0,.692.095,2.553,2.553,0,0,1,.835.146l-.609-.435a1.8,1.8,0,0,1-.454.144l-.005-.077a.234.234,0,0,0,0-.037.026.026,0,0,0,0,.013.571.571,0,0,1-.019.1c-.014.051-.043.112-.1.112a.177.177,0,0,1-.1-.048.524.524,0,0,0-.319-.132Zm-1333.607,0c-.04,0-.066.01-.069.027s.051.061.147.09a3.162,3.162,0,0,0,.691.095,2.553,2.553,0,0,1,.835.146l-.608-.435a1.8,1.8,0,0,1-.454.144V617.8a.227.227,0,0,0,0-.037v.012a.569.569,0,0,1-.019.1c-.014.051-.043.112-.1.112a.171.171,0,0,1-.1-.048.525.525,0,0,0-.324-.131Zm1267.7-.27-.106.007h-.014c-.087.005-.177.011-.265.021l-.1.016-.074.013a1.275,1.275,0,0,1,.209.55.935.935,0,0,1,.374-.558.138.138,0,0,1-.015-.026v-.007Zm-1333.607,0-.1.006h-.009c-.1.006-.187.012-.28.022l-.1.016-.074.013a1.27,1.27,0,0,1,.209.55.918.918,0,0,1,.373-.558.135.135,0,0,1-.015-.026.128.128,0,0,0-.006-.028Zm1342.645.477h0l-.005.009.012.026h.014a4.477,4.477,0,0,1-.193-.61v-.007a2.589,2.589,0,0,0-.43-1.016.837.837,0,0,1-.14.251,3.216,3.216,0,0,1,.616,1.066l.016.037c.034.081.069.164.105.245Zm-1333.606,0h0l-.005.01.012.026h.013a.3.3,0,0,1-.018-.041,5.031,5.031,0,0,1-.176-.576,2.6,2.6,0,0,0-.43-1.016.857.857,0,0,1-.139.251,3.224,3.224,0,0,1,.616,1.066l.005.013c.037.089.076.181.116.27ZM949.2,615.767h0a5.535,5.535,0,0,0,.573.943c.407.534.77.977,1.1.977.291,0,.522-.353.729-1.112a2.469,2.469,0,0,1,.215-.543c-.954-.043-1.9-.164-2.613-.266Zm-114.681-8.918h0a.6.6,0,0,0,.271.061.9.9,0,0,0,.2-.023l-.473-.04Zm589.294-2.05c.038.1.073.2.1.3v-.005c.055-.075.112-.153.167-.241l-.026.023-.013-.021v-.006c0-.008-.01-.016-.014-.024h.069l-.014.021.01-.01.02-.02a1.513,1.513,0,0,1-.141-.094l.023.041c.012.02.022.036.031.054ZM90.21,604.8a2.7,2.7,0,0,1,.1.3v-.005c.055-.075.112-.153.167-.241l-.027.023-.014-.023-.016-.028h.069l-.014.021.007-.007.023-.023a1.5,1.5,0,0,1-.141-.094l.025.044c.01.017.02.033.029.051ZM1651.593,36.867h0c-.055.074-.114.156-.171.246l-.009.009a.2.2,0,0,1-.022.02,1.653,1.653,0,0,1,.142.094l-.02-.035V37.2a.476.476,0,0,1-.031-.055l.218.027a2.815,2.815,0,0,1-.1-.3Zm-1333.607,0c-.048.064-.11.149-.171.246l-.03.029a1.5,1.5,0,0,1,.141.094l-.024-.042c-.01-.017-.021-.035-.031-.054l.219.027c-.045-.12-.08-.214-.1-.3Zm659.8-1.267h0v.006c-.055.075-.112.153-.166.24l-.01.01-.02.02a1.629,1.629,0,0,1,.14.094c-.009-.017-.017-.031-.026-.046a.473.473,0,0,1-.028-.049l.218.027a2.762,2.762,0,0,1-.1-.3Zm589.127-1.811a.847.847,0,0,0-.2.023c.156.012.312.025.467.039a.591.591,0,0,0-.268-.06Zm-1333.607,0a.841.841,0,0,0-.2.023c.156.012.312.025.467.039a.6.6,0,0,0-.269-.06Zm659.8-1.265a.9.9,0,0,0-.2.023c.15.01.3.023.449.036h.017a.587.587,0,0,0-.267-.058Zm563.63-13.866a2.3,2.3,0,0,0-1.3.63,2.808,2.808,0,0,1-1.09.61v.008a11.535,11.535,0,0,1,1.43,5.1c0,.093,0,.187.006.283a3.715,3.715,0,0,0,1.328-.532l.032-.039V24.5c0-.68,0-1.383.966-1.393a2.149,2.149,0,0,0,.588,1.508,6.1,6.1,0,0,0,.643-.023,3.021,3.021,0,0,0,.563-.309c.063-.041.126-.081.189-.119a.857.857,0,0,1-.156-.184,2.14,2.14,0,0,1,.224-2l.734-2.125c-.054-.048-.115-.093-.174-.137a.777.777,0,0,1-.377-.462,2.114,2.114,0,0,1-.272-.09,10.441,10.441,0,0,0-2.618-.38h-.2a1.193,1.193,0,0,0-.517-.128Zm-1333.607,0a2.3,2.3,0,0,0-1.3.629,2.821,2.821,0,0,1-1.09.61V19.9a11.537,11.537,0,0,1,1.43,5.1c0,.093,0,.187.006.283a3.728,3.728,0,0,0,1.329-.532l.032-.039V24.5c0-.68-.005-1.382.965-1.392a2.153,2.153,0,0,0,.589,1.509,6.112,6.112,0,0,0,.643-.023,3.018,3.018,0,0,0,.56-.307l.022-.014c.057-.036.113-.073.17-.107a.88.88,0,0,1-.155-.184,2.14,2.14,0,0,1,.224-2l.734-2.125a2.126,2.126,0,0,0-.178-.14c-.171-.128-.347-.258-.377-.462a2.113,2.113,0,0,1-.272-.09,10.435,10.435,0,0,0-2.617-.38h-.2a1.194,1.194,0,0,0-.515-.124Zm1327.7,4.355c-.291,0-.523.353-.729,1.111a2.463,2.463,0,0,1-.215.543c.954.043,1.9.164,2.613.266a5.5,5.5,0,0,0-.573-.943c-.4-.533-.766-.975-1.092-.975Zm-1333.607,0c-.291,0-.523.353-.729,1.111a2.467,2.467,0,0,1-.215.543c.954.043,1.9.164,2.612.266a5.491,5.491,0,0,0-.573-.943c-.4-.533-.765-.975-1.091-.975Zm641.253.251a2.589,2.589,0,0,0,.43,1.013.857.857,0,0,1,.139-.251,3.236,3.236,0,0,1-.615-1.063l-.01-.025c-.036-.086-.073-.174-.111-.259l-.01.008.008-.014-.012-.026h-.013a4.7,4.7,0,0,1,.194.614v0Zm673.409.257a9.738,9.738,0,0,1,1.009.073,1.069,1.069,0,0,0,.187.047,13.475,13.475,0,0,0,.33-1.736c.062-.426.125-.862.217-1.284a1.323,1.323,0,0,1,.758-.236,1.663,1.663,0,0,1,.344.038,2.788,2.788,0,0,0-.668-.081,5.485,5.485,0,0,0-2.439.787c-.117.06-.24.139-.37.222l-.012.007a2.092,2.092,0,0,1-.993.428.757.757,0,0,1-.655-.443c-.029.072-.056.147-.079.212-.179.489-.363.994-1.036.994h-.041a1.822,1.822,0,0,1-.952-1.261.943.943,0,0,1-.374.558,1.407,1.407,0,0,1,.184.334l.039-.013h.072a1.432,1.432,0,0,1,.923.326,6,6,0,0,0,3.087,1.059,3.955,3.955,0,0,0,.474-.029Zm-1333.607,0a9.778,9.778,0,0,1,1.01.073.985.985,0,0,0,.187.047,13.436,13.436,0,0,0,.33-1.735c.062-.425.125-.862.217-1.285a1.323,1.323,0,0,1,.758-.236,1.6,1.6,0,0,1,.344.038,2.788,2.788,0,0,0-.668-.081,5.485,5.485,0,0,0-2.439.787c-.12.062-.247.144-.382.229a2.1,2.1,0,0,1-.993.428.757.757,0,0,1-.655-.443c-.027.069-.053.139-.079.212-.178.489-.363.994-1.036.994H94.83a1.817,1.817,0,0,1-.952-1.261.942.942,0,0,1-.374.558,1.412,1.412,0,0,1,.184.334l.04-.013H93.8a1.432,1.432,0,0,1,.923.326,6,6,0,0,0,3.087,1.059,3.938,3.938,0,0,0,.473-.029Zm675.986-1.914a5.474,5.474,0,0,0-2.439.788c-.121.063-.25.144-.386.23l-.009.006c-.072.046-.146.092-.22.137a4.156,4.156,0,0,1,2.132.8c.036-.006.071-.01.111-.014s.068-.007.1-.013c.018-.121.035-.241.053-.362v-.013c.062-.421.125-.856.218-1.278a1.329,1.329,0,0,1,.76-.236,1.653,1.653,0,0,1,.343.037,2.8,2.8,0,0,0-.657-.079Zm-6.578.945h0a.934.934,0,0,1-.373.558.258.258,0,0,1,.016.028.105.105,0,0,0,.011.021l.106-.007c.09-.006.187-.012.28-.022l.1-.016h.005l.065-.011a1.26,1.26,0,0,1-.208-.55Zm650.393-1.174h0a4.629,4.629,0,0,1,.19.6v.015a2.581,2.581,0,0,0,.431,1.017.861.861,0,0,1,.14-.251,3.214,3.214,0,0,1-.615-1.064c-.048-.114-.086-.2-.122-.285l-.01.009.008-.014-.012-.026h-.01Zm-1333.606,0h0a4.719,4.719,0,0,1,.194.615,2.592,2.592,0,0,0,.43,1.017.86.86,0,0,1,.14-.251,3.233,3.233,0,0,1-.616-1.068c-.038-.091-.078-.187-.12-.281l-.01.009.008-.014-.012-.026h-.014Zm1948.967,1.156h0l.608.433a1.826,1.826,0,0,1,.455-.144V22.9a.234.234,0,0,0,0,.037.022.022,0,0,0,0-.012.678.678,0,0,1,.019-.1c.014-.051.043-.112.1-.112a.171.171,0,0,1,.1.048.522.522,0,0,0,.309.129c.04,0,.066-.01.069-.027s-.052-.061-.146-.09a3.169,3.169,0,0,0-.691-.1,2.531,2.531,0,0,1-.823-.144m-1333.607,0h0l.608.433a1.826,1.826,0,0,1,.455-.144V22.9a.22.22,0,0,0,0,.037.034.034,0,0,0,0-.014.678.678,0,0,1,.019-.1c.014-.051.044-.112.1-.112a.172.172,0,0,1,.1.048.522.522,0,0,0,.309.129c.04,0,.067-.01.069-.027s-.051-.061-.147-.09a3.159,3.159,0,0,0-.691-.1A2.527,2.527,0,0,1,699.832,22.534Zm97.1-2.609a2.3,2.3,0,0,0-1.3.63,2.821,2.821,0,0,1-1.09.61l.163.357.092.2c2.045-.348,4.073-.622,6.028-.813a.64.64,0,0,1-.286-.392,1.841,1.841,0,0,1-.272-.09,10.467,10.467,0,0,0-2.622-.38h-.191a1.177,1.177,0,0,0-.518-.122Zm562.7,1.343h0l.608.434a1.69,1.69,0,0,1,.454-.143v.1a.569.569,0,0,1,.018-.1c.022-.074.056-.111.1-.111a.173.173,0,0,1,.1.049.526.526,0,0,0,.308.129c.04,0,.067-.011.069-.028s-.051-.061-.147-.09a3.177,3.177,0,0,0-.692-.095,2.54,2.54,0,0,1-.819-.145Zm-1333.606,0h0l.608.434a1.69,1.69,0,0,1,.454-.143v.076a.216.216,0,0,0,0,.036v-.012a.567.567,0,0,1,.018-.1c.022-.074.056-.111.1-.111a.173.173,0,0,1,.1.049.525.525,0,0,0,.308.129c.04,0,.067-.011.07-.028s-.051-.061-.147-.09a3.16,3.16,0,0,0-.691-.095,2.552,2.552,0,0,1-.821-.145Zm1687.556-1.055a1.266,1.266,0,0,0-.3.039,2.34,2.34,0,0,0,.29.017,1.972,1.972,0,0,0,.292-.015.943.943,0,0,0-.284-.041Zm-1333.606,0a1.266,1.266,0,0,0-.3.039,2.367,2.367,0,0,0,.291.017,1.971,1.971,0,0,0,.292-.015.945.945,0,0,0-.285-.041Zm659.8-1.266a1.267,1.267,0,0,0-.3.039,2.5,2.5,0,0,0,.287.017c.094,0,.194-.005.3-.015a.945.945,0,0,0-.285-.041Zm1013.54-1.6c-.138,0-.268.006-.4.017a.7.7,0,0,1-.421.843l-.02.009.188-.056h.012a7.484,7.484,0,0,1,2.089-.408,3.262,3.262,0,0,1,.911.124,6.245,6.245,0,0,0-2.362-.527Zm-1333.606,0c-.138,0-.268.006-.4.017a.7.7,0,0,1-.421.843l-.02.009.2-.057h.006a7.485,7.485,0,0,1,2.089-.408,3.291,3.291,0,0,1,.91.124,6.233,6.233,0,0,0-2.363-.526Zm659.8-1.266c-.136,0-.269.006-.4.017a.7.7,0,0,1-.421.843l-.02.009.193-.057h.012a7.458,7.458,0,0,1,2.085-.408,3.261,3.261,0,0,1,.911.124,6.239,6.239,0,0,0-2.365-.526ZM45.9,16.081c-.136,0-.268.006-.4.017a.7.7,0,0,1-.421.843l-.02.009.2-.059h.006a7.457,7.457,0,0,1,2.085-.408,3.261,3.261,0,0,1,.911.124,6.227,6.227,0,0,0-2.366-.524Zm1934.031-1.939c.558,0,.687.656.741,1.945a3.668,3.668,0,0,1-.4.277h1.156c1.7,0,3,0,4.231-.015a12.041,12.041,0,0,0,2.8-.541,1.559,1.559,0,0,1,.033-.254,2.815,2.815,0,0,0,.2-.376q-.132-.286-.263-.573a1.448,1.448,0,0,0-.147-.008,1.973,1.973,0,0,0-.266.021,2.208,2.208,0,0,1-.293.019,5.375,5.375,0,0,1-1.416-.265,5.411,5.411,0,0,0-1.414-.265,2.069,2.069,0,0,0-1.559.691,2.586,2.586,0,0,1-.787.1,2.256,2.256,0,0,1-1.033-.171.025.025,0,0,1-.005-.022.988.988,0,0,0,0-.766,1.134,1.134,0,0,0-.755-.42c-.356-.1-.692-.188-.756-.528a.871.871,0,0,1-.485-.245,2.43,2.43,0,0,1-1.711.658,5.576,5.576,0,0,1-1.4-.225l-.174.005a3.236,3.236,0,0,0,.75.832,2.723,2.723,0,0,1,.854,1.057l.089-.011h.005l.09-.011a4.8,4.8,0,0,1,1.91-.907Zm-1333.606,0c.557,0,.687.656.741,1.945a3.553,3.553,0,0,1-.4.277h1.156c1.7,0,3,0,4.231-.015a12.041,12.041,0,0,0,2.8-.541,1.559,1.559,0,0,1,.033-.254,2.707,2.707,0,0,0,.2-.376l-.167-.363-.1-.211a1.449,1.449,0,0,0-.147-.008,1.823,1.823,0,0,0-.266.021,2.221,2.221,0,0,1-.294.019,5.417,5.417,0,0,1-1.416-.265,5.4,5.4,0,0,0-1.414-.264,2.069,2.069,0,0,0-1.559.691,2.617,2.617,0,0,1-.787.1,2.243,2.243,0,0,1-1.033-.171.025.025,0,0,1-.005-.022.979.979,0,0,0,0-.766,1.135,1.135,0,0,0-.755-.42c-.356-.1-.692-.188-.755-.528a.878.878,0,0,1-.485-.245,2.424,2.424,0,0,1-1.711.658,5.585,5.585,0,0,1-1.4-.225l-.174.005a3.27,3.27,0,0,0,.75.832,2.715,2.715,0,0,1,.854,1.057l.089-.011.1-.012a4.792,4.792,0,0,1,1.909-.906Zm1269.917-.072a8.714,8.714,0,0,1,3.306.909c.5.211,1.017.428,1.534.6a8.619,8.619,0,0,0,2.455.293c.337,0,.672-.01,1.072-.024a5.871,5.871,0,0,0-3.084-2.027,8.77,8.77,0,0,1-2.185-1.078c.051-.5.22-.768.53-.857a3.445,3.445,0,0,0-.857-.123,2.164,2.164,0,0,0-.9.189,1.706,1.706,0,0,1-.284.05l-.05.353-.073.507a2.838,2.838,0,0,1-1.656.729,1.8,1.8,0,0,1-1.361-.723,1.68,1.68,0,0,1,.338-.4c-.206.067-.418.13-.623.191l-.03.009a11.727,11.727,0,0,0-1.619.57,1.392,1.392,0,0,0-.077,1.253.828.828,0,0,0,.707.3,1.853,1.853,0,0,0,.776-.169,4.25,4.25,0,0,1,2.081-.547m-1333.607,0a8.725,8.725,0,0,1,3.308.91c.5.21,1.015.428,1.532.6a8.621,8.621,0,0,0,2.456.293c.337,0,.672-.01,1.071-.024a5.874,5.874,0,0,0-3.084-2.027,8.763,8.763,0,0,1-2.184-1.078c.05-.5.219-.768.53-.857a3.445,3.445,0,0,0-.857-.123,2.164,2.164,0,0,0-.9.189,1.706,1.706,0,0,1-.284.05c-.021.153-.043.306-.065.459l-.041.283-.017.118a2.84,2.84,0,0,1-1.656.729,1.8,1.8,0,0,1-1.36-.723,1.683,1.683,0,0,1,.338-.4c-.206.067-.418.13-.623.191l-.03.009a11.747,11.747,0,0,0-1.62.57,1.392,1.392,0,0,0-.076,1.253.828.828,0,0,0,.707.3,1.857,1.857,0,0,0,.776-.169,4.247,4.247,0,0,1,2.08-.548Zm723.482-1.19c.559,0,.688.655.741,1.944a3.436,3.436,0,0,1-.4.277h1.2c1.686,0,2.978,0,4.19-.015a11.928,11.928,0,0,0,2.8-.541,1.461,1.461,0,0,1,.034-.254,2.829,2.829,0,0,0,.2-.376l-.2-.443-.059-.13a1.467,1.467,0,0,0-.148-.008,1.824,1.824,0,0,0-.266.022,2.39,2.39,0,0,1-.293.018,5.362,5.362,0,0,1-1.408-.262h-.009a5.386,5.386,0,0,0-1.412-.265,2.072,2.072,0,0,0-1.558.691,2.576,2.576,0,0,1-.786.1,2.251,2.251,0,0,1-1.035-.172.024.024,0,0,1-.005-.022.986.986,0,0,0,0-.765,1.131,1.131,0,0,0-.756-.42c-.355-.1-.69-.188-.754-.527a.9.9,0,0,1-.485-.246,2.425,2.425,0,0,1-1.71.657,5.585,5.585,0,0,1-1.4-.225h-.174a3.256,3.256,0,0,0,.75.833,2.732,2.732,0,0,1,.854,1.057l.149-.018h.035a4.788,4.788,0,0,1,1.907-.911Zm-63.683-.075a8.714,8.714,0,0,1,3.307.909c.5.211,1.015.428,1.532.6a8.584,8.584,0,0,0,2.455.294c.363,0,.73-.012,1.072-.024a5.88,5.88,0,0,0-3.084-2.027,8.731,8.731,0,0,1-2.184-1.079c.051-.5.219-.767.53-.855a3.46,3.46,0,0,0-.859-.124,2.147,2.147,0,0,0-.9.188,1.723,1.723,0,0,1-.285.052l-.064.449-.059.409a2.825,2.825,0,0,1-1.656.729,1.8,1.8,0,0,1-1.361-.723,1.666,1.666,0,0,1,.338-.4c-.209.067-.423.131-.63.193h-.016a11.815,11.815,0,0,0-1.625.572,1.392,1.392,0,0,0-.076,1.253.831.831,0,0,0,.708.3,1.863,1.863,0,0,0,.775-.168,4.261,4.261,0,0,1,2.084-.544Zm751.726-1.445c.015.12.042.254.072.4v.006l.022.107a3.159,3.159,0,0,1-.308.219l-.016.011a1.905,1.905,0,0,1,1.41.609,2.891,2.891,0,0,1-.022-.978.8.8,0,0,1-.373.1.739.739,0,0,1-.574-.324l-.088-.062-.047-.033Zm-1333.606,0c.015.12.042.254.072.4v.006l.022.107a3.168,3.168,0,0,1-.307.219l-.016.011a1.9,1.9,0,0,1,1.409.609,2.893,2.893,0,0,1-.022-.978.8.8,0,0,1-.374.1.739.739,0,0,1-.574-.324l-.119-.084Zm659.8-1.266h0c.016.129.047.274.079.428l.016.08a3.236,3.236,0,0,1-.32.226h-.006a1.9,1.9,0,0,1,1.411.608,2.9,2.9,0,0,1-.022-.978.8.8,0,0,1-.373.1.74.74,0,0,1-.574-.325l-.065-.046-.036-.025-.109-.076ZM844.163,631.5a.7.7,0,0,1-.177-.022.738.738,0,0,1-.465-.452c-.082-.422.221-.518.489-.6l.075-.024.093.022c.317.075.616.145.533.594a.541.541,0,0,1-.548.482m-27.213-.685h0a9.328,9.328,0,0,0-4.539-.948c-.535,0-1.073.019-1.594.038h-.01c-.518.018-1.054.037-1.58.037a10.2,10.2,0,0,1-3.807-.608,1.5,1.5,0,0,1,.082-1.281,1.717,1.717,0,0,1,1.341-.6q.912-.1,1.83-.1a7.308,7.308,0,0,1,4.526,1.321,5.948,5.948,0,0,0,1.223.391,3.122,3.122,0,0,1,2.529,1.755Zm687.011-.581a.7.7,0,0,1-.176-.023.733.733,0,0,1-.466-.451c-.082-.424.222-.521.49-.606l.022-.007.05-.016.092.022c.318.075.619.145.536.594a.541.541,0,0,1-.548.483Zm-1333.606,0a.7.7,0,0,1-.176-.023.733.733,0,0,1-.466-.451c-.082-.424.222-.52.49-.606l.073-.023.092.022c.319.075.619.145.536.594a.541.541,0,0,1-.549.483ZM1593.033,13.351a7.311,7.311,0,0,1-4.527-1.321,5.921,5.921,0,0,0-1.22-.391,3.122,3.122,0,0,1-2.533-1.758,9.329,9.329,0,0,0,4.542.949c.535,0,1.073-.019,1.594-.038h.01c.518-.019,1.054-.038,1.58-.038a10.2,10.2,0,0,1,3.807.608,1.5,1.5,0,0,1-.082,1.282,1.717,1.717,0,0,1-1.341.6q-.912.1-1.83.107m-1333.606,0A7.313,7.313,0,0,1,254.9,12.03a5.922,5.922,0,0,0-1.22-.391,3.122,3.122,0,0,1-2.533-1.758,9.329,9.329,0,0,0,4.542.949c.536,0,1.074-.019,1.594-.038h.01c.518-.019,1.054-.038,1.58-.038a10.2,10.2,0,0,1,3.807.608,1.5,1.5,0,0,1-.082,1.282,1.717,1.717,0,0,1-1.341.6q-.912.1-1.831.107Zm638.394-1.786h0l-.069-.017-.022-.005c-.318-.075-.62-.145-.536-.593a.541.541,0,0,1,.548-.487.7.7,0,0,1,.177.023.734.734,0,0,1,.465.451c.083.424-.221.52-.49.6l-.037.012Zm659.8-1.266h0l-.078-.019h-.015c-.317-.075-.616-.145-.534-.594a.54.54,0,0,1,.549-.487.7.7,0,0,1,.176.023.735.735,0,0,1,.466.452c.082.422-.222.519-.489.6Zm-1333.606,0h0l-.077-.019h-.016c-.317-.075-.616-.145-.533-.594a.54.54,0,0,1,.549-.487.7.7,0,0,1,.177.023.738.738,0,0,1,.465.452c.082.422-.221.519-.489.6Z" fill="#222"/>
</svg>
