<svg xmlns="http://www.w3.org/2000/svg" xmlns:xlink="http://www.w3.org/1999/xlink" width="345" height="111.715" viewBox="0 0 345 111.715">
  <defs>
    <clipPath id="clip-path">
      <rect id="Rectangle_151" data-name="Rectangle 151" width="345" height="111.715" fill="#fff"/>
    </clipPath>
  </defs>
  <g id="logo-VisitFlorida" transform="translate(0 0)">
    <g id="Group_1041" data-name="Group 1041" transform="translate(0 0)" clip-path="url(#clip-path)">
      <path id="Path_314" data-name="Path 314" d="M143.983,28.188a3.053,3.053,0,1,1-.019,0Zm-.036.522a2.458,2.458,0,0,0,.036,4.914,2.34,2.34,0,0,0,2.335-2.446,2.371,2.371,0,0,0-2.355-2.468Zm-.524,4.091h-.58V29.682a6.071,6.071,0,0,1,1.085-.094,1.547,1.547,0,0,1,.988.243.787.787,0,0,1-.3,1.4v.036a.938.938,0,0,1,.524.748,2.348,2.348,0,0,0,.224.784h-.6a2.115,2.115,0,0,1-.243-.823c-.075-.334-.279-.486-.729-.486h-.373Zm0-1.756h.392c.431,0,.8-.13.8-.505,0-.3-.188-.5-.746-.5a2.18,2.18,0,0,0-.45.036Z" transform="translate(198.009 39.608)" fill="#fff"/>
      <path id="Path_315" data-name="Path 315" d="M35.618,16.692,20.16,56.3H15.7L.128,16.692l5-.019,9.4,23.491c1.7,4.483,2.116,5.561,3.41,9.743h.233c1.289-4.182,1.647-5.2,3.41-9.743l9.334-23.491Z" transform="translate(0.18 23.428)" fill="#fff"/>
      <rect id="Rectangle_146" data-name="Rectangle 146" width="5.108" height="39.829" transform="translate(41.38 39.898)" fill="#fff"/>
      <path id="Path_316" data-name="Path 316" d="M42.356,24.617c-3.112-2.629-5.344-3.651-7.99-3.651A5.813,5.813,0,0,0,28.2,26.829a5.644,5.644,0,0,0,2.643,4.714c1.349.9,1.939,1.2,6.811,3.473,6,2.867,8.225,5.736,8.225,10.756,0,6.814-5.284,11.655-12.629,11.655a17.655,17.655,0,0,1-11.162-4.065l1.058-5.438c3.346,3.343,6.932,5.019,10.635,5.019,4.05,0,6.871-2.689,6.871-6.636,0-2.807-1.705-4.659-5.873-6.576l-3.468-1.554c-5.344-2.331-7.99-5.854-7.99-10.635,0-6.4,4.815-11.119,11.4-11.119a14.16,14.16,0,0,1,9.753,3.769Z" transform="translate(31.036 23.08)" fill="#fff"/>
      <rect id="Rectangle_147" data-name="Rectangle 147" width="5.108" height="39.829" transform="translate(84.087 39.898)" fill="#fff"/>
      <path id="Path_317" data-name="Path 317" d="M71.207,16.589V21.4H59.044a3.382,3.382,0,0,1-1.354-.18,3.4,3.4,0,0,1,.185,1.378V56.417H52.76V22.595a3.572,3.572,0,0,1,.176-1.378,3.359,3.359,0,0,1-1.349.18H39.479V16.589Z" transform="translate(55.472 23.31)" fill="#fff"/>
      <path id="Path_318" data-name="Path 318" d="M75.367,16.637l-20.643,0V56.3h8.764V40.012H75.824V32.061H63.488V24.6H77.4V16.637Z" transform="translate(76.893 23.378)" fill="#fff"/>
      <path id="Path_319" data-name="Path 319" d="M71.946,16.569H65.209V56.287H88.741l1.436-7.951h-16.2V16.569Z" transform="translate(91.625 23.282)" fill="#fff"/>
      <path id="Path_320" data-name="Path 320" d="M95.251,16.3c-11.773,0-20.65,8.762-20.65,20.374,0,11.864,8.6,20.8,20,20.8,11.994,0,20.374-8.353,20.374-20.316,0-11.891-8.478-20.859-19.722-20.859m.159,32.791c-6.66,0-11.5-5.541-11.5-13.178,0-6.816,4.226-11.391,10.525-11.391,6.359,0,11.338,5.811,11.338,13.23,0,6.782-4.166,11.338-10.366,11.338" transform="translate(104.822 22.906)" fill="#fff"/>
      <path id="Path_321" data-name="Path 321" d="M112.844,39.482s-.1-.127-.243-.31a11.56,11.56,0,0,0,6.188-10.489c0-7.754-5.835-12.206-16-12.206a70.924,70.924,0,0,0-8.338.553l-1.8.207v39.29h8.769V41.81H104c1.068,1.551,10.121,14.717,10.121,14.717h10.64ZM106.2,34.234h-4.784V24.505c.931-.06,1.864-.127,1.864-.127,5.938,0,6.631,2.922,6.631,5.118,0,2.566-1.7,4.738-3.711,4.738" transform="translate(130.18 23.153)" fill="#fff"/>
      <path id="Path_322" data-name="Path 322" d="M113.177,16.569h-6.732V56.4h8.762V16.569Z" transform="translate(149.566 23.282)" fill="#fff"/>
      <path id="Path_323" data-name="Path 323" d="M139.772,22.163c-3.913-3.661-9.926-5.594-17.42-5.594l-6.96.224c.046,0-1.044.053-1.044.053h0l-3.074.139v38.97l1.859.164c3.131.267,5.116.39,7.913.39,5.577,0,9.519-.553,13.182-1.857C141.1,52.14,145.7,44.918,145.7,36.673a20.019,20.019,0,0,0-5.929-14.51M134.512,44.1c-1.595,2.369-3.074,3.461-8.139,4.089a54.526,54.526,0,0,1-5.589.358s-.445-.026-.736-.041V24.629c.455-.019,1-.046,1-.046a21.417,21.417,0,0,1,9.192,1.744c3.81,1.794,6.258,6.083,6.258,10.938a12.392,12.392,0,0,1-1.989,6.835" transform="translate(156.358 23.282)" fill="#fff"/>
      <path id="Path_324" data-name="Path 324" d="M147.328,16.322H141.1L124.316,56.745h9.111s3.783-9.315,4.6-11.309h11.982c.808,2,4.55,11.309,4.55,11.309h9.378Zm-1.792,21.535h-2.975s-.847.019-1.486.036c.257-.577.606-1.349.606-1.349l1.3-3.2s.5-1.356,1.08-2.925c.529,1.4,1.111,2.937,1.111,2.937l1.306,3.139.257.657s.224.5.322.738c-.666-.017-1.522-.036-1.522-.036" transform="translate(174.677 22.935)" fill="#fff"/>
      <path id="Path_325" data-name="Path 325" d="M159.754,46.4c-17.73,2.193-34.489,4.259-53.189,5.577-27.11,1.9-50.481,2.665-71.427,2.323-.019,0-12.062-.012-8.1.835.909.195,63.23,4.173,95.9,1.876,20.775-1.455,37.623-4.108,55.459-6.917,17.976-2.831,36.577-5.758,59.757-7.379,15.508-1.092,29.222-1.633,39.776-1.554.229-.01,13.168-.118,22.057,1.258a5.806,5.806,0,0,0,2.754-.349c.719-.286-25.177-6.174-74.88-2.67-26.8,1.881-47.792,4.486-68.108,7" transform="translate(36.868 53.799)" fill="#fff"/>
      <path id="Path_326" data-name="Path 326" d="M.2,37.25c-.334.284-.241.659.231.885,46.892,22.62,173.175,6.174,178.5,5.455.75-.1,1.2-.464,1.063-.823-.12-.375-.784-.63-1.551-.6-40.461,1.951-91.358,2.383-125.373.955-22.752-.948-50.959-6.162-51.214-6.205A2.247,2.247,0,0,0,.2,37.25" transform="translate(0 51.833)" fill="#fff"/>
      <path id="Path_327" data-name="Path 327" d="M209.6,46.792c.2-.2.12-.438-.192-.56-31.526-12.206-112.422,5-115.835,5.743-.476.1-.753.361-.649.594s.546.358,1.039.3c26.093-3.365,59.016-6.285,81.107-7.136,14.779-.568,33.308,1.344,33.477,1.361a1.462,1.462,0,0,0,1.053-.3" transform="translate(130.534 58.831)" fill="#fff"/>
      <rect id="Rectangle_148" data-name="Rectangle 148" width="1.837" height="20.814" transform="translate(3.492 0.344)" fill="#fff"/>
      <path id="Path_328" data-name="Path 328" d="M20.167,20.956,6.617,3.077v17.88H4.779V.143H6.651L20.134,17.774V.143h1.84V20.956Z" transform="translate(6.716 0.201)" fill="#fff"/>
      <path id="Path_329" data-name="Path 329" d="M18.3,20.956V.142h8.064c4.13,0,6.484,2.809,6.484,6.085s-2.388,6.085-6.484,6.085H20.14v8.644ZM30.915,6.227c0-2.622-1.871-4.461-4.743-4.461H20.14v8.925h6.032a4.388,4.388,0,0,0,4.743-4.464" transform="translate(25.718 0.2)" fill="#fff"/>
      <path id="Path_330" data-name="Path 330" d="M42.1,20.957l-2.129-5.118H28.585l-2.129,5.118H24.328L33.133.143h2.29L44.23,20.957ZM34.295,2.045l-5.1,12.17H39.36Z" transform="translate(34.183 0.202)" fill="#fff"/>
      <path id="Path_331" data-name="Path 331" d="M46.867,20.956l-6.032-8.613h-4.74v8.613h-1.84V.142h8.033c3.709,0,6.549,2.278,6.549,6.085,0,3.776-2.742,5.868-5.969,5.991l6.224,8.738ZM46.9,6.227c0-2.622-1.9-4.461-4.774-4.461H36.095v8.957h6.032a4.421,4.421,0,0,0,4.774-4.5" transform="translate(48.132 0.2)" fill="#fff"/>
      <path id="Path_332" data-name="Path 332" d="M48.814,20.956V1.766H41.782V.143H57.718V1.766H50.685v19.19Z" transform="translate(58.707 0.201)" fill="#fff"/>
      <path id="Path_333" data-name="Path 333" d="M65.715,20.956,52.167,3.077v17.88h-1.84V.143H52.2L65.684,17.774V.143h1.837V20.956Z" transform="translate(70.715 0.201)" fill="#fff"/>
      <path id="Path_334" data-name="Path 334" d="M60.041,20.956V.143H73.685V1.766H61.878V9.472H73.461V11.1H61.878v8.237H73.685v1.623Z" transform="translate(84.363 0.201)" fill="#fff"/>
      <path id="Path_335" data-name="Path 335" d="M80.554,20.956l-6.032-8.613h-4.74v8.613h-1.84V.142h8.033c3.709,0,6.549,2.278,6.549,6.085,0,3.776-2.742,5.868-5.969,5.991l6.227,8.738Zm.034-14.729c0-2.622-1.9-4.461-4.774-4.461H69.782v8.957h6.032a4.421,4.421,0,0,0,4.774-4.5" transform="translate(95.465 0.2)" fill="#fff"/>
      <path id="Path_336" data-name="Path 336" d="M75.751,18.223l1.193-1.342a9.012,9.012,0,0,0,6.741,3.028c4.389,0,5.647-2.371,5.647-4.151,0-6.116-12.906-2.934-12.906-10.2C76.427,2.153,79.59,0,83.493,0a9.393,9.393,0,0,1,7.29,2.932L89.559,4.243A7.828,7.828,0,0,0,83.4,1.623c-2.872,0-5.034,1.59-5.034,3.836,0,5.337,12.906,2.4,12.906,10.174,0,2.684-1.84,5.9-7.646,5.9a10.149,10.149,0,0,1-7.872-3.307" transform="translate(106.438 0.001)" fill="#fff"/>
      <path id="Path_337" data-name="Path 337" d="M99.862,20.956V11.064H86.215v9.892H84.378V.143h1.837v9.3H99.862V.143H101.7V20.956Z" transform="translate(118.559 0.201)" fill="#fff"/>
      <rect id="Rectangle_149" data-name="Rectangle 149" width="1.837" height="20.814" transform="translate(226.428 0.344)" fill="#fff"/>
      <path id="Path_338" data-name="Path 338" d="M97.472,20.956V.142h8.064c4.13,0,6.484,2.809,6.484,6.085s-2.388,6.085-6.484,6.085H99.31v8.644ZM110.084,6.227c0-2.622-1.871-4.461-4.743-4.461H99.31v8.925h6.032a4.388,4.388,0,0,0,4.743-4.464" transform="translate(136.958 0.2)" fill="#fff"/>
      <path id="Path_339" data-name="Path 339" d="M126.968,20.956l-5.161-17.88-5.161,17.88h-2.066L108.42.143h2.064l5.2,18.317L120.967.143h1.679L127.9,18.46,133.1.143h2.066l-6.131,20.814Z" transform="translate(152.341 0.201)" fill="#fff"/>
      <rect id="Rectangle_150" data-name="Rectangle 150" width="1.837" height="20.814" transform="translate(291.607 0.344)" fill="#fff"/>
      <path id="Path_340" data-name="Path 340" d="M130.961,20.956V1.766h-7.033V.143h15.936V1.766h-7.033v19.19Z" transform="translate(174.132 0.201)" fill="#fff"/>
      <path id="Path_341" data-name="Path 341" d="M147.959,20.956V11.064H134.312v9.892h-1.838V.143h1.838v9.3h13.647V.143H149.8V20.956Z" transform="translate(186.14 0.201)" fill="#fff"/>
    </g>
  </g>
</svg>
