<svg xmlns="http://www.w3.org/2000/svg" width="195.969" height="153.386" viewBox="0 0 195.969 153.386">
  <path id="Union_19" data-name="Union 19" d="M-14511.285-3517.849a.872.872,0,0,1-.2-.044h-.343c-.748,0-1.548-.044-2.521-.14l-.762-.074h-.045c-.387,0-.777-.037-1.153-.074h-.018c-.376-.037-.771-.074-1.161-.074h-.154a.423.423,0,0,1-.177-.062c-.03-.015-.06-.03-.089-.041l-.324-.015a7.1,7.1,0,0,0-1.6-.136,8.305,8.305,0,0,1-1.046-.044h-.081a1.988,1.988,0,0,0-.258.026,1.088,1.088,0,0,0-.147.022.592.592,0,0,1-.307.074,1.009,1.009,0,0,1-.184-.011c-.06,0-.125-.011-.188-.011h-.059l-.247-.044-.044-.007-.147-.03-.173-.07-.074-.03-.018-.007-.022-.007-.062-.03a1.563,1.563,0,0,1-.59-.147,1.615,1.615,0,0,0-.589-.147h-.07l-.026-.011-.033-.015h-.029l-.033-.011-.316-.037h-.048c-.107-.015-.218-.022-.324-.037l-.284-.033h-.574l-.8.018h-.062a.462.462,0,0,1-.364-.125h-.457a.819.819,0,0,1-.464-.114,1.275,1.275,0,0,1-.5-.158,8.508,8.508,0,0,0-1.621-.133c-.405,0-.807.019-1.146.037a.23.23,0,0,1-.147.052.764.764,0,0,1-.158-.03c-.037-.007-.066-.019-.1-.022-.158,0-.324,0-.468-.007h-.077c-.317,0-.708-.015-1.087-.015a17.731,17.731,0,0,0-1.879.088l-1.095-.041-.416-.044-.14-.015-.523-.059-.2-.022a.6.6,0,0,1-.346.088,1.819,1.819,0,0,1-.284-.026h-.033a.7.7,0,0,1-.092.011.286.286,0,0,1-.17-.059l-.117-.022-.147-.026v.519l-.306-.018h-.1a.248.248,0,0,0-.166-.052h-.074a.233.233,0,0,1-.11-.019h-.033a.2.2,0,0,1-.066,0,.09.09,0,0,1-.1-.066c0-.015.036-.048.077-.081l.055-.044-.073-.074-.041-.044-.055-.059h-.266l-.025.059-.029.063-.019.041.019.026c.021.033.055.074.048.1a.022.022,0,0,1-.019.011.457.457,0,0,0-.11.033.815.815,0,0,1-.21.041.281.281,0,0,1-.236-.122v.008a.511.511,0,0,1-.343.085h-.073l-.052-.015-.037-.007-.493-.007-.384.007h-.217a.222.222,0,0,1-.107.03.926.926,0,0,1-.1-.015.933.933,0,0,0-.1-.015h-.015a.461.461,0,0,1-.1.011.991.991,0,0,1-.254-.048h-.019a.175.175,0,0,1-.062-.018h-.019a.3.3,0,0,1-.081,0h-.089a.2.2,0,0,0-.181.088.26.26,0,0,1-.029.192.1.1,0,0,1-.088.033.26.26,0,0,1-.074-.011.291.291,0,0,1-.217.125.293.293,0,0,1-.192-.088l-.048.022-.018.011-.019.007c-.029.015-.056.03-.081.044a.23.23,0,0,1-.174.081.375.375,0,0,1-.177-.048l-.541.022-.162.008h-.06a.72.72,0,0,1-.088.011.159.159,0,0,1-.147-.077l-.453.03a.6.6,0,0,1,.073-.155c.063-.092.114-.18.033-.295a.151.151,0,0,1-.158-.088h-.118a1.835,1.835,0,0,1-.21.022.3.3,0,0,0-.015.416.239.239,0,0,0,.048.041c.085.085.118.147.1.2s-.081.07-.2.081a2.741,2.741,0,0,0-.328.158,1.369,1.369,0,0,1-.645.217.866.866,0,0,1-.214-.029.467.467,0,0,1-.125.018.244.244,0,0,1-.125-.033.383.383,0,0,1-.059.007.35.35,0,0,1-.159-.052.514.514,0,0,0-.125-.048h-.416a2.472,2.472,0,0,1-.767.122,3.091,3.091,0,0,1-.416-.033.7.7,0,0,1-.147.015.751.751,0,0,1-.347-.085,7.473,7.473,0,0,1-1.278.218c-.2.018-.409.041-.619.074l-.324.026a.267.267,0,0,1-.158.041c-.037,0-.073,0-.11-.007h-.062l.011.018a.248.248,0,0,1-.166.059.627.627,0,0,1-.2-.048l-.026-.007h-.32c-.748,0-1.551-.044-2.521-.136l-.379-.041-.38-.037h-.062c-.391,0-.781-.041-1.16-.077h-.015c-.384-.037-.777-.073-1.164-.073h-.147a.418.418,0,0,1-.177-.059c-.03-.015-.06-.03-.085-.041l-.332-.018a7.493,7.493,0,0,0-1.6-.136,9.05,9.05,0,0,1-1.046-.041.3.3,0,0,0-.081,0c-.085,0-.17.011-.255.022-.048,0-.1.015-.154.018a.6.6,0,0,1-.306.074,1.085,1.085,0,0,1-.188-.011c-.062,0-.125-.007-.184-.007h-.06l-.077-.015h-.033a.21.21,0,0,0-.066-.011l-.262-.048-.354-.147a1.65,1.65,0,0,1-.589-.147,1.545,1.545,0,0,0-.59-.147h-.07l-.106-.044h-.011l-.126-.015-.884-.1h-.472l-.885.019h-.062a.46.46,0,0,1-.364-.125h-.457a.882.882,0,0,1-.442-.1.824.824,0,0,1-.35-.092l-.029-.015-.188-.015-.187-.015-.225-.019-.225-.018a1.2,1.2,0,0,1-.361.055,1.5,1.5,0,0,1-.442-.07,6.1,6.1,0,0,0-.773-.052c.052.03.059.1.066.166s.015.166.1.181l.574.144a1.873,1.873,0,0,1-.736.133h-.089a1.21,1.21,0,0,1-.364.044,3.671,3.671,0,0,1-.53-.048,4.23,4.23,0,0,0-.523-.048,1.687,1.687,0,0,0-.236.019h-.025a.207.207,0,0,1-.147-.063.179.179,0,0,1-.044-.147.182.182,0,0,1,.2-.169h.055a1.71,1.71,0,0,0,.336.03,3.876,3.876,0,0,0,1.006-.177l.235-.063h-.4a.247.247,0,0,1-.114.022.565.565,0,0,1-.158-.026h-.026a1.725,1.725,0,0,1-.21-.018h-.412c-.328,0-.708-.011-1.084-.011h-.243v.144c.13.147.178.243.147.313s-.132.1-.306.107h-.512a3.834,3.834,0,0,0-.416.03,4.064,4.064,0,0,1-.424.033,1.369,1.369,0,0,1-.365-.048c-.066,0-.14-.03-.147-.066s.022-.044.078-.07a.6.6,0,0,1,.243-.052.474.474,0,0,1,.261.081.123.123,0,0,0,.052,0,.3.3,0,0,0,.191-.081.351.351,0,0,1,.192-.085.218.218,0,0,1,.051.007l.022-.022.019-.018.011-.011.008-.007.021-.022v-.18l-.342.022.029.019c-.008.073-.045.085-.085.085h-.033c-.056,0-.118-.008-.118-.077v-.007a2.1,2.1,0,0,0-.225.018l-.295-.011-.269-.007-.295-.008h-.239l-.262-.033-.545-.059-.317-.033h-.052c-.048.1-.106.147-.184.147a.292.292,0,0,1-.06-.007.2.2,0,0,1-.04.059l.059-.007a.831.831,0,0,1,.137-.018.27.27,0,0,1,.188.07,1.2,1.2,0,0,0,.126.026c.113.018.231.033.239.166s-.214.236-.332.284a1.23,1.23,0,0,1-.475.085,1.928,1.928,0,0,1-.295-.022,5.094,5.094,0,0,0-.667-.033h-.291a1.842,1.842,0,0,1-.929.191,2.326,2.326,0,0,0-.711.089,1.544,1.544,0,0,1-.387.059,1.518,1.518,0,0,0-.185.015l-.262.052a7.791,7.791,0,0,1-.876-.074,6.988,6.988,0,0,0-.874-.074h-.312a2.218,2.218,0,0,0-.538.066.055.055,0,0,1-.052.026h-.015a.376.376,0,0,1-.239.074,1.182,1.182,0,0,1-.2-.022,2.22,2.22,0,0,1-.35.026,6,6,0,0,1-.634-.044h-.008a6.075,6.075,0,0,0-.637-.044c-.081,0-.162,0-.247.011-.191.019-.383.019-.571.022h-.269a.735.735,0,0,1-.218.022,2.8,2.8,0,0,1-.395-.041c-.081-.015-.162-.022-.246-.029a1.766,1.766,0,0,0-.395-.041,4.351,4.351,0,0,0-.442.029h-.015c-.092,0-.191.015-.295.019a.477.477,0,0,0-.1.022.3.3,0,0,1-.114.026.14.14,0,0,1-.093-.03,1.5,1.5,0,0,1-.316.033,3.814,3.814,0,0,1-.5-.044h-.06a1.2,1.2,0,0,1-.258.03.932.932,0,0,1-.283-.044.26.26,0,0,1-.092.007.744.744,0,0,1-.236-.041,1.04,1.04,0,0,0-.239-.041.411.411,0,0,0-.177.041l-.045.007h-.021l-.118,0a8.039,8.039,0,0,1-1.031.059c-.368,0-.744-.018-1.095-.037h-.57a11.025,11.025,0,0,1-1.157.059c-.449,0-.91-.022-1.353-.044h-.007c-.332-.015-.678-.033-1.014-.041-.18,0-.364-.019-.537-.033h-.022l-.229-.018h-1.087a.933.933,0,0,1-.42.092,1.231,1.231,0,0,1-.526-.118,2.5,2.5,0,0,0-.984-.2c-.1,0-.181-.007-.262-.015a.419.419,0,0,1-.258.073.943.943,0,0,1-.144-.007,1.021,1.021,0,0,0-.147-.007h-.136l-.317.019a.19.19,0,0,1-.121.066.253.253,0,0,1-.141-.077.241.241,0,0,0-.081-.059c-.121-.066-.246-.125-.372-.184h-.007l-.019-.007-.147-.07s0,0,0,0h-.066a.4.4,0,0,1-.269-.088c-.106.007-.214.011-.316.015h-.022c-.129,0-.266.007-.395.018l-.007.011-.019-.011a2.427,2.427,0,0,0-.332.052.156.156,0,0,0-.007.092.127.127,0,0,1-.015.1.094.094,0,0,1-.074.022h-.036c-.089-.007-.178-.011-.266-.011h-.236l-.055-.011h-.27v-.553c-.475.044-.961.07-1.443.07h-.012c-.295,0-.589-.011-.895-.026h-.078a1.756,1.756,0,0,0-.246.011c-.078,0-.166.015-.255.015a.845.845,0,0,1-.442-.1l-.5-.044h-.066l-.262-.018a1.335,1.335,0,0,1-.361.052,1.5,1.5,0,0,1-.442-.066,5.923,5.923,0,0,0-.884-.052.56.56,0,0,0-.364.332v.147c.129.147.18.247.146.317s-.132.1-.306.107h-.512a3.131,3.131,0,0,0-.416.03h-.008a3.852,3.852,0,0,1-.416.03,1.377,1.377,0,0,1-.368-.044c-.066-.007-.147-.033-.147-.07s.025-.044.077-.07a.7.7,0,0,1,.243-.052.477.477,0,0,1,.265.081.127.127,0,0,0,.052.007.354.354,0,0,0,.191-.081.351.351,0,0,1,.192-.085.144.144,0,0,1,.055.007l.012-.015c.007-.007.011-.015.018-.018l.008-.008.033-.033v-.324a.184.184,0,0,1,.173-.089c.07-.011.147-.018.177-.1-.279-.007-.567-.041-.844-.074a9.555,9.555,0,0,0-1.027-.077,2.9,2.9,0,0,0-1.257.254.472.472,0,0,0-.059.033.357.357,0,0,1-.181.074h-.019c-.048.1-.106.147-.184.147a.331.331,0,0,1-.06-.007.148.148,0,0,1-.04.055l.059-.011.137-.011a.286.286,0,0,1,.188.066.8.8,0,0,0,.125.03c.118.015.236.033.24.166s-.214.236-.328.284a1.239,1.239,0,0,1-.476.085,1.928,1.928,0,0,1-.295-.022,5,5,0,0,0-.666-.033h-.295a1.866,1.866,0,0,1-.925.188,2.482,2.482,0,0,0-.715.092,1.507,1.507,0,0,1-.387.059,1.769,1.769,0,0,0-.185.015l-.129.026-.136.022a6.238,6.238,0,0,1-.87-.073,7.74,7.74,0,0,0-.873-.074h-.313a2.4,2.4,0,0,0-.537.07.062.062,0,0,1-.048.022h-.016a.393.393,0,0,1-.243.074,1.7,1.7,0,0,1-.194-.022,2.786,2.786,0,0,1-.354.022c-.21,0-.427-.022-.637-.041a6,6,0,0,0-.634-.044c-.085,0-.166,0-.251.011-.191.019-.387.019-.578.019h-.254a1.1,1.1,0,0,1-.218.022,2.784,2.784,0,0,1-.395-.041l-.239-.033a2.085,2.085,0,0,0-.4-.037c-.144,0-.291.015-.438.026h-.008c-.106.007-.206.018-.295.022a.1.1,0,0,0-.065-.041l.051.033a.487.487,0,0,0-.1.022.4.4,0,0,1-.113.026.173.173,0,0,1-.093-.03,1.505,1.505,0,0,1-.312.03,3.792,3.792,0,0,1-.5-.041l-.059-.008a1.258,1.258,0,0,1-.262.03.83.83,0,0,1-.283-.048.408.408,0,0,1-.093.011,1.04,1.04,0,0,1-.239-.041.856.856,0,0,0-.235-.041.429.429,0,0,0-.181.041l-.114.019-.06.007a7.969,7.969,0,0,1-1.027.059c-.372,0-.748-.018-1.1-.041h-.579a10.026,10.026,0,0,1-1.153.063c-.441,0-.906-.022-1.345-.041h-.025c-.316-.015-.678-.033-1.024-.041-.177,0-.357-.019-.53-.033h-.033l-.221-.018h-1.083a.989.989,0,0,1-.424.092,1.224,1.224,0,0,1-.523-.122,2.4,2.4,0,0,0-.987-.192c-.092,0-.177-.011-.266-.018a.41.41,0,0,1-.254.073.667.667,0,0,1-.147-.011c-.048,0-.1-.007-.147-.007h-.059l-.395.022a.171.171,0,0,1-.121.063.219.219,0,0,1-.137-.074.408.408,0,0,0-.081-.059c-.125-.07-.258-.129-.38-.188l-.021-.007-.144-.066a.012.012,0,0,0-.008,0h-.062a.385.385,0,0,1-.272-.088c-.107,0-.222.011-.317.015h-.015a3.556,3.556,0,0,0-.763.074.185.185,0,0,0-.011.088.109.109,0,0,1-.011.1.1.1,0,0,1-.074.026h-.04a2.1,2.1,0,0,0-.262-.015h-.236l-.048-.007h-.018l-.085-.015-.472-.026h-.092a.225.225,0,0,0-.166-.052h-.07a.3.3,0,0,1-.114-.019h-.1a.1.1,0,0,1-.1-.07c0-.011.036-.044.077-.077a.283.283,0,0,0,.052-.041l-.045-.048-.051-.055-.03-.062-.018-.026-.008-.007-.019-.019h-.262c-.025.052-.051.1-.073.158,0,.007.011.015.015.022.025.033.059.073.048.1s0,.011-.019.011a.594.594,0,0,0-.106.033.851.851,0,0,1-.214.044.282.282,0,0,1-.235-.125l-.008.011a.5.5,0,0,1-.339.081h-.089l-.062-.015h-.52l-.593.026a.193.193,0,0,1-.11.029.468.468,0,0,1-.1-.015.526.526,0,0,0-.1-.011h-.015a.426.426,0,0,1-.1.011,1.031,1.031,0,0,1-.258-.048h-.015a.422.422,0,0,1-.066-.019h-.11a.272.272,0,0,0-.077,0,.207.207,0,0,0-.181.089.275.275,0,0,1-.029.191.117.117,0,0,1-.085.033l-.074-.011a.31.31,0,0,1-.221.125.285.285,0,0,1-.187-.092l-.041.011-.125.063a.231.231,0,0,1-.166.085.449.449,0,0,1-.181-.052l-.707.03h-.056a.361.361,0,0,1-.088.011.155.155,0,0,1-.147-.074l-.276.019-.177.007a.441.441,0,0,1,.073-.151c.06-.1.114-.184.029-.3-.059-.007-.125-.011-.158-.085l-.295-.011a.344.344,0,0,0-.125.236.375.375,0,0,0,.129.251c.085.081.118.147.1.191s-.085.074-.2.085a2.717,2.717,0,0,0-.328.155,1.361,1.361,0,0,1-.645.218.842.842,0,0,1-.214-.03.491.491,0,0,1-.125.018.242.242,0,0,1-.125-.033.153.153,0,0,1-.06,0,.307.307,0,0,1-.158-.048.514.514,0,0,0-.125-.048h-.416a2.562,2.562,0,0,1-.767.118,3.183,3.183,0,0,1-.42-.03.955.955,0,0,1-.147.015.818.818,0,0,1-.347-.089,7.176,7.176,0,0,1-1.278.218h-.007c-.2.018-.405.044-.608.074l-.324.026a.3.3,0,0,1-.158.037.556.556,0,0,1-.11,0h-.066l.011.022a.287.287,0,0,1-.147.059h-.019a.724.724,0,0,1-.2-.048h-.339c-.748,0-1.551-.044-2.52-.136l-.763-.077h-.048c-.387,0-.777-.037-1.157-.074h-.025c-.38-.037-.773-.074-1.164-.074h-.162a.378.378,0,0,1-.177-.062.6.6,0,0,0-.085-.037l-.328-.019a7.062,7.062,0,0,0-1.6-.136,8.3,8.3,0,0,1-1.047-.044h-.081a1.956,1.956,0,0,0-.258.03c-.048,0-.1.015-.147.018a.609.609,0,0,1-.31.074.966.966,0,0,1-.18-.011c-.06,0-.126-.011-.192-.011h-.055l-.17-.033-.066-.011h-.051l-.147-.026-.089-.033-.088-.037-.081-.033-.1-.041a1.7,1.7,0,0,1-.583-.147,1.609,1.609,0,0,0-.585-.147h-.074l-.052-.022-.066-.026-.294-.033-.6-.07h-.033l-.074,0h-.567l-.773.015h-.062a.464.464,0,0,1-.365-.129h-.46a.81.81,0,0,1-.461-.111,1.267,1.267,0,0,1-.372-.1v-.019a5.825,5.825,0,0,0,.052-.663,1.849,1.849,0,0,0-.162-.811c-.007-.011-.015-.026-.022-.037a.2.2,0,0,1-.048-.118v-.011c-.062-.03-.1-.066-.1-.118a.126.126,0,0,1,.008-.037.131.131,0,0,1-.037-.026l0,.037a.385.385,0,0,1,.007.088.163.163,0,0,1-.04.122.493.493,0,0,0-.019.081c-.011.074-.022.151-.106.151s-.151-.136-.181-.21a.784.784,0,0,1-.06-.306,1.525,1.525,0,0,1,.016-.188,2.9,2.9,0,0,0,.021-.431v-.188a1.231,1.231,0,0,1-.121-.6,1.472,1.472,0,0,0-.06-.457,1.134,1.134,0,0,1-.036-.25c0-.033,0-.077-.008-.114l-.015-.062-.019-.111a4.916,4.916,0,0,1,.044-.56,3.824,3.824,0,0,0,.048-.56v-.2a1.585,1.585,0,0,0-.04-.346.036.036,0,0,1-.015-.033v-.007a.25.25,0,0,1-.048-.158.5.5,0,0,1,.015-.125,1.581,1.581,0,0,1-.015-.225c0-.14.015-.276.025-.413a3.7,3.7,0,0,0,.029-.409,1.2,1.2,0,0,0-.007-.158,3.191,3.191,0,0,1-.015-.372v-.166a.43.43,0,0,1-.012-.136,1.427,1.427,0,0,1,.022-.254c.008-.052.015-.1.022-.158a1.416,1.416,0,0,0,.021-.25c0-.1-.007-.192-.015-.287v0c0-.07-.011-.133-.015-.188l.008-.007a.435.435,0,0,0-.015-.059.157.157,0,0,1-.016-.074.1.1,0,0,1,.016-.059,1.152,1.152,0,0,1-.019-.2,2.816,2.816,0,0,1,.025-.317v-.041a1.367,1.367,0,0,1-.019-.166.649.649,0,0,1,.029-.184.375.375,0,0,1,0-.059.524.524,0,0,1,.025-.151.709.709,0,0,0,.025-.155.2.2,0,0,0-.029-.114l-.007-.07-.008-.041a5.8,5.8,0,0,1-.037-.663c0-.24.016-.479.026-.708v-.368a6.273,6.273,0,0,1-.041-.74c0-.291.015-.586.03-.873v-.007c.007-.21.018-.431.025-.648a3.369,3.369,0,0,1,.022-.346v-.007l.011-.158v-.7a.6.6,0,0,1-.059-.269.744.744,0,0,1,.077-.335,1.578,1.578,0,0,0,.125-.637l.011-.169a.269.269,0,0,1-.048-.166.728.728,0,0,1,0-.092c0-.033.008-.063.008-.1v-.037l-.015-.254a.122.122,0,0,1-.041-.077.145.145,0,0,1,.048-.089.307.307,0,0,0,.041-.052c.04-.081.081-.162.114-.24v-.015l.048-.092v-.044a.261.261,0,0,1,.055-.173c0-.07-.007-.14-.007-.2v-.007a2.461,2.461,0,0,0-.048-.494.074.074,0,0,0-.056,0,.107.107,0,0,1-.062-.011.055.055,0,0,1-.015-.048v-.022c0-.059.007-.114.007-.173v-.151l.008-.03.007-.066.016-.247v-.118a.139.139,0,0,0,.032-.107v-.044a.226.226,0,0,1,.012-.074v-.066a.065.065,0,0,1,.044-.063c.011,0,.029.026.052.052l.025.03a.518.518,0,0,0,.041-.037l.021-.022.052-.048v-.081l0-.088a.419.419,0,0,1-.055-.026l-.026-.011-.018-.007-.015.011c-.022.015-.052.037-.063.033s-.007-.007-.007-.011c-.008-.022-.015-.048-.022-.074a.428.428,0,0,1-.025-.136.177.177,0,0,1,.077-.151l-.008,0a.359.359,0,0,1-.051-.221v-.048l.007-.026v-.346l-.007-.39a.131.131,0,0,1-.019-.066.579.579,0,0,1,.011-.07.311.311,0,0,0,.008-.066v-.008a.306.306,0,0,1-.008-.062.9.9,0,0,1,.029-.166v-.007a.253.253,0,0,1,.015-.044v-.118a.124.124,0,0,0-.055-.114.2.2,0,0,1-.125-.019.08.08,0,0,1-.022-.059c0-.015,0-.03.007-.048a.181.181,0,0,1-.081-.14.2.2,0,0,1,.06-.122l-.056-.107a.144.144,0,0,1-.052-.111.25.25,0,0,1,.03-.114l-.019-.457,0-.037a.3.3,0,0,1-.008-.059.106.106,0,0,1,.048-.1v-.029l-.007-.14-.008-.122a.329.329,0,0,1,.093.048c.063.037.117.074.191.019,0-.041.007-.081.055-.1l.008-.191a.236.236,0,0,0-.151-.081.223.223,0,0,0-.162.085c-.052.052-.1.074-.121.063s-.048-.052-.056-.125a1.459,1.459,0,0,0-.1-.21.872.872,0,0,1-.14-.416.545.545,0,0,1,.019-.136.273.273,0,0,1-.012-.081.169.169,0,0,1,.022-.081.059.059,0,0,1,0-.037.2.2,0,0,1,.037-.136.321.321,0,0,0,.029-.081v-.269a1.579,1.579,0,0,1-.077-.49,2.027,2.027,0,0,1,.021-.269.456.456,0,0,1-.011-.1.52.52,0,0,1,.059-.221,4.87,4.87,0,0,1-.144-.825v-.007c-.011-.125-.025-.258-.044-.387l-.019-.21a.193.193,0,0,1-.025-.1v-.111l-.012.007a.167.167,0,0,1-.036-.1v-.011a.352.352,0,0,1,.033-.125v-.221c0-.483.025-1,.084-1.621l.052-.49v-.03c0-.247.022-.5.044-.74v-.011a6.991,6.991,0,0,0,.052-.748v-.1a.208.208,0,0,1,.037-.114.273.273,0,0,0,.025-.059l.012-.206a4.565,4.565,0,0,0,.084-1.031,5.053,5.053,0,0,1,.03-.674.152.152,0,0,0,0-.052,1.353,1.353,0,0,0-.015-.166.759.759,0,0,0-.016-.092.416.416,0,0,1-.048-.2.577.577,0,0,1,.008-.118c0-.041.007-.081.007-.122v-.037l.03-.158,0-.03.019-.1.048-.111.019-.048,0-.011,0-.015.019-.041a1.048,1.048,0,0,1,.1-.379,1.05,1.05,0,0,0,.1-.379v-.044l0-.015.011-.022v-.019l.007-.022.026-.206v-.03c.007-.066.015-.136.021-.206l.019-.184v-.368l-.007-.516v-.041a.278.278,0,0,1,.081-.236v-.295a.536.536,0,0,1,.069-.3.863.863,0,0,1,.1-.321,5.556,5.556,0,0,0,.089-1.042c0-.262-.015-.52-.026-.737a.146.146,0,0,1-.033-.092.328.328,0,0,1,.019-.1.465.465,0,0,0,.015-.063c0-.1,0-.21,0-.3v-.052c0-.2.008-.453.008-.7,0-.405-.016-.807-.052-1.212l.021-.7.03-.269.011-.088.037-.339.015-.129a.393.393,0,0,1-.06-.221,1.11,1.11,0,0,1,.019-.184v-.018a.341.341,0,0,1-.007-.059.2.2,0,0,1,.036-.11l.015-.077.019-.1h-.335l.011-.2v-.063a.135.135,0,0,0,.033-.107V-3567a.218.218,0,0,1,.012-.07v-.063a.061.061,0,0,1,.044-.066c.007,0,.029.022.052.052l.029.033.044-.044.029-.026.041-.041v-.169l-.041-.015-.04-.022-.026-.011-.015.011c-.021.018-.048.041-.062.033a.018.018,0,0,1-.007-.011.462.462,0,0,0-.019-.07.571.571,0,0,1-.029-.136.175.175,0,0,1,.081-.151h-.008a.319.319,0,0,1-.052-.221v-.048l.008-.033,0-.022,0-.317,0-.247v-.14a.144.144,0,0,1-.019-.07.311.311,0,0,1,.011-.066.385.385,0,0,0,.008-.066V-3569a.386.386,0,0,1-.008-.062.841.841,0,0,1,.029-.166v-.011a.232.232,0,0,1,.015-.041v-.011a.152.152,0,0,1,0-.052v-.059a.133.133,0,0,0-.059-.114.159.159,0,0,1-.122-.022.069.069,0,0,1-.021-.055.233.233,0,0,1,.007-.044.187.187,0,0,1-.081-.144.193.193,0,0,1,.06-.122l-.015-.033-.008-.011-.007-.011a.264.264,0,0,0-.026-.052.156.156,0,0,1-.055-.11.314.314,0,0,1,.032-.114l-.015-.35,0-.1v-.037c0-.019,0-.041-.008-.059a.091.091,0,0,1,.052-.092l-.022-.291a.265.265,0,0,1,.1.048c.059.037.114.07.188.019a.1.1,0,0,1,.056-.1v-.074c0-.044-.011-.088-.011-.136a.192.192,0,0,0-.27-.007.1.1,0,0,0-.025.029c-.056.052-.1.074-.126.066s-.048-.055-.055-.129a1.584,1.584,0,0,0-.1-.21.873.873,0,0,1-.14-.413.551.551,0,0,1,.019-.14.271.271,0,0,1-.012-.081.17.17,0,0,1,.022-.081.1.1,0,0,1-.008-.037.262.262,0,0,1,.033-.1.19.19,0,0,0,.029-.077v-.269a1.582,1.582,0,0,1-.073-.494,2.26,2.26,0,0,1,.019-.269.383.383,0,0,1-.008-.1.45.45,0,0,1,.056-.217,4.452,4.452,0,0,1-.14-.825c-.016-.125-.03-.262-.049-.4l-.018-.206a.2.2,0,0,1-.026-.1.4.4,0,0,1,0-.07v-.044l-.011.008a.152.152,0,0,1-.037-.1.389.389,0,0,1,.029-.129l.008-.019v-.206a15.891,15.891,0,0,1,.088-1.617l.022-.247.025-.243v-.041c0-.251.026-.5.048-.744v-.015a6.986,6.986,0,0,0,.048-.744v-.1a.248.248,0,0,1,.041-.114c.007-.019.019-.037.025-.055l.012-.21a4.622,4.622,0,0,0,.084-1.031,5.055,5.055,0,0,1,.03-.674v-.052c0-.055-.008-.107-.016-.162a.875.875,0,0,0-.015-.1.406.406,0,0,1-.048-.2.6.6,0,0,1,.008-.118c0-.041.007-.081.007-.122v-.037l.012-.048v-.022c0-.015,0-.03.007-.044l.029-.166.1-.229a.969.969,0,0,1,.092-.379,1.05,1.05,0,0,0,.1-.379v-.044a.521.521,0,0,1,.029-.07v-.007l.008-.081.066-.567v-.3l-.012-.571v-.037a.291.291,0,0,1,.077-.236v-.295a.555.555,0,0,1,.066-.284.6.6,0,0,1,.06-.225l.011-.019.008-.122.011-.122.011-.144.015-.144a.736.736,0,0,1-.036-.232.941.941,0,0,1,.044-.287,3.66,3.66,0,0,0,.033-.5c-.019.033-.062.037-.107.044s-.1.011-.114.063l-.1.368a1.216,1.216,0,0,1-.084-.471v-.055a1.027,1.027,0,0,1-.03-.236,2.908,2.908,0,0,1,.033-.343,2.6,2.6,0,0,0,.03-.335.948.948,0,0,0-.012-.151v-.018a.124.124,0,0,1,.041-.092.1.1,0,0,1,.1-.029.113.113,0,0,1,.106.125.059.059,0,0,1,0,.037,1.431,1.431,0,0,0-.019.214,2.6,2.6,0,0,0,.114.648l.041.151v-.261a.164.164,0,0,1-.015-.07.3.3,0,0,1,.019-.1v-.015a.719.719,0,0,1,.011-.136v-.265c0-.214.007-.457.007-.7V-3590h-.092c-.092.085-.158.114-.2.1s-.066-.085-.066-.2v-.332c0-.088-.012-.177-.022-.269a2.26,2.26,0,0,1-.019-.269.739.739,0,0,1,.029-.236c0-.044.019-.088.045-.1s.029.015.04.048a.388.388,0,0,1,.033.158.254.254,0,0,1-.052.169v.033a.264.264,0,0,0,.056.125.237.237,0,0,1,.056.122.1.1,0,0,1-.008.033l.015.015.011.011.008.007.007,0,.012.015h.118l-.016-.221-.011.019c-.048,0-.055-.026-.055-.052v-.022c0-.037,0-.077.048-.077h.007c0-.037-.007-.081-.011-.144l0-.188.007-.173,0-.192v-.155l.022-.169.036-.346.022-.206v-.033c-.062-.03-.1-.066-.1-.118a.193.193,0,0,1,.007-.041.065.065,0,0,1-.036-.026l0,.037a.679.679,0,0,1,.008.088.168.168,0,0,1-.041.125.56.56,0,0,0-.018.077c-.012.074-.022.151-.107.155s-.151-.136-.181-.214a.721.721,0,0,1-.055-.306,1.014,1.014,0,0,1,.015-.188,3.538,3.538,0,0,0,.019-.431v-.188a1.174,1.174,0,0,1-.122-.593,1.633,1.633,0,0,0-.055-.46.921.921,0,0,1-.041-.247c0-.041,0-.081-.007-.118l-.033-.17a3.831,3.831,0,0,1,.048-.563,4.984,4.984,0,0,0,.044-.564v-.2a1.361,1.361,0,0,0-.044-.346.052.052,0,0,1-.015-.033v-.008a.246.246,0,0,1-.045-.158.682.682,0,0,1,.012-.125,1.493,1.493,0,0,1-.016-.228,3.772,3.772,0,0,1,.03-.405v-.007c.015-.133.021-.269.025-.405,0-.055,0-.107-.007-.162-.012-.122-.012-.247-.016-.368v-.169a.645.645,0,0,1-.015-.14,2.039,2.039,0,0,1,.026-.254,1.1,1.1,0,0,0,.021-.158,1.183,1.183,0,0,0,.026-.254c0-.1-.012-.2-.019-.284v-.007c0-.063-.011-.125-.011-.192a.562.562,0,0,0-.019-.066.225.225,0,0,1-.015-.074.115.115,0,0,1,.019-.059.7.7,0,0,1-.019-.2,2.363,2.363,0,0,1,.025-.321v-.041a.871.871,0,0,1-.019-.166.624.624,0,0,1,.029-.18.473.473,0,0,1-.007-.059.778.778,0,0,1,.025-.155.494.494,0,0,0,.029-.151.238.238,0,0,0-.029-.114l0-.03v-.015l0-.074a5.03,5.03,0,0,1-.036-.663c0-.24.011-.483.021-.7v-.368a7.249,7.249,0,0,1-.037-.744c0-.291.016-.586.03-.869v-.007c.007-.21.018-.435.021-.652,0-.114.015-.232.022-.346v-.011l.015-.147v-.7a.618.618,0,0,1-.062-.269.772.772,0,0,1,.077-.339,1.549,1.549,0,0,0,.125-.634c0-.059.008-.114.012-.166a.267.267,0,0,1-.045-.166.786.786,0,0,1,0-.1.755.755,0,0,0,0-.1v-.085l-.011-.2a.115.115,0,0,1-.041-.081.155.155,0,0,1,.048-.089.247.247,0,0,0,.037-.052c.044-.077.081-.158.118-.24v0l.007-.015.044-.092,0,0v-.041a.257.257,0,0,1,.056-.177c-.008-.066-.008-.136-.012-.2v-.015c0-.081,0-.169-.011-.254l-.007,0,.007-.011a1.882,1.882,0,0,0-.033-.214.105.105,0,0,0-.059-.007.074.074,0,0,1-.062-.007.065.065,0,0,1-.015-.048v-.022a1.437,1.437,0,0,0,.007-.169v-.155l.008-.033v-.173h.357c-.03-.306-.045-.619-.045-.928v-.011c0-.188,0-.376.015-.571v-.052a1.172,1.172,0,0,0-.007-.158c0-.052-.008-.107-.008-.162a.53.53,0,0,1,.066-.287l.026-.324v-.041l.015-.169a.713.713,0,0,1-.037-.232,1.074,1.074,0,0,1,.044-.284,3.589,3.589,0,0,0,.033-.571.36.36,0,0,0-.214-.232h-.092c-.1.081-.162.114-.206.1s-.066-.088-.07-.2v-.328a1.632,1.632,0,0,0-.019-.269v0a2.264,2.264,0,0,1-.019-.269,1,1,0,0,1,.03-.236c0-.044.021-.1.044-.1s.029.015.044.052a.361.361,0,0,1,.033.155.3.3,0,0,1-.052.169.128.128,0,0,0,0,.033.219.219,0,0,0,.051.125.2.2,0,0,1,.056.122c0,.011,0,.026,0,.037l.008.007.011.011.008,0,.021.022h.207a.123.123,0,0,1,.059.111c0,.048.011.1.059.114.008-.181.029-.365.048-.542a5.761,5.761,0,0,0,.052-.663,1.844,1.844,0,0,0-.162-.807c-.007-.011-.015-.026-.022-.037a.227.227,0,0,1-.048-.118v-.011a.132.132,0,0,1-.092-.118.144.144,0,0,1,0-.041.084.084,0,0,1-.037-.026l.008.041c0,.029,0,.059.007.088a.175.175,0,0,1-.044.118.708.708,0,0,0-.015.081c-.015.077-.026.155-.11.155s-.151-.136-.181-.21a.726.726,0,0,1-.056-.306,1.122,1.122,0,0,1,.015-.192,3.264,3.264,0,0,0,.019-.427v-.188a1.2,1.2,0,0,1-.118-.6,1.754,1.754,0,0,0-.059-.46.917.917,0,0,1-.037-.247c0-.033-.007-.077-.011-.118l-.015-.085-.019-.088a4.861,4.861,0,0,1,.048-.556,4.218,4.218,0,0,0,.048-.564v-.2a1.353,1.353,0,0,0-.044-.343.052.052,0,0,1-.015-.033v-.011a.256.256,0,0,1-.048-.155c0-.041.007-.085.015-.125a1.58,1.58,0,0,1-.015-.225,3.91,3.91,0,0,1,.029-.413,3.826,3.826,0,0,0,.025-.409,1.225,1.225,0,0,0-.007-.158c-.011-.125-.011-.251-.011-.372v-.166a.55.55,0,0,1-.016-.14,2.039,2.039,0,0,1,.026-.254c.007-.048.015-.1.021-.155a1.33,1.33,0,0,0,.022-.25c0-.1-.007-.192-.015-.287v0c-.008-.07-.011-.129-.015-.188a.066.066,0,0,0,.025-.041l-.021.033a.232.232,0,0,0-.015-.066.34.34,0,0,1-.015-.074.113.113,0,0,1,.018-.059.928.928,0,0,1-.018-.2,2.363,2.363,0,0,1,.025-.321l0-.037a.8.8,0,0,1-.019-.166.615.615,0,0,1,.029-.184.306.306,0,0,1-.008-.059.792.792,0,0,1,.03-.155.7.7,0,0,0,.025-.151.264.264,0,0,0-.029-.118l-.008-.074-.007-.037a4.8,4.8,0,0,1-.037-.663c0-.236.011-.479.025-.7v-.372a6.271,6.271,0,0,1-.04-.74c0-.284.015-.582.025-.866v-.015c.012-.206.022-.438.026-.659,0-.114.011-.232.021-.343v-.019l.016-.144v-.7a.569.569,0,0,1-.063-.269.829.829,0,0,1,.078-.339,1.5,1.5,0,0,0,.125-.634c0-.059.007-.114.011-.169a.29.29,0,0,1-.048-.166.41.41,0,0,1,.008-.1c0-.03,0-.059,0-.092v-.037l-.015-.254a.126.126,0,0,1-.04-.077.14.14,0,0,1,.052-.092.25.25,0,0,0,.036-.052c.045-.081.081-.162.118-.243l.008-.011.04-.1a0,0,0,0,0,0,0v-.041a.242.242,0,0,1,.056-.173c0-.07-.008-.144-.008-.206v-.007a2.463,2.463,0,0,0-.048-.494.1.1,0,0,0-.056,0,.088.088,0,0,1-.066-.011.066.066,0,0,1-.015-.044v-.026a1.232,1.232,0,0,0,.012-.169v-.151l0-.033v-.011l.012-.052.015-.306v-.059a.139.139,0,0,0,.033-.107v-.044a.254.254,0,0,1,.011-.074v-.066a.068.068,0,0,1,.044-.062c.012,0,.033.022.052.048a.282.282,0,0,0,.026.033l.033-.03.033-.033.044-.018.011-.011.008,0,.015-.015v-.166c-.037-.019-.07-.033-.1-.048a.063.063,0,0,0-.015.011c-.022.015-.052.037-.062.03s-.008,0-.008-.011a.477.477,0,0,0-.021-.07.452.452,0,0,1-.026-.136.182.182,0,0,1,.078-.151l0-.008a.327.327,0,0,1-.056-.217v-.055l.012-.041v-.335l-.019-.383a.131.131,0,0,1-.019-.066c0-.022,0-.044.007-.066a.2.2,0,0,0,.012-.066v-.011a.308.308,0,0,1-.008-.063.6.6,0,0,1,.029-.162v-.011a.26.26,0,0,1,.015-.044v-.118a.133.133,0,0,0-.059-.118.157.157,0,0,1-.121-.018.072.072,0,0,1-.022-.055.331.331,0,0,1,.007-.048.187.187,0,0,1-.081-.14.184.184,0,0,1,.06-.122l-.008-.026-.04-.081a.153.153,0,0,1-.056-.107.3.3,0,0,1,.033-.114l-.019-.457v-.037a.269.269,0,0,1-.007-.055.1.1,0,0,1,.048-.1l-.012-.177-.007-.114a.3.3,0,0,1,.1.048c.063.037.117.074.191.018,0-.041.007-.081.056-.1l.007-.192a.208.208,0,0,0-.151-.081.223.223,0,0,0-.162.085c-.051.052-.1.074-.125.063s-.044-.052-.052-.125a1.648,1.648,0,0,0-.1-.214.939.939,0,0,1-.141-.413.425.425,0,0,1,.022-.136.289.289,0,0,1-.011-.081.125.125,0,0,1,.018-.081v-.037a.257.257,0,0,1,.033-.1.3.3,0,0,0,.03-.081v-.269a1.58,1.58,0,0,1-.078-.49,2.213,2.213,0,0,1,.022-.269.4.4,0,0,1-.011-.1.492.492,0,0,1,.059-.221,4.481,4.481,0,0,1-.14-.825v-.007c-.015-.125-.029-.258-.048-.39l-.019-.206a.2.2,0,0,1-.026-.1v-.111l-.011.007a.191.191,0,0,1-.037-.1v-.011a.454.454,0,0,1,.03-.125v-.221c0-.483.029-.995.088-1.621l.048-.49v-.03c0-.25.026-.5.048-.744v-.019c.022-.243.048-.5.048-.748v-.1a.25.25,0,0,1,.041-.114.322.322,0,0,0,.021-.055l.012-.21a4.4,4.4,0,0,0,.088-1.031,5.194,5.194,0,0,1,.029-.671v-.052a1.19,1.19,0,0,0-.018-.166.8.8,0,0,0-.012-.1.368.368,0,0,1-.048-.2.616.616,0,0,1,.008-.118c0-.037.007-.077.007-.122v-.033l.019-.111.008-.044v-.033l.019-.1.021-.055.022-.055.021-.052.026-.063a.975.975,0,0,1,.1-.372.986.986,0,0,0,.092-.379v-.048l.015-.033.019-.041.022-.192.04-.387v-.022l.008-.044v-.368l-.011-.494v-.041a.3.3,0,0,1,.081-.236v-.295a.517.517,0,0,1,.073-.3.8.8,0,0,1,.1-.321,5.478,5.478,0,0,0,.088-1.043c0-.261-.011-.52-.021-.737a.15.15,0,0,1-.033-.1.283.283,0,0,1,.019-.1c0-.022.011-.044.015-.062,0-.1,0-.21,0-.3v-.052c0-.2.007-.453.007-.7a11.146,11.146,0,0,0-.055-1.212v0l.021-.7.033-.287.029-.269.029-.265a.428.428,0,0,1-.059-.221,1.745,1.745,0,0,1,.019-.188v-.022a.3.3,0,0,1-.008-.059.181.181,0,0,1,.041-.111l.077-.427.037-.173a.814.814,0,0,1-.011-.14c0-.048,0-.1,0-.136v-.136a.689.689,0,0,0-.025-.2.641.641,0,0,1-.041-.217.6.6,0,0,1,.063-.269v-.088a.136.136,0,0,1-.041-.111v-.144l-.019-.291-.007-.166-.012-.162a.372.372,0,0,1-.033-.151.675.675,0,0,1,.008-.088c0-.019-.008-.033-.011-.052v0a.969.969,0,0,1-.052-.272.427.427,0,0,1,.033-.169.166.166,0,0,0,.029-.107.73.73,0,0,0-.008-.1.393.393,0,0,1-.011-.089.253.253,0,0,1,.011-.073c0-.085-.007-.17-.011-.254v-.052l-.048-.3-.011-.081-.041-.236a.215.215,0,0,1-.019-.1v-.011a2.766,2.766,0,0,1-.033-.42c0-.107.015-.214.022-.324a8.45,8.45,0,0,1,1.017-.055c.372,0,.748.018,1.1.037h.579a10.924,10.924,0,0,1,1.153-.059c.449,0,.909.022,1.352.044h.011c.332.015.675.03,1.014.037.181,0,.361.022.538.037h.011l.243.018h1.087a.938.938,0,0,1,.424-.092,1.2,1.2,0,0,1,.512.133,2.442,2.442,0,0,0,.987.192c.093,0,.177.011.262.019a.441.441,0,0,1,.262-.074.633.633,0,0,1,.147.011c.052,0,.1.007.147.007h.059l.384-.026a.17.17,0,0,1,.121-.063.209.209,0,0,1,.14.081.686.686,0,0,0,.081.059c.122.063.251.125.372.181h.019l.147.074h.066a.4.4,0,0,1,.269.085c.107-.007.222-.007.317-.011h.011a3.817,3.817,0,0,0,.767-.073.156.156,0,0,0,.011-.092.131.131,0,0,1,.015-.1.091.091,0,0,1,.081-.018h.041a1.561,1.561,0,0,0,.262.011h.235l.052.015.1.015.383.018h.129l.06-.007a.217.217,0,0,0,.162.055h.073a.217.217,0,0,1,.11.019h.041a.179.179,0,0,1,.063,0,.1.1,0,0,1,.1.063c0,.015-.037.048-.078.077l-.048.041.06.066.029.033.077.081h.129l.133-.008a.732.732,0,0,1,.041-.088l.018-.055.016-.03c0-.011-.016-.022-.019-.03-.026-.029-.056-.073-.048-.088a.025.025,0,0,1,.015-.015.422.422,0,0,0,.11-.03,1.053,1.053,0,0,1,.214-.044.283.283,0,0,1,.235.125l.008-.011a.5.5,0,0,1,.339-.081h.077l.04.007.026,0h.516l.6-.007a.187.187,0,0,1,.106-.03.59.59,0,0,1,.1.022.471.471,0,0,0,.1.011h.015a.4.4,0,0,1,.1-.011.991.991,0,0,1,.254.048h.019a.307.307,0,0,1,.063.018h.1a.33.33,0,0,0,.085,0,.206.206,0,0,0,.18-.088.266.266,0,0,1,.026-.191.121.121,0,0,1,.085-.033.286.286,0,0,1,.077.011.3.3,0,0,1,.217-.125.293.293,0,0,1,.192.088l.177-.066a.213.213,0,0,1,.169-.081.411.411,0,0,1,.177.048l.711-.03.06-.007a.362.362,0,0,1,.088-.011.16.16,0,0,1,.147.074h.048l.222-.015.188-.007a.8.8,0,0,1-.073.147c-.06.092-.114.177-.033.295a.153.153,0,0,1,.158.085l.295.011a.333.333,0,0,0,.129-.229.359.359,0,0,0-.129-.25c-.081-.081-.118-.147-.1-.192s.081-.073.2-.085a2.171,2.171,0,0,0,.324-.147,1.342,1.342,0,0,1,.645-.225.872.872,0,0,1,.218.03.439.439,0,0,1,.121-.018.209.209,0,0,1,.125.029.292.292,0,0,1,.06-.007.369.369,0,0,1,.162.052.434.434,0,0,0,.121.048h.416a2.454,2.454,0,0,1,.767-.122,2.609,2.609,0,0,1,.416.033.7.7,0,0,1,.147-.015.736.736,0,0,1,.343.085,7.523,7.523,0,0,1,1.282-.221h.008c.2-.019.405-.044.6-.074l.324-.026a.322.322,0,0,1,.162-.041c.037,0,.074,0,.111.007h.063l-.008-.015a.235.235,0,0,1,.147-.055h.019a.709.709,0,0,1,.2.044h.343c.748,0,1.551.048,2.52.14l.763.077h.048c.387,0,.773.033,1.153.07h.015a11.032,11.032,0,0,0,1.164.077h.144a.415.415,0,0,1,.177.059c.033.011.063.03.089.041l.328.015a7.077,7.077,0,0,0,1.6.136,9.017,9.017,0,0,1,1.042.041.3.3,0,0,0,.081,0,1.485,1.485,0,0,0,.259-.022c.048,0,.1-.015.146-.018a.566.566,0,0,1,.328-.063,1.63,1.63,0,0,1,.188.007,1.567,1.567,0,0,0,.191.015h.052l.246.044.048.007.147.022.174.073.077.03h.015l.022.007.063.03a1.558,1.558,0,0,1,.589.147,1.635,1.635,0,0,0,.59.147h.07l.021.008.033.011.022.007h.007l.022.026.32.033h.048l.32.037.288.033h.571l.807-.015h.059a.444.444,0,0,1,.365.125h.46a.841.841,0,0,1,.461.111,1.4,1.4,0,0,1,.5.162,8.827,8.827,0,0,0,1.617.136c.409,0,.807-.019,1.146-.041a.261.261,0,0,1,.147-.048.565.565,0,0,1,.158.026.471.471,0,0,0,.1.022l.468.007h.078c.313,0,.707.011,1.087.011a16.811,16.811,0,0,0,1.882-.085l1.095.037.416.048.137.015.522.055.2.022a.619.619,0,0,1,.343-.089,1.837,1.837,0,0,1,.283.03h.033a.393.393,0,0,1,.092-.011.256.256,0,0,1,.17.059l.122.022.146.026v-.527l.307.015h.1a.216.216,0,0,0,.165.055h.074a.287.287,0,0,1,.11.019h.033a.2.2,0,0,1,.066,0,.1.1,0,0,1,.1.066c0,.015-.037.048-.081.077l-.052.044.069.074.041.044.059.063h.262l.029-.059.029-.062.019-.041-.019-.026c-.025-.033-.059-.077-.048-.1s.008-.015.016-.015c.036-.007.073-.018.11-.029a.774.774,0,0,1,.217-.081.277.277,0,0,1,.236.122l.007-.011a.5.5,0,0,1,.339-.081h.074l.055.015h1.135a.237.237,0,0,1,.111-.03c.033,0,.065.007.1.015a.7.7,0,0,0,.1.015h.015a.454.454,0,0,1,.1-.011.864.864,0,0,1,.259.048h.015a.179.179,0,0,1,.066.018h.015a.3.3,0,0,1,.081,0h.092a.2.2,0,0,0,.181-.088.265.265,0,0,1,.029-.192.109.109,0,0,1,.085-.033.448.448,0,0,1,.073.007.3.3,0,0,1,.225-.1.275.275,0,0,1,.188.088l.04-.029h.026l.019-.008.084-.044a.216.216,0,0,1,.166-.088.369.369,0,0,1,.177.052l.545-.022h.222a.826.826,0,0,1,.088-.03.159.159,0,0,1,.147.077l.453-.03a.492.492,0,0,1-.073.155c-.06.092-.114.181-.033.295a.148.148,0,0,1,.158.089h.118c.066-.008.136-.015.21-.019a.3.3,0,0,0,.019-.416.188.188,0,0,0-.052-.044c-.085-.085-.118-.147-.1-.192s.085-.07.2-.07c.11-.048.221-.1.328-.162a1.388,1.388,0,0,1,.645-.221.831.831,0,0,1,.214.03.458.458,0,0,1,.125-.019.247.247,0,0,1,.125.033.291.291,0,0,1,.059-.007.35.35,0,0,1,.159.052.5.5,0,0,0,.125.048h.416a2.468,2.468,0,0,1,.767-.118,2.6,2.6,0,0,1,.413.022.954.954,0,0,1,.146-.015.736.736,0,0,1,.343.088,7.234,7.234,0,0,1,1.282-.218c.191-.022.405-.048.615-.077l.332-.026a.267.267,0,0,1,.158-.041.54.54,0,0,1,.11.007h.063l-.011-.011a.241.241,0,0,1,.166-.059.537.537,0,0,1,.2.048l.026.007h.32c.752,0,1.551.044,2.52.136l.38.041.38.037h.04c.391,0,.781.037,1.164.074h.015c.38.037.774.074,1.161.074h.147a.444.444,0,0,1,.177.063c.025.011.055.026.085.037l.327.018a7.119,7.119,0,0,0,1.606.133,8.367,8.367,0,0,1,1.05.044h.078a1.954,1.954,0,0,0,.258-.019,1.408,1.408,0,0,0,.154-.022.547.547,0,0,1,.3-.07,1.613,1.613,0,0,1,.188.007c.059,0,.125.011.188.011h.056l.077.015h.033l.066.007.276.052.35.147a1.615,1.615,0,0,1,.586.147,1.735,1.735,0,0,0,.594.147h.069l.107.044h.011l.125.011.885.1h.472l.884-.015h.063a.448.448,0,0,1,.365.125h.456a.843.843,0,0,1,.442.1.8.8,0,0,1,.354.092l.029.011.188.015.184.015.229.022.226.019a1.2,1.2,0,0,1,.36-.055,1.388,1.388,0,0,1,.442.07,5.447,5.447,0,0,0,.773.048c-.052-.026-.059-.1-.066-.162s-.015-.162-.1-.177l-.57-.147a1.916,1.916,0,0,1,.732-.136h.089a1.544,1.544,0,0,1,.368-.044,4.178,4.178,0,0,1,.527.048,3.569,3.569,0,0,0,.526.048,1.651,1.651,0,0,0,.232-.015h.025a.19.19,0,0,1,.144.063.174.174,0,0,1,.048.147.185.185,0,0,1-.2.166.123.123,0,0,1-.052,0,1.72,1.72,0,0,0-.339-.03,3.869,3.869,0,0,0-1,.177l-.236.063h.4a.309.309,0,0,1,.114-.026.562.562,0,0,1,.155.03h.029a1.675,1.675,0,0,1,.21.019h.409c.335,0,.711.011,1.083.011h.247v-.144c-.129-.147-.177-.247-.147-.317s.133-.1.306-.107h.512a3.966,3.966,0,0,0,.42-.033,3.976,3.976,0,0,1,.417-.022,1.55,1.55,0,0,1,.368.044c.066.007.147.033.147.07s-.022.044-.081.07a.664.664,0,0,1-.239.052.5.5,0,0,1-.27-.081.123.123,0,0,0-.052,0,.325.325,0,0,0-.187.081.318.318,0,0,1-.191.081.142.142,0,0,1-.056,0l-.019.022-.021.018-.008.011-.007.007-.026.022v.21l.347-.022-.029-.018c0-.074.044-.085.081-.085h.036c.056,0,.114,0,.118.077v.008l.222-.019.294.007.27.011.295.007h.011l.229.007.265.03.546.063.313.033h.056c.048-.1.106-.147.181-.147a.3.3,0,0,1,.063.008.16.16,0,0,1,.041-.059l-.06.007a.559.559,0,0,1-.136.015.253.253,0,0,1-.188-.066c-.04-.011-.085-.018-.125-.026-.118-.018-.236-.033-.239-.166s.213-.236.327-.284a1.336,1.336,0,0,1,.479-.088,2.018,2.018,0,0,1,.295.026,4.4,4.4,0,0,0,.663.029h.291a1.875,1.875,0,0,1,.928-.188,2.458,2.458,0,0,0,.712-.092,1.752,1.752,0,0,1,.391-.059,1.423,1.423,0,0,0,.18-.015l.266-.048a6.292,6.292,0,0,1,.873.073,6.965,6.965,0,0,0,.873.07h.31a2.163,2.163,0,0,0,.534-.066.077.077,0,0,1,.052-.026h.019a.4.4,0,0,1,.239-.07,1.2,1.2,0,0,1,.2.019,2.71,2.71,0,0,1,.35-.022,6.218,6.218,0,0,1,.638.044h.007a5.161,5.161,0,0,0,.634.041c.089,0,.17,0,.247-.007.191-.018.383-.022.571-.022h.269a1.07,1.07,0,0,1,.218-.022,2.77,2.77,0,0,1,.394.041c.081.011.166.026.247.033a2.027,2.027,0,0,0,.395.037c.147,0,.295-.015.442-.026h.015c.1-.007.191-.015.294-.018.033-.008.066-.015.1-.026a.432.432,0,0,1,.118-.026.2.2,0,0,1,.089.03,1.293,1.293,0,0,1,.316-.03,3.263,3.263,0,0,1,.5.044h.059a1.252,1.252,0,0,1,.262-.029.931.931,0,0,1,.284.044.714.714,0,0,1,.092-.007.86.86,0,0,1,.236.041,1.066,1.066,0,0,0,.239.041.418.418,0,0,0,.177-.041h.066l.106-.033a8.814,8.814,0,0,1,1.032-.059c.372,0,.736.019,1.094.041h.575a9.974,9.974,0,0,1,1.152-.059c.45,0,.906.018,1.353.041h.007c.336.018.679.033,1.018.041.177,0,.36.018.538.033h.021l.229.022h1.087a.937.937,0,0,1,.42-.1,1.161,1.161,0,0,1,.523.122,2.459,2.459,0,0,0,.987.2c.092,0,.181.007.262.015a.421.421,0,0,1,.258-.074.685.685,0,0,1,.147.011c.044,0,.092.008.147.008h.132l.317-.019a.2.2,0,0,1,.121-.066.266.266,0,0,1,.141.077.446.446,0,0,0,.077.07c.121.063.25.125.372.181l.022.007.146.07h.063a.405.405,0,0,1,.272.089c.106,0,.214-.011.316-.015h.019a3.658,3.658,0,0,0,.4-.015l.007-.015.022.015a2.434,2.434,0,0,0,.327-.055.17.17,0,0,0,.012-.089.261.261,0,0,1,.011-.1.094.094,0,0,1,.074-.022h.04c.089.008.173.011.262.011h.235l.056.007h.022l.04.007h.206v.556c.472-.044.958-.07,1.444-.07.295,0,.59.007.892.026h.077a1.708,1.708,0,0,0,.247-.011c.081,0,.17-.015.254-.015a.834.834,0,0,1,.442.1l.5.044h.066l.266.018a1.171,1.171,0,0,1,.36-.055,1.473,1.473,0,0,1,.438.07,5.944,5.944,0,0,0,.885.052.556.556,0,0,0,.364-.332v-.122c-.129-.147-.177-.247-.147-.317s.133-.1.306-.107h.517a4.323,4.323,0,0,0,.435-.026h.007a3.932,3.932,0,0,1,.417-.033,1.386,1.386,0,0,1,.368.048c.066.007.14.033.147.066s-.022.048-.077.07a.618.618,0,0,1-.243.052.439.439,0,0,1-.262-.081.134.134,0,0,0-.056,0,.365.365,0,0,0-.191.081.341.341,0,0,1-.191.085.123.123,0,0,1-.052,0l-.011.011-.019.018-.012.008-.029.033v.324a.182.182,0,0,1-.177.089c-.066.011-.147.018-.173.1.28.007.563.044.84.074a9.769,9.769,0,0,0,1.031.077,2.9,2.9,0,0,0,1.257-.25l.059-.037a.334.334,0,0,1,.181-.07h.022c.044-.1.1-.147.18-.147a.188.188,0,0,1,.063.007.153.153,0,0,1,.036-.059l-.055.007a.92.92,0,0,1-.137.015.285.285,0,0,1-.191-.066.683.683,0,0,0-.125-.026c-.114-.018-.232-.037-.236-.166s.214-.236.328-.284a1.177,1.177,0,0,1,.476-.088,1.938,1.938,0,0,1,.295.022,5,5,0,0,0,.666.033h.295a1.846,1.846,0,0,1,.91-.169,2.448,2.448,0,0,0,.711-.092,1.533,1.533,0,0,1,.387-.059,1.163,1.163,0,0,0,.185-.019l.133-.022.133-.026a6.85,6.85,0,0,1,.869.074,7.645,7.645,0,0,0,.873.074h.313a2.433,2.433,0,0,0,.537-.07.063.063,0,0,1,.052-.022h.015a.432.432,0,0,1,.243-.074,1.807,1.807,0,0,1,.192.022,2.852,2.852,0,0,1,.354-.022,6.208,6.208,0,0,1,.637.041,6.142,6.142,0,0,0,.638.044c.081,0,.166,0,.247-.011.2-.018.391-.022.578-.022h.254a1.088,1.088,0,0,1,.218-.022,3.505,3.505,0,0,1,.395.041h.007c.077.011.158.026.239.033a2.036,2.036,0,0,0,.395.037c.147,0,.295-.011.442-.022.106-.011.206-.018.3-.022a.49.49,0,0,0,.141-.044.413.413,0,0,1,.113-.026.223.223,0,0,1,.1.026,1.518,1.518,0,0,1,.32-.022,4.4,4.4,0,0,1,.493.041l.063.007a1.246,1.246,0,0,1,.259-.029.868.868,0,0,1,.287.048.361.361,0,0,1,.088-.011,1.057,1.057,0,0,1,.24.041.861.861,0,0,0,.235.044.389.389,0,0,0,.181-.044l.114-.015.055-.011a8.036,8.036,0,0,1,1.032-.055c.372,0,.748.018,1.1.037h.578a10.115,10.115,0,0,1,1.157-.059c.442,0,.9.018,1.341.041h.011c.317.018.679.033,1.024.041.177,0,.357.022.534.037h.029l.222.018h1.087a.963.963,0,0,1,.42-.1,1.276,1.276,0,0,1,.522.122,2.464,2.464,0,0,0,.988.2,1.934,1.934,0,0,1,.261.018.387.387,0,0,1,.258-.074.938.938,0,0,1,.147.008,1,1,0,0,0,.147.011h.06l.394-.026a.172.172,0,0,1,.122-.062.216.216,0,0,1,.136.074.461.461,0,0,0,.081.063c.129.066.258.125.384.188l.019.007.147.066s0,0,0,0h.063a.406.406,0,0,1,.273.088c.106-.007.217-.011.316-.015h.011a3.562,3.562,0,0,0,.767-.073.144.144,0,0,0,.011-.089.126.126,0,0,1,.012-.1.091.091,0,0,1,.073-.022.073.073,0,0,1,.041,0c.088.007.177.011.265.011h.232l.048.007h.019l.085.015.472.022h.081a.2.2,0,0,0,.162.055h.073a.358.358,0,0,1,.11.019h.1a.1.1,0,0,1,.1.066c0,.015-.04.048-.081.081l-.051.041.044.052.055.055.022.022.022.026.007.007.019.019h.262l.073-.162-.015-.022c-.025-.033-.055-.074-.048-.1a.021.021,0,0,1,.015-.011c.037-.008.078-.022.111-.03a.728.728,0,0,1,.217-.044.271.271,0,0,1,.232.122l.007-.011a.516.516,0,0,1,.343-.081h.074l.063.015h.52l.607-.03a.225.225,0,0,1,.107-.03,1,1,0,0,1,.1.015.51.51,0,0,0,.1.011h.015a.454.454,0,0,1,.1-.011.989.989,0,0,1,.258.048h.019a.29.29,0,0,1,.063.018h.181a.2.2,0,0,0,.181-.088.267.267,0,0,1,.029-.191.127.127,0,0,1,.089-.033.824.824,0,0,1,.088.029.286.286,0,0,1,.218-.125.274.274,0,0,1,.188.089l.037-.022.122-.063a.219.219,0,0,1,.169-.081.444.444,0,0,1,.181.048l.711-.03h.052a.361.361,0,0,1,.088-.011.159.159,0,0,1,.147.073l.276-.015.181-.011a.6.6,0,0,1-.073.155c-.06.092-.114.18-.033.295a.153.153,0,0,1,.158.085l.295.015a.333.333,0,0,0,.125-.236.356.356,0,0,0-.129-.254c-.085-.081-.118-.147-.1-.191s.081-.07.2-.085a2.663,2.663,0,0,0,.324-.155,1.361,1.361,0,0,1,.648-.218.718.718,0,0,1,.214.03.358.358,0,0,1,.125-.022.21.21,0,0,1,.125.029.38.38,0,0,1,.06-.007.353.353,0,0,1,.158.052.5.5,0,0,0,.121.048h.42a2.349,2.349,0,0,1,.767-.118,3.131,3.131,0,0,1,.416.029.7.7,0,0,1,.147-.015.715.715,0,0,1,.347.088,6.894,6.894,0,0,1,1.286-.221h.007c.2-.022.405-.044.608-.074l.324-.026a.274.274,0,0,1,.162-.041.54.54,0,0,1,.106.007h.066l-.015-.022a.285.285,0,0,1,.147-.059h.019a.726.726,0,0,1,.194.048h.336c.751,0,1.551.044,2.52.136l.763.077h.048c.387,0,.777.041,1.157.074h.011c.38.037.773.077,1.161.077h.146a.374.374,0,0,1,.178.059.9.9,0,0,0,.088.037l.328.018a7.249,7.249,0,0,0,1.6.136,9.109,9.109,0,0,1,1.047.041h.081a1.471,1.471,0,0,0,.254-.022c.048,0,.1-.015.147-.018a.607.607,0,0,1,.31-.074,1.03,1.03,0,0,1,.184.011c.063,0,.126.011.188.011h.055l.17.03.07.011h.051l.147.03.126.063.092.037.077.029.1.041a1.64,1.64,0,0,1,.59.147,1.636,1.636,0,0,0,.479.133c-.007.166-.025.332-.044.494a5.834,5.834,0,0,0-.052.663,1.835,1.835,0,0,0,.162.807.377.377,0,0,0,.022.041.225.225,0,0,1,.044.118v.011c.063.029.1.066.1.118,0,.011,0,.026,0,.037a.2.2,0,0,1,.037.026l-.007-.037a.675.675,0,0,1-.008-.088.163.163,0,0,1,.04-.122.271.271,0,0,0,.019-.081c.012-.074.022-.151.107-.151s.15.136.181.21a.789.789,0,0,1,.059.306,1.745,1.745,0,0,1-.015.188,2.724,2.724,0,0,0-.022.427v.192a1.182,1.182,0,0,1,.122.593,1.518,1.518,0,0,0,.059.464,1.135,1.135,0,0,1,.037.247.76.76,0,0,0,.011.118l.011.059.022.111a4.929,4.929,0,0,1-.048.56,4.843,4.843,0,0,0-.048.563v.2a1.557,1.557,0,0,0,.044.343.038.038,0,0,1,.015.033v.007a.261.261,0,0,1,.052.169.74.74,0,0,1-.011.125c.007.077.011.151.011.229a3.708,3.708,0,0,1-.025.405,3.828,3.828,0,0,0-.026.409c0,.055,0,.107,0,.158.011.129.011.254.015.379v.166a.55.55,0,0,1,.015.14,1.858,1.858,0,0,1-.019.254c-.007.052-.015.1-.021.158a1.414,1.414,0,0,0-.022.25c0,.1.008.191.015.284v.007c.008.07.012.129.015.188a.229.229,0,0,0,.015.07.157.157,0,0,1,.016.074.087.087,0,0,1-.019.059.93.93,0,0,1,.021.2,2.124,2.124,0,0,1-.029.317v.041a.678.678,0,0,1,.011.173.618.618,0,0,1-.029.184.27.27,0,0,1,.008.059.56.56,0,0,1-.029.151.778.778,0,0,0-.026.155.275.275,0,0,0,.029.114l.012.07,0,.041a5.594,5.594,0,0,1,.037.663c0,.24-.011.479-.025.7v.372a6.291,6.291,0,0,1,.04.744c0,.287-.015.582-.029.866v.011c-.007.21-.019.431-.022.652,0,.114-.015.229-.021.343v.007l-.015.158v.7a.566.566,0,0,1,.059.269.8.8,0,0,1-.085.332,1.635,1.635,0,0,0-.125.634,1.363,1.363,0,0,1-.011.169.246.246,0,0,1,.048.169.413.413,0,0,1-.008.1c0,.029,0,.063,0,.092v.037l.015.247a.114.114,0,0,1,.044.077.153.153,0,0,1-.056.092.627.627,0,0,0-.036.052c-.041.077-.081.162-.118.24v.011l-.044.1v.041a.284.284,0,0,1-.056.177c0,.066,0,.14.008.2v.007a2.461,2.461,0,0,0,.048.494.093.093,0,0,0,.055,0,.09.09,0,0,1,.063.011.047.047,0,0,1,.012.052.039.039,0,0,1,0,.026,1.226,1.226,0,0,0,0,.169v.151l-.011.033-.008.063-.011.25v.081l0,.037a.141.141,0,0,0-.036.107v.048a.16.16,0,0,1-.012.07v.066a.063.063,0,0,1-.04.063c-.008,0-.029-.026-.052-.052l-.025-.029-.045.041-.018.018-.052.048v.081l0,.085c.019.011.037.019.06.03l.033.011.021.011s.012-.011.016-.015c.021-.015.048-.037.059-.03s.007.008.007.011c0,.022.016.044.019.07a.428.428,0,0,1,.029.136.194.194,0,0,1-.077.155l0,0a.327.327,0,0,1,.056.217v.048l-.008.026v.35l0,.387a.141.141,0,0,1,.019.066.536.536,0,0,1-.015.066.385.385,0,0,0-.008.066v.011a.3.3,0,0,1,.008.059.741.741,0,0,1-.03.166v.011a.157.157,0,0,1-.015.044v.007a.131.131,0,0,1,0,.055v.055a.142.142,0,0,0,.06.114.174.174,0,0,1,.121.018.067.067,0,0,1,.022.055.179.179,0,0,1-.008.048.184.184,0,0,1,.081.144.19.19,0,0,1-.055.122l.04.114a.141.141,0,0,1,.056.107.293.293,0,0,1-.033.114l.019.461.007.037c0,.018,0,.037.008.055a.107.107,0,0,1-.052.1v.03l.011.14.008.122a.326.326,0,0,1-.1-.048c-.06-.037-.114-.07-.188-.018a.1.1,0,0,1-.059.1l-.008.188a.228.228,0,0,0,.147.085.249.249,0,0,0,.162-.085c.052-.055.1-.074.126-.066s.044.055.051.129c.03.07.06.14.1.207a.942.942,0,0,1,.147.416.424.424,0,0,1-.021.136.337.337,0,0,1,.015.081.159.159,0,0,1-.022.081.1.1,0,0,1,.008.037.245.245,0,0,1-.033.1.3.3,0,0,0-.033.081v.269a1.472,1.472,0,0,1,.077.49,2.076,2.076,0,0,1-.019.269.38.38,0,0,1,.008.1.5.5,0,0,1-.052.217,4.742,4.742,0,0,1,.14.825v0c.012.129.029.261.048.39l.015.21a.164.164,0,0,1,.026.1.422.422,0,0,1,0,.07v.041l.011,0a.2.2,0,0,1,.037.1v.011a.459.459,0,0,1-.033.125v.221a16.075,16.075,0,0,1-.088,1.621l-.048.49v.029a7.186,7.186,0,0,1-.048.741v.011c-.022.243-.049.5-.049.748v.1a.3.3,0,0,1-.036.114.179.179,0,0,0-.026.055l-.011.21a4.834,4.834,0,0,0-.089,1.028,6.019,6.019,0,0,1-.025.674v.052a1.357,1.357,0,0,0,.015.166c0,.03.011.063.011.1a.368.368,0,0,1,.041.21c0,.041,0,.081,0,.122a.726.726,0,0,0-.007.122v.033l-.03.158,0,.03-.019.1-.044.114-.019.048v.011l-.008.015-.019.037a.943.943,0,0,1-.1.379,1.128,1.128,0,0,0-.092.379v.048l0,.011-.011.022,0,.015v0l-.015.015-.022.206v.03l-.025.21-.022.181v.368l.012.519v.037a.281.281,0,0,1-.081.236v.295a.531.531,0,0,1-.07.3.879.879,0,0,1-.1.321,5.475,5.475,0,0,0-.088,1.042c0,.262.011.516.025.737a.161.161,0,0,1,.029.092.3.3,0,0,1-.015.1.238.238,0,0,0-.015.063l-.007.3v.052c0,.2,0,.453,0,.7a10.9,10.9,0,0,0,.052,1.212l-.022.7-.029.269-.011.088-.037.335-.015.129a.393.393,0,0,1,.059.221.981.981,0,0,1-.019.184v.019a.342.342,0,0,1,.008.063.167.167,0,0,1-.037.107l-.015.077-.015.1h.335l-.007.2v.063a.129.129,0,0,0-.037.107v.048a.248.248,0,0,1-.011.07v.066a.058.058,0,0,1-.045.063c-.007,0-.029-.022-.052-.048l-.025-.037-.048.048-.025.026-.041.037v.169l.037.019.04.018.026.011.015-.011c.021-.018.052-.037.063-.03s.008,0,.008.008a.6.6,0,0,1,.018.07.461.461,0,0,1,.056.144.179.179,0,0,1-.077.147l0,.008a.321.321,0,0,1,.055.217v.048l-.011.037v.729a.118.118,0,0,1,.019.07.382.382,0,0,1-.008.066c0,.019-.007.041-.011.063v.007a.207.207,0,0,1,.007.063.488.488,0,0,1-.029.166v.011c0,.015-.007.03-.011.041v.122a.126.126,0,0,0,.055.114.193.193,0,0,1,.126.022.073.073,0,0,1,.019.055.215.215,0,0,1,0,.048.184.184,0,0,1,.066.14.171.171,0,0,1-.056.122l.019.03v.015l0,.011.025.055a.128.128,0,0,1,.06.107.212.212,0,0,1-.033.114l.015.35v.144a.41.41,0,0,1,.019.055.113.113,0,0,1-.049.1l.019.291a.324.324,0,0,1-.1-.048c-.062-.037-.117-.074-.191-.022a.1.1,0,0,1-.055.1v.077c0,.041.007.085.011.133a.191.191,0,0,0,.269.011.269.269,0,0,0,.03-.033c.051-.052.092-.074.121-.063s.044.055.044.125a1.681,1.681,0,0,0,.107.214.918.918,0,0,1,.14.413.437.437,0,0,1-.022.14.188.188,0,0,1,.016.081.146.146,0,0,1-.022.077.147.147,0,0,1,.007.037.242.242,0,0,1-.032.1.273.273,0,0,0-.033.081v.269a1.614,1.614,0,0,1,.077.494,2.2,2.2,0,0,1-.015.265c0,.029.007.063.007.092a.464.464,0,0,1-.055.221,5,5,0,0,1,.14.825c.015.122.029.261.048.4l.019.21a.17.17,0,0,1,.025.1.5.5,0,0,1,0,.07v.041l.007-.007a.193.193,0,0,1,.037.107.389.389,0,0,1-.029.129l-.008.019v.206a15.953,15.953,0,0,1-.088,1.617l-.022.247-.025.243v.026c0,.25-.026.5-.049.748v.011c-.021.243-.048.5-.048.744v.1a.283.283,0,0,1-.036.114.356.356,0,0,0-.026.055l-.011.21a4.436,4.436,0,0,0-.089,1.035,5.922,5.922,0,0,1-.025.671v.055a1.291,1.291,0,0,0,.011.162c0,.03.012.066.015.1a.371.371,0,0,1,.045.2c0,.041,0,.081,0,.122s-.008.081-.008.122v.033l-.007.052v.022l-.008.041-.033.177-.1.225a1.007,1.007,0,0,1-.092.379,1.048,1.048,0,0,0-.1.379v.048l-.029.066v.007l-.008.081-.062.567v.306l.011.567v.041a.3.3,0,0,1-.081.236v.295a.585.585,0,0,1-.066.284.521.521,0,0,1-.059.225l-.007.019-.012.122-.011.122-.011.144-.016.147a.681.681,0,0,1,.037.232.935.935,0,0,1-.044.284,3.7,3.7,0,0,0-.033.5c.019-.033.063-.037.106-.041s.1-.011.114-.066l.1-.368a1.294,1.294,0,0,1,.085.475v.055a1,1,0,0,1,.029.236,2.488,2.488,0,0,1-.033.339,2.169,2.169,0,0,0-.029.339.936.936,0,0,0,.012.147v.018a.128.128,0,0,1-.041.092.1.1,0,0,1-.1.029.118.118,0,0,1-.106-.125v-.033a1.09,1.09,0,0,0,.018-.218,2.4,2.4,0,0,0-.114-.648l-.04-.151v.261a.157.157,0,0,1,.019.07.5.5,0,0,1-.019.1v.019c0,.048-.008.092-.011.133v.265c0,.214-.012.457-.012.7v.158h.1c.093-.081.159-.114.2-.1s.066.085.07.2v.328a2.216,2.216,0,0,0,.018.269,2.068,2.068,0,0,1,.016.269.833.833,0,0,1-.03.236c0,.044-.018.1-.04.1s-.029-.015-.048-.052a.444.444,0,0,1-.033-.155.3.3,0,0,1,.055-.173v-.033a.257.257,0,0,0-.055-.122.216.216,0,0,1-.052-.122.049.049,0,0,1,0-.033l-.015-.015-.011-.015-.008,0,0-.007-.015-.015h-.136l.015.225.011-.022c.052,0,.056.03.056.055v.022c0,.037,0,.074-.048.074h-.008l.015.144-.007.192,0,.173-.008.188v.007l-.007.147-.019.169-.037.35-.021.2v.033c.063.033.1.07.1.118a.125.125,0,0,1-.008.041.147.147,0,0,1,.037.026l0-.037a.549.549,0,0,1-.011-.088.184.184,0,0,1,.044-.122.5.5,0,0,0,.019-.081c.011-.074.021-.151.106-.151s.151.136.181.21a.784.784,0,0,1,.059.306,1.584,1.584,0,0,1-.018.191,3.268,3.268,0,0,0-.019.427v.188a1.224,1.224,0,0,1,.121.593,1.478,1.478,0,0,0,.06.46,1.134,1.134,0,0,1,.036.251,1.028,1.028,0,0,0,.012.114l.029.173a4.114,4.114,0,0,1-.048.56,4.569,4.569,0,0,0-.044.564v.2a1.358,1.358,0,0,0,.044.346.059.059,0,0,1,.015.033v.011a.23.23,0,0,1,.044.155.74.74,0,0,1-.011.125,1.632,1.632,0,0,1,.015.229,3.837,3.837,0,0,1-.029.409v0a3.836,3.836,0,0,0-.026.409,1.05,1.05,0,0,0,.008.158c.011.122.011.247.011.368v.173a.552.552,0,0,1,.015.14,1.417,1.417,0,0,1-.025.25c-.008.055-.015.107-.022.162a1.428,1.428,0,0,0-.021.254c0,.092.007.188.015.284v.007c0,.059.011.125.015.188a.4.4,0,0,0,.015.066.28.28,0,0,1,.015.073.1.1,0,0,1-.015.059,1.29,1.29,0,0,1,.019.2,2.536,2.536,0,0,1-.029.324v.037a.867.867,0,0,1,.018.166.513.513,0,0,1-.029.184.306.306,0,0,1,.008.059.7.7,0,0,1-.026.151.62.62,0,0,0-.029.155.25.25,0,0,0,.029.114v.044l.019.07a5.5,5.5,0,0,1,.041.663c0,.236-.015.472-.026.7v.368a6.919,6.919,0,0,1,.037.741c0,.291-.015.582-.025.869v0c-.012.217-.022.438-.026.656,0,.114-.015.232-.021.346v.015l-.015.147v.7a.636.636,0,0,1,.063.272.8.8,0,0,1-.078.335,1.582,1.582,0,0,0-.125.637c0,.059-.007.114-.011.166a.291.291,0,0,1,.048.166.369.369,0,0,1-.008.092c0,.033,0,.063,0,.1a.059.059,0,0,0,0,.037v.052l.011.2a.117.117,0,0,1,.04.077.135.135,0,0,1-.048.088.258.258,0,0,0-.044.052c-.04.081-.081.162-.118.239l0,.015-.045.092v.044a.269.269,0,0,1-.059.173c0,.07.007.136.007.206v.011a1.389,1.389,0,0,0,.016.254l.007.007-.011.011a1.293,1.293,0,0,0,.037.214.093.093,0,0,0,.055,0,.112.112,0,0,1,.063.011.048.048,0,0,1,.015.044v.026c0,.059-.007.114-.007.169v.151l-.008.037v.015l0,.026v.133h-.356c.029.3.048.615.048.928,0,.188-.008.379-.019.575v.048a1.146,1.146,0,0,0,.007.158c0,.052.012.11.012.166a.521.521,0,0,1-.07.284l-.026.324v.044l-.015.166a.713.713,0,0,1,.037.232.944.944,0,0,1-.044.287,3.542,3.542,0,0,0-.033.567.376.376,0,0,0,.214.236h.077c.1-.085.158-.114.206-.1s.063.085.066.2v.332a2.451,2.451,0,0,0,.019.28v.007a2.2,2.2,0,0,1,.019.265.867.867,0,0,1-.029.236c0,.044-.022.089-.045.1s-.029-.015-.044-.048a.467.467,0,0,1-.033-.158.29.29,0,0,1,.056-.17v-.033a.28.28,0,0,0-.056-.125.242.242,0,0,1-.055-.122v-.033l0-.007-.015-.015,0,0-.022-.022h-.21a.118.118,0,0,1-.055-.111c0-.044-.012-.1-.062-.114-.008.181-.03.365-.049.542a5.616,5.616,0,0,0-.051.663,1.822,1.822,0,0,0,.162.807.143.143,0,0,0,.025.041.217.217,0,0,1,.044.118v.011c.063.029.1.07.1.118,0,.011,0,.026,0,.037l.036.026-.007-.037a.675.675,0,0,1-.008-.088.159.159,0,0,1,.041-.118c.007-.03.015-.055.019-.081.011-.074.021-.151.106-.155s.151.136.181.21a.821.821,0,0,1,.059.31,1.523,1.523,0,0,1-.015.188,2.723,2.723,0,0,0-.021.427v.188a1.253,1.253,0,0,1,.11.586,1.492,1.492,0,0,0,.059.46,1.137,1.137,0,0,1,.037.251.714.714,0,0,0,.011.114l.015.089.015.085a4.579,4.579,0,0,1-.044.556,4.225,4.225,0,0,0-.048.564v.2a1.4,1.4,0,0,0,.044.346.032.032,0,0,1,.015.029v.011a.236.236,0,0,1,.045.155.652.652,0,0,1-.012.125,1.492,1.492,0,0,1,.015.228,3.6,3.6,0,0,1-.029.409c-.015.136-.021.273-.025.409,0,.055,0,.107.007.158.012.125.012.254.015.376v.162a.816.816,0,0,1,.012.14,1.5,1.5,0,0,1-.026.254v0c-.007.052-.015.1-.019.155a1.246,1.246,0,0,0-.025.254c0,.092.008.188.015.284.008.07.011.133.015.2a.285.285,0,0,0,.029.088.167.167,0,0,1,.016.074.087.087,0,0,1-.019.059.984.984,0,0,1,.019.206,2.369,2.369,0,0,1-.03.321l0,.037a.878.878,0,0,1,.018.169.594.594,0,0,1-.029.181.342.342,0,0,1,.008.063.74.74,0,0,1-.026.151.7.7,0,0,0-.029.151.278.278,0,0,0,.029.118l.012.073,0,.037a4.808,4.808,0,0,1,.037.663c0,.236-.011.479-.021.7v.372a7.249,7.249,0,0,1,.036.744c0,.284-.015.578-.025.862v.008c-.011.206-.022.435-.026.659,0,.114-.015.228-.021.343v.019l-.015.144v.7a.637.637,0,0,1,.063.273.878.878,0,0,1-.077.335,1.52,1.52,0,0,0-.126.637c0,.059-.007.114-.011.169a.25.25,0,0,1,.044.162c0,.033,0,.066,0,.1a.794.794,0,0,0-.008.1v.037l.015.254a.107.107,0,0,1,.044.077.143.143,0,0,1-.051.088.254.254,0,0,0-.037.052c-.044.081-.081.166-.122.247l-.007.011-.041.1,0,0v.041a.251.251,0,0,1-.056.173c0,.07.008.14.008.206v.007a2.453,2.453,0,0,0,.048.49.094.094,0,0,0,.055.007.085.085,0,0,1,.066.007.076.076,0,0,1,.015.048v.026a.894.894,0,0,0-.007.169v.151l-.008.029v.011l-.007.055-.016.3v.052a.131.131,0,0,0-.036.107v.048a.219.219,0,0,1-.012.07v.066a.063.063,0,0,1-.044.066c-.007,0-.029-.026-.052-.052l-.025-.033-.033.03-.037.033-.011.015-.019.015,0,0-.015.011v.169l.107.048.015-.011c.019-.015.048-.033.063-.03s0,.007.007.011a.615.615,0,0,0,.019.07.451.451,0,0,1,.026.14.175.175,0,0,1-.078.151l.008,0a.36.36,0,0,1,.052.221v.044l-.012.041v.335l.019.391a.1.1,0,0,1,.019.07.184.184,0,0,1-.007.063.385.385,0,0,0-.008.066v.011a.306.306,0,0,1,.008.063.825.825,0,0,1-.03.166v.011a.138.138,0,0,1-.015.041v.114a.143.143,0,0,0,.06.118.155.155,0,0,1,.121.018.063.063,0,0,1,.022.055.235.235,0,0,1-.019.055.188.188,0,0,1,.081.144.2.2,0,0,1-.056.122l.015.022.037.077a.141.141,0,0,1,.056.11.3.3,0,0,1-.033.114l.019.457v.033a.473.473,0,0,1,.007.059.1.1,0,0,1-.048.1l.012.177.007.114a.3.3,0,0,1-.1-.048c-.059-.037-.114-.074-.187-.018a.1.1,0,0,1-.06.1l-.007.192a.237.237,0,0,0,.151.081.246.246,0,0,0,.162-.085c.051-.055.1-.074.125-.063s.048.052.052.125a1.925,1.925,0,0,0,.1.21.9.9,0,0,1,.141.416.594.594,0,0,1-.019.136.373.373,0,0,1,.015.081.172.172,0,0,1-.022.085.1.1,0,0,1,.008.033.243.243,0,0,1-.033.1.3.3,0,0,0-.033.081v.269a1.585,1.585,0,0,1,.077.494,2.124,2.124,0,0,1-.019.269.728.728,0,0,1,.008.092.454.454,0,0,1-.056.221,5.194,5.194,0,0,1,.144.829v0c.012.129.026.261.045.39l.018.21a.2.2,0,0,1,.026.1.422.422,0,0,1,0,.07v.044l.011-.011a.153.153,0,0,1,.037.1v.011a.368.368,0,0,1-.029.125v.218c0,.479-.029.995-.089,1.621l-.048.49v.03c0,.247-.025.5-.048.744v.008c-.021.243-.048.494-.048.748v.092a.317.317,0,0,1-.036.114.354.354,0,0,0-.026.055l-.011.21a4.61,4.61,0,0,0-.089,1.028,6.015,6.015,0,0,1-.025.674v.052a.866.866,0,0,0,.015.166.726.726,0,0,0,.011.1.363.363,0,0,1,.048.2.726.726,0,0,1-.007.122c0,.041-.008.081-.008.122v.033l-.019.11-.007.044v.033l-.019.1-.041.081-.021.055-.022.052-.025.063a1.05,1.05,0,0,1-.1.379,1.012,1.012,0,0,0-.1.379v.044l-.012.033-.015.044-.021.188-.045.387v.022l0,.048v.368l.007.494v.041a.281.281,0,0,1-.081.236v.295a.53.53,0,0,1-.07.3.875.875,0,0,1-.1.317,5.531,5.531,0,0,0-.089,1.043c0,.265.012.523.026.737a.246.246,0,0,1,.033.1,1.039,1.039,0,0,1-.019.1.164.164,0,0,0-.015.063l-.008.3v.048c0,.2,0,.457,0,.7a11.328,11.328,0,0,0,.052,1.208v.007l-.022.7-.032.291-.03.265-.029.265a.4.4,0,0,1,.06.221,1.121,1.121,0,0,1-.019.192v.022a.354.354,0,0,1,.007.059.161.161,0,0,1-.037.107l-.081.431-.036.169a.651.651,0,0,1,.015.144.736.736,0,0,1-.008.133c0,.044,0,.1,0,.136a.732.732,0,0,0,.025.2.64.64,0,0,1,.04.217.663.663,0,0,1-.062.269v.085a.139.139,0,0,1,.041.111v.125l.019.291.007.166.012.166a.373.373,0,0,1,.032.155.619.619,0,0,1-.007.085l.011.052a1.013,1.013,0,0,1,.056.273.428.428,0,0,1-.033.169.19.19,0,0,0-.033.107.432.432,0,0,0,.011.1l.012.088a.157.157,0,0,1-.016.074l.016.254v.052l.048.3.011.081.037.236a.264.264,0,0,1,.021.107v.011a2.643,2.643,0,0,1,.033.42c0,.129-.015.261-.025.394l-.752-.033h-.015c-.331-.015-.674-.033-1.013-.041-.177,0-.357-.019-.534-.033h-.015l-.24-.022h-1.09a.914.914,0,0,1-.42.1,1.238,1.238,0,0,1-.523-.122,2.458,2.458,0,0,0-.987-.2l-.266-.015a.419.419,0,0,1-.254.073.633.633,0,0,1-.147-.011c-.048,0-.1-.007-.147-.007h-.059l-.395.022a.17.17,0,0,1-.118.063.228.228,0,0,1-.14-.074.3.3,0,0,0-.077-.059c-.126-.066-.255-.129-.376-.184h-.019l-.147-.074h-.066a.367.367,0,0,1-.269-.085c-.11,0-.222.011-.317.011h-.015a4.117,4.117,0,0,0-.766.073.149.149,0,0,0,0,.092.2.2,0,0,1-.015.1.094.094,0,0,1-.074.022h-.04c-.089-.008-.177-.011-.266-.011h-.232l-.051-.011-.1-.018-.387-.019h-.181a.23.23,0,0,0-.166-.052h-.073a.385.385,0,0,1-.111-.019h-.1a.1.1,0,0,1-.1-.07c0-.011.04-.048.077-.077l.052-.041a.714.714,0,0,1-.059-.066l-.033-.03-.078-.085h-.125l-.133.011a.805.805,0,0,0-.04.085l-.022.041-.011.026.019.026c.025.033.055.077.048.1a.063.063,0,0,1-.015.011.594.594,0,0,0-.11.029.74.74,0,0,1-.218.044.28.28,0,0,1-.232-.122l-.007.008a.5.5,0,0,1-.339.081h-.078l-.04-.008h-.542l-.6.008a.224.224,0,0,1-.11.029c-.033,0-.066-.007-.1-.015a.873.873,0,0,0-.1-.015h-.011a.461.461,0,0,1-.1.011.883.883,0,0,1-.258-.048h-.015a.145.145,0,0,1-.066-.019h-.015a.33.33,0,0,1-.085,0h-.081a.2.2,0,0,0-.181.088.268.268,0,0,1-.029.192.112.112,0,0,1-.089.033.275.275,0,0,1-.073-.011.292.292,0,0,1-.222.125.292.292,0,0,1-.187-.088l-.17.085a.206.206,0,0,1-.165.081.39.39,0,0,1-.181-.048l-.711.029-.056.007a.406.406,0,0,1-.092.011.163.163,0,0,1-.147-.074h-.044l-.222.011-.187.011a.614.614,0,0,1,.073-.147c.06-.092.111-.181.03-.291-.063-.011-.13-.015-.159-.088l-.294-.011a.343.343,0,0,0-.126.236.359.359,0,0,0,.129.25c.081.081.118.147.1.192s-.085.074-.2.085a2.584,2.584,0,0,0-.324.147,1.4,1.4,0,0,1-.648.217.855.855,0,0,1-.214-.03.682.682,0,0,1-.125.019.255.255,0,0,1-.125-.033.142.142,0,0,1-.056,0,.353.353,0,0,1-.217-.059.617.617,0,0,0-.122-.048h-.42a2.448,2.448,0,0,1-.763.122,3.2,3.2,0,0,1-.42-.033.635.635,0,0,1-.147.015.755.755,0,0,1-.343-.088,7.24,7.24,0,0,1-1.282.217h-.011c-.2.022-.4.044-.6.074l-.324.029a.3.3,0,0,1-.162.037.516.516,0,0,1-.106,0h-.066l.011.022a.255.255,0,0,1-.146.055Zm-144.689-.77a.184.184,0,0,0,.044.007c.07.011.147.022.147.092a.58.58,0,0,1,.295-.177h-.066c-.107,0-.118-.041-.133-.225a.394.394,0,0,1-.379.284Zm150.223-.018h.019a.317.317,0,0,1,.073.015c.016,0,.03,0,.045.007.066.008.147.019.147.092a.574.574,0,0,1,.291-.181h-.066c-.1,0-.118-.041-.133-.221A.391.391,0,0,1-14505.752-3518.637Zm-2.486.018v0a.391.391,0,0,0,.063-.011l.011-.007h.008a.239.239,0,0,0-.048-.015h-.008a1.035,1.035,0,0,1-.206-.066A.227.227,0,0,0-14508.238-3518.619Zm-150.315,0a.33.33,0,0,0,.059-.011h.008l-.056-.015a.828.828,0,0,1-.2-.066.22.22,0,0,0,.188.088Zm111.207-.214.093.019a.109.109,0,0,1,.048.007c.066.007.147.018.147.092a.581.581,0,0,1,.294-.18h-.065c-.107,0-.118-.041-.133-.221a.4.4,0,0,1-.384.276Zm-2.486.019a.321.321,0,0,0,.059-.008h.012l-.06-.018a1.019,1.019,0,0,1-.206-.066A.228.228,0,0,0-14549.833-3518.811Zm-81.683,0a.135.135,0,0,1,.081-.107.647.647,0,0,1,.247-.081.439.439,0,0,0-.365.184h.019A.043.043,0,0,1-14631.516-3518.814Zm39.252-.2h.036a.124.124,0,0,1,.081-.107.646.646,0,0,1,.243-.085h0A.444.444,0,0,0-14592.264-3519.013Zm98.905-.21h.336a.074.074,0,0,1,0-.07c.018-.033.077-.033.146-.044h.033a.37.37,0,0,0-.125-.026.817.817,0,0,0-.166.026.52.52,0,0,1-.147.029.235.235,0,0,1-.113-.029.138.138,0,0,0,.018.063v-.007A.115.115,0,0,1-14493.358-3519.223Zm-150.312,0h.332a.08.08,0,0,1,0-.07c.019-.033.077-.033.147-.044h.033a.361.361,0,0,0-.126-.026,1.133,1.133,0,0,0-.162.026.567.567,0,0,1-.158.029.268.268,0,0,1-.114-.029.427.427,0,0,0,.026.063v-.007A.179.179,0,0,1-14643.67-3519.223Zm127.437-.026a.223.223,0,0,0,.029-.033.282.282,0,0,0-.059-.007Zm-150.318,0a.355.355,0,0,0,.033-.033.331.331,0,0,0-.06-.007A.149.149,0,0,0-14666.552-3519.249Zm.088-.074.011.007.008.007h.044l.126.019,1.131-.033a3.472,3.472,0,0,0-.553-.033h-.785Zm150.322,0,.012.007h.011l.056.007a.525.525,0,0,1,.1.015l1.128-.033a3.937,3.937,0,0,0-.553-.037h-.781Zm15.588,0c0,.007.008.015.012.019a.264.264,0,0,1,.191-.081.233.233,0,0,0-.11-.077.514.514,0,0,1-.166.029.484.484,0,0,1-.162-.026h-.059a.36.36,0,0,1-.107-.019c.008.007.008.019,0,.022s0,0-.007,0h0a.17.17,0,0,1-.088.048h.114a.623.623,0,0,1,.067,0A.619.619,0,0,1-14500.554-3519.319Zm-150.318,0c.007.007.011.015.019.019a.252.252,0,0,1,.188-.081.233.233,0,0,0-.11-.077.51.51,0,0,1-.166.029.488.488,0,0,1-.162-.026h-.059a.34.34,0,0,1-.107-.019v.011a.172.172,0,0,1-.088.048l0,.015h.106a.588.588,0,0,1,.065,0A.618.618,0,0,1-14650.872-3519.319Zm138.194,0,0,.007.052-.026a1.771,1.771,0,0,1,.435-.077.03.03,0,0,0-.025,0h-.011a2.949,2.949,0,0,1-.313-.026h-.1A.111.111,0,0,1-14512.678-3519.315Zm-1.378-.015-.019.022h1.253a.384.384,0,0,0-.251-.077h-.232a.608.608,0,0,1-.165.022h-.159A4.034,4.034,0,0,0-14514.056-3519.33Zm-148.937.015,0,.007h0l.051-.022a1.747,1.747,0,0,1,.436-.077h-.037a2.938,2.938,0,0,1-.317-.026h-.1A.109.109,0,0,1-14662.993-3519.315Zm-1.386,0,0,.007h1.238a.394.394,0,0,0-.254-.077h-.229a.642.642,0,0,1-.166.022h-.162C-14664.091-3519.356-14664.234-3519.337-14664.379-3519.315Zm152.806-.085.24.026.1.011h.008a.112.112,0,0,1-.008-.066h-.295Zm-150.318,0,0,0,.239.026a.857.857,0,0,1,.106.011.141.141,0,0,1-.007-.066h-.295A.187.187,0,0,1-14661.892-3519.4Zm157.86-.041,0,.007a.285.285,0,0,1,.055.015.212.212,0,0,1,.045.037.27.27,0,0,1,.21-.07h.147a.2.2,0,0,1-.045-.088.03.03,0,0,1-.025.007.04.04,0,0,1-.029-.011.306.306,0,0,1-.272.1C-14503.976-3519.448-14504-3519.444-14504.031-3519.444Zm-150.318,0,0,.007a.343.343,0,0,1,.063.015.151.151,0,0,1,.037.037.286.286,0,0,1,.214-.07h.147a.249.249,0,0,1-.048-.088.032.032,0,0,1-.026.007.05.05,0,0,1-.029-.011.3.3,0,0,1-.269.1C-14654.287-3519.448-14654.32-3519.444-14654.35-3519.444Zm49.942-.03,0,.007a.149.149,0,0,1,.022.059h.294a.221.221,0,0,0-.051-.063.425.425,0,0,1-.045-.048.851.851,0,0,1-.14.022.236.236,0,0,1-.11-.03A.129.129,0,0,0-14604.407-3519.474Zm46.579.03v.007a.122.122,0,0,0,.033-.03.166.166,0,0,0-.059-.011A.188.188,0,0,0-14557.828-3519.444Zm-9.435-.026h.018a.045.045,0,0,1-.021,0Zm9.52-.048.029.022.147.022h.022l1.127-.033a3.468,3.468,0,0,0-.553-.037h-.748a.052.052,0,0,1-.033,0h-.011Zm15.6.007a.2.2,0,0,0,.015.019.264.264,0,0,1,.188-.085.254.254,0,0,0-.11-.074.515.515,0,0,1-.166.03.5.5,0,0,1-.162-.026h-.06a.39.39,0,0,1-.106-.018s0,.011-.007.011l0,0v.007a.2.2,0,0,1-.088.048h.114a.605.605,0,0,1,.066,0A.6.6,0,0,1-14542.145-3519.511Zm-12.124,0-.008,0,.059-.026a1.779,1.779,0,0,1,.436-.077h-.033a2.949,2.949,0,0,1-.313-.026h-.106A.121.121,0,0,1-14554.269-3519.507Zm-1.386,0-.007,0h1.241a.367.367,0,0,0-.251-.074h-.229a.844.844,0,0,1-.165.018h-.162A3.322,3.322,0,0,0-14555.654-3519.507Zm58.361-.052,0,0h.037a.106.106,0,0,0-.048-.052C-14497.3-3519.588-14497.3-3519.573-14497.293-3519.559Zm-150.315,0,0,0h.033a.1.1,0,0,0-.045-.052A.216.216,0,0,0-14647.608-3519.559Zm94.434-.033.239.022h.11a.1.1,0,0,1-.011-.044h-.313Zm36.721.019h.069l-.062-.033h-.007Zm-150.315,0h.07l-.048-.022h-.012A.231.231,0,0,1-14666.77-3519.573Zm143.979-.055,0,0h.066a.124.124,0,0,0-.041-.055C-14522.776-3519.662-14522.784-3519.647-14522.791-3519.629Zm-150.315,0-.007,0h.066a.094.094,0,0,0-.037-.055A.15.15,0,0,0-14673.106-3519.629Zm18.145-.567a.484.484,0,0,0-.1.007l0,0a.547.547,0,0,0-.28.206c-.015.018-.037.041-.055.063a.434.434,0,0,1,.04.044l.011.015c.129.147.2.228.258.228s.118-.092.236-.295a.324.324,0,0,0,.044-.066.877.877,0,0,1,.074-.092.078.078,0,0,0,0-.037.33.33,0,0,0-.208-.078Zm150.216.007-.007,0a.564.564,0,0,0-.28.206.284.284,0,0,1-.056.063c.019.015.029.03.045.044.125.147.194.229.258.229s.117-.092.235-.295c.015-.022.033-.044.044-.063a.624.624,0,0,1,.074-.092v-.041a.346.346,0,0,0-.222-.077A.406.406,0,0,0-14504.746-3520.188Zm-53.3.42,0,0h.074l-.066-.033C-14558.045-3519.787-14558.049-3519.776-14558.049-3519.769Zm70.522-.464a.351.351,0,0,0-.007.059.558.558,0,0,0,.048.188.245.245,0,0,1,.069.055.1.1,0,0,1,0,.033.316.316,0,0,0,.1-.019,1.083,1.083,0,0,0,.081-.136v-.144a.248.248,0,0,1-.1-.037.264.264,0,0,0-.114-.038A.13.13,0,0,0-14487.526-3520.233Zm-136.108-.089a.168.168,0,0,1,.073-.107c-.121.011-.229.026-.343.033h.063A.315.315,0,0,1-14623.635-3520.321Zm-.387-.055.069-.018h-.059C-14624.011-3520.387-14624.015-3520.384-14624.021-3520.376Zm.67-.074h.045a.156.156,0,0,0,.106-.026A.5.5,0,0,1-14623.352-3520.45Zm113.171-.114v0a.118.118,0,0,0,.049-.011.084.084,0,0,0,.032-.022c-.055,0-.106-.008-.158-.011A.09.09,0,0,0-14510.181-3520.564Zm-150.314,0v0a.114.114,0,0,0,.048-.011.1.1,0,0,0,.033-.022c-.056,0-.107-.008-.158-.011A.085.085,0,0,0-14660.5-3520.564Zm151.711-.184a.141.141,0,0,0,.041.007.064.064,0,0,0,.044-.015h-.015A.458.458,0,0,0-14508.784-3520.749Zm-150.314,0a.129.129,0,0,0,.04.007.07.07,0,0,0,.044-.015h-.015A.446.446,0,0,0-14659.1-3520.749Zm-19.229-3.618v.044a.119.119,0,0,0,.019.07l-.019-.125Zm-.033-.309a.194.194,0,0,1-.048.144.121.121,0,0,1,.07.052v-.007c-.008-.066-.015-.14-.022-.217Zm-1.129-4.082c0-.006.01-.01.01-.019Zm.234-.63v0a.269.269,0,0,0-.048-.14A.5.5,0,0,1-14679.255-3529.388Zm-.118-.229a.146.146,0,0,0,0,.019.063.063,0,0,1,.041.015.407.407,0,0,0-.037-.041Zm192.562-2.781v.041l.012-.019v-.018l-.012-.022Zm-.254-1.849c.011,0,.022.011.033.015v-.041A.072.072,0,0,0-14487.065-3534.247Zm-192-2.958c.022.011.022.048.025.1v.019a.188.188,0,0,0,.019-.077.485.485,0,0,0-.019-.111.383.383,0,0,1-.018-.092.172.172,0,0,1,.018-.074.069.069,0,0,0-.036.011h0a.2.2,0,0,1-.041.015v.214a.056.056,0,0,1,.024-.006A.052.052,0,0,1-14679.067-3537.206Zm192.054-1.12v.008h.025l-.011-.008v-.029Zm.2-.1a.112.112,0,0,1,.025-.019c0-.007-.011-.015-.015-.022h0A.145.145,0,0,0-14486.818-3538.429Zm-.037-.571v.479a.016.016,0,0,1,0,.018v.007l.019-.007v-.007l.007-.007v-.03l.012-.081-.012-.726A2.269,2.269,0,0,0-14486.855-3539Zm-.019-1.477v.147a.5.5,0,0,1,.011.107v.1c0,.092.015.184.026.276v-.8A.269.269,0,0,0-14486.874-3540.477Zm-192.023.545a.079.079,0,0,0,.029-.03l-.029.011v0Zm192.061-.814-.015-.026a1.137,1.137,0,0,1-.048-.28v.022c0,.066-.008.133-.015.2v.066a.053.053,0,0,1,.021,0A.092.092,0,0,1-14486.837-3540.746Zm-.077-.818v.088l.018.033.016-.155.007-.07a.1.1,0,0,1-.033,0h-.007Zm-192.087-.781v.052a.38.38,0,0,1-.052.243s-.007.007-.011.007a.176.176,0,0,1,.052.125.192.192,0,0,0,.051-.07.3.3,0,0,1-.021-.11.32.32,0,0,1,.019-.1v-.037a.217.217,0,0,1,.011-.07.011.011,0,0,1-.015,0v0h0a.137.137,0,0,1-.029-.055Zm191.339.052a.057.057,0,0,0,.029-.048.067.067,0,0,0-.008-.03v0a.06.06,0,0,0-.015-.022Zm-.1-.991v.044a.064.064,0,0,0,.007-.026.087.087,0,0,0-.007-.026Zm1.359-.31a.741.741,0,0,1-.045.133.146.146,0,0,0,.07-.114.119.119,0,0,0-.019-.052Zm-192.577-.689c0,.011-.007.022-.011.037s-.011.018-.022.026a.184.184,0,0,1,.045.136v.1a.134.134,0,0,1,.055-.029.035.035,0,0,1,0-.015.048.048,0,0,1,.007-.022.21.21,0,0,1-.066-.173.3.3,0,0,0,0-.059Zm.276-.656c-.092.081-.144.129-.144.166s.06.077.188.151l.04.03a.313.313,0,0,1,.059.048h.026a.219.219,0,0,0,.052-.14.373.373,0,0,0-.015-.062l0,0a.346.346,0,0,0-.133-.181c-.011-.011-.025-.022-.037-.033A.161.161,0,0,1-14678.7-3544.939Zm-.792-.442a.412.412,0,0,1-.007.048c0,.008,0,.019-.008.026,0,.044-.011.1-.059.1a.346.346,0,0,1,.117.188v-.041c0-.07.026-.077.145-.088a.251.251,0,0,1-.188-.24Zm193.056-.136c0,.066-.022.074-.14.081v0a.257.257,0,0,1,.18.247l.012-.059a.1.1,0,0,0,0-.033c.007-.041.015-.092.059-.092a.391.391,0,0,1-.114-.191Zm-.914-.531a.194.194,0,0,0-.048.14.215.215,0,0,0,.008.07.337.337,0,0,0,.133.177l.04.037a.109.109,0,0,1,.029-.026l.008-.008c.1-.085.147-.129.147-.169s-.06-.074-.191-.147a.457.457,0,0,0-.041-.033v0a.384.384,0,0,1-.059-.044l-.012,0Zm.428-.306v.059l.011-.041a.076.076,0,0,1,.022-.026.179.179,0,0,1-.037-.062A.205.205,0,0,1-14486.922-3546.354Zm-.011-.09a.2.2,0,0,1,0-.054v-.092a.13.13,0,0,1-.056.03c.008,0,.008.007.008.015s0,.011,0,.018h0A.217.217,0,0,1-14486.933-3546.443Zm-192.569-.551,0,0c0,.011,0,.026.008.037l.007.007v.007c0-.011,0-.022.008-.033v0a.41.41,0,0,1,.044-.133A.155.155,0,0,0-14679.5-3546.995Zm1.363-.324a.044.044,0,0,0,.011.029v-.007c0-.018,0-.033,0-.048A.121.121,0,0,0-14678.139-3547.319Zm-.11-.921c0,.007,0,.018.007.03a.1.1,0,0,0,.015.022c0-.037.008-.07.008-.1A.058.058,0,0,0-14678.249-3548.24Zm191.323-.354a.556.556,0,0,1,.022.111.357.357,0,0,1-.022.1v.037a.19.19,0,0,1,0,.066h0a.178.178,0,0,1,.033.059v-.073a.392.392,0,0,1,.056-.24.063.063,0,0,0,.015-.011.165.165,0,0,1-.056-.122A.158.158,0,0,0-14486.926-3548.594Zm-192.09-.39-.008.066v.007a.066.066,0,0,1,.045-.007v-.188l-.022-.03Zm-.026-.825a1.129,1.129,0,0,1,.049.276.013.013,0,0,0,0-.015v-.007a1.7,1.7,0,0,1,.018-.2v-.066a.074.074,0,0,1-.081-.022h0Zm-.018-.133a.251.251,0,0,0,.051-.158v-.151a.351.351,0,0,1-.015-.107v-.1a1.708,1.708,0,0,0-.021-.272l-.015-.015Zm192.034-.682h0a.061.061,0,0,0,.033-.007v-.022A.06.06,0,0,0-14487.025-3550.624Zm-192.023-1.451-.008.007v.007l0,.033a.388.388,0,0,1-.008.066l.022.726a2.859,2.859,0,0,0,.021-.354v-.5Zm-.048-.059a.086.086,0,0,0,.022.019c0-.011,0-.026,0-.037Zm.206-.1.022-.037v-.007h-.022Zm192.027-1.183a.529.529,0,0,0,.019.107.47.47,0,0,1,.015.1.123.123,0,0,1-.019.074.1.1,0,0,0,.037-.015.082.082,0,0,1,.041-.015v-.214a.055.055,0,0,1-.048,0c-.019-.015-.022-.052-.026-.1v-.022A.2.2,0,0,0-14486.863-3553.416Zm-191.99-2.922v.026a.079.079,0,0,0,.033-.026.132.132,0,0,0-.033-.015v0Zm192.341-4.627v-.026a.024.024,0,0,1-.026-.007C-14486.527-3560.987-14486.524-3560.973-14486.513-3560.965Zm-.066-.077a.451.451,0,0,1-.052-.155A.3.3,0,0,0-14486.579-3561.042Zm-.969-5.073v.015l.025.225v-.033a.19.19,0,0,1,.048-.14.125.125,0,0,1-.073-.07Zm-.008-.088v-.055a.164.164,0,0,0-.011-.059Zm-191.32-2.841a.368.368,0,0,1-.052.243.078.078,0,0,0-.015.011.152.152,0,0,1,.056.122.15.15,0,0,0,.048-.07.4.4,0,0,1-.019-.111.349.349,0,0,1,.019-.1v-.037a.213.213,0,0,1,.008-.07l0,0,0,0h-.008a.342.342,0,0,1-.029-.059Zm-.5-3.043a.058.058,0,0,1-.007.033c0,.041-.012.092-.06.092a.366.366,0,0,1,.114.192v-.044c0-.066.026-.077.144-.085a.25.25,0,0,1-.177-.247h0Zm0-1.658a.119.119,0,0,0,0,.037v.007l.011-.037a.473.473,0,0,1,.045-.133A.141.141,0,0,0-14679.377-3573.746Zm.486-2v.073a.04.04,0,0,1,.029-.007v-.2l-.015-.015C-14678.88-3575.842-14678.887-3575.791-14678.891-3575.742Zm-.025-.822a1.475,1.475,0,0,1,.052.276v-.018a1.178,1.178,0,0,1,.015-.2v-.07a.074.074,0,0,1-.081-.022l0,0Zm-.019-.777v.645a.256.256,0,0,0,.052-.162v-.081a.188.188,0,0,1,0-.066.323.323,0,0,1-.015-.107v-.1a1.775,1.775,0,0,0-.033-.276h0Zm.011-1.492-.015.018-.011.1v.011l.019.729a1.91,1.91,0,0,0,.021-.357v-.508Zm191.983.247a.1.1,0,0,1-.029.026.353.353,0,0,1,.011.092.106.106,0,0,1-.011.066.132.132,0,0,0,.033-.015.11.11,0,0,1,.037-.015v-.188A.113.113,0,0,0-14486.94-3578.587Zm-192.031-.3,0,0c0,.007.012.011.019.018a.125.125,0,0,0,.008-.037A.078.078,0,0,0-14678.972-3578.889Zm.206-.122v.026l.022-.044h-.022v0Zm-.191-5.946v.011l0-.015Zm192.319-1.267v-.026a.06.06,0,0,1-.03-.011C-14486.656-3586.25-14486.649-3586.235-14486.638-3586.224Zm-.118-.232a.272.272,0,0,0,.048.14.481.481,0,0,1-.048-.144Zm-192.37-14.346v-.007a.276.276,0,0,0-.052-.147A.47.47,0,0,1-14679.126-3600.8Zm-.122-.228v.018a.047.047,0,0,1,.029.011c-.011-.011-.018-.026-.029-.037Zm192.312-1.286,0,.026.011-.015v-.018l-.007-.018Zm-.21-5.924h.025v-.022l0-.022Zm.206-.118.026-.019c-.008-.007-.012-.015-.016-.018h-.007A.119.119,0,0,0-14486.94-3608.359Zm-.04-.567v.5l.007-.007.012-.018.015-.1v-.011l-.012-.729A1.91,1.91,0,0,0-14486.98-3608.926Zm-192.013.1v.188a.094.094,0,0,0,.036-.03.345.345,0,0,1,.033-.03.4.4,0,0,1-.011-.092.122.122,0,0,1,.015-.07.079.079,0,0,0-.033.019h0A.1.1,0,0,1-14678.993-3608.83Zm191.99-1.5v.063a.531.531,0,0,1,.011.111v.1c0,.1.012.188.022.28v-.8a.232.232,0,0,0-.029.166h0Zm.052-.335-.022-.041a1.5,1.5,0,0,1-.048-.28v.026c0,.066-.007.133-.015.2v.07a.073.073,0,0,1,.027,0A.067.067,0,0,1-14486.951-3610.661Zm-.07-.917v.188l.011.019c.008-.055.012-.107.019-.155l0-.048v-.022c-.011,0-.022.008-.029,0h0Zm.49-1.953a.67.67,0,0,1-.044.133.131.131,0,0,0,.066-.114.17.17,0,0,0,0-.044v0Zm-.029-1.916c0,.066-.022.074-.141.085a.257.257,0,0,1,.181.247l.012-.063v-.029c.007-.044.015-.1.063-.1a.354.354,0,0,1-.114-.188Zm-.49-3.069a.267.267,0,0,1,.022.107.349.349,0,0,1-.019.1v.037a.192.192,0,0,1-.008.066h.008a.114.114,0,0,1,.029.059v-.074a.415.415,0,0,1,.059-.24l.015-.007a.167.167,0,0,1-.055-.125A.145.145,0,0,0-14487.051-3618.516Zm-191.276-2.487a.126.126,0,0,0,.019.07.947.947,0,0,1-.019-.107Zm-.033-.354a.2.2,0,0,1-.048.144.115.115,0,0,1,.07.048c-.008-.077-.019-.147-.022-.221Zm0-.059v-.041s-.007,0-.011-.007Zm-.895-4.657a.3.3,0,0,0-.052-.158A.522.522,0,0,1-14679.255-3626.072Zm-.118-.229c0,.007,0,.015,0,.019a.066.066,0,0,1,.037.015.3.3,0,0,0-.033-.041Zm192.562-2.774v.033l.012-.018v-.019l-.012-.018Zm-.254-1.857a.15.15,0,0,0,.033.018v-.044A.076.076,0,0,0-14487.065-3630.932Zm-192-2.955c.022.011.022.048.025.092v.022a.175.175,0,0,0,.019-.077.424.424,0,0,0-.019-.107.44.44,0,0,1-.018-.1.172.172,0,0,1,.018-.074.15.15,0,0,0-.036.015h0a.19.19,0,0,1-.041.015v.214a.056.056,0,0,1,.024-.006A.052.052,0,0,1-14679.067-3633.886Zm192.072-1.105,0-.015v-.033l-.022.041v.007l.015,0A.026.026,0,0,1-14487-3634.992Zm.18-.118.026-.022-.019-.018A.149.149,0,0,0-14486.815-3635.11Zm-.04-.571v.475a.022.022,0,0,1,0,.022v.007l.019-.011.011-.015v-.007l.008-.037.007-.063-.019-.729A2.316,2.316,0,0,0-14486.855-3635.681Zm-.019-1.481v.151a.5.5,0,0,1,.011.107v.1a2.2,2.2,0,0,0,.026.269v-.8A.262.262,0,0,0-14486.874-3637.162Zm-192.023.549a.12.12,0,0,0,.029-.03.046.046,0,0,0-.029.011v0Zm192.061-.811-.015-.033a1.328,1.328,0,0,1-.052-.276v.022a1.286,1.286,0,0,1-.015.2v.066a.074.074,0,0,1,.027-.005A.077.077,0,0,1-14486.837-3637.423Zm-.077-.822v.088l.018.03.016-.155a.385.385,0,0,1,.007-.066.049.049,0,0,1-.033,0h-.007Zm-192.087-.8v.07a.38.38,0,0,1-.052.243s-.007.007-.011.007a.176.176,0,0,1,.052.125.179.179,0,0,0,.051-.073.266.266,0,0,1-.021-.107.32.32,0,0,1,.019-.1v-.041a.2.2,0,0,1,.011-.066h-.008a.115.115,0,0,1-.029-.059Zm191.339.07a.057.057,0,0,0,.029-.048.1.1,0,0,0-.008-.033.058.058,0,0,0-.015-.022Zm-.1-.995v.048a.085.085,0,0,0,.007-.026.062.062,0,0,0-.007-.026Zm1.355-.324v0a.5.5,0,0,1-.052.133.141.141,0,0,0,.07-.114.076.076,0,0,0-.008-.041l0-.007v0Zm-192.584-.634c-.007.007-.015.019-.022.026a.184.184,0,0,1,.045.136v.092a.2.2,0,0,1,.055-.029.027.027,0,0,1,0-.015.027.027,0,0,1,.007-.018.213.213,0,0,1-.066-.177.263.263,0,0,0,0-.055h0C-14678.979-3640.953-14678.982-3640.942-14678.986-3640.927Zm.287-.693-.007.007c-.1.081-.144.125-.144.166s.055.074.188.151l.041.03a.231.231,0,0,1,.059.044h.025a.2.2,0,0,0,.048-.14.217.217,0,0,0,0-.066l0,0a.346.346,0,0,0-.133-.181.437.437,0,0,1-.037-.037C-14678.677-3641.638-14678.687-3641.631-14678.7-3641.62Zm-.8-.4c0,.011,0,.022-.008.033,0,.041-.011.092-.059.092a.379.379,0,0,1,.118.192v-.044c0-.066.025-.074.144-.085a.257.257,0,0,1-.185-.247Zm193.059-.184c.012.066-.015.077-.132.085a.257.257,0,0,1,.18.247v-.015l.008-.048v-.026c.008-.044.015-.1.059-.1a.388.388,0,0,1-.114-.188Zm-.906-.527a.218.218,0,0,0-.051.14.217.217,0,0,0,.011.07.323.323,0,0,0,.133.177.18.18,0,0,0,.04.037.276.276,0,0,1,.029-.029c.093-.081.145-.125.145-.162s-.052-.081-.181-.158a.446.446,0,0,0-.041-.03.384.384,0,0,1-.059-.044.03.03,0,0,0-.013,0A.031.031,0,0,0-14487.35-3642.729Zm.428-.306v.055l.011-.041a.053.053,0,0,1,.022-.026.182.182,0,0,1-.048-.136v-.092a.192.192,0,0,1-.056.029.019.019,0,0,1,.008.015.031.031,0,0,1,0,.018h0A.224.224,0,0,1-14486.922-3643.034Zm-192.576-.6v0l.011-.033a.559.559,0,0,1,.04-.133.143.143,0,0,0-.055.122h0C-14679.5-3643.661-14679.5-3643.65-14679.5-3643.635Zm1.359-.365a.044.044,0,0,0,.011.029v-.007c0-.018,0-.033,0-.048A.085.085,0,0,0-14678.139-3644Zm-.1-.892a.1.1,0,0,0,.015.022c0-.037.008-.07.008-.1a.059.059,0,0,0-.029.049C-14678.246-3644.913-14678.246-3644.9-14678.242-3644.891Zm191.316-.379a.265.265,0,0,1,.022.107.349.349,0,0,1-.019.1v.041a.342.342,0,0,1-.008.063h0a.18.18,0,0,1,.033.059v-.077a.4.4,0,0,1,.056-.24c.007,0,.011,0,.015-.007a.178.178,0,0,1-.056-.122A.182.182,0,0,0-14486.926-3645.271Zm-192.09-.394c0,.026-.008.052-.008.07a.063.063,0,0,1,.045,0v-.191a.078.078,0,0,1-.019-.03h0Zm-.044-.862v0l.015.033a1.031,1.031,0,0,1,.052.276v-.022a1.763,1.763,0,0,1,.015-.2v-.066a.071.071,0,0,1-.078-.026Zm0-.1a.261.261,0,0,0,.051-.162v-.147a.367.367,0,0,1-.015-.107v-.1a1.619,1.619,0,0,0-.033-.276h0Zm192.034-.685a.094.094,0,0,0,.033,0v-.026A.089.089,0,0,0-14487.025-3647.308Zm-192.023-1.452,0,0-.007.007v.03l-.012.077.022.729a2.882,2.882,0,0,0,.022-.357v-.5Zm-.048-.059a.092.092,0,0,0,.022.022c0-.015,0-.026,0-.041C-14679.078-3648.83-14679.09-3648.826-14679.1-3648.819Zm.206-.1.019-.03v-.007l-.019-.007Zm192.105-.018.021-.022.008-.011A.05.05,0,0,0-14486.785-3648.933Zm-.078-1.164a.535.535,0,0,0,.019.107.435.435,0,0,1,.015.1.123.123,0,0,1-.019.074.1.1,0,0,0,.037-.015.137.137,0,0,1,.041-.015v-.214a.055.055,0,0,1-.048,0c-.019-.015-.022-.052-.026-.1v-.019A.189.189,0,0,0-14486.863-3650.1Zm-191.99-2.925v.026a.057.057,0,0,0,.033-.026l-.033-.011v0Zm192.341-4.62v-.026a.029.029,0,0,1-.029-.011C-14486.531-3657.668-14486.524-3657.653-14486.513-3657.642Zm-.066-.081a.407.407,0,0,1-.052-.151A.278.278,0,0,0-14486.579-3657.723Zm.177-.74.011-.022.008-.011v-.007A.056.056,0,0,0-14486.4-3658.464Zm-1.146-4.329v.015l.025.214v-.03a.2.2,0,0,1,.044-.144.116.116,0,0,1-.069-.063Zm-.008-.092v-.059a.159.159,0,0,0-.011-.055A.717.717,0,0,0-14487.556-3662.885Zm-14.929-3.625h.081a.1.1,0,0,0-.04-.011A.078.078,0,0,0-14502.484-3666.51Zm-150.314,0h.077a.072.072,0,0,0-.04-.011A.061.061,0,0,0-14652.8-3666.51Zm151.708-.162.162.011a.1.1,0,0,0-.078-.044.172.172,0,0,0-.048.015l0,0A.084.084,0,0,0-14501.091-3666.672Zm-150.315,0,.158.011a.1.1,0,0,0-.077-.044.117.117,0,0,0-.048.015v0A.062.062,0,0,0-14651.406-3666.672Zm113.119-.133.181-.022h-.088A.2.2,0,0,0-14538.287-3666.8Zm.339-.037.351-.037h-.052a.293.293,0,0,1-.221-.074.172.172,0,0,1-.095.111Zm-140.614-.5a.767.767,0,0,0-.081.136.562.562,0,0,0,0,.081v.063a.22.22,0,0,1,.092.037c.066.03.129.063.2,0a.317.317,0,0,0,0-.059.5.5,0,0,0-.052-.192l0,0a.25.25,0,0,1-.066-.055.078.078,0,0,1,0-.03A.173.173,0,0,0-14678.562-3667.346Zm21.593,0c-.019.022-.029.044-.044.063a.572.572,0,0,1-.074.1v.037a.35.35,0,0,0,.222.081.5.5,0,0,0,.106-.015.543.543,0,0,0,.28-.206.8.8,0,0,1,.056-.063.425.425,0,0,1-.045-.048c-.125-.147-.2-.225-.258-.225S-14656.852-3667.542-14656.97-3667.343Zm150.2.155v.041a.345.345,0,0,0,.222.077.533.533,0,0,0,.106-.011.525.525,0,0,0,.276-.21l.055-.063a.15.15,0,0,1-.04-.044l-.011-.011c-.129-.147-.2-.229-.258-.229s-.118.089-.236.295a.7.7,0,0,0-.048.066l.008,0A.849.849,0,0,1-14506.772-3667.188Zm-96.758-.306.066.033a.071.071,0,0,1,0-.041h-.037Zm-35.214-.092a.105.105,0,0,0,.03-.055h-.066A.14.14,0,0,0-14638.744-3667.586Zm150.319,0a.144.144,0,0,0,.025-.052h-.066A.121.121,0,0,0-14488.425-3667.589Zm-130.527-.019v-.007a.2.2,0,0,1,.088-.048h-.114a.636.636,0,0,1-.372-.088l-.011-.022a.252.252,0,0,1-.191.085.233.233,0,0,0,.11.077.447.447,0,0,1,.17-.033.481.481,0,0,1,.158.03h.086A.361.361,0,0,1-14618.952-3667.608Zm11.66-.125a1.7,1.7,0,0,1-.431.077h.036a2.856,2.856,0,0,1,.31.026h.107a.123.123,0,0,1,.04-.136Zm93.405.085v-.011a.1.1,0,0,0-.011-.048h-.033A.12.12,0,0,0-14513.887-3667.648Zm-150.314,0a.2.2,0,0,0-.012-.052h-.036A.106.106,0,0,0-14664.2-3667.648Zm19.136-.007h.007v-.041l-.022.007h-.048Zm36.389,0h.316l.029-.015c-.088-.007-.169-.018-.243-.026l-.073-.007h-.033A.114.114,0,0,1-14608.677-3667.659Zm113.911-.007h.015v-.041l-.015.018h-.044Zm-112.069-.022v0h.229a.845.845,0,0,1,.166-.018h.162a3.41,3.41,0,0,0,.431-.033h-1.245A.4.4,0,0,0-14606.835-3667.689Zm99.267-.015a.032.032,0,0,1,.026-.007.031.031,0,0,1,.025,0v0a.323.323,0,0,1,.137-.086.325.325,0,0,1-.089.009h-.147A.144.144,0,0,1-14507.568-3667.7Zm-150.318,0a.026.026,0,0,1,.021-.007.043.043,0,0,1,.03,0l0,0a.323.323,0,0,1,.273-.1h.084l-.062-.015a.127.127,0,0,1-.037-.037.3.3,0,0,1-.213.074h-.147A.215.215,0,0,1-14657.887-3667.7Zm52.8-.048a3.522,3.522,0,0,0,.557.033h.784l-.011-.011-.029-.018-.147-.019h-.022Zm48.013.015a.166.166,0,0,0-.022-.052.149.149,0,0,1-.022-.059h-.294a.17.17,0,0,0,.051.063.537.537,0,0,1,.045.048.55.55,0,0,1,.136-.019h.02A.217.217,0,0,1-14557.072-3667.737Zm-37.226-.052h.041l.048.007-.026-.015h-.025Zm-9.409-.008v.008a.161.161,0,0,0,.059.007l-.025-.037A.087.087,0,0,0-14603.707-3667.8Zm93.476,0v-.011a.2.2,0,0,1,.088-.048h-.118a.617.617,0,0,1-.368-.088.1.1,0,0,1-.015-.022.257.257,0,0,1-.191.085.233.233,0,0,0,.11.077.447.447,0,0,1,.166-.033.487.487,0,0,1,.162.03h.084A.3.3,0,0,1-14510.231-3667.8Zm-150.478-.015h.059a.313.313,0,0,1,.1.015v-.011a.228.228,0,0,1,.093-.048h-.118a.629.629,0,0,1-.372-.088.058.058,0,0,1-.015-.022.251.251,0,0,1-.191.085.217.217,0,0,0,.117.074.422.422,0,0,1,.166-.033A.487.487,0,0,1-14660.709-3667.811Zm153.347.009a.331.331,0,0,1,.118-.009h.089l-.06-.015a.124.124,0,0,1-.04-.037A.276.276,0,0,1-14507.362-3667.8Zm8.795-.12a1.739,1.739,0,0,1-.435.077h.033a3,3,0,0,1,.313.026h.1a.112.112,0,0,1,.025-.122Zm-150.319,0a1.918,1.918,0,0,1-.435.081h.041a2.242,2.242,0,0,1,.313.022h.1a.13.13,0,0,1,.029-.125Zm148.931.089v.007h.294l.052-.026-.243-.022-.106-.011A.128.128,0,0,1-14499.956-3667.833Zm-150.315,0v.007h.295l.048-.026-.24-.022a.975.975,0,0,1-.1-.011A.116.116,0,0,1-14650.271-3667.833Zm152.161-.052h.231a.854.854,0,0,1,.166-.018h.162c.14-.007.284-.022.428-.041h-1.242A.39.39,0,0,0-14498.11-3667.884Zm-150.319,0h.236a.844.844,0,0,1,.165-.018h.162a4.046,4.046,0,0,0,.42-.041h-1.241A.4.4,0,0,0-14648.43-3667.884Zm130.207-.022a.642.642,0,0,0,.166-.022.565.565,0,0,1,.158-.026.194.194,0,0,1,.11.026.154.154,0,0,0-.019-.055.124.124,0,0,1-.025-.059h-.332a.074.074,0,0,1,0,.07c-.021.033-.077.037-.147.044h-.036A.287.287,0,0,0-14518.223-3667.906Zm-150.315,0a.784.784,0,0,0,.162-.022.574.574,0,0,1,.155-.026.2.2,0,0,1,.114.026.155.155,0,0,0-.022-.055.209.209,0,0,1-.022-.059h-.331a.08.08,0,0,1,0,.07c-.022.033-.077.037-.147.044h-.033A.287.287,0,0,0-14668.538-3667.906Zm173.5-.007h.007l-.015-.03h-.011l-.011-.007h-.045l-.125-.019-1.131.019a3.994,3.994,0,0,0,.553.037h.74a.057.057,0,0,1,.019,0A.061.061,0,0,1-14495.034-3667.914Zm-150.319,0h.012l-.019-.03-.022-.019h-.007l-.06-.007-.1-.015-1.131.033a4,4,0,0,0,.553.037h.74l.017,0A.046.046,0,0,1-14645.354-3667.914Zm150.371-.074v.007a.271.271,0,0,0,.055.007c-.007-.015-.019-.026-.025-.041A.157.157,0,0,0-14494.982-3667.987Zm-150.319,0a.192.192,0,0,0,.063.011.167.167,0,0,0-.037-.041A.213.213,0,0,0-14645.3-3667.987Zm9.409.007h.085l-.029-.019h-.025Zm-30.836-.044-.037-.033-.019-.007A.07.07,0,0,0-14666.729-3668.024Zm97.373-.129a.644.644,0,0,1-.243.085h.007a.448.448,0,0,0,.357-.184h-.04C-14569.271-3668.223-14569.3-3668.183-14569.355-3668.153Zm-45.184,0,0,0a.4.4,0,0,1,.38-.28l-.093-.022h-.048c-.066-.007-.147-.018-.147-.092a.563.563,0,0,1-.294.177h.088C-14614.562-3668.371-14614.553-3668.324-14614.539-3668.157Zm84.464-.188a.747.747,0,0,1-.246.081.445.445,0,0,0,.284-.106A.33.33,0,0,1-14530.075-3668.345Zm24.062-.225h.066c.1,0,.118.037.129.221h.008a.392.392,0,0,1,.379-.28l-.092-.018c-.015,0-.033,0-.048-.008-.066-.007-.147-.018-.147-.092A.554.554,0,0,1-14506.014-3668.57Zm-105.674.155a1.043,1.043,0,0,1,.207.066.231.231,0,0,0-.181-.107.21.21,0,0,0-.07.011h-.007Zm-44.445.066a.39.39,0,0,1,.372-.28h-.012l-.073-.015h-.041c-.069-.008-.147-.019-.147-.092a.567.567,0,0,1-.294.177h.066l.028,0C-14656.159-3668.56-14656.146-3668.513-14656.133-3668.348Zm126.121-.044a.286.286,0,0,0,.048-.055h-.012a.029.029,0,0,1-.025,0A.06.06,0,0,1-14530.012-3668.393Zm-123.284-.225h.007a1.073,1.073,0,0,1,.206.077.228.228,0,0,0-.181-.107.186.186,0,0,0-.062.007l-.011.011h-.008Zm150.289-.022.055.015a.77.77,0,0,1,.2.07.218.218,0,0,0-.177-.107A.253.253,0,0,0-14503.007-3668.639Zm-152.743.011Zm43.16,149.67h-.007a3.594,3.594,0,0,0-.527-.048,1.66,1.66,0,0,0-.232.015h-.025a.187.187,0,0,1-.147-.062.157.157,0,0,1-.044-.147.181.181,0,0,1,.2-.166h.052a1.741,1.741,0,0,0,.339.033,4.035,4.035,0,0,0,1-.181l.232-.062a.448.448,0,0,1,.073-.007c.106,0,.118.088.125.177s.015.162.1.177l.571.147a1.921,1.921,0,0,1-.737.129h-.084a1.582,1.582,0,0,1-.372.044A4,4,0,0,1-14612.59-3518.958Zm-3.095-.512c-.055,0-.114-.007-.118-.077a.092.092,0,0,1,.019-.055.1.1,0,0,1,.063-.022h.033a.387.387,0,0,1,.089.044l.029.018c-.007.077-.048.088-.085.088l-.015,0Zm-63.574-.1a.823.823,0,0,1,.029-.232c0-.041.019-.092.044-.092s.03.015.045.048a.405.405,0,0,1,.033.158.334.334,0,0,1-.033.133C-14679.182-3519.559-14679.222-3519.566-14679.259-3519.57Zm192.248-51.527a.049.049,0,0,1-.015-.037l0-.026a.169.169,0,0,1,.029-.055l.012-.022c.048.007.055.03.055.055v.022c0,.037,0,.077-.048.077A.049.049,0,0,1-14487.011-3571.1Zm.259-1.426a.122.122,0,0,1-.107-.129v-.033a1.069,1.069,0,0,0,.022-.218,2.433,2.433,0,0,0-.114-.645v0l-.041-.147a.314.314,0,0,1-.007-.052c0-.066.055-.074.11-.081s.1-.008.114-.063l.1-.368a1.237,1.237,0,0,1,.085.475v.055a1.026,1.026,0,0,1,.029.236,2.645,2.645,0,0,1-.029.339v0a2.059,2.059,0,0,0-.033.339,1.164,1.164,0,0,0,.011.151v.015a.135.135,0,0,1-.04.1.125.125,0,0,1-.082.03Zm-192.536-40.965v-.055a1.021,1.021,0,0,1-.026-.236,2.71,2.71,0,0,1,.029-.332v0a2.131,2.131,0,0,0,.03-.339.977.977,0,0,0-.008-.151v-.015a.114.114,0,0,1,.041-.1.1.1,0,0,1,.092-.03.113.113,0,0,1,.106.125.059.059,0,0,1,0,.037,1.437,1.437,0,0,0-.019.214,2.586,2.586,0,0,0,.114.645l.041.151a.2.2,0,0,1,.007.048c0,.07-.059.074-.113.081s-.107.007-.114.063l-.1.368A1.314,1.314,0,0,1-14679.288-3613.487Zm.339-2.594,0-.011v-.007c0-.037,0-.074.048-.077a.049.049,0,0,1,.037.015.07.07,0,0,1,.015.037v.022a.549.549,0,0,1-.029.059l-.012.015C-14678.945-3616.033-14678.949-3616.059-14678.949-3616.081Zm192.2-51.343a.361.361,0,0,1-.033-.155.281.281,0,0,1,.056-.169v-.033a.264.264,0,0,0-.056-.125.242.242,0,0,1-.055-.122v-.033l-.022-.026,0,0-.025-.026h-.21c-.045-.022-.052-.066-.06-.111a.158.158,0,0,0-.011-.059c.022,0,.041.008.059.008h.074l.048.022.066.026.258.026c0,.077.007.151.015.229v0a2.264,2.264,0,0,1,.019.269.869.869,0,0,1-.029.236c0,.044-.022.1-.045.1S-14486.73-3667.387-14486.745-3667.424Zm-59.064-.232a.426.426,0,0,1-.093-.044l-.025-.015c.007-.077.044-.088.081-.088h.037c.055,0,.117.007.117.077a.081.081,0,0,1-.021.055.085.085,0,0,1-.06.022Zm-4.152-.206c0-.081-.015-.162-.1-.177l-.575-.147a1.924,1.924,0,0,1,.737-.133h.084a1.4,1.4,0,0,1,.373-.044,3.513,3.513,0,0,1,.519.048h.008a4.189,4.189,0,0,0,.526.044,1.606,1.606,0,0,0,.232-.015h.029a.19.19,0,0,1,.144.063.186.186,0,0,1,.049.147.189.189,0,0,1-.2.169h-.056a1.65,1.65,0,0,0-.331-.041,4,4,0,0,0-1,.18h-.012l-.229.063a.28.28,0,0,1-.077.011h-.012C-14549.944-3667.692-14549.955-3667.777-14549.962-3667.862Zm62.948.085a.049.049,0,0,1-.012-.044v-.019a.123.123,0,0,1,.03-.059l.011-.019c.048,0,.055.03.055.055v.022c0,.037,0,.074-.048.077A.063.063,0,0,1-14487.014-3667.777Z" transform="translate(14680.967 3670.5)" fill="#ddd" stroke="rgba(0,0,0,0)" stroke-miterlimit="10" stroke-width="1"/>
</svg>
