<svg version="1.1" id="Layer_1" xmlns="http://www.w3.org/2000/svg" xmlns:xlink="http://www.w3.org/1999/xlink" x="0px" y="0px"
	 width="100%" viewBox="0 0 102 102" enable-background="new 0 0 102 102" xml:space="preserve">
<path fill="#315B6D" opacity="1.000000" stroke="none" 
	d="
M66.000000,103.000000 
	C56.979103,103.000000 47.958210,103.000000 38.530609,102.627106 
	C37.476372,101.820625 36.885094,101.226341 36.173042,100.977074 
	C20.078663,95.342995 9.039084,84.614464 3.200029,68.540291 
	C2.842808,67.556900 1.750359,66.840584 0.999999,66.000000 
	C1.000000,56.979103 1.000000,47.958210 1.372869,38.530342 
	C2.179088,37.475613 2.779408,36.884521 3.021314,36.171780 
	C8.722578,19.373852 20.231445,8.507955 36.872673,2.797719 
	C37.392826,2.619235 37.630589,1.617785 38.000000,1.000000 
	C47.020893,1.000000 56.041790,1.000000 65.476715,1.377629 
	C66.079491,2.018062 66.215744,2.438234 66.464485,2.521209 
	C83.119164,8.076938 94.696236,18.888023 100.798935,35.461189 
	C101.160957,36.444321 102.249527,37.159912 103.000000,38.000000 
	C103.000000,47.020893 103.000000,56.041790 102.627136,65.469650 
	C101.858070,66.362709 101.273582,66.787682 101.093056,67.343781 
	C95.671188,84.045525 84.426498,94.983208 68.071144,100.953957 
	C67.242249,101.256554 66.684166,102.300972 66.000000,103.000000 
M74.994919,75.035774 
	C73.758804,75.645699 72.528229,76.772232 71.285706,76.785576 
	C58.974094,76.917732 46.660343,76.831818 34.347588,76.890533 
	C31.435488,76.904411 30.101435,75.767387 30.116346,72.765663 
	C30.177517,60.452927 30.179317,48.139458 30.108194,35.826809 
	C30.090742,32.805584 31.423388,31.663494 34.337711,31.743828 
	C37.828587,31.840057 41.342075,31.921047 44.809170,31.605942 
	C45.911915,31.505718 46.897682,30.118399 47.936977,29.320049 
	C46.906670,28.521025 45.906471,27.081755 44.840950,27.031652 
	C39.694431,26.789671 34.529625,26.972847 29.372747,26.901228 
	C26.334471,26.859034 25.874744,28.689421 25.878841,31.129778 
	C25.904531,46.437904 25.914267,61.746143 25.873337,77.054199 
	C25.866411,79.644104 26.655937,81.126106 29.552864,81.116905 
	C45.193474,81.067238 60.835518,81.172195 76.472794,80.938141 
	C77.695251,80.919846 79.830681,78.784370 79.924995,77.512962 
	C80.317795,72.217705 80.219475,66.870857 79.984001,61.556992 
	C79.937126,60.499222 78.496582,59.503208 77.698692,58.478722 
	C76.897095,59.538403 75.487747,60.551529 75.402374,61.666073 
	C75.085396,65.804039 75.204292,69.975403 74.994919,75.035774 
M71.237801,31.902197 
	C70.611885,32.934090 70.151665,34.126877 69.332184,34.970810 
	C65.154556,39.273090 60.878506,43.479694 56.657188,47.739876 
	C56.339405,48.060585 56.180050,48.538280 55.969395,48.904179 
	C56.798664,50.057320 57.541851,51.090759 59.034985,53.167030 
	C64.567810,47.312603 69.526123,42.066074 75.364876,35.887936 
	C75.364876,42.286682 75.364876,47.487797 75.364876,52.818413 
	C77.269783,52.818413 78.551308,52.818413 79.823471,52.818413 
	C79.823471,44.069412 79.823471,35.522572 79.823471,26.912767 
	C70.791840,26.912767 62.139591,26.912767 53.258553,26.912767 
	C53.258553,28.421427 53.258553,29.818348 53.258553,31.633253 
	C59.178173,31.633253 64.826759,31.633253 71.237801,31.902197 
z"/>
<path fill="#000000" opacity="1.000000" stroke="none" 
	d="
M103.000000,37.531342 
	C102.249527,37.159912 101.160957,36.444321 100.798935,35.461189 
	C94.696236,18.888023 83.119164,8.076938 66.464485,2.521209 
	C66.215744,2.438234 66.079491,2.018062 65.945374,1.377629 
	C78.259949,1.000000 90.519905,1.000000 103.000000,1.000000 
	C103.000000,13.020000 103.000000,25.041342 103.000000,37.531342 
z"/>
<path fill="#000000" opacity="1.000000" stroke="none" 
	d="
M37.531342,1.000000 
	C37.630589,1.617785 37.392826,2.619235 36.872673,2.797719 
	C20.231445,8.507955 8.722578,19.373852 3.021314,36.171780 
	C2.779408,36.884521 2.179088,37.475613 1.372869,38.061687 
	C1.000000,25.740049 1.000000,13.480098 1.000000,1.000000 
	C13.020000,1.000000 25.041342,1.000000 37.531342,1.000000 
z"/>
<path fill="#000000" opacity="1.000000" stroke="none" 
	d="
M0.999999,66.468658 
	C1.750359,66.840584 2.842808,67.556900 3.200029,68.540291 
	C9.039084,84.614464 20.078663,95.342995 36.173042,100.977074 
	C36.885094,101.226341 37.476372,101.820625 38.061951,102.627106 
	C25.740049,103.000000 13.480100,103.000000 1.000000,103.000000 
	C1.000000,90.980003 1.000000,78.958656 0.999999,66.468658 
z"/>
<path fill="#000000" opacity="1.000000" stroke="none" 
	d="
M66.468658,103.000000 
	C66.684166,102.300972 67.242249,101.256554 68.071144,100.953957 
	C84.426498,94.983208 95.671188,84.045525 101.093056,67.343781 
	C101.273582,66.787682 101.858070,66.362709 102.627136,65.938309 
	C103.000000,78.259949 103.000000,90.519905 103.000000,103.000000 
	C90.980003,103.000000 78.958656,103.000000 66.468658,103.000000 
z"/>
<path fill="#2795C3" opacity="1.000000" stroke="none" 
	d="
M75.077209,74.584999 
	C75.204292,69.975403 75.085396,65.804039 75.402374,61.666073 
	C75.487747,60.551529 76.897095,59.538403 77.698692,58.478722 
	C78.496582,59.503208 79.937126,60.499222 79.984001,61.556992 
	C80.219475,66.870857 80.317795,72.217705 79.924995,77.512962 
	C79.830681,78.784370 77.695251,80.919846 76.472794,80.938141 
	C60.835518,81.172195 45.193474,81.067238 29.552864,81.116905 
	C26.655937,81.126106 25.866411,79.644104 25.873337,77.054199 
	C25.914267,61.746143 25.904531,46.437904 25.878841,31.129778 
	C25.874744,28.689421 26.334471,26.859034 29.372747,26.901228 
	C34.529625,26.972847 39.694431,26.789671 44.840950,27.031652 
	C45.906471,27.081755 46.906670,28.521025 47.936977,29.320047 
	C46.897682,30.118399 45.911915,31.505718 44.809170,31.605942 
	C41.342075,31.921047 37.828587,31.840057 34.337711,31.743828 
	C31.423388,31.663494 30.090742,32.805584 30.108194,35.826809 
	C30.179317,48.139458 30.177517,60.452927 30.116346,72.765663 
	C30.101435,75.767387 31.435488,76.904411 34.347588,76.890533 
	C46.660343,76.831818 58.974094,76.917732 71.285706,76.785576 
	C72.528229,76.772232 73.758804,75.645699 75.077209,74.584999 
z"/>
<path fill="#F3F5F6" opacity="1.000000" stroke="none" 
	d="
M70.856575,31.767725 
	C64.826759,31.633253 59.178173,31.633253 53.258553,31.633253 
	C53.258553,29.818348 53.258553,28.421427 53.258553,26.912767 
	C62.139591,26.912767 70.791840,26.912767 79.823471,26.912767 
	C79.823471,35.522572 79.823471,44.069412 79.823471,52.818413 
	C78.551308,52.818413 77.269783,52.818413 75.364876,52.818413 
	C75.364876,47.487797 75.364876,42.286682 75.364876,35.887936 
	C69.526123,42.066074 64.567810,47.312603 59.034985,53.167030 
	C57.541851,51.090759 56.798664,50.057320 55.969395,48.904179 
	C56.180050,48.538280 56.339405,48.060585 56.657188,47.739876 
	C60.878506,43.479694 65.154556,39.273090 69.332184,34.970810 
	C70.151665,34.126877 70.611885,32.934090 70.856575,31.767725 
z"/>
</svg>