<?xml version="1.0" standalone="no"?>
<!DOCTYPE svg PUBLIC "-//W3C//DTD SVG 20010904//EN"
 "http://www.w3.org/TR/2001/REC-SVG-20010904/DTD/svg10.dtd">
<svg version="1.0" xmlns="http://www.w3.org/2000/svg"
 width="930.000000pt" height="628.000000pt" viewBox="0 0 930.000000 628.000000"
 preserveAspectRatio="xMidYMid meet">

<g transform="translate(0.000000,628.000000) scale(0.100000,-0.100000)"
fill="#000000" stroke="none">
<path d="M0 3140 l0 -3140 4650 0 4650 0 0 3140 0 3140 -4650 0 -4650 0 0
-3140z m5665 1312 c11 -23 28 -45 37 -48 10 -3 18 -11 18 -19 0 -40 101 -115
155 -115 25 0 26 -2 23 -57 -4 -71 -14 -75 -98 -37 -55 24 -64 26 -100 15 -22
-6 -40 -15 -40 -19 0 -16 25 -32 51 -32 14 0 43 -14 64 -30 45 -36 74 -44 121
-37 36 6 54 -11 54 -52 0 -11 7 -26 15 -35 25 -25 17 -45 -35 -82 -28 -20 -53
-46 -56 -59 -3 -13 -14 -31 -25 -41 -14 -13 -16 -20 -8 -31 29 -34 105 -1 160
68 35 44 67 49 83 14 9 -20 103 -72 141 -77 17 -3 19 -10 17 -48 -2 -25 -12
-57 -23 -72 -10 -15 -19 -39 -19 -53 0 -14 -6 -34 -12 -45 -10 -16 -10 -23 4
-36 16 -16 18 -16 43 0 42 28 83 94 90 144 10 73 14 82 39 82 33 0 40 -12 70
-120 33 -116 61 -143 111 -106 19 14 19 15 2 34 -10 11 -22 44 -27 74 -4 29
-14 67 -21 84 -14 35 -7 64 16 64 17 0 29 -26 51 -104 7 -26 19 -55 28 -65 8
-9 18 -34 21 -56 4 -22 12 -45 17 -52 5 -7 7 -22 3 -34 -4 -12 -3 -31 3 -43 5
-11 13 -34 18 -51 8 -26 15 -30 48 -33 57 -5 62 8 26 71 -20 36 -37 85 -46
137 -8 49 -22 92 -36 110 -14 19 -24 53 -30 97 -7 60 -6 70 12 88 20 19 20 19
20 -2 0 -12 8 -27 19 -32 10 -6 21 -23 24 -38 3 -17 30 -52 66 -86 39 -37 61
-67 61 -81 0 -27 18 -46 44 -46 11 0 35 -14 53 -32 36 -35 49 -31 59 18 5 29
0 36 -70 99 -52 47 -77 77 -82 99 -17 80 -82 154 -125 143 -17 -5 -17 -2 6 25
14 16 25 34 25 39 0 17 40 9 78 -16 20 -13 62 -29 92 -36 30 -6 75 -24 99 -40
54 -35 61 -36 90 -5 l23 25 -35 14 c-19 8 -38 20 -41 26 -4 6 -25 15 -46 21
-22 6 -46 18 -52 26 -46 58 -68 74 -100 74 -58 0 -64 11 -45 70 9 29 14 56 11
62 -4 6 7 7 29 3 31 -6 37 -3 62 29 20 26 35 36 56 36 38 0 47 19 19 42 -31
25 -63 23 -98 -7 -49 -41 -72 -30 -72 36 0 24 6 32 30 40 17 6 30 17 30 24 0
21 -41 45 -65 39 -13 -3 -27 1 -34 10 -18 22 23 45 85 48 45 2 270 -7 419 -17
62 -5 172 -11 355 -20 80 -4 108 -10 117 -22 7 -9 11 -19 8 -22 -4 -7 -19
-148 -31 -281 -3 -41 -7 -88 -9 -105 -28 -285 -34 -348 -45 -485 -4 -63 -13
-158 -19 -210 -6 -52 -17 -176 -26 -275 -9 -99 -18 -200 -20 -225 -5 -48 -22
-225 -30 -300 -3 -25 -9 -94 -14 -155 -6 -60 -15 -159 -21 -220 -6 -60 -13
-126 -15 -145 -11 -108 -17 -168 -19 -190 -2 -14 -4 -51 -4 -82 -2 -63 -20
-91 -55 -83 -12 2 -47 7 -77 9 -55 5 -144 17 -275 35 -38 5 -106 12 -150 16
-44 3 -87 8 -95 10 -8 2 -69 9 -135 14 -66 6 -158 15 -205 20 -76 8 -147 15
-290 26 -25 2 -74 6 -110 9 -36 3 -99 8 -140 11 -91 6 -203 14 -290 21 -118
10 -184 14 -290 19 -58 3 -143 7 -190 10 -47 2 -152 7 -235 10 -331 13 -386
15 -525 21 -182 8 -1230 8 -1530 0 -275 -7 -497 -15 -610 -21 -47 -3 -148 -7
-225 -10 -77 -3 -167 -8 -200 -10 -33 -3 -94 -7 -136 -11 l-76 -5 -12 93 c-6
51 -13 118 -16 148 -2 30 -7 82 -11 115 -3 33 -7 83 -10 110 -2 28 -8 95 -13
150 -6 55 -12 127 -15 160 -14 169 -26 298 -31 318 -3 12 -7 56 -10 97 -2 41
-6 95 -9 120 -3 25 -11 101 -17 170 -13 160 -29 337 -34 375 -11 90 -28 263
-27 280 0 11 -4 45 -9 75 -5 30 -10 93 -11 140 l-3 85 48 7 c27 3 78 9 114 12
36 3 68 8 72 10 4 3 40 7 81 11 41 3 91 8 110 10 63 9 314 35 390 40 41 3 84
8 95 10 11 2 47 6 80 9 33 3 96 9 140 13 44 4 87 7 95 6 8 -1 47 2 85 7 39 5
112 12 164 15 52 3 104 7 115 10 12 2 79 7 151 10 71 4 132 8 135 10 3 2 64 6
135 9 248 12 310 16 375 21 71 5 293 15 460 20 384 12 535 17 537 19 1 0 190
1 420 1 l418 0 20 -43z m219 25 c56 -31 64 -48 43 -91 -9 -20 -24 -36 -32 -36
-24 0 -75 42 -92 75 -9 17 -25 40 -36 53 l-20 22 49 -1 c30 0 64 -9 88 -22z
m510 12 l167 -2 46 -45 c80 -80 92 -106 94 -202 3 -95 -7 -167 -26 -190 -7 -8
-16 -25 -19 -37 -4 -12 -33 -46 -65 -76 -99 -91 -226 -114 -361 -64 -84 31
-111 50 -133 94 -9 17 -23 33 -31 36 -21 8 -58 84 -54 110 1 12 -4 37 -11 54
-14 35 -13 54 13 148 20 73 78 163 108 170 30 6 91 11 99 8 4 -2 82 -3 173 -4z
m1261 -2779 c4 -7 -2 -9 -19 -4 -33 8 -35 -13 -2 -26 33 -12 41 -29 23 -47
-10 -10 -24 -13 -41 -9 -36 9 -33 27 4 20 18 -4 30 -2 30 4 0 5 -13 15 -30 21
-28 9 -38 29 -23 44 10 11 51 8 58 -3z m67 -22 l12 -33 13 33 c21 51 43 42 43
-18 0 -54 -19 -71 -21 -17 l-1 32 -13 -30 c-7 -16 -16 -30 -20 -30 -4 0 -13
14 -20 30 l-13 30 -1 -32 c-2 -54 -21 -37 -21 17 0 60 24 70 42 18z m-5122
-180 c61 -32 83 -66 88 -135 3 -48 0 -64 -20 -93 -28 -42 -98 -80 -148 -80
-45 0 -118 37 -144 73 -16 22 -21 44 -21 90 0 75 27 120 89 148 55 25 103 24
156 -3z m1065 -26 c37 -78 115 -261 115 -271 0 -13 -3 -13 -24 -5 -9 3 -25 26
-35 50 l-20 44 -69 0 -69 0 -20 -48 c-15 -34 -26 -48 -42 -49 -11 -1 -21 0
-21 3 0 7 109 262 126 296 18 34 35 28 59 -20z m205 23 c11 -28 -4 -70 -27
-79 -10 -4 -13 -1 -8 13 3 11 1 28 -6 39 -7 11 -9 27 -6 36 10 24 36 19 47 -9z
m199 14 c23 -8 31 -17 31 -35 0 -24 0 -24 -35 -7 -46 22 -90 9 -90 -27 0 -19
14 -33 58 -63 84 -55 99 -107 47 -159 -28 -27 -36 -30 -75 -25 -53 5 -75 21
-75 52 l0 23 38 -20 c45 -25 87 -19 98 14 5 18 0 28 -31 53 -114 91 -128 123
-76 176 32 31 59 36 110 18z m1120 0 c23 -8 31 -17 31 -34 0 -23 -1 -23 -31
-8 -69 35 -118 -23 -59 -68 93 -72 100 -80 100 -118 0 -20 -7 -46 -15 -58 -20
-28 -73 -38 -119 -23 -31 10 -36 16 -36 42 l0 29 26 -20 c31 -24 76 -27 94 -7
22 28 7 60 -45 93 -62 40 -75 58 -75 98 0 34 14 56 45 73 26 14 45 15 84 1z
m341 -14 c0 -10 -16 -15 -52 -17 l-53 -3 -3 -142 c-2 -134 -4 -143 -22 -143
-18 0 -20 9 -22 143 l-3 142 -52 3 c-37 2 -53 7 -53 17 0 17 48 21 173 17 66
-3 87 -7 87 -17z m447 4 c13 -5 23 -17 23 -29 0 -24 4 -24 -54 -4 -60 21 -106
12 -145 -27 -102 -102 16 -252 153 -195 48 20 46 20 46 -8 0 -21 -7 -26 -50
-36 -77 -18 -134 -6 -183 39 -37 35 -41 43 -45 98 -6 88 26 140 105 169 38 14
103 11 150 -7z m305 11 c46 -13 103 -76 112 -123 19 -104 -64 -197 -177 -197
-40 0 -88 23 -122 59 -28 30 -30 38 -30 106 0 71 1 75 35 110 49 51 108 65
182 45z m607 -1 c23 -8 31 -17 31 -35 0 -23 0 -24 -34 -7 -57 27 -110 -1 -86
-47 5 -10 30 -30 54 -44 55 -32 76 -60 76 -101 0 -63 -64 -98 -134 -74 -33 11
-42 19 -44 42 l-3 28 33 -21 c39 -23 67 -25 93 -6 30 21 10 59 -54 103 -62 44
-79 78 -59 120 13 28 50 53 79 53 9 0 30 -5 48 -11z m-4819 -14 c0 -12 -13
-15 -60 -15 l-60 0 0 -50 0 -50 60 0 c53 0 60 -2 60 -19 0 -17 -6 -20 -47 -17
-72 5 -73 3 -73 -81 0 -71 -1 -74 -22 -71 -21 3 -22 7 -23 138 -1 194 -8 180
86 180 64 0 79 -3 79 -15z m110 -120 c0 -151 -3 -146 80 -144 55 2 60 0 60
-21 0 -19 -14 -20 -182 -10 -5 0 -8 70 -8 155 l0 155 25 0 25 0 0 -135z m726
111 c35 -29 37 -87 6 -118 -20 -20 -20 -20 29 -93 27 -39 49 -75 49 -79 0 -4
-10 -6 -22 -4 -13 2 -39 28 -68 68 -37 52 -52 66 -76 68 l-29 3 0 -66 c1 -61
0 -65 -22 -65 l-23 0 0 155 0 155 64 0 c54 0 70 -4 92 -24z m184 -130 c0 -115
-3 -155 -12 -159 -34 -12 -38 3 -38 159 l0 154 25 0 25 0 0 -154z m286 138
c55 -26 79 -69 79 -139 0 -105 -56 -154 -182 -156 -37 -1 -76 -1 -85 0 -16 1
-18 16 -18 156 l0 155 86 0 c59 0 97 -5 120 -16z m990 -94 l42 -105 20 45 c10
25 30 73 43 108 21 56 27 62 49 60 21 -3 30 -17 67 -108 l42 -105 24 55 c13
30 32 79 42 108 16 42 23 52 42 52 22 0 23 -1 10 -32 -7 -18 -35 -88 -62 -155
-27 -68 -52 -123 -56 -123 -4 0 -9 6 -12 13 -3 6 -24 59 -47 117 -23 58 -44
109 -47 113 -3 5 -23 -35 -45 -90 -22 -54 -46 -114 -55 -133 l-14 -35 -65 158
c-35 88 -64 161 -64 164 0 2 10 3 22 1 18 -2 30 -23 64 -108z m624 95 c0 -8
-8 -15 -17 -16 -10 0 -40 -1 -68 -2 l-50 -2 0 -50 0 -50 35 -2 c19 -1 47 -2
63 -2 17 -1 27 -7 27 -16 0 -11 -13 -15 -52 -15 -71 0 -80 -8 -76 -61 l3 -44
68 0 c62 0 67 -2 67 -21 0 -21 -4 -22 -82 -19 -46 1 -86 3 -90 4 -5 0 -8 71
-8 156 l0 155 90 0 c73 0 90 -3 90 -15z m1638 -110 c89 -199 85 -185 58 -185
-18 0 -27 10 -40 45 l-18 45 -72 0 -72 0 -15 -42 c-12 -31 -22 -44 -39 -46
-27 -4 -31 -17 48 171 73 176 76 176 150 12z m602 110 c0 -12 -13 -15 -55 -15
l-55 0 0 -140 c0 -133 -1 -140 -20 -140 -18 0 -20 8 -22 138 l-3 137 -52 3
c-38 2 -53 7 -53 18 0 11 23 14 130 14 109 0 130 -2 130 -15z"/>
<path d="M5717 3990 c-40 -28 -65 -39 -107 -43 -31 -3 -76 -14 -100 -25 -25
-11 -62 -27 -83 -36 -48 -20 -57 -43 -27 -68 25 -21 49 -17 91 14 16 12 55 23
100 29 49 6 99 21 147 44 45 21 89 35 113 35 33 0 41 4 55 31 21 42 10 51 -70
53 -62 2 -70 0 -119 -34z"/>
<path d="M6013 3780 c-12 -5 -24 -18 -28 -30 -4 -11 -28 -31 -54 -45 -46 -23
-61 -40 -61 -70 0 -15 26 -10 91 17 81 35 138 115 93 132 -9 3 -16 6 -17 5 -1
0 -12 -4 -24 -9z"/>
<path d="M2482 1482 c-86 -27 -114 -138 -50 -202 93 -94 249 0 208 125 -19 59
-96 96 -158 77z"/>
<path d="M3604 1397 l-22 -52 45 -3 c25 -2 47 -1 49 1 5 5 -39 106 -46 107 -3
0 -15 -24 -26 -53z"/>
<path d="M6175 1476 c-45 -20 -67 -50 -72 -98 -5 -53 11 -85 57 -116 79 -54
190 5 190 102 0 51 -27 92 -76 112 -41 17 -60 17 -99 0z"/>
<path d="M2797 1484 c-2 -5 -3 -22 -2 -39 2 -16 3 -38 4 -49 1 -15 6 -17 33
-12 41 8 58 23 58 51 0 12 -6 28 -13 34 -19 15 -73 25 -80 15z"/>
<path d="M3215 1478 c-3 -8 -4 -63 -3 -124 l3 -109 48 -1 c71 -3 128 30 146
82 13 36 13 47 0 79 -19 51 -52 72 -126 80 -50 6 -64 4 -68 -7z"/>
<path d="M6537 1419 c-33 -80 -33 -79 17 -79 53 0 55 6 22 70 l-24 45 -15 -36z"/>
</g>
</svg>
