<svg xmlns="http://www.w3.org/2000/svg" width="648.631" height="705.281" viewBox="0 0 648.631 705.281" preserveAspectRatio="none" xml:space="preserve">
  <path id="outdoor-mask_portraitmask2_" data-name="outdoor-mask(portraitmask2)" d="M646.03,649.592c-4.538-43.761-9.923-596.577-7.13-640.485-3.391-3.05-8.178-3.711-14.56-2.168-3.939-1.359-7.978-3.417-12.416-1.617-5.734-9.222-20.444-3.785-30.616-3.2-19.6,1.066-40.24-.551-59.836-.551-97.882,0-421.1,4.225-515.291,2.5C2.34,8.593.745,15.206,4.739,20.2,1.293,22.518-.951,27.956.4,32.035c9.624,7.973,6.532,24.1,7.28,37.625,1.8,32.26.7,551.163,2.693,582.982,1.2,18.408-1.3,35.861-.7,51.072,4.737,1.874,11.219,2.094,14.56.514,10.023-4.593-2.792-20.319,8.776-23.111,4.039,3.821-1.391,11.353,1.451,16.13,2.588.257,3.186,1.947,5.131,2.682,20.943-3.785,45.476-3.968,69.261-5.364,94.741-5.622,417.808.331,502.177-7.349,12.217,11.868,27.425.331,28.422-11.28,14.61-3.344,7.679-15.652,6.582-26.345M23.732,36.333c4.887,26.051,3.74,54.82,4.338,81.716-3.191-25.757-2.743-53.718-4.338-81.716M31.56,664.987c-5.829-5.107-2.892-13.632-3.64-20.943-1.1-10.251-3.49-21.752-2.942-32.26-.494-3.638,1.247-3.638.753,0,1.491,17.379,6.781,37.588,5.829,53.2M552.087,13.92c-64.324,7.606-368.592-4.042-437.9-.147,63.127-8.414,366.548-.808,437.9.147m-447.576,668.3a340.258,340.258,0,0,1-47.415,0c2.738-4.336,13.807-3.05,21.137-3.233,51.958-1.433,112.6-4.262,164.849-6.467-43.78,5.07-93,6.871-138.571,9.7m476.6-5.769c3.74-.514,14.76-3.013,20.394-2.131-3.889,2.866-12.815,1.984-20.394,2.131" transform="translate(0 0)" fill="#2b7b7c" fill-rule="evenodd"/>
</svg>
