<svg xmlns="http://www.w3.org/2000/svg" width="587.016" height="645.613" viewBox="0 0 587.016 645.613">
  <path id="_3024e690a2a879841606a9cf9e825ea3" data-name="3024e690a2a879841606a9cf9e825ea3" d="M584.663,594.636c-4.107-40.058-8.98-546.106-6.453-586.3-3.069-2.792-7.4-3.4-13.177-1.984-3.565-1.244-7.22-3.128-11.237-1.48-5.19-8.442-18.5-3.464-27.708-2.926-17.735.975-36.417-.5-54.152-.5-88.584,0-381.1,3.868-466.343,2.287C2.118,7.866.674,13.92,4.289,18.494,1.17,20.613-.86,25.591.358,29.324c8.71,7.3,5.912,22.064,6.589,34.441C8.571,93.3,7.578,568.3,9.383,597.427c1.083,16.851-1.173,32.827-.632,46.752,4.287,1.715,10.154,1.917,13.177.471,9.071-4.2-2.527-18.6,7.942-21.156,3.655,3.5-1.259,10.393,1.313,14.765,2.342.235,2.884,1.783,4.644,2.455,18.953-3.464,41.156-3.633,62.681-4.911,85.741-5.146,378.119.3,454.474-6.727,11.056,10.864,24.82.3,25.722-10.326,13.222-3.061,6.95-14.328,5.957-24.116M21.477,33.26c4.422,23.847,3.385,50.182,3.926,74.8-2.888-23.578-2.482-49.173-3.926-74.8m7.085,575.469c-5.275-4.675-2.617-12.478-3.294-19.172-.993-9.384-3.159-19.911-2.662-29.531-.447-3.33,1.128-3.33.681,0,1.349,15.909,6.137,34.408,5.275,48.7M499.643,12.743c-58.214,6.962-333.579-3.7-396.306-.135,57.131-7.7,331.729-.74,396.306.135M94.583,624.5a304.451,304.451,0,0,1-42.911,0c2.477-3.969,12.5-2.792,19.129-2.96,47.022-1.312,101.9-3.9,149.19-5.92-39.622,4.642-84.162,6.29-125.408,8.879m431.324-5.281c3.384-.471,13.358-2.758,18.457-1.951-3.52,2.623-11.6,1.816-18.457,1.951" transform="translate(0 -0.001)" fill="#c96a39" fill-rule="evenodd"/>
</svg>
