<svg xmlns="http://www.w3.org/2000/svg" width="721.239" height="544.25" viewBox="0 0 721.239 544.25">
  <path id="food-mask_portraitmask1_" data-name="food-mask((portraitmask1)" d="M855.175,544.249c3.043-3.664,4.809-9.357,2.781-14.134,2.519-1.7,4.581-6.347,4.188-10.077-5.366-7.819-17.134-375.659-16.054-387.667,2.486-28.628,4.548-54.8,6.871-83.069,1.341-16.391,4.973-31.572,6.281-45.052-2.879-2.061-7.034-2.781-9.422-1.7-7.034,3.239-.491,18.191-8.343,19.7-2.192-3.73,2.225-9.913.916-14.363-1.668-.458-1.865-2-3.01-2.814-14.1,1.6-30.067-.327-45.739-1.08C731.383.979,224,5.713,168.221,5.419,161.645-6.1,150.39,2.8,148.427,12.977c-9.881,1.734-6.773,13.185-7.263,22.706-2.061,39.035,11.867,449.535,5.029,488.076,1.865,2.977,4.908,3.959,9.259,3.141,2.388,1.538,4.809,3.7,7.885,2.454,2.683,8.637,12.858,5.071,19.565,5.431,12.858.687,26.076,3.861,38.868,5.529,63.668,8.212,572.323-5.487,633.406,3.936M172.933,17.59c2.846-2.192,8.6-.654,13.545-.16-2.519.128-9.946,1.436-13.545.16M811.8,20.315c-33.961-3.108-520.728.451-554.983-2,29.086-.785,508.3-4.41,538.264-3.036a161.678,161.678,0,0,1,30.852,3.992c-2.257,3.566-9.325,1.5-14.134,1.047m35.652,494c-.2-23.425-11.834-402.586-9.151-426.371-.851,23,11.278,401.506,9.151,426.371M840.561,55.421c-.458,9.128-.2,19.5-1.767,28.726-.065,3.239-1.21,3.108-.458-.065,1.014-15.475-.131-33.764,2.257-47.473,3.206,5.006.327,12.269-.033,18.812M203.219,526.8c42.761-1.276,537.217-2.575,582.792-.187-42.042,2.127-536.432,7.024-582.792.187" transform="translate(-140.954 0)" fill="#2b7b7c" fill-rule="evenodd"/>
</svg>
