<svg xmlns="http://www.w3.org/2000/svg" width="447.211" height="628.924" viewBox="0 0 447.211 628.924">
  <path id="arts-mask_portraitmask3_" data-name="arts-mask((portraitmask3)" d="M179.186,805.478c19.752-1.088,349.375.528,367.94,1.748,11.409.758,21.961,5.408,31.722,2.473,4.089-8.376,2.44-17.675,3.166-27.369,1.715-22.786.722-62.415,0-87.443-.2-6.958-.89-14.575-.56-21.8,2.176-48.407,4.5-221.248,4.663-265.995.033-16.52.857-32.975.659-49.231-.4-34.591-2.143-68.555-2.374-101.167-.1-10.651,1.055-21.236.989-31.359-.033-4.353-.792-8.8-.165-13.058.791-5.309,6.76-11.937,3.891-15.7-2.539-3.4-8.244-.231-11.178.725.033-5.606,1.682-10.717-.594-13.553-3.429-4.32-8.969-.462-13.52.132-7.485.923-15.333.165-23.247.462-14.542.561-336.182-.1-351.119.264-7.848.2-16.784,2.275-23.28.956-1.946-.4-4.419-2.968-7.518-3.363a49.806,49.806,0,0,0-9.167-.1c-9.761,1.319-6.4,10.552-5.639,20.444,1.451,18.6,2.341,33.6,4.056,51.474,1.715,17.938.956,35.514,1.451,53.749.165,5.738-.264,14.641,1.847,17.015,1.682,1.913,3.166-.033,4.715,1.748.594,26.776.4,55.662.2,82.173-.2,28.556-3.4,57.772-3.5,86.79-.066,24.3-1,172.346-1.4,198.528-.4,24.533,5.276,62.844,3.99,85.3-.264,4.781.659,11.08-.462,14.938-.854,3-6.067,5.837-5.012,10.816.462,2.209,5.21,5.309,8.837,5.375,3.136.1,5.411-3.067,8.474-3.825,3.429-.824,8.409-.956,12.135-1.154M555.808,195.925c.363-1.847,5.276-.594,6.3-.066-1.22,1.022-4.353-.1-6.3.066M575.23,519.54c-1.22-1.121-.923-4.254-.132-5.837,1.055,1.055-.066,4.023.132,5.837m.33-13.058c-1.088-.725,0-3.363-.2-4.847,1.055.758-.033,3.363.2,4.847m.33-5.276c-2.044-7.98-.264-18.1.264-27.534,1.616,7.65-.923,19.026-.264,27.534m.692-34.294c-2.473-3.528.066-8.738-.626-13.553,2.209,3.5.495,7.947.626,13.553m1.055-24.566c-.1,2.176-1.352,9.826-1.451,7.155.066-.791.132-1.616.165-2.407-.758-2.506.1-6.43.132-9.662,1.154.1,1.187,3.594,1.154,4.913m-.758-243.157c-2.407,22.819-.462,54.672-.989,77.26-1.946-19.026-4.616-44.582-2.638-65.884.4-4.353,2.044-7.815,3.627-11.376" transform="translate(-142.676 -181.736)" fill="#2b7b7c" fill-rule="evenodd"/>
</svg>
