<svg width="901" height="32" viewBox="0 0 901 32" fill="none" xmlns="http://www.w3.org/2000/svg">
<path d="M0.703491 30.4908V0.96081H900.313V30.4508C897.293 29.9808 894.933 29.4508 892.533 29.3108C889.733 28.8808 886.873 29.2708 884.293 30.4308C883.713 30.7508 882.133 30.3008 881.043 30.0908C879.463 29.7808 877.923 29.3608 875.973 28.8908L873.373 31.2808C861.623 30.8308 851.143 27.7008 840.073 30.1008L838.923 29.3608L837.113 30.2508C830.893 29.4108 825.753 28.5108 820.513 28.1108C817.833 27.9108 814.703 27.2508 812.203 29.0808C811.153 29.5108 809.983 29.5608 808.903 29.2108C805.783 26.4908 802.173 29.1008 798.843 28.6808C796.213 28.6708 793.573 28.8508 790.973 29.2208C787.423 29.3508 783.843 29.3408 780.293 29.2208C778.933 29.0408 777.603 28.7308 776.303 28.3008C774.333 29.7208 771.753 30.0108 769.513 29.0708C767.143 28.1008 764.563 27.7508 762.023 28.0708C757.903 27.9408 753.753 28.0308 749.773 28.0308L746.393 30.3708H740.573C740.133 29.5308 739.763 28.8208 739.173 27.7308L733.923 28.9008C730.193 28.5608 726.533 27.4308 724.963 28.2308C720.593 30.4708 714.983 27.7808 711.043 30.4408C710.233 30.6808 709.373 30.6208 708.613 30.2708C705.573 27.7508 702.933 30.2708 700.123 30.5608L696.513 28.2008C695.553 28.7108 694.503 29.0508 693.423 29.2108C687.183 29.2208 680.953 28.6908 674.803 27.6208C670.593 26.5908 666.643 27.5708 662.903 26.7108C661.133 26.0208 659.263 25.6208 657.363 25.5408C655.303 25.4308 653.233 25.4708 651.173 25.6508C648.893 26.1608 647.653 24.0308 645.143 25.0408C644.003 25.5008 641.753 24.4108 640.003 24.3808C637.203 24.2608 634.404 24.5808 631.703 25.3408C629.363 26.0308 625.823 24.6308 622.783 24.3908C621.413 24.3608 620.053 24.5908 618.773 25.0508C615.383 25.9208 611.823 25.8108 608.493 24.7408L607.443 25.4108L601.673 23.3008C595.503 26.1308 588.513 25.5808 581.663 25.5408C580.083 25.4108 578.523 25.1508 576.993 24.7608C575.503 25.1408 573.993 25.4008 572.453 25.5408C566.823 25.6408 560.743 24.6708 555.663 25.8308C550.183 27.0808 544.253 25.8108 539.163 27.9708C537.723 28.1508 536.263 28.1008 534.833 27.8108V23.3908L531.423 26.9908H523.053L522.143 28.8708L512.603 25.6608L502.983 30.5708L497.733 28.6608L499.403 27.3808L496.753 25.5508L495.073 28.0308L493.103 26.8508L490.893 30.1208V26.4008L495.913 23.0308C492.343 23.2508 490.073 22.9408 489.313 23.5408C488.033 24.7808 486.953 26.2208 486.103 27.7908H478.843L483.483 26.2408L482.993 24.0808L473.053 25.9208C472.643 26.8908 472.413 27.4408 472.333 27.6108C465.963 28.1908 460.013 29.1308 454.073 29.1708C447.803 29.1908 441.243 30.4408 435.183 28.0308L429.173 30.1608C425.383 29.7808 422.043 28.7108 420.703 29.4308C416.573 31.6408 413.203 30.0008 409.913 29.1608L407.383 30.5108C404.013 29.5908 400.703 27.7908 398.523 28.3008C395.023 29.1108 392.273 27.4908 389.203 28.0708C388.673 28.1108 388.143 28.2308 387.654 28.4308C384.813 29.8908 381.503 30.1408 378.483 29.1108C372.433 27.3408 366.404 28.4008 360.404 28.1408C358.563 28.2808 356.763 28.6608 355.013 29.2508C345.143 25.5208 335.193 31.1208 325.233 28.9608L324.464 25.5708L321.493 25.8208L322.803 27.6608L317.243 29.3708L312.663 26.5108L309.723 27.8608L308.263 27.1308C303.763 27.3608 299.273 27.8608 294.833 28.6208C290.493 29.6908 285.943 29.4808 281.723 28.0308L275.773 30.3208L272.413 28.1408C267.303 27.7608 262.174 28.3208 257.273 29.8108C255.964 30.1308 254.023 30.7708 253.313 30.4008C249.303 28.2808 244.813 29.6808 240.603 29.2608C236.453 28.5108 232.243 28.1708 228.033 28.2408C225.313 28.5108 223.103 25.6008 220.603 27.9708C217.773 25.7608 213.563 26.3308 210.053 25.8108C205.343 25.4508 200.623 25.3608 195.913 25.5408C194.543 25.3608 193.203 25.0308 191.893 24.5708C191.553 24.7808 190.914 25.5308 190.273 25.5308C181.373 25.6108 172.474 25.5308 163.573 25.6108C161.673 25.5208 159.793 25.1408 158.003 24.4908C155.773 23.8508 153.404 23.8908 151.193 24.6208C148.813 25.5608 146.223 25.8808 143.683 25.5408C139.243 25.6808 134.763 25.7308 130.333 25.5408C126.354 25.3608 122.414 26.9208 118.453 25.5908C114.544 27.4408 110.104 26.6908 105.833 26.8208C104.943 26.8508 103.753 26.5708 103.214 26.8708C98.9835 29.2308 94.3835 27.5608 90.1335 28.0808C89.7735 26.5108 89.5334 25.4708 89.2234 24.1208L85.4235 26.7508L79.7335 26.9308L74.5235 31.3308L73.2535 26.7508H66.8135C66.5835 24.5608 65.7635 23.5908 62.6935 25.0708L64.5334 27.4308L58.3735 30.3008C54.7635 27.7908 49.5035 30.3908 44.9435 28.6208C45.3935 27.9708 45.8535 27.3208 46.2935 26.6708C46.8035 25.9008 48.8535 25.7608 48.3235 24.5108C45.0235 24.2408 41.8335 23.8008 40.1535 26.3308L41.7735 27.7608L33.4535 29.5508L38.5035 25.8008C35.5235 25.2908 32.4535 25.5108 29.5835 26.4508L28.0635 25.5608C27.6735 26.3208 27.3035 27.0408 26.8335 27.9708H18.6135L10.7135 30.7808C7.42352 29.7008 4.06348 28.1908 0.703491 30.5108" fill="#4DBBBB"/>
</svg>
