<svg id="UI-right-arrow-default" xmlns="http://www.w3.org/2000/svg" xmlns:xlink="http://www.w3.org/1999/xlink" width="32.2" height="31.867" viewBox="0 0 32.2 31.867">
  <defs>
    <clipPath id="clip-path">
      <rect id="Rectangle_4" data-name="Rectangle 4" width="32.2" height="31.867" fill="#fff"/>
    </clipPath>
  </defs>
  <g id="Group_6" data-name="Group 6" clip-path="url(#clip-path)">
    <path id="Path_21" data-name="Path 21" d="M32.132,17.368c-.682,7.57-7.6,13.575-14.84,14.417-3.237.386-6.225-.652-9.064-2.072C5.211,27.609,2.3,24.7,1,21.156c-.073-.678.4.076.438.367A10.829,10.829,0,0,0,3.2,24.493C2.222,22.072.382,19.785.273,17.026c0-.149-.063-.165-.208-.2-.227-.138.222-.41.092-.588C-.33,10.276,3.929,3.279,9.7,1.961a.792.792,0,0,1-.065.047,1.691,1.691,0,0,1,.3-.148c-.25-.212,1.316-.736,1.487-.7a1.213,1.213,0,0,1-.7.4c-.078.014-.212.049-.248.122,1.7-.388,3.732-1.089,5.5-.648A10.187,10.187,0,0,1,17.439.728C15.922.26,15.163-.051,17.5.147A3.908,3.908,0,0,0,19.923,0c.59.192,1.192.268,1.785.421,2.369.876,4.06,2.772,5.938,4.339.3.142.076.547.443.606a10.079,10.079,0,0,1,2.046,4.347,17.721,17.721,0,0,1-2.1,15.994c1.55-1.446,2.665-4.388,3.189-6.523.65-2.338.107-4.852.239-7.2a9.46,9.46,0,0,1,.388,1.722c.485.417.35,2.963.285,3.662M13.289,29.2c-.046-.035-.09-.091-.139-.1-.81-.268-1.678-.3-2.465-.588a1.715,1.715,0,0,0-.974-.464c-.545-.1-1.043-.532-1.561-.627a7.684,7.684,0,0,0,5.14,1.784M2.322,9.886a9.979,9.979,0,0,0-1.2,7.383A15.249,15.249,0,0,1,3.378,8.795.314.314,0,0,0,3.4,8.686c-.634-.064-.77.78-1.078,1.2m1.645-2.05C5.881,5.226,8.8,3.848,11.715,2.691c-2.325.468-7.041,2.755-7.748,5.145" transform="translate(0 0)" fill="#fff"/>
    <path id="Path_22" data-name="Path 22" d="M60.864,49.381c-1.04-1.281,2.351,1.867,2.64,1.882.285.106.532-.239.835-.084.125.017.336-.214.447-.309a1.726,1.726,0,0,1,.656-.186c.051.1.081.228.227.117.343-.305.629.224.341.484-.219.238-.019.488-.023.775.183.021.731-.495.673-.142-.021.056-.086.123-.074.156.136.362-.195.5-.394.692-.027.277.229.024.329-.012.822.043-.542,1.549-.919,1.584a4.328,4.328,0,0,0-.613.359,58.075,58.075,0,0,1-13.91,6.461c-.394-.138-.773-.816-.495-1.208.049-.034.106.017.151.091.2.263.422-.017.512-.22.107-.191-.193-.126-.234-.269-.045-.322.459-.283.59-.536.038-.272-.263-.1-.409-.071,2.487-2.183,6.134-3.2,8.907-5.209-1.278-1.883-4.115-3.351-6.123-4.8a37.9,37.9,0,0,1-3.043-2.433c-.226-.114-.149-.394-.29-.557-.242-.237.275-.3.371-.477.191-.234.452-.183.7-.272-.248-.4.287-.454.531-.625.291.1.621,0,.885.244a.4.4,0,0,0,.51.065c.131-.078.239-.026.352.06A43.146,43.146,0,0,0,58.739,48.1c.424.092,3.531,2.727,2.125,1.282" transform="translate(-40.842 -37.945)" fill="#2b7b7c"/>
  </g>
</svg>
