<?xml version="1.0" standalone="no"?>
<!DOCTYPE svg PUBLIC "-//W3C//DTD SVG 20010904//EN"
 "http://www.w3.org/TR/2001/REC-SVG-20010904/DTD/svg10.dtd">
<svg version="1.0" xmlns="http://www.w3.org/2000/svg"
 width="512.000000pt" height="512.000000pt" viewBox="0 0 512.000000 512.000000"
 preserveAspectRatio="xMidYMid meet">

<g transform="translate(0.000000,512.000000) scale(0.100000,-0.100000)"
fill="#ffff" stroke="none">
<path d="M2415 4946 c-212 -41 -407 -168 -516 -336 -84 -129 -1825 -3310
-1850 -3380 -106 -297 -33 -617 192 -838 113 -112 258 -187 417 -218 110 -21
3694 -21 3804 0 331 64 580 313 644 644 26 137 13 282 -38 422 -37 102 -1828
3349 -1889 3426 -29 36 -79 88 -113 115 -74 61 -217 133 -306 154 -92 22 -260
28 -345 11z m288 -412 c57 -22 129 -75 168 -124 29 -37 1746 -3150 1808 -3280
34 -70 36 -81 36 -171 0 -90 -2 -99 -37 -171 -45 -91 -103 -147 -196 -191
l-67 -32 -1855 0 -1855 0 -67 32 c-93 44 -151 100 -196 191 -35 72 -37 81 -37
171 0 78 5 105 23 146 13 28 422 776 910 1664 595 1082 901 1629 929 1661 44
49 134 103 199 120 55 13 180 5 237 -16z"/>
<path d="M2469 3537 c-24 -13 -57 -43 -74 -66 l-30 -43 0 -668 0 -668 30 -43
c40 -56 95 -84 165 -84 70 0 125 28 165 84 l30 43 0 668 0 668 -30 43 c-38 54
-103 89 -165 89 -30 0 -63 -8 -91 -23z"/>
<path d="M2469 1537 c-24 -13 -57 -43 -74 -66 -26 -37 -30 -51 -30 -111 0 -60
4 -74 30 -111 40 -56 95 -84 165 -84 70 0 125 28 165 84 26 37 30 51 30 111 0
60 -4 74 -30 111 -38 54 -103 89 -165 89 -30 0 -63 -8 -91 -23z"/>
</g>
</svg>
