<?xml version="1.0" standalone="no"?>
<!DOCTYPE svg PUBLIC "-//W3C//DTD SVG 20010904//EN"
 "http://www.w3.org/TR/2001/REC-SVG-20010904/DTD/svg10.dtd">
<svg version="1.0" xmlns="http://www.w3.org/2000/svg"
 width="215.000000pt" height="210.000000pt" viewBox="0 0 215.000000 210.000000"
 preserveAspectRatio="xMidYMid meet">

<g transform="translate(0.000000,210.000000) scale(0.100000,-0.100000)"
fill="#000000" stroke="none">
<path d="M1120 2012 l45 -16 -35 -8 c-19 -5 -72 -9 -116 -8 -48 0 -122 -8
-178 -20 -53 -12 -100 -19 -105 -15 -5 3 -15 -1 -23 -8 -7 -8 -38 -22 -68 -32
-189 -61 -373 -240 -466 -454 -50 -116 -67 -199 -68 -331 -1 -149 14 -207 106
-390 40 -80 74 -149 76 -155 4 -12 -37 32 -61 65 -12 18 -15 19 -8 4 33 -70
173 -223 291 -317 167 -134 435 -212 636 -187 413 52 778 359 874 735 26 101
35 238 20 295 -6 25 -15 61 -20 80 -5 22 -8 -26 -8 -135 -1 -138 -4 -184 -21
-245 -37 -139 -118 -307 -171 -355 -25 -23 -26 -12 -1 23 41 58 103 198 127
285 31 115 42 305 25 427 -25 166 -105 389 -164 452 -14 15 -27 31 -28 36 -6
15 -179 160 -243 205 -101 69 -140 79 -311 82 -147 2 -149 2 -105 -13z m-350
-150 c-227 -106 -276 -137 -372 -231 -70 -67 -79 -71 -53 -22 39 76 213 194
364 247 76 27 113 31 61 6z m-472 -349 c-2 -5 -22 -46 -45 -93 -47 -94 -78
-212 -89 -335 -10 -116 -27 -61 -21 70 3 83 10 115 38 190 40 104 83 175 105
175 9 0 14 -3 12 -7z m377 -1145 c28 -11 55 -23 60 -28 6 -4 46 -16 90 -26 76
-18 78 -19 37 -22 -58 -4 -157 23 -219 60 -50 30 -73 59 -35 43 9 -4 40 -16
67 -27z"/>
</g>
</svg>
