<svg xmlns="http://www.w3.org/2000/svg" width="21.246" height="21.242" viewBox="0 0 21.246 21.242" width="24"
  fill="#fff" height="24">
  <path id="instagram-brands"
    d="M10.551,37A5.446,5.446,0,1,0,16,42.446,5.437,5.437,0,0,0,10.551,37Zm0,8.987a3.541,3.541,0,1,1,3.541-3.541,3.547,3.547,0,0,1-3.541,3.541Zm6.939-9.21a1.27,1.27,0,1,1-1.27-1.27A1.267,1.267,0,0,1,17.49,36.777ZM21.1,38.066a6.286,6.286,0,0,0-1.716-4.451A6.328,6.328,0,0,0,14.93,31.9c-1.754-.1-7.01-.1-8.764,0a6.319,6.319,0,0,0-4.451,1.711A6.307,6.307,0,0,0,0,38.061c-.1,1.754-.1,7.01,0,8.764a6.286,6.286,0,0,0,1.716,4.451,6.336,6.336,0,0,0,4.451,1.716c1.754.1,7.01.1,8.764,0a6.286,6.286,0,0,0,4.451-1.716A6.328,6.328,0,0,0,21.1,46.826C21.2,45.072,21.2,39.82,21.1,38.066ZM18.831,48.707a3.585,3.585,0,0,1-2.019,2.019c-1.4.555-4.716.427-6.261.427s-4.868.123-6.261-.427A3.585,3.585,0,0,1,2.27,48.707c-.555-1.4-.427-4.716-.427-6.261s-.123-4.868.427-6.261a3.585,3.585,0,0,1,2.019-2.019c1.4-.555,4.716-.427,6.261-.427s4.868-.123,6.261.427a3.585,3.585,0,0,1,2.019,2.019c.555,1.4.427,4.716.427,6.261S19.386,47.314,18.831,48.707Z"
    transform="translate(0.075 -31.825)" />
</svg>