<svg xmlns="http://www.w3.org/2000/svg" width="22.534" height="18.302" viewBox="0 0 22.534 18.302" width="24"
  height="24" fill="#fff">
  <path id="twitter-brands_1_" data-name="twitter-brands (1)"
    d="M20.218,52.643c.014.2.014.4.014.6a13.05,13.05,0,0,1-13.14,13.14A13.051,13.051,0,0,1,0,64.311a9.554,9.554,0,0,0,1.115.057,9.249,9.249,0,0,0,5.734-1.973,4.627,4.627,0,0,1-4.318-3.2,5.824,5.824,0,0,0,.872.071,4.885,4.885,0,0,0,1.215-.157,4.619,4.619,0,0,1-3.7-4.533v-.057A4.651,4.651,0,0,0,3,55.1a4.625,4.625,0,0,1-1.43-6.177A13.128,13.128,0,0,0,11.1,53.759a5.214,5.214,0,0,1-.114-1.058,4.623,4.623,0,0,1,7.993-3.16,9.092,9.092,0,0,0,2.931-1.115,4.606,4.606,0,0,1-2.03,2.545,9.259,9.259,0,0,0,2.66-.715A9.928,9.928,0,0,1,20.218,52.643Z"
    transform="translate(0 -48.082)" />
</svg>